%TF.GenerationSoftware,KiCad,Pcbnew,7.0.1*%
%TF.CreationDate,2023-04-28T19:57:16+03:00*%
%TF.ProjectId,leanometer_esp32,6c65616e-6f6d-4657-9465-725f65737033,R1*%
%TF.SameCoordinates,Original*%
%TF.FileFunction,Copper,L3,Inr*%
%TF.FilePolarity,Positive*%
%FSLAX46Y46*%
G04 Gerber Fmt 4.6, Leading zero omitted, Abs format (unit mm)*
G04 Created by KiCad (PCBNEW 7.0.1) date 2023-04-28 19:57:16*
%MOMM*%
%LPD*%
G01*
G04 APERTURE LIST*
G04 Aperture macros list*
%AMRoundRect*
0 Rectangle with rounded corners*
0 $1 Rounding radius*
0 $2 $3 $4 $5 $6 $7 $8 $9 X,Y pos of 4 corners*
0 Add a 4 corners polygon primitive as box body*
4,1,4,$2,$3,$4,$5,$6,$7,$8,$9,$2,$3,0*
0 Add four circle primitives for the rounded corners*
1,1,$1+$1,$2,$3*
1,1,$1+$1,$4,$5*
1,1,$1+$1,$6,$7*
1,1,$1+$1,$8,$9*
0 Add four rect primitives between the rounded corners*
20,1,$1+$1,$2,$3,$4,$5,0*
20,1,$1+$1,$4,$5,$6,$7,0*
20,1,$1+$1,$6,$7,$8,$9,0*
20,1,$1+$1,$8,$9,$2,$3,0*%
G04 Aperture macros list end*
%TA.AperFunction,ComponentPad*%
%ADD10C,1.524000*%
%TD*%
%TA.AperFunction,ComponentPad*%
%ADD11R,1.700000X1.700000*%
%TD*%
%TA.AperFunction,ComponentPad*%
%ADD12O,1.700000X1.700000*%
%TD*%
%TA.AperFunction,HeatsinkPad*%
%ADD13C,0.600000*%
%TD*%
%TA.AperFunction,HeatsinkPad*%
%ADD14C,3.200000*%
%TD*%
%TA.AperFunction,ComponentPad*%
%ADD15C,3.800000*%
%TD*%
%TA.AperFunction,ComponentPad*%
%ADD16R,1.350000X1.350000*%
%TD*%
%TA.AperFunction,ComponentPad*%
%ADD17O,1.350000X1.350000*%
%TD*%
%TA.AperFunction,ComponentPad*%
%ADD18C,1.000000*%
%TD*%
%TA.AperFunction,ComponentPad*%
%ADD19R,1.600000X1.600000*%
%TD*%
%TA.AperFunction,ComponentPad*%
%ADD20C,1.600000*%
%TD*%
%TA.AperFunction,ComponentPad*%
%ADD21C,1.500000*%
%TD*%
%TA.AperFunction,ComponentPad*%
%ADD22RoundRect,0.250000X0.625000X-0.350000X0.625000X0.350000X-0.625000X0.350000X-0.625000X-0.350000X0*%
%TD*%
%TA.AperFunction,ComponentPad*%
%ADD23O,1.750000X1.200000*%
%TD*%
%TA.AperFunction,ViaPad*%
%ADD24C,0.800000*%
%TD*%
%TA.AperFunction,ViaPad*%
%ADD25C,0.600000*%
%TD*%
G04 APERTURE END LIST*
D10*
%TO.N,+3V3*%
%TO.C,U8*%
X126873000Y-96520000D03*
%TO.N,GND*%
X129413000Y-96520000D03*
%TO.N,/MainBoard/I2C_SCL*%
X131953000Y-96520000D03*
%TO.N,/MainBoard/I2C_SDA*%
X134493000Y-96520000D03*
%TO.N,/MainBoard/IMU_INT*%
X144653000Y-96520000D03*
%TD*%
D11*
%TO.N,+3V3*%
%TO.C,J5*%
X114024000Y-84005000D03*
D12*
%TO.N,GND*%
X116564000Y-84005000D03*
%TO.N,/MainBoard/ADC_VBAT*%
X119104000Y-84005000D03*
%TD*%
D11*
%TO.N,/DisplayBoard/ADC_LDR*%
%TO.C,J1*%
X162846000Y-96490000D03*
D12*
%TO.N,/DisplayBoard/DISP_BRIGHT*%
X162846000Y-99030000D03*
%TO.N,/DisplayBoard/DISP_LATCH*%
X162846000Y-101570000D03*
%TO.N,/DisplayBoard/DISP_CLOCK*%
X162846000Y-104110000D03*
%TO.N,/DisplayBoard/DISP_DATA*%
X162846000Y-106650000D03*
%TO.N,GND*%
X162846000Y-109190000D03*
%TO.N,+3V3*%
X162846000Y-111730000D03*
%TD*%
D13*
%TO.N,GND*%
%TO.C,U2*%
X144172000Y-110679000D03*
X144172000Y-109279000D03*
X142816000Y-111989000D03*
X142816000Y-107925000D03*
D14*
X142141000Y-109979000D03*
D13*
X141416000Y-111989000D03*
X141416000Y-107925000D03*
X140108000Y-110679000D03*
X140108000Y-109279000D03*
%TD*%
D11*
%TO.N,+3V3*%
%TO.C,J7*%
X114039000Y-78830000D03*
D12*
%TO.N,GND*%
X116579000Y-78830000D03*
%TO.N,/MainBoard/ADC_VBAT*%
X119119000Y-78830000D03*
%TD*%
D15*
%TO.N,GND*%
%TO.C,H1*%
X104394000Y-87757000D03*
%TD*%
D11*
%TO.N,/DisplayBoard/ADC_LDR*%
%TO.C,J6*%
X168823500Y-96455000D03*
D12*
%TO.N,/DisplayBoard/DISP_BRIGHT*%
X168823500Y-98995000D03*
%TO.N,/DisplayBoard/DISP_LATCH*%
X168823500Y-101535000D03*
%TO.N,/DisplayBoard/DISP_CLOCK*%
X168823500Y-104075000D03*
%TO.N,/DisplayBoard/DISP_DATA*%
X168823500Y-106615000D03*
%TO.N,GND*%
X168823500Y-109155000D03*
%TO.N,+3V3*%
X168823500Y-111695000D03*
%TD*%
D16*
%TO.N,+3V3*%
%TO.C,J2*%
X121714000Y-110998000D03*
D17*
%TO.N,GND*%
X123714000Y-110998000D03*
%TO.N,/MainBoard/TX*%
X125714000Y-110998000D03*
%TO.N,/MainBoard/RX*%
X127714000Y-110998000D03*
%TD*%
D18*
%TO.N,Net-(U9-OSCO)*%
%TO.C,Y1*%
X160650000Y-82700000D03*
%TO.N,Net-(U9-OSCI)*%
X162550000Y-82700000D03*
%TD*%
D15*
%TO.N,GND*%
%TO.C,H2*%
X160020000Y-116205000D03*
%TD*%
D19*
%TO.N,Net-(U6-E)*%
%TO.C,U6*%
X174612000Y-112462000D03*
D20*
%TO.N,Net-(U6-D)*%
X174612000Y-109922000D03*
%TO.N,/DisplayBoard/LED_CATH*%
X174612000Y-107382000D03*
%TO.N,Net-(U6-C)*%
X174612000Y-104842000D03*
%TO.N,Net-(U6-DP)*%
X174612000Y-102302000D03*
%TO.N,Net-(U6-B)*%
X189852000Y-102302000D03*
%TO.N,Net-(U6-A)*%
X189852000Y-104842000D03*
%TO.N,/DisplayBoard/LED_CATH*%
X189852000Y-107382000D03*
%TO.N,Net-(U6-F)*%
X189852000Y-109922000D03*
%TO.N,Net-(U6-G)*%
X189852000Y-112462000D03*
%TD*%
D19*
%TO.N,Net-(U7-E)*%
%TO.C,U7*%
X174612000Y-98758000D03*
D20*
%TO.N,Net-(U7-D)*%
X174612000Y-96218000D03*
%TO.N,/DisplayBoard/LED_CATH*%
X174612000Y-93678000D03*
%TO.N,Net-(U7-C)*%
X174612000Y-91138000D03*
%TO.N,Net-(U7-DP)*%
X174612000Y-88598000D03*
%TO.N,Net-(U7-B)*%
X189852000Y-88598000D03*
%TO.N,Net-(U7-A)*%
X189852000Y-91138000D03*
%TO.N,/DisplayBoard/LED_CATH*%
X189852000Y-93678000D03*
%TO.N,Net-(U7-F)*%
X189852000Y-96218000D03*
%TO.N,Net-(U7-G)*%
X189852000Y-98758000D03*
%TD*%
D21*
%TO.N,+3V3*%
%TO.C,R15*%
X169331500Y-88664000D03*
%TO.N,/DisplayBoard/ADC_LDR*%
X169331500Y-92064000D03*
%TD*%
D22*
%TO.N,GND*%
%TO.C,J3*%
X109541800Y-73846000D03*
D23*
%TO.N,+BATT*%
X109541800Y-71846000D03*
%TD*%
D24*
%TO.N,GND*%
X151511000Y-91059000D03*
%TO.N,Net-(BT1-+)*%
X145700000Y-82500000D03*
D25*
%TO.N,GND*%
X109347000Y-100076000D03*
X171101000Y-89434000D03*
X120078500Y-94805500D03*
X120361000Y-68453000D03*
X129540000Y-91440000D03*
X133118000Y-117592000D03*
X177832000Y-106325000D03*
X113249000Y-75692000D03*
X116043000Y-67056000D03*
X106772000Y-77470000D03*
X177832000Y-92609000D03*
X146326000Y-101463000D03*
X136142700Y-86761000D03*
X111633000Y-74168000D03*
X148104000Y-117592000D03*
X132842000Y-92583000D03*
X110546000Y-93844000D03*
X138639000Y-91948000D03*
X103216000Y-67818000D03*
X105121000Y-64897000D03*
X183420000Y-112548000D03*
X105121000Y-66040000D03*
X114900000Y-65532000D03*
X183547000Y-98832000D03*
X134883300Y-86761000D03*
X120361000Y-65532000D03*
X154813000Y-106807000D03*
X115027000Y-74168000D03*
X103216000Y-63119000D03*
%TO.N,/MainBoard/ADC_VBAT*%
X147955000Y-107315000D03*
%TO.N,/MainBoard/EN*%
X155067000Y-110435000D03*
%TO.N,+3V3*%
X179102000Y-108357000D03*
X119599000Y-74422000D03*
X179102000Y-94641000D03*
X117983000Y-95123000D03*
X120205500Y-92138500D03*
X186722000Y-94514000D03*
X118075000Y-71830000D03*
X157480000Y-106744000D03*
X111545000Y-98806000D03*
D24*
X157700000Y-94200000D03*
D25*
X186722000Y-108230000D03*
D24*
X151200000Y-99900000D03*
D25*
X119599000Y-69215000D03*
X104267000Y-99441000D03*
X105156000Y-95123000D03*
X114900000Y-71120000D03*
X114900000Y-72517000D03*
X137115000Y-86507000D03*
X132035000Y-88920000D03*
D24*
X153797000Y-116078000D03*
D25*
%TO.N,/MainBoard/SD_DET_B*%
X104938618Y-101232000D03*
X118237000Y-101473000D03*
%TO.N,/DisplayBoard/ADC_LDR*%
X151130000Y-108458000D03*
%TO.N,/DisplayBoard/DISP_DATA*%
X183550200Y-111659000D03*
%TO.N,/DisplayBoard/DISP_LATCH*%
X176689000Y-106579000D03*
%TO.N,/DisplayBoard/DISP_BRIGHT*%
X176562000Y-100864000D03*
%TO.N,/MainBoard/SD_MOSI*%
X112649000Y-102616000D03*
X129667000Y-116459000D03*
D24*
%TO.N,/MainBoard/I2C_SCL*%
X136900000Y-97300000D03*
D25*
X129921000Y-114681000D03*
%TO.N,/DisplayBoard/LED_CATH*%
X173006000Y-100102000D03*
X177324000Y-100102000D03*
X175292000Y-100102000D03*
%TO.N,/MainBoard/IO0*%
X123888500Y-94678500D03*
%TO.N,/MainBoard/BUT*%
X149860000Y-97096700D03*
X146431000Y-97282000D03*
X130175000Y-103505000D03*
%TO.N,/MainBoard/IMU_INT*%
X132842000Y-98425000D03*
X133940000Y-87142000D03*
%TO.N,/DisplayBoard/SH_REG_OUT_1*%
X183550200Y-97943000D03*
X181642000Y-97943000D03*
%TO.N,Net-(U5-QA)*%
X185452000Y-94133000D03*
%TO.N,Net-(U5-QB)*%
X184436000Y-87656000D03*
%TO.N,Net-(U5-QC)*%
X181007000Y-89561000D03*
%TO.N,Net-(U5-QD)*%
X184182000Y-92609000D03*
%TO.N,Net-(U5-QE)*%
X182888416Y-93342116D03*
%TO.N,Net-(U5-QF)*%
X184055000Y-94006000D03*
%TO.N,Net-(U5-QG)*%
X183547000Y-94641000D03*
%TO.N,Net-(U5-QH)*%
X180245000Y-87783000D03*
%TO.N,Net-(U4-QH)*%
X180118000Y-102769000D03*
%TO.N,Net-(U4-QG)*%
X183547000Y-108357000D03*
%TO.N,Net-(U4-QF)*%
X184055000Y-107722000D03*
%TO.N,Net-(U4-QE)*%
X182880766Y-107055766D03*
%TO.N,Net-(U4-QD)*%
X184182000Y-106325000D03*
%TO.N,Net-(U4-QC)*%
X181007000Y-103277000D03*
%TO.N,Net-(U4-QB)*%
X184182000Y-102261000D03*
%TO.N,Net-(U4-QA)*%
X185452000Y-107849000D03*
%TD*%
%TA.AperFunction,Conductor*%
%TO.N,+3V3*%
G36*
X121176500Y-61897113D02*
G01*
X121221887Y-61942500D01*
X121238500Y-62004500D01*
X121238500Y-64993511D01*
X121222348Y-65054706D01*
X121178099Y-65099959D01*
X121117282Y-65117480D01*
X121055740Y-65102705D01*
X121009506Y-65059482D01*
X120990816Y-65029737D01*
X120863264Y-64902185D01*
X120800867Y-64862979D01*
X120710522Y-64806211D01*
X120540255Y-64746632D01*
X120540253Y-64746631D01*
X120540251Y-64746631D01*
X120361000Y-64726434D01*
X120181748Y-64746631D01*
X120181745Y-64746631D01*
X120181745Y-64746632D01*
X120011478Y-64806211D01*
X120011476Y-64806211D01*
X120011476Y-64806212D01*
X119858735Y-64902185D01*
X119731185Y-65029735D01*
X119635212Y-65182476D01*
X119575631Y-65352748D01*
X119555434Y-65531999D01*
X119575631Y-65711251D01*
X119575631Y-65711253D01*
X119575632Y-65711255D01*
X119635211Y-65881522D01*
X119635212Y-65881523D01*
X119731185Y-66034264D01*
X119858735Y-66161814D01*
X119858737Y-66161815D01*
X119858738Y-66161816D01*
X120011478Y-66257789D01*
X120181745Y-66317368D01*
X120361000Y-66337565D01*
X120540255Y-66317368D01*
X120710522Y-66257789D01*
X120863262Y-66161816D01*
X120990816Y-66034262D01*
X120990816Y-66034261D01*
X121009506Y-66004518D01*
X121055740Y-65961295D01*
X121117282Y-65946520D01*
X121178099Y-65964041D01*
X121222348Y-66009294D01*
X121238500Y-66070489D01*
X121238500Y-67914511D01*
X121222348Y-67975706D01*
X121178099Y-68020959D01*
X121117282Y-68038480D01*
X121055740Y-68023705D01*
X121009506Y-67980482D01*
X120990816Y-67950737D01*
X120863264Y-67823185D01*
X120797379Y-67781787D01*
X120710522Y-67727211D01*
X120540255Y-67667632D01*
X120540253Y-67667631D01*
X120540251Y-67667631D01*
X120361000Y-67647434D01*
X120181748Y-67667631D01*
X120181745Y-67667631D01*
X120181745Y-67667632D01*
X120011478Y-67727211D01*
X120011476Y-67727211D01*
X120011476Y-67727212D01*
X119858735Y-67823185D01*
X119731185Y-67950735D01*
X119635212Y-68103476D01*
X119575631Y-68273748D01*
X119555434Y-68452999D01*
X119575631Y-68632251D01*
X119575631Y-68632253D01*
X119575632Y-68632255D01*
X119635211Y-68802522D01*
X119635212Y-68802523D01*
X119731185Y-68955264D01*
X119858735Y-69082814D01*
X119858737Y-69082815D01*
X119858738Y-69082816D01*
X120011478Y-69178789D01*
X120181745Y-69238368D01*
X120361000Y-69258565D01*
X120540255Y-69238368D01*
X120710522Y-69178789D01*
X120863262Y-69082816D01*
X120990816Y-68955262D01*
X120990816Y-68955261D01*
X121009506Y-68925518D01*
X121055740Y-68882295D01*
X121117282Y-68867520D01*
X121178099Y-68885041D01*
X121222348Y-68930294D01*
X121238500Y-68991489D01*
X121238500Y-78206000D01*
X121221887Y-78268000D01*
X121176500Y-78313387D01*
X121114500Y-78330000D01*
X120454955Y-78330000D01*
X120388330Y-78310581D01*
X120342573Y-78258405D01*
X120313956Y-78197036D01*
X120293035Y-78152171D01*
X120157495Y-77958599D01*
X119990401Y-77791505D01*
X119796830Y-77655965D01*
X119582663Y-77556097D01*
X119510074Y-77536647D01*
X119354407Y-77494936D01*
X119118999Y-77474340D01*
X118883592Y-77494936D01*
X118655336Y-77556097D01*
X118441170Y-77655965D01*
X118247598Y-77791505D01*
X118080505Y-77958598D01*
X117950575Y-78144159D01*
X117906257Y-78183025D01*
X117849000Y-78197036D01*
X117791743Y-78183025D01*
X117747425Y-78144159D01*
X117617494Y-77958598D01*
X117450404Y-77791508D01*
X117450401Y-77791505D01*
X117256830Y-77655965D01*
X117042663Y-77556097D01*
X116970074Y-77536647D01*
X116814407Y-77494936D01*
X116578999Y-77474340D01*
X116343592Y-77494936D01*
X116115336Y-77556097D01*
X115901170Y-77655965D01*
X115707601Y-77791503D01*
X115585285Y-77913819D01*
X115532539Y-77945114D01*
X115471246Y-77947303D01*
X115416401Y-77919850D01*
X115381422Y-77869471D01*
X115332352Y-77737911D01*
X115246188Y-77622811D01*
X115131089Y-77536647D01*
X114996375Y-77486402D01*
X114936824Y-77480000D01*
X114289000Y-77480000D01*
X114289000Y-78330000D01*
X113789000Y-78330000D01*
X113789000Y-77480000D01*
X113141176Y-77480000D01*
X113081624Y-77486402D01*
X112946910Y-77536647D01*
X112831811Y-77622811D01*
X112745647Y-77737910D01*
X112695402Y-77872624D01*
X112689000Y-77932176D01*
X112689000Y-78206000D01*
X112672387Y-78268000D01*
X112627000Y-78313387D01*
X112565000Y-78330000D01*
X107338341Y-78330000D01*
X107277146Y-78313848D01*
X107231894Y-78269600D01*
X107214372Y-78208783D01*
X107229146Y-78147242D01*
X107272368Y-78101007D01*
X107274262Y-78099816D01*
X107401814Y-77972264D01*
X107401814Y-77972263D01*
X107401816Y-77972262D01*
X107497789Y-77819522D01*
X107557368Y-77649255D01*
X107577565Y-77470000D01*
X107557368Y-77290745D01*
X107497789Y-77120478D01*
X107401816Y-76967738D01*
X107401815Y-76967737D01*
X107401814Y-76967735D01*
X107274264Y-76840185D01*
X107211867Y-76800978D01*
X107121522Y-76744211D01*
X106951255Y-76684632D01*
X106951253Y-76684631D01*
X106951251Y-76684631D01*
X106772000Y-76664434D01*
X106592748Y-76684631D01*
X106592745Y-76684631D01*
X106592745Y-76684632D01*
X106422478Y-76744211D01*
X106422476Y-76744211D01*
X106422476Y-76744212D01*
X106269735Y-76840185D01*
X106142185Y-76967735D01*
X106046212Y-77120476D01*
X105986631Y-77290748D01*
X105966434Y-77469999D01*
X105986631Y-77649251D01*
X105986631Y-77649253D01*
X105986632Y-77649255D01*
X106046211Y-77819522D01*
X106046212Y-77819523D01*
X106142185Y-77972264D01*
X106269737Y-78099816D01*
X106271632Y-78101007D01*
X106314854Y-78147242D01*
X106329628Y-78208783D01*
X106312106Y-78269600D01*
X106266854Y-78313848D01*
X106205659Y-78330000D01*
X101463500Y-78330000D01*
X101401500Y-78313387D01*
X101356113Y-78268000D01*
X101339500Y-78206000D01*
X101339500Y-75692000D01*
X112443434Y-75692000D01*
X112463631Y-75871251D01*
X112463631Y-75871253D01*
X112463632Y-75871255D01*
X112523211Y-76041522D01*
X112523212Y-76041523D01*
X112619185Y-76194264D01*
X112746735Y-76321814D01*
X112746737Y-76321815D01*
X112746738Y-76321816D01*
X112899478Y-76417789D01*
X113069745Y-76477368D01*
X113249000Y-76497565D01*
X113428255Y-76477368D01*
X113598522Y-76417789D01*
X113751262Y-76321816D01*
X113878816Y-76194262D01*
X113974789Y-76041522D01*
X114034368Y-75871255D01*
X114054565Y-75692000D01*
X114034368Y-75512745D01*
X113974789Y-75342478D01*
X113878816Y-75189738D01*
X113878815Y-75189737D01*
X113878814Y-75189735D01*
X113751264Y-75062185D01*
X113688867Y-75022979D01*
X113598522Y-74966211D01*
X113428255Y-74906632D01*
X113428253Y-74906631D01*
X113428251Y-74906631D01*
X113249000Y-74886434D01*
X113069748Y-74906631D01*
X113069745Y-74906631D01*
X113069745Y-74906632D01*
X112899478Y-74966211D01*
X112899476Y-74966211D01*
X112899476Y-74966212D01*
X112746735Y-75062185D01*
X112619185Y-75189735D01*
X112523212Y-75342476D01*
X112463631Y-75512748D01*
X112443434Y-75692000D01*
X101339500Y-75692000D01*
X101339500Y-71793396D01*
X108162546Y-71793396D01*
X108172546Y-72003330D01*
X108222097Y-72207580D01*
X108309402Y-72398752D01*
X108419646Y-72553566D01*
X108431314Y-72569952D01*
X108511168Y-72646092D01*
X108533882Y-72667750D01*
X108564693Y-72714698D01*
X108571636Y-72770422D01*
X108553287Y-72823495D01*
X108513409Y-72863031D01*
X108448143Y-72903287D01*
X108324088Y-73027342D01*
X108231986Y-73176665D01*
X108176800Y-73343202D01*
X108166300Y-73445990D01*
X108166300Y-74246008D01*
X108176800Y-74348796D01*
X108231986Y-74515334D01*
X108324088Y-74664657D01*
X108448142Y-74788711D01*
X108462904Y-74797816D01*
X108597466Y-74880814D01*
X108708816Y-74917712D01*
X108764002Y-74935999D01*
X108774502Y-74937071D01*
X108866791Y-74946500D01*
X110216808Y-74946499D01*
X110319597Y-74935999D01*
X110486134Y-74880814D01*
X110635456Y-74788712D01*
X110759512Y-74664656D01*
X110773909Y-74641313D01*
X110818790Y-74598257D01*
X110878932Y-74582409D01*
X110939204Y-74597756D01*
X110984443Y-74640436D01*
X111003185Y-74670264D01*
X111130735Y-74797814D01*
X111130737Y-74797815D01*
X111130738Y-74797816D01*
X111283478Y-74893789D01*
X111453745Y-74953368D01*
X111633000Y-74973565D01*
X111812255Y-74953368D01*
X111982522Y-74893789D01*
X112135262Y-74797816D01*
X112262816Y-74670262D01*
X112358789Y-74517522D01*
X112418368Y-74347255D01*
X112438565Y-74168000D01*
X114221434Y-74168000D01*
X114241631Y-74347251D01*
X114241631Y-74347253D01*
X114241632Y-74347255D01*
X114301211Y-74517522D01*
X114301212Y-74517523D01*
X114397185Y-74670264D01*
X114524735Y-74797814D01*
X114524737Y-74797815D01*
X114524738Y-74797816D01*
X114677478Y-74893789D01*
X114847745Y-74953368D01*
X115027000Y-74973565D01*
X115206255Y-74953368D01*
X115376522Y-74893789D01*
X115529262Y-74797816D01*
X115656816Y-74670262D01*
X115752789Y-74517522D01*
X115812368Y-74347255D01*
X115832565Y-74168000D01*
X115812368Y-73988745D01*
X115752789Y-73818478D01*
X115656816Y-73665738D01*
X115656815Y-73665737D01*
X115656814Y-73665735D01*
X115529264Y-73538185D01*
X115466867Y-73498978D01*
X115376522Y-73442211D01*
X115206255Y-73382632D01*
X115206253Y-73382631D01*
X115206251Y-73382631D01*
X115027000Y-73362434D01*
X114847748Y-73382631D01*
X114847745Y-73382631D01*
X114847745Y-73382632D01*
X114677478Y-73442211D01*
X114677476Y-73442211D01*
X114677476Y-73442212D01*
X114524735Y-73538185D01*
X114397185Y-73665735D01*
X114301212Y-73818476D01*
X114241631Y-73988748D01*
X114221434Y-74168000D01*
X112438565Y-74168000D01*
X112418368Y-73988745D01*
X112358789Y-73818478D01*
X112262816Y-73665738D01*
X112262815Y-73665737D01*
X112262814Y-73665735D01*
X112135264Y-73538185D01*
X112072867Y-73498978D01*
X111982522Y-73442211D01*
X111812255Y-73382632D01*
X111812253Y-73382631D01*
X111812251Y-73382631D01*
X111633000Y-73362434D01*
X111453748Y-73382631D01*
X111453745Y-73382631D01*
X111453745Y-73382632D01*
X111283478Y-73442211D01*
X111283476Y-73442211D01*
X111283476Y-73442212D01*
X111130735Y-73538185D01*
X111128980Y-73539941D01*
X111079617Y-73570191D01*
X111021901Y-73574733D01*
X110968414Y-73552578D01*
X110930814Y-73508555D01*
X110917299Y-73452260D01*
X110917299Y-73445991D01*
X110906799Y-73343203D01*
X110906798Y-73343202D01*
X110851614Y-73176666D01*
X110759512Y-73027344D01*
X110759511Y-73027342D01*
X110635458Y-72903289D01*
X110572060Y-72864185D01*
X110530641Y-72822131D01*
X110513357Y-72765692D01*
X110524126Y-72707657D01*
X110560505Y-72661176D01*
X110579686Y-72646092D01*
X110717319Y-72487256D01*
X110822404Y-72305244D01*
X110891144Y-72106633D01*
X110921054Y-71898602D01*
X110911054Y-71688670D01*
X110861504Y-71484424D01*
X110861502Y-71484419D01*
X110774197Y-71293247D01*
X110652287Y-71122050D01*
X110652286Y-71122048D01*
X110500178Y-70977014D01*
X110468057Y-70956371D01*
X110323374Y-70863387D01*
X110167409Y-70800949D01*
X110128257Y-70785275D01*
X110128256Y-70785274D01*
X110128254Y-70785274D01*
X109921886Y-70745500D01*
X109921885Y-70745500D01*
X109214375Y-70745500D01*
X109116379Y-70754857D01*
X109057579Y-70760472D01*
X108855926Y-70819683D01*
X108669115Y-70915990D01*
X108503915Y-71045906D01*
X108366279Y-71204745D01*
X108261196Y-71386754D01*
X108192455Y-71585366D01*
X108162546Y-71793396D01*
X101339500Y-71793396D01*
X101339500Y-67817999D01*
X102410434Y-67817999D01*
X102430631Y-67997251D01*
X102430631Y-67997253D01*
X102430632Y-67997255D01*
X102490211Y-68167522D01*
X102490212Y-68167523D01*
X102586185Y-68320264D01*
X102713735Y-68447814D01*
X102713737Y-68447815D01*
X102713738Y-68447816D01*
X102866478Y-68543789D01*
X103036745Y-68603368D01*
X103216000Y-68623565D01*
X103395255Y-68603368D01*
X103565522Y-68543789D01*
X103718262Y-68447816D01*
X103845816Y-68320262D01*
X103941789Y-68167522D01*
X104001368Y-67997255D01*
X104021565Y-67818000D01*
X104001368Y-67638745D01*
X103941789Y-67468478D01*
X103845816Y-67315738D01*
X103845815Y-67315737D01*
X103845814Y-67315735D01*
X103718264Y-67188185D01*
X103655867Y-67148979D01*
X103565522Y-67092211D01*
X103462034Y-67055999D01*
X115237434Y-67055999D01*
X115257631Y-67235251D01*
X115257631Y-67235253D01*
X115257632Y-67235255D01*
X115317211Y-67405522D01*
X115317212Y-67405523D01*
X115413185Y-67558264D01*
X115540735Y-67685814D01*
X115540737Y-67685815D01*
X115540738Y-67685816D01*
X115693478Y-67781789D01*
X115863745Y-67841368D01*
X116043000Y-67861565D01*
X116222255Y-67841368D01*
X116392522Y-67781789D01*
X116545262Y-67685816D01*
X116672816Y-67558262D01*
X116768789Y-67405522D01*
X116828368Y-67235255D01*
X116848565Y-67056000D01*
X116828368Y-66876745D01*
X116768789Y-66706478D01*
X116672816Y-66553738D01*
X116672815Y-66553737D01*
X116672814Y-66553735D01*
X116545264Y-66426185D01*
X116482867Y-66386978D01*
X116392522Y-66330211D01*
X116222255Y-66270632D01*
X116222253Y-66270631D01*
X116222251Y-66270631D01*
X116043000Y-66250434D01*
X115863748Y-66270631D01*
X115863745Y-66270631D01*
X115863745Y-66270632D01*
X115693478Y-66330211D01*
X115693476Y-66330211D01*
X115693476Y-66330212D01*
X115540735Y-66426185D01*
X115413185Y-66553735D01*
X115317212Y-66706476D01*
X115257631Y-66876748D01*
X115237434Y-67055999D01*
X103462034Y-67055999D01*
X103395255Y-67032632D01*
X103395253Y-67032631D01*
X103395251Y-67032631D01*
X103216000Y-67012434D01*
X103036748Y-67032631D01*
X103036745Y-67032631D01*
X103036745Y-67032632D01*
X102866478Y-67092211D01*
X102866476Y-67092211D01*
X102866476Y-67092212D01*
X102713735Y-67188185D01*
X102586185Y-67315735D01*
X102490212Y-67468476D01*
X102430631Y-67638748D01*
X102410434Y-67817999D01*
X101339500Y-67817999D01*
X101339500Y-66040000D01*
X104315434Y-66040000D01*
X104335631Y-66219251D01*
X104335631Y-66219253D01*
X104335632Y-66219255D01*
X104395211Y-66389522D01*
X104418248Y-66426185D01*
X104491185Y-66542264D01*
X104618735Y-66669814D01*
X104618737Y-66669815D01*
X104618738Y-66669816D01*
X104771478Y-66765789D01*
X104941745Y-66825368D01*
X105121000Y-66845565D01*
X105300255Y-66825368D01*
X105470522Y-66765789D01*
X105623262Y-66669816D01*
X105750816Y-66542262D01*
X105846789Y-66389522D01*
X105906368Y-66219255D01*
X105926565Y-66040000D01*
X105906368Y-65860745D01*
X105846789Y-65690478D01*
X105799398Y-65615056D01*
X105748764Y-65534471D01*
X105748052Y-65531999D01*
X114094434Y-65531999D01*
X114114631Y-65711251D01*
X114114631Y-65711253D01*
X114114632Y-65711255D01*
X114174211Y-65881522D01*
X114174212Y-65881523D01*
X114270185Y-66034264D01*
X114397735Y-66161814D01*
X114397737Y-66161815D01*
X114397738Y-66161816D01*
X114550478Y-66257789D01*
X114720745Y-66317368D01*
X114900000Y-66337565D01*
X115079255Y-66317368D01*
X115249522Y-66257789D01*
X115402262Y-66161816D01*
X115529816Y-66034262D01*
X115625789Y-65881522D01*
X115685368Y-65711255D01*
X115705565Y-65532000D01*
X115685368Y-65352745D01*
X115625789Y-65182478D01*
X115529816Y-65029738D01*
X115529815Y-65029737D01*
X115529814Y-65029735D01*
X115402264Y-64902185D01*
X115339867Y-64862979D01*
X115249522Y-64806211D01*
X115079255Y-64746632D01*
X115079253Y-64746631D01*
X115079251Y-64746631D01*
X114900000Y-64726434D01*
X114720748Y-64746631D01*
X114720745Y-64746631D01*
X114720745Y-64746632D01*
X114550478Y-64806211D01*
X114550476Y-64806211D01*
X114550476Y-64806212D01*
X114397735Y-64902185D01*
X114270185Y-65029735D01*
X114174212Y-65182476D01*
X114114631Y-65352748D01*
X114094434Y-65531999D01*
X105748052Y-65531999D01*
X105729758Y-65468499D01*
X105748764Y-65402527D01*
X105750816Y-65399262D01*
X105846789Y-65246522D01*
X105906368Y-65076255D01*
X105926565Y-64897000D01*
X105906368Y-64717745D01*
X105846789Y-64547478D01*
X105750816Y-64394738D01*
X105750815Y-64394737D01*
X105750814Y-64394735D01*
X105623264Y-64267185D01*
X105560867Y-64227978D01*
X105470522Y-64171211D01*
X105300255Y-64111632D01*
X105300253Y-64111631D01*
X105300251Y-64111631D01*
X105121000Y-64091434D01*
X104941748Y-64111631D01*
X104941745Y-64111631D01*
X104941745Y-64111632D01*
X104771478Y-64171211D01*
X104771476Y-64171211D01*
X104771476Y-64171212D01*
X104618735Y-64267185D01*
X104491185Y-64394735D01*
X104395212Y-64547476D01*
X104335631Y-64717748D01*
X104315434Y-64897000D01*
X104335631Y-65076251D01*
X104335631Y-65076253D01*
X104335632Y-65076255D01*
X104395211Y-65246522D01*
X104395212Y-65246523D01*
X104395213Y-65246525D01*
X104493235Y-65402529D01*
X104512241Y-65468500D01*
X104493235Y-65534471D01*
X104395213Y-65690474D01*
X104395212Y-65690475D01*
X104395211Y-65690478D01*
X104387941Y-65711255D01*
X104335631Y-65860748D01*
X104315434Y-66040000D01*
X101339500Y-66040000D01*
X101339500Y-63118999D01*
X102410434Y-63118999D01*
X102430631Y-63298251D01*
X102430631Y-63298253D01*
X102430632Y-63298255D01*
X102490211Y-63468522D01*
X102490212Y-63468523D01*
X102586185Y-63621264D01*
X102713735Y-63748814D01*
X102713737Y-63748815D01*
X102713738Y-63748816D01*
X102866478Y-63844789D01*
X103036745Y-63904368D01*
X103216000Y-63924565D01*
X103395255Y-63904368D01*
X103565522Y-63844789D01*
X103718262Y-63748816D01*
X103845816Y-63621262D01*
X103941789Y-63468522D01*
X104001368Y-63298255D01*
X104021565Y-63119000D01*
X104001368Y-62939745D01*
X103941789Y-62769478D01*
X103845816Y-62616738D01*
X103845815Y-62616737D01*
X103845814Y-62616735D01*
X103718264Y-62489185D01*
X103655867Y-62449978D01*
X103565522Y-62393211D01*
X103395255Y-62333632D01*
X103395253Y-62333631D01*
X103395251Y-62333631D01*
X103216000Y-62313434D01*
X103036748Y-62333631D01*
X103036745Y-62333631D01*
X103036745Y-62333632D01*
X102866478Y-62393211D01*
X102866476Y-62393211D01*
X102866476Y-62393212D01*
X102713735Y-62489185D01*
X102586185Y-62616735D01*
X102490212Y-62769476D01*
X102430631Y-62939748D01*
X102410434Y-63118999D01*
X101339500Y-63118999D01*
X101339500Y-62004500D01*
X101356113Y-61942500D01*
X101401500Y-61897113D01*
X101463500Y-61880500D01*
X121114500Y-61880500D01*
X121176500Y-61897113D01*
G37*
%TD.AperFunction*%
%TD*%
%TA.AperFunction,Conductor*%
%TO.N,+3V3*%
G36*
X145047785Y-81643432D02*
G01*
X145091420Y-81679530D01*
X145114454Y-81731265D01*
X145112082Y-81787846D01*
X145084800Y-81837472D01*
X144967466Y-81967783D01*
X144872820Y-82131715D01*
X144814326Y-82311742D01*
X144794540Y-82499999D01*
X144814326Y-82688257D01*
X144872820Y-82868284D01*
X144967466Y-83032216D01*
X145094129Y-83172889D01*
X145247269Y-83284151D01*
X145420197Y-83361144D01*
X145605352Y-83400500D01*
X145605354Y-83400500D01*
X145794646Y-83400500D01*
X145794648Y-83400500D01*
X145918083Y-83374262D01*
X145979803Y-83361144D01*
X146152730Y-83284151D01*
X146200167Y-83249686D01*
X146305870Y-83172889D01*
X146432533Y-83032216D01*
X146527179Y-82868284D01*
X146571754Y-82731097D01*
X146585674Y-82688256D01*
X146605460Y-82500000D01*
X146585674Y-82311744D01*
X146545590Y-82188378D01*
X146527179Y-82131715D01*
X146432533Y-81967783D01*
X146315200Y-81837472D01*
X146287918Y-81787846D01*
X146285546Y-81731265D01*
X146308580Y-81679530D01*
X146352215Y-81643432D01*
X146407350Y-81630500D01*
X160033443Y-81630500D01*
X160096145Y-81647521D01*
X160141633Y-81693912D01*
X160157419Y-81756936D01*
X160139170Y-81819291D01*
X160100451Y-81855792D01*
X160100903Y-81856342D01*
X160092913Y-81862899D01*
X160091896Y-81863857D01*
X160091518Y-81864059D01*
X160091460Y-81864091D01*
X159939117Y-81989117D01*
X159814089Y-82141463D01*
X159721185Y-82315273D01*
X159663976Y-82503866D01*
X159644659Y-82699999D01*
X159663976Y-82896133D01*
X159721185Y-83084726D01*
X159774322Y-83184138D01*
X159814090Y-83258538D01*
X159939117Y-83410883D01*
X160091462Y-83535910D01*
X160265273Y-83628814D01*
X160453868Y-83686024D01*
X160650000Y-83705341D01*
X160846132Y-83686024D01*
X161034727Y-83628814D01*
X161208538Y-83535910D01*
X161360883Y-83410883D01*
X161485910Y-83258538D01*
X161490642Y-83249684D01*
X161536251Y-83201780D01*
X161600000Y-83184138D01*
X161663749Y-83201780D01*
X161709357Y-83249684D01*
X161714090Y-83258538D01*
X161839117Y-83410883D01*
X161991462Y-83535910D01*
X162165273Y-83628814D01*
X162353868Y-83686024D01*
X162550000Y-83705341D01*
X162746132Y-83686024D01*
X162934727Y-83628814D01*
X163108538Y-83535910D01*
X163260883Y-83410883D01*
X163385910Y-83258538D01*
X163478814Y-83084727D01*
X163536024Y-82896132D01*
X163555341Y-82700000D01*
X163536024Y-82503868D01*
X163478814Y-82315273D01*
X163385910Y-82141462D01*
X163260883Y-81989117D01*
X163108538Y-81864090D01*
X163108103Y-81863857D01*
X163107086Y-81862899D01*
X163099097Y-81856342D01*
X163099548Y-81855792D01*
X163060830Y-81819291D01*
X163042581Y-81756936D01*
X163058367Y-81693912D01*
X163103855Y-81647521D01*
X163166557Y-81630500D01*
X165437500Y-81630500D01*
X165499500Y-81647113D01*
X165544887Y-81692500D01*
X165561500Y-81754500D01*
X165561500Y-85982000D01*
X165544887Y-86044000D01*
X165499500Y-86089387D01*
X165437500Y-86106000D01*
X162306000Y-86106000D01*
X162306000Y-95015501D01*
X162289387Y-95077501D01*
X162244000Y-95122888D01*
X162182000Y-95139500D01*
X161948128Y-95139501D01*
X161918322Y-95142705D01*
X161888515Y-95145909D01*
X161753669Y-95196204D01*
X161638454Y-95282454D01*
X161552204Y-95397668D01*
X161502367Y-95531287D01*
X161501909Y-95532517D01*
X161495636Y-95590868D01*
X161495500Y-95592130D01*
X161495500Y-97387869D01*
X161501909Y-97447484D01*
X161518075Y-97490826D01*
X161552204Y-97582331D01*
X161638454Y-97697546D01*
X161753669Y-97783796D01*
X161865907Y-97825658D01*
X161885082Y-97832810D01*
X161935462Y-97867789D01*
X161962915Y-97922634D01*
X161960726Y-97983926D01*
X161929431Y-98036673D01*
X161807503Y-98158601D01*
X161671965Y-98352170D01*
X161572097Y-98566336D01*
X161510936Y-98794592D01*
X161490340Y-99030000D01*
X161510936Y-99265407D01*
X161533660Y-99350212D01*
X161572097Y-99493663D01*
X161671965Y-99707830D01*
X161807505Y-99901401D01*
X161974599Y-100068495D01*
X162160160Y-100198426D01*
X162199024Y-100242743D01*
X162213035Y-100300000D01*
X162199024Y-100357257D01*
X162160158Y-100401575D01*
X162010722Y-100506212D01*
X161974595Y-100531508D01*
X161807505Y-100698598D01*
X161671965Y-100892170D01*
X161572097Y-101106336D01*
X161510936Y-101334592D01*
X161490340Y-101569999D01*
X161510936Y-101805407D01*
X161533660Y-101890212D01*
X161572097Y-102033663D01*
X161671965Y-102247830D01*
X161807505Y-102441401D01*
X161974599Y-102608495D01*
X162160160Y-102738426D01*
X162199024Y-102782743D01*
X162213035Y-102840000D01*
X162199024Y-102897257D01*
X162160159Y-102941575D01*
X161974595Y-103071508D01*
X161807505Y-103238598D01*
X161671965Y-103432170D01*
X161572097Y-103646336D01*
X161510936Y-103874592D01*
X161490340Y-104110000D01*
X161510936Y-104345407D01*
X161555709Y-104512501D01*
X161572097Y-104573663D01*
X161671965Y-104787830D01*
X161807505Y-104981401D01*
X161974599Y-105148495D01*
X162160160Y-105278426D01*
X162199024Y-105322743D01*
X162213035Y-105380000D01*
X162199024Y-105437257D01*
X162160159Y-105481575D01*
X161974595Y-105611508D01*
X161807505Y-105778598D01*
X161671965Y-105972170D01*
X161572097Y-106186336D01*
X161510936Y-106414592D01*
X161490340Y-106650000D01*
X161510936Y-106885407D01*
X161540079Y-106994168D01*
X161572097Y-107113663D01*
X161671965Y-107327830D01*
X161807505Y-107521401D01*
X161974599Y-107688495D01*
X162160160Y-107818426D01*
X162199024Y-107862743D01*
X162213035Y-107920000D01*
X162199024Y-107977257D01*
X162160159Y-108021575D01*
X161974595Y-108151508D01*
X161807505Y-108318598D01*
X161671965Y-108512170D01*
X161572097Y-108726336D01*
X161510936Y-108954592D01*
X161490340Y-109189999D01*
X161510936Y-109425407D01*
X161519737Y-109458251D01*
X161572097Y-109653663D01*
X161671965Y-109867830D01*
X161807505Y-110061401D01*
X161974599Y-110228495D01*
X162160597Y-110358732D01*
X162199460Y-110403048D01*
X162213471Y-110460305D01*
X162199461Y-110517561D01*
X162160595Y-110561880D01*
X161974919Y-110691892D01*
X161807890Y-110858921D01*
X161672400Y-111052421D01*
X161572569Y-111266507D01*
X161515364Y-111479999D01*
X161515364Y-111480000D01*
X162306000Y-111480000D01*
X162306000Y-111980000D01*
X161515364Y-111980000D01*
X161572569Y-112193492D01*
X161672399Y-112407576D01*
X161807893Y-112601081D01*
X161974918Y-112768106D01*
X162168423Y-112903600D01*
X162234405Y-112934369D01*
X162286581Y-112980126D01*
X162306000Y-113046751D01*
X162306000Y-114681000D01*
X165437500Y-114681000D01*
X165499500Y-114697613D01*
X165544887Y-114743000D01*
X165561500Y-114805000D01*
X165561500Y-119000335D01*
X165544806Y-119062475D01*
X165499219Y-119107884D01*
X165437016Y-119124333D01*
X164862209Y-119122079D01*
X164739514Y-119121598D01*
X164677719Y-119104824D01*
X164632532Y-119059459D01*
X164616510Y-118999510D01*
X164616000Y-118999000D01*
X151937597Y-118999000D01*
X151878934Y-118984246D01*
X151834231Y-118943495D01*
X151814126Y-118886444D01*
X151812029Y-118863820D01*
X151811500Y-118852376D01*
X151811500Y-118844157D01*
X151809990Y-118836080D01*
X151808407Y-118824731D01*
X151804866Y-118786515D01*
X151797029Y-118763132D01*
X151796061Y-118761569D01*
X151796061Y-118761567D01*
X151776814Y-118730482D01*
X151771246Y-118720484D01*
X151754141Y-118686130D01*
X151738383Y-118667153D01*
X151707750Y-118644020D01*
X151698949Y-118636712D01*
X151671933Y-118612084D01*
X151671932Y-118612083D01*
X151670578Y-118610849D01*
X151649028Y-118598845D01*
X151612122Y-118588345D01*
X151601264Y-118584706D01*
X151565462Y-118570836D01*
X151541033Y-118567429D01*
X151507188Y-118570565D01*
X151502815Y-118570971D01*
X151491376Y-118571500D01*
X148458269Y-118571500D01*
X148392297Y-118552494D01*
X148346549Y-118501302D01*
X148335049Y-118433616D01*
X148361322Y-118370187D01*
X148417313Y-118330458D01*
X148453522Y-118317789D01*
X148606262Y-118221816D01*
X148733816Y-118094262D01*
X148829789Y-117941522D01*
X148889368Y-117771255D01*
X148909565Y-117592000D01*
X148889368Y-117412745D01*
X148829789Y-117242478D01*
X148733816Y-117089738D01*
X148733815Y-117089737D01*
X148733814Y-117089735D01*
X148606264Y-116962185D01*
X148543867Y-116922979D01*
X148453522Y-116866211D01*
X148283255Y-116806632D01*
X148283253Y-116806631D01*
X148283251Y-116806631D01*
X148104000Y-116786434D01*
X147924748Y-116806631D01*
X147924745Y-116806631D01*
X147924745Y-116806632D01*
X147754478Y-116866211D01*
X147754476Y-116866211D01*
X147754476Y-116866212D01*
X147601735Y-116962185D01*
X147474185Y-117089735D01*
X147414459Y-117184789D01*
X147378211Y-117242478D01*
X147335781Y-117363736D01*
X147318631Y-117412748D01*
X147298434Y-117591999D01*
X147318631Y-117771251D01*
X147318631Y-117771253D01*
X147318632Y-117771255D01*
X147378211Y-117941522D01*
X147378212Y-117941523D01*
X147474185Y-118094264D01*
X147601735Y-118221814D01*
X147601737Y-118221815D01*
X147601738Y-118221816D01*
X147754478Y-118317789D01*
X147790686Y-118330458D01*
X147846678Y-118370187D01*
X147872951Y-118433616D01*
X147861451Y-118501302D01*
X147815703Y-118552494D01*
X147749731Y-118571500D01*
X133472269Y-118571500D01*
X133406297Y-118552494D01*
X133360549Y-118501302D01*
X133349049Y-118433616D01*
X133375322Y-118370187D01*
X133431313Y-118330458D01*
X133467522Y-118317789D01*
X133620262Y-118221816D01*
X133747816Y-118094262D01*
X133843789Y-117941522D01*
X133903368Y-117771255D01*
X133923565Y-117592000D01*
X133903368Y-117412745D01*
X133843789Y-117242478D01*
X133747816Y-117089738D01*
X133747815Y-117089737D01*
X133747814Y-117089735D01*
X133620264Y-116962185D01*
X133557867Y-116922979D01*
X133467522Y-116866211D01*
X133297255Y-116806632D01*
X133297253Y-116806631D01*
X133297251Y-116806631D01*
X133118000Y-116786434D01*
X132938748Y-116806631D01*
X132938745Y-116806631D01*
X132938745Y-116806632D01*
X132768478Y-116866211D01*
X132768476Y-116866211D01*
X132768476Y-116866212D01*
X132615735Y-116962185D01*
X132488185Y-117089735D01*
X132428459Y-117184789D01*
X132392211Y-117242478D01*
X132349781Y-117363736D01*
X132332631Y-117412748D01*
X132312434Y-117591999D01*
X132332631Y-117771251D01*
X132332631Y-117771253D01*
X132332632Y-117771255D01*
X132392211Y-117941522D01*
X132392212Y-117941523D01*
X132488185Y-118094264D01*
X132615735Y-118221814D01*
X132615737Y-118221815D01*
X132615738Y-118221816D01*
X132768478Y-118317789D01*
X132804686Y-118330458D01*
X132860678Y-118370187D01*
X132886951Y-118433616D01*
X132875451Y-118501302D01*
X132829703Y-118552494D01*
X132763731Y-118571500D01*
X129853216Y-118571500D01*
X129824033Y-118567429D01*
X129790188Y-118570565D01*
X129785815Y-118570971D01*
X129774376Y-118571500D01*
X129766156Y-118571500D01*
X129760424Y-118572570D01*
X129758070Y-118573011D01*
X129746740Y-118574591D01*
X129708519Y-118578133D01*
X129685123Y-118585975D01*
X129652495Y-118606177D01*
X129642494Y-118611747D01*
X129608131Y-118628858D01*
X129589153Y-118644617D01*
X129566026Y-118675242D01*
X129558712Y-118684049D01*
X129532853Y-118712415D01*
X129520844Y-118733975D01*
X129510343Y-118770884D01*
X129506704Y-118781741D01*
X129492836Y-118817537D01*
X129489429Y-118841969D01*
X129489936Y-118847440D01*
X129477392Y-118914297D01*
X129431466Y-118964477D01*
X129365979Y-118982878D01*
X103658926Y-118882066D01*
X101463013Y-118873454D01*
X101401219Y-118856681D01*
X101356032Y-118811316D01*
X101339500Y-118749456D01*
X101339500Y-116459000D01*
X128861434Y-116459000D01*
X128881631Y-116638251D01*
X128881631Y-116638253D01*
X128881632Y-116638255D01*
X128941211Y-116808522D01*
X128977460Y-116866212D01*
X129037185Y-116961264D01*
X129164735Y-117088814D01*
X129164737Y-117088815D01*
X129164738Y-117088816D01*
X129317478Y-117184789D01*
X129487745Y-117244368D01*
X129667000Y-117264565D01*
X129846255Y-117244368D01*
X130016522Y-117184789D01*
X130169262Y-117088816D01*
X130296816Y-116961262D01*
X130392789Y-116808522D01*
X130452368Y-116638255D01*
X130472565Y-116459000D01*
X130452368Y-116279745D01*
X130426213Y-116204999D01*
X157614753Y-116204999D01*
X157633719Y-116506452D01*
X157690319Y-116803163D01*
X157783658Y-117090428D01*
X157912268Y-117363739D01*
X158036968Y-117560234D01*
X158074115Y-117618768D01*
X158200260Y-117771251D01*
X158266650Y-117851503D01*
X158486839Y-118058276D01*
X158731204Y-118235816D01*
X158863550Y-118308574D01*
X158995896Y-118381332D01*
X159127951Y-118433616D01*
X159276737Y-118492525D01*
X159310922Y-118501302D01*
X159569302Y-118567642D01*
X159812329Y-118598344D01*
X159868972Y-118605500D01*
X159868973Y-118605500D01*
X160171027Y-118605500D01*
X160171028Y-118605500D01*
X160214360Y-118600025D01*
X160470698Y-118567642D01*
X160763262Y-118492525D01*
X161044104Y-118381332D01*
X161308795Y-118235816D01*
X161308794Y-118235816D01*
X161553160Y-118058276D01*
X161577079Y-118035814D01*
X161773349Y-117851504D01*
X161965885Y-117618768D01*
X162127733Y-117363736D01*
X162256341Y-117090430D01*
X162349681Y-116803160D01*
X162406280Y-116506457D01*
X162425246Y-116205000D01*
X162406280Y-115903543D01*
X162349681Y-115606840D01*
X162342672Y-115585270D01*
X162284680Y-115406789D01*
X162256341Y-115319570D01*
X162127733Y-115046264D01*
X162127732Y-115046263D01*
X162127731Y-115046260D01*
X162009688Y-114860255D01*
X161965885Y-114791232D01*
X161773349Y-114558496D01*
X161712916Y-114501745D01*
X161553160Y-114351723D01*
X161308795Y-114174183D01*
X161044102Y-114028667D01*
X160763262Y-113917474D01*
X160470700Y-113842358D01*
X160171028Y-113804500D01*
X160171027Y-113804500D01*
X159868973Y-113804500D01*
X159868972Y-113804500D01*
X159569299Y-113842358D01*
X159276737Y-113917474D01*
X158995897Y-114028667D01*
X158731204Y-114174183D01*
X158486839Y-114351723D01*
X158266650Y-114558496D01*
X158074114Y-114791233D01*
X157912268Y-115046260D01*
X157783658Y-115319571D01*
X157690319Y-115606836D01*
X157633719Y-115903547D01*
X157614753Y-116204999D01*
X130426213Y-116204999D01*
X130392789Y-116109478D01*
X130296816Y-115956738D01*
X130296815Y-115956737D01*
X130296814Y-115956735D01*
X130169264Y-115829185D01*
X130106867Y-115789978D01*
X130016522Y-115733211D01*
X129972859Y-115717932D01*
X129918628Y-115680361D01*
X129891343Y-115620290D01*
X129898730Y-115554728D01*
X129938698Y-115502235D01*
X129999932Y-115477672D01*
X130048190Y-115472234D01*
X130100255Y-115466368D01*
X130270522Y-115406789D01*
X130423262Y-115310816D01*
X130550816Y-115183262D01*
X130646789Y-115030522D01*
X130706368Y-114860255D01*
X130726565Y-114681000D01*
X130706368Y-114501745D01*
X130646789Y-114331478D01*
X130550816Y-114178738D01*
X130550815Y-114178737D01*
X130550814Y-114178735D01*
X130423264Y-114051185D01*
X130303970Y-113976228D01*
X130270522Y-113955211D01*
X130100255Y-113895632D01*
X130100253Y-113895631D01*
X130100251Y-113895631D01*
X129921000Y-113875434D01*
X129741748Y-113895631D01*
X129741745Y-113895631D01*
X129741745Y-113895632D01*
X129571478Y-113955211D01*
X129571476Y-113955211D01*
X129571476Y-113955212D01*
X129418735Y-114051185D01*
X129291185Y-114178735D01*
X129195212Y-114331476D01*
X129195211Y-114331478D01*
X129135632Y-114501745D01*
X129135631Y-114501748D01*
X129115434Y-114680999D01*
X129135631Y-114860251D01*
X129135631Y-114860253D01*
X129135632Y-114860255D01*
X129195211Y-115030522D01*
X129251979Y-115120867D01*
X129291185Y-115183264D01*
X129418735Y-115310814D01*
X129418737Y-115310815D01*
X129418738Y-115310816D01*
X129571478Y-115406789D01*
X129615137Y-115422066D01*
X129669370Y-115459637D01*
X129696656Y-115519708D01*
X129689270Y-115585270D01*
X129649302Y-115637764D01*
X129588068Y-115662327D01*
X129487749Y-115673631D01*
X129487746Y-115673631D01*
X129487745Y-115673632D01*
X129317478Y-115733211D01*
X129317476Y-115733211D01*
X129317476Y-115733212D01*
X129164735Y-115829185D01*
X129037185Y-115956735D01*
X128941212Y-116109476D01*
X128941211Y-116109478D01*
X128881632Y-116279745D01*
X128881631Y-116279748D01*
X128861434Y-116459000D01*
X101339500Y-116459000D01*
X101339500Y-111248000D01*
X120539000Y-111248000D01*
X120539000Y-111720824D01*
X120545402Y-111780375D01*
X120595647Y-111915089D01*
X120681811Y-112030188D01*
X120796910Y-112116352D01*
X120931624Y-112166597D01*
X120991176Y-112173000D01*
X121464000Y-112173000D01*
X121964000Y-112173000D01*
X122436824Y-112173000D01*
X122496375Y-112166597D01*
X122631089Y-112116352D01*
X122746188Y-112030188D01*
X122808413Y-111947068D01*
X122862562Y-111905878D01*
X122930293Y-111899458D01*
X122991217Y-111929741D01*
X123001412Y-111939034D01*
X123002568Y-111940088D01*
X123081562Y-111988999D01*
X123187791Y-112054773D01*
X123346745Y-112116352D01*
X123390931Y-112133470D01*
X123605074Y-112173500D01*
X123822924Y-112173500D01*
X123822926Y-112173500D01*
X124037069Y-112133470D01*
X124172496Y-112081004D01*
X124240208Y-112054773D01*
X124240210Y-112054772D01*
X124425432Y-111940088D01*
X124586427Y-111793322D01*
X124615045Y-111755424D01*
X124658728Y-111719150D01*
X124714000Y-111706150D01*
X124769272Y-111719150D01*
X124812955Y-111755425D01*
X124841572Y-111793322D01*
X124957999Y-111899458D01*
X125002568Y-111940088D01*
X125081562Y-111988999D01*
X125187791Y-112054773D01*
X125346745Y-112116352D01*
X125390931Y-112133470D01*
X125605074Y-112173500D01*
X125822924Y-112173500D01*
X125822926Y-112173500D01*
X126037069Y-112133470D01*
X126172496Y-112081004D01*
X126240208Y-112054773D01*
X126240210Y-112054772D01*
X126425432Y-111940088D01*
X126586427Y-111793322D01*
X126615045Y-111755424D01*
X126658728Y-111719150D01*
X126714000Y-111706150D01*
X126769272Y-111719150D01*
X126812955Y-111755425D01*
X126841572Y-111793322D01*
X126957999Y-111899458D01*
X127002568Y-111940088D01*
X127081562Y-111988999D01*
X127187791Y-112054773D01*
X127346745Y-112116352D01*
X127390931Y-112133470D01*
X127605074Y-112173500D01*
X127822924Y-112173500D01*
X127822926Y-112173500D01*
X128037069Y-112133470D01*
X128172496Y-112081004D01*
X128240208Y-112054773D01*
X128240210Y-112054772D01*
X128425432Y-111940088D01*
X128586427Y-111793322D01*
X128717712Y-111619472D01*
X128814817Y-111424459D01*
X128820414Y-111404788D01*
X128874435Y-111214925D01*
X128881909Y-111134264D01*
X128894536Y-110998000D01*
X128878807Y-110828260D01*
X128874435Y-110781074D01*
X128845392Y-110679000D01*
X139302434Y-110679000D01*
X139322631Y-110858251D01*
X139322631Y-110858253D01*
X139322632Y-110858255D01*
X139382211Y-111028522D01*
X139438979Y-111118867D01*
X139478185Y-111181264D01*
X139605735Y-111308814D01*
X139605737Y-111308815D01*
X139605738Y-111308816D01*
X139758478Y-111404789D01*
X139928745Y-111464368D01*
X140108000Y-111484565D01*
X140287255Y-111464368D01*
X140457522Y-111404789D01*
X140459650Y-111403451D01*
X140513142Y-111385073D01*
X140569232Y-111392364D01*
X140616249Y-111423807D01*
X140676312Y-111488119D01*
X140703631Y-111534473D01*
X140708743Y-111588035D01*
X140690686Y-111638720D01*
X140690214Y-111639471D01*
X140690212Y-111639476D01*
X140690211Y-111639478D01*
X140640909Y-111780375D01*
X140630631Y-111809748D01*
X140610434Y-111989000D01*
X140630631Y-112168251D01*
X140630631Y-112168253D01*
X140630632Y-112168255D01*
X140690211Y-112338522D01*
X140719878Y-112385736D01*
X140786185Y-112491264D01*
X140913735Y-112618814D01*
X140913737Y-112618815D01*
X140913738Y-112618816D01*
X141066478Y-112714789D01*
X141236745Y-112774368D01*
X141416000Y-112794565D01*
X141595255Y-112774368D01*
X141765522Y-112714789D01*
X141918262Y-112618816D01*
X141973160Y-112563918D01*
X142028319Y-112508760D01*
X142083906Y-112476666D01*
X142148094Y-112476666D01*
X142203681Y-112508760D01*
X142313735Y-112618814D01*
X142313737Y-112618815D01*
X142313738Y-112618816D01*
X142466478Y-112714789D01*
X142636745Y-112774368D01*
X142816000Y-112794565D01*
X142995255Y-112774368D01*
X143165522Y-112714789D01*
X143318262Y-112618816D01*
X143445816Y-112491262D01*
X143541789Y-112338522D01*
X143601368Y-112168255D01*
X143621565Y-111989000D01*
X143616840Y-111947068D01*
X143601368Y-111809744D01*
X143545417Y-111649846D01*
X143538779Y-111599968D01*
X143552508Y-111551559D01*
X143573870Y-111525408D01*
X143572263Y-111523907D01*
X143578050Y-111517710D01*
X143578053Y-111517708D01*
X143665013Y-111424595D01*
X143712027Y-111393155D01*
X143768118Y-111385864D01*
X143821606Y-111404241D01*
X143822478Y-111404789D01*
X143992745Y-111464368D01*
X144172000Y-111484565D01*
X144351255Y-111464368D01*
X144521522Y-111404789D01*
X144674262Y-111308816D01*
X144801816Y-111181262D01*
X144897789Y-111028522D01*
X144957368Y-110858255D01*
X144977565Y-110679000D01*
X144957368Y-110499745D01*
X144934712Y-110434999D01*
X154261434Y-110434999D01*
X154281631Y-110614251D01*
X154281631Y-110614253D01*
X154281632Y-110614255D01*
X154341211Y-110784522D01*
X154341212Y-110784523D01*
X154437185Y-110937264D01*
X154564735Y-111064814D01*
X154564737Y-111064815D01*
X154564738Y-111064816D01*
X154717478Y-111160789D01*
X154887745Y-111220368D01*
X155067000Y-111240565D01*
X155246255Y-111220368D01*
X155416522Y-111160789D01*
X155569262Y-111064816D01*
X155696816Y-110937262D01*
X155792789Y-110784522D01*
X155852368Y-110614255D01*
X155872565Y-110435000D01*
X155852368Y-110255745D01*
X155792789Y-110085478D01*
X155696816Y-109932738D01*
X155696815Y-109932737D01*
X155696814Y-109932735D01*
X155569264Y-109805185D01*
X155428811Y-109716933D01*
X155416522Y-109709211D01*
X155246255Y-109649632D01*
X155246253Y-109649631D01*
X155246251Y-109649631D01*
X155067000Y-109629434D01*
X154887748Y-109649631D01*
X154887745Y-109649631D01*
X154887745Y-109649632D01*
X154717478Y-109709211D01*
X154717476Y-109709211D01*
X154717476Y-109709212D01*
X154564735Y-109805185D01*
X154437185Y-109932735D01*
X154353286Y-110066261D01*
X154341211Y-110085478D01*
X154337340Y-110096542D01*
X154281631Y-110255748D01*
X154261434Y-110434999D01*
X144934712Y-110434999D01*
X144897789Y-110329478D01*
X144801816Y-110176738D01*
X144801815Y-110176737D01*
X144801814Y-110176735D01*
X144691760Y-110066681D01*
X144659666Y-110011094D01*
X144659666Y-109946906D01*
X144691760Y-109891319D01*
X144801814Y-109781264D01*
X144801813Y-109781264D01*
X144801816Y-109781262D01*
X144897789Y-109628522D01*
X144957368Y-109458255D01*
X144977565Y-109279000D01*
X144957368Y-109099745D01*
X144897789Y-108929478D01*
X144801816Y-108776738D01*
X144801815Y-108776737D01*
X144801814Y-108776735D01*
X144674264Y-108649185D01*
X144551639Y-108572135D01*
X144521522Y-108553211D01*
X144351255Y-108493632D01*
X144351253Y-108493631D01*
X144351251Y-108493631D01*
X144172000Y-108473434D01*
X143992748Y-108493631D01*
X143992745Y-108493631D01*
X143992745Y-108493632D01*
X143822478Y-108553211D01*
X143822476Y-108553212D01*
X143822471Y-108553214D01*
X143821599Y-108553762D01*
X143768109Y-108572135D01*
X143712023Y-108564842D01*
X143665011Y-108533401D01*
X143645183Y-108512171D01*
X143594591Y-108458000D01*
X150324434Y-108458000D01*
X150344631Y-108637251D01*
X150344631Y-108637253D01*
X150344632Y-108637255D01*
X150404211Y-108807522D01*
X150404212Y-108807523D01*
X150500185Y-108960264D01*
X150627735Y-109087814D01*
X150627737Y-109087815D01*
X150627738Y-109087816D01*
X150780478Y-109183789D01*
X150950745Y-109243368D01*
X151130000Y-109263565D01*
X151309255Y-109243368D01*
X151479522Y-109183789D01*
X151632262Y-109087816D01*
X151759816Y-108960262D01*
X151855789Y-108807522D01*
X151915368Y-108637255D01*
X151935565Y-108458000D01*
X151915368Y-108278745D01*
X151855789Y-108108478D01*
X151759816Y-107955738D01*
X151759815Y-107955737D01*
X151759814Y-107955735D01*
X151632264Y-107828185D01*
X151501061Y-107745745D01*
X151479522Y-107732211D01*
X151309255Y-107672632D01*
X151309253Y-107672631D01*
X151309251Y-107672631D01*
X151130000Y-107652434D01*
X150950748Y-107672631D01*
X150950745Y-107672631D01*
X150950745Y-107672632D01*
X150780478Y-107732211D01*
X150780476Y-107732211D01*
X150780476Y-107732212D01*
X150627735Y-107828185D01*
X150500185Y-107955735D01*
X150409307Y-108100368D01*
X150404211Y-108108478D01*
X150346110Y-108274522D01*
X150344631Y-108278748D01*
X150324434Y-108458000D01*
X143594591Y-108458000D01*
X143578053Y-108440292D01*
X143570246Y-108433941D01*
X143534529Y-108386600D01*
X143524881Y-108328082D01*
X143538130Y-108288043D01*
X143537174Y-108287709D01*
X143541787Y-108274524D01*
X143541789Y-108274522D01*
X143601368Y-108104255D01*
X143621565Y-107925000D01*
X143601368Y-107745745D01*
X143541789Y-107575478D01*
X143445816Y-107422738D01*
X143445815Y-107422737D01*
X143445814Y-107422735D01*
X143338079Y-107315000D01*
X147149434Y-107315000D01*
X147169631Y-107494251D01*
X147169631Y-107494253D01*
X147169632Y-107494255D01*
X147229211Y-107664522D01*
X147280247Y-107745745D01*
X147325185Y-107817264D01*
X147452735Y-107944814D01*
X147452737Y-107944815D01*
X147452738Y-107944816D01*
X147605478Y-108040789D01*
X147775745Y-108100368D01*
X147955000Y-108120565D01*
X148134255Y-108100368D01*
X148304522Y-108040789D01*
X148457262Y-107944816D01*
X148584816Y-107817262D01*
X148680789Y-107664522D01*
X148740368Y-107494255D01*
X148760565Y-107315000D01*
X148740368Y-107135745D01*
X148680789Y-106965478D01*
X148584816Y-106812738D01*
X148584815Y-106812737D01*
X148584814Y-106812735D01*
X148579079Y-106807000D01*
X154007434Y-106807000D01*
X154027631Y-106986251D01*
X154027631Y-106986253D01*
X154027632Y-106986255D01*
X154087211Y-107156522D01*
X154098261Y-107174108D01*
X154183185Y-107309264D01*
X154310735Y-107436814D01*
X154310737Y-107436815D01*
X154310738Y-107436816D01*
X154463478Y-107532789D01*
X154633745Y-107592368D01*
X154813000Y-107612565D01*
X154992255Y-107592368D01*
X155162522Y-107532789D01*
X155315262Y-107436816D01*
X155442816Y-107309262D01*
X155538789Y-107156522D01*
X155598368Y-106986255D01*
X155618565Y-106807000D01*
X155598368Y-106627745D01*
X155538789Y-106457478D01*
X155442816Y-106304738D01*
X155442815Y-106304737D01*
X155442814Y-106304735D01*
X155315264Y-106177185D01*
X155195970Y-106102228D01*
X155162522Y-106081211D01*
X154992255Y-106021632D01*
X154992253Y-106021631D01*
X154992251Y-106021631D01*
X154812999Y-106001434D01*
X154633748Y-106021631D01*
X154633745Y-106021631D01*
X154633745Y-106021632D01*
X154463478Y-106081211D01*
X154463476Y-106081211D01*
X154463476Y-106081212D01*
X154310735Y-106177185D01*
X154183185Y-106304735D01*
X154114158Y-106414592D01*
X154087211Y-106457478D01*
X154061964Y-106529631D01*
X154027631Y-106627748D01*
X154007434Y-106807000D01*
X148579079Y-106807000D01*
X148457264Y-106685185D01*
X148365848Y-106627745D01*
X148304522Y-106589211D01*
X148134255Y-106529632D01*
X148134253Y-106529631D01*
X148134251Y-106529631D01*
X147955000Y-106509434D01*
X147775748Y-106529631D01*
X147775745Y-106529631D01*
X147775745Y-106529632D01*
X147605478Y-106589211D01*
X147605476Y-106589211D01*
X147605476Y-106589212D01*
X147452735Y-106685185D01*
X147325185Y-106812735D01*
X147252707Y-106928084D01*
X147229211Y-106965478D01*
X147175339Y-107119435D01*
X147169631Y-107135748D01*
X147149434Y-107315000D01*
X143338079Y-107315000D01*
X143318264Y-107295185D01*
X143192571Y-107216207D01*
X143165522Y-107199211D01*
X142995255Y-107139632D01*
X142995253Y-107139631D01*
X142995251Y-107139631D01*
X142815999Y-107119434D01*
X142636748Y-107139631D01*
X142636745Y-107139631D01*
X142636745Y-107139632D01*
X142466478Y-107199211D01*
X142466476Y-107199211D01*
X142466476Y-107199212D01*
X142313735Y-107295185D01*
X142203681Y-107405240D01*
X142148094Y-107437334D01*
X142083906Y-107437334D01*
X142028319Y-107405240D01*
X141918264Y-107295185D01*
X141792571Y-107216207D01*
X141765522Y-107199211D01*
X141595255Y-107139632D01*
X141595253Y-107139631D01*
X141595251Y-107139631D01*
X141415999Y-107119434D01*
X141236748Y-107139631D01*
X141236745Y-107139631D01*
X141236745Y-107139632D01*
X141066478Y-107199211D01*
X141066476Y-107199211D01*
X141066476Y-107199212D01*
X140913735Y-107295185D01*
X140786185Y-107422735D01*
X140717034Y-107532789D01*
X140690211Y-107575478D01*
X140650666Y-107688491D01*
X140630631Y-107745748D01*
X140610434Y-107924999D01*
X140630631Y-108104251D01*
X140630631Y-108104253D01*
X140630632Y-108104255D01*
X140690211Y-108274522D01*
X140690212Y-108274524D01*
X140690213Y-108274526D01*
X140707210Y-108301577D01*
X140725270Y-108352264D01*
X140720159Y-108405829D01*
X140692839Y-108452185D01*
X140616248Y-108534193D01*
X140569233Y-108565635D01*
X140513146Y-108572926D01*
X140459655Y-108554551D01*
X140457525Y-108553212D01*
X140424511Y-108541660D01*
X140287255Y-108493632D01*
X140287253Y-108493631D01*
X140287251Y-108493631D01*
X140108000Y-108473434D01*
X139928748Y-108493631D01*
X139928745Y-108493631D01*
X139928745Y-108493632D01*
X139758478Y-108553211D01*
X139758476Y-108553211D01*
X139758476Y-108553212D01*
X139605735Y-108649185D01*
X139478185Y-108776735D01*
X139382212Y-108929476D01*
X139322631Y-109099748D01*
X139302434Y-109279000D01*
X139322631Y-109458251D01*
X139322631Y-109458253D01*
X139322632Y-109458255D01*
X139382211Y-109628522D01*
X139398008Y-109653662D01*
X139478185Y-109781264D01*
X139588240Y-109891319D01*
X139620334Y-109946906D01*
X139620334Y-110011094D01*
X139588240Y-110066681D01*
X139478185Y-110176735D01*
X139411729Y-110282500D01*
X139382211Y-110329478D01*
X139356468Y-110403048D01*
X139322631Y-110499748D01*
X139302434Y-110679000D01*
X128845392Y-110679000D01*
X128814818Y-110571542D01*
X128717712Y-110376528D01*
X128586426Y-110202676D01*
X128425432Y-110055912D01*
X128240208Y-109941226D01*
X128037073Y-109862531D01*
X128037070Y-109862530D01*
X128037069Y-109862530D01*
X127822926Y-109822500D01*
X127605074Y-109822500D01*
X127390931Y-109862530D01*
X127390926Y-109862531D01*
X127187791Y-109941226D01*
X127002567Y-110055912D01*
X126841573Y-110202677D01*
X126812954Y-110240575D01*
X126769271Y-110276848D01*
X126714000Y-110289848D01*
X126658729Y-110276848D01*
X126615046Y-110240575D01*
X126586426Y-110202677D01*
X126425432Y-110055912D01*
X126240208Y-109941226D01*
X126037073Y-109862531D01*
X126037070Y-109862530D01*
X126037069Y-109862530D01*
X125822926Y-109822500D01*
X125605074Y-109822500D01*
X125390931Y-109862530D01*
X125390926Y-109862531D01*
X125187791Y-109941226D01*
X125002567Y-110055912D01*
X124841573Y-110202677D01*
X124812954Y-110240575D01*
X124769271Y-110276848D01*
X124714000Y-110289848D01*
X124658729Y-110276848D01*
X124615046Y-110240575D01*
X124586426Y-110202677D01*
X124425432Y-110055912D01*
X124240208Y-109941226D01*
X124037073Y-109862531D01*
X124037070Y-109862530D01*
X124037069Y-109862530D01*
X123822926Y-109822500D01*
X123605074Y-109822500D01*
X123390931Y-109862530D01*
X123390926Y-109862531D01*
X123187794Y-109941225D01*
X123002565Y-110055914D01*
X122991215Y-110066261D01*
X122930291Y-110096542D01*
X122862561Y-110090121D01*
X122808413Y-110048932D01*
X122746188Y-109965811D01*
X122631089Y-109879647D01*
X122496375Y-109829402D01*
X122436824Y-109823000D01*
X121964000Y-109823000D01*
X121964000Y-112173000D01*
X121464000Y-112173000D01*
X121464000Y-111248000D01*
X120539000Y-111248000D01*
X101339500Y-111248000D01*
X101339500Y-110748000D01*
X120539000Y-110748000D01*
X121464000Y-110748000D01*
X121464000Y-109823000D01*
X120991176Y-109823000D01*
X120931624Y-109829402D01*
X120796910Y-109879647D01*
X120681811Y-109965811D01*
X120595647Y-110080910D01*
X120545402Y-110215624D01*
X120539000Y-110275176D01*
X120539000Y-110748000D01*
X101339500Y-110748000D01*
X101339500Y-103504999D01*
X129369434Y-103504999D01*
X129389631Y-103684251D01*
X129389631Y-103684253D01*
X129389632Y-103684255D01*
X129449211Y-103854522D01*
X129449212Y-103854523D01*
X129545185Y-104007264D01*
X129672735Y-104134814D01*
X129672737Y-104134815D01*
X129672738Y-104134816D01*
X129825478Y-104230789D01*
X129995745Y-104290368D01*
X130175000Y-104310565D01*
X130354255Y-104290368D01*
X130524522Y-104230789D01*
X130677262Y-104134816D01*
X130804816Y-104007262D01*
X130900789Y-103854522D01*
X130960368Y-103684255D01*
X130980565Y-103505000D01*
X130960368Y-103325745D01*
X130900789Y-103155478D01*
X130804816Y-103002738D01*
X130804815Y-103002737D01*
X130804814Y-103002735D01*
X130677264Y-102875185D01*
X130614867Y-102835979D01*
X130524522Y-102779211D01*
X130354255Y-102719632D01*
X130354253Y-102719631D01*
X130354251Y-102719631D01*
X130175000Y-102699434D01*
X129995748Y-102719631D01*
X129995745Y-102719631D01*
X129995745Y-102719632D01*
X129825478Y-102779211D01*
X129825476Y-102779211D01*
X129825476Y-102779212D01*
X129672735Y-102875185D01*
X129545185Y-103002735D01*
X129472595Y-103118262D01*
X129449211Y-103155478D01*
X129389632Y-103325745D01*
X129389631Y-103325748D01*
X129369434Y-103504999D01*
X101339500Y-103504999D01*
X101339500Y-102616000D01*
X111843434Y-102616000D01*
X111863631Y-102795251D01*
X111863631Y-102795253D01*
X111863632Y-102795255D01*
X111923211Y-102965522D01*
X111979979Y-103055867D01*
X112019185Y-103118264D01*
X112146735Y-103245814D01*
X112146737Y-103245815D01*
X112146738Y-103245816D01*
X112299478Y-103341789D01*
X112469745Y-103401368D01*
X112649000Y-103421565D01*
X112828255Y-103401368D01*
X112998522Y-103341789D01*
X113151262Y-103245816D01*
X113278816Y-103118262D01*
X113374789Y-102965522D01*
X113434368Y-102795255D01*
X113454565Y-102616000D01*
X113434368Y-102436745D01*
X113374789Y-102266478D01*
X113278816Y-102113738D01*
X113278815Y-102113737D01*
X113278814Y-102113735D01*
X113151264Y-101986185D01*
X113088867Y-101946979D01*
X112998522Y-101890211D01*
X112828255Y-101830632D01*
X112828253Y-101830631D01*
X112828251Y-101830631D01*
X112649000Y-101810434D01*
X112469748Y-101830631D01*
X112469745Y-101830631D01*
X112469745Y-101830632D01*
X112299478Y-101890211D01*
X112299476Y-101890211D01*
X112299476Y-101890212D01*
X112146735Y-101986185D01*
X112019185Y-102113735D01*
X111923212Y-102266476D01*
X111923211Y-102266478D01*
X111879916Y-102390207D01*
X111863631Y-102436748D01*
X111843434Y-102616000D01*
X101339500Y-102616000D01*
X101339500Y-101231999D01*
X104133052Y-101231999D01*
X104153249Y-101411251D01*
X104153249Y-101411253D01*
X104153250Y-101411255D01*
X104212829Y-101581522D01*
X104212830Y-101581523D01*
X104308803Y-101734264D01*
X104436353Y-101861814D01*
X104436355Y-101861815D01*
X104436356Y-101861816D01*
X104589096Y-101957789D01*
X104759363Y-102017368D01*
X104938618Y-102037565D01*
X105117873Y-102017368D01*
X105288140Y-101957789D01*
X105440880Y-101861816D01*
X105568434Y-101734262D01*
X105664407Y-101581522D01*
X105702381Y-101472999D01*
X117431434Y-101472999D01*
X117451631Y-101652251D01*
X117451631Y-101652253D01*
X117451632Y-101652255D01*
X117511211Y-101822522D01*
X117567978Y-101912867D01*
X117607185Y-101975264D01*
X117734735Y-102102814D01*
X117734737Y-102102815D01*
X117734738Y-102102816D01*
X117887478Y-102198789D01*
X118057745Y-102258368D01*
X118237000Y-102278565D01*
X118416255Y-102258368D01*
X118586522Y-102198789D01*
X118739262Y-102102816D01*
X118866816Y-101975262D01*
X118962789Y-101822522D01*
X119022368Y-101652255D01*
X119042565Y-101473000D01*
X119041438Y-101462999D01*
X145520434Y-101462999D01*
X145540631Y-101642251D01*
X145540631Y-101642253D01*
X145540632Y-101642255D01*
X145600211Y-101812522D01*
X145631183Y-101861814D01*
X145696185Y-101965264D01*
X145823735Y-102092814D01*
X145823737Y-102092815D01*
X145823738Y-102092816D01*
X145976478Y-102188789D01*
X146146745Y-102248368D01*
X146326000Y-102268565D01*
X146505255Y-102248368D01*
X146675522Y-102188789D01*
X146828262Y-102092816D01*
X146955816Y-101965262D01*
X147051789Y-101812522D01*
X147111368Y-101642255D01*
X147131565Y-101463000D01*
X147111368Y-101283745D01*
X147051789Y-101113478D01*
X146955816Y-100960738D01*
X146955815Y-100960737D01*
X146955814Y-100960735D01*
X146828264Y-100833185D01*
X146691438Y-100747212D01*
X146675522Y-100737211D01*
X146505255Y-100677632D01*
X146505253Y-100677631D01*
X146505251Y-100677631D01*
X146326000Y-100657434D01*
X146146748Y-100677631D01*
X146146745Y-100677631D01*
X146146745Y-100677632D01*
X145976478Y-100737211D01*
X145976476Y-100737211D01*
X145976476Y-100737212D01*
X145823735Y-100833185D01*
X145696185Y-100960735D01*
X145604698Y-101106337D01*
X145600211Y-101113478D01*
X145558739Y-101231999D01*
X145540631Y-101283748D01*
X145520434Y-101462999D01*
X119041438Y-101462999D01*
X119022368Y-101293745D01*
X118962789Y-101123478D01*
X118866816Y-100970738D01*
X118866815Y-100970737D01*
X118866814Y-100970735D01*
X118739264Y-100843185D01*
X118664300Y-100796082D01*
X118586522Y-100747211D01*
X118416255Y-100687632D01*
X118416253Y-100687631D01*
X118416251Y-100687631D01*
X118236999Y-100667434D01*
X118057748Y-100687631D01*
X118057745Y-100687631D01*
X118057745Y-100687632D01*
X117887478Y-100747211D01*
X117887476Y-100747211D01*
X117887476Y-100747212D01*
X117734735Y-100843185D01*
X117607185Y-100970735D01*
X117517494Y-101113478D01*
X117511211Y-101123478D01*
X117508217Y-101132035D01*
X117451631Y-101293748D01*
X117431434Y-101472999D01*
X105702381Y-101472999D01*
X105723986Y-101411255D01*
X105744183Y-101232000D01*
X105723986Y-101052745D01*
X105664407Y-100882478D01*
X105568434Y-100729738D01*
X105568433Y-100729737D01*
X105568432Y-100729735D01*
X105440882Y-100602185D01*
X105328395Y-100531505D01*
X105288140Y-100506211D01*
X105117873Y-100446632D01*
X105117871Y-100446631D01*
X105117869Y-100446631D01*
X104938618Y-100426434D01*
X104759366Y-100446631D01*
X104759363Y-100446631D01*
X104759363Y-100446632D01*
X104589096Y-100506211D01*
X104589094Y-100506211D01*
X104589094Y-100506212D01*
X104436353Y-100602185D01*
X104308803Y-100729735D01*
X104212830Y-100882476D01*
X104212829Y-100882478D01*
X104180712Y-100974264D01*
X104153249Y-101052748D01*
X104133052Y-101231999D01*
X101339500Y-101231999D01*
X101339500Y-100076000D01*
X108541434Y-100076000D01*
X108561631Y-100255251D01*
X108561631Y-100255253D01*
X108561632Y-100255255D01*
X108621211Y-100425522D01*
X108671911Y-100506211D01*
X108717185Y-100578264D01*
X108844735Y-100705814D01*
X108844737Y-100705815D01*
X108844738Y-100705816D01*
X108997478Y-100801789D01*
X109167745Y-100861368D01*
X109347000Y-100881565D01*
X109526255Y-100861368D01*
X109696522Y-100801789D01*
X109849262Y-100705816D01*
X109976816Y-100578262D01*
X110072789Y-100425522D01*
X110132368Y-100255255D01*
X110152565Y-100076000D01*
X110132368Y-99896745D01*
X110072789Y-99726478D01*
X109976816Y-99573738D01*
X109976815Y-99573737D01*
X109976814Y-99573735D01*
X109849264Y-99446185D01*
X109786867Y-99406978D01*
X109696522Y-99350211D01*
X109526255Y-99290632D01*
X109526253Y-99290631D01*
X109526251Y-99290631D01*
X109347000Y-99270434D01*
X109167748Y-99290631D01*
X109167745Y-99290631D01*
X109167745Y-99290632D01*
X108997478Y-99350211D01*
X108997476Y-99350211D01*
X108997476Y-99350212D01*
X108844735Y-99446185D01*
X108717185Y-99573735D01*
X108621212Y-99726476D01*
X108621211Y-99726478D01*
X108577916Y-99850207D01*
X108561631Y-99896748D01*
X108541434Y-100076000D01*
X101339500Y-100076000D01*
X101339500Y-97571740D01*
X126174812Y-97571740D01*
X126239593Y-97617101D01*
X126439718Y-97710420D01*
X126653021Y-97767575D01*
X126873000Y-97786821D01*
X127092978Y-97767575D01*
X127306281Y-97710420D01*
X127506408Y-97617100D01*
X127571187Y-97571740D01*
X126873001Y-96873553D01*
X126873000Y-96873553D01*
X126174812Y-97571740D01*
X101339500Y-97571740D01*
X101339500Y-96519999D01*
X125606178Y-96519999D01*
X125625424Y-96739978D01*
X125682579Y-96953281D01*
X125775898Y-97153406D01*
X125821258Y-97218187D01*
X126519446Y-96520001D01*
X127226553Y-96520001D01*
X127924740Y-97218186D01*
X127970098Y-97153411D01*
X128030340Y-97024220D01*
X128076097Y-96972043D01*
X128142722Y-96952623D01*
X128209348Y-96972042D01*
X128255105Y-97024218D01*
X128295918Y-97111742D01*
X128315466Y-97153662D01*
X128442174Y-97334620D01*
X128598380Y-97490826D01*
X128779338Y-97617534D01*
X128979550Y-97710894D01*
X129192932Y-97768070D01*
X129413000Y-97787323D01*
X129633068Y-97768070D01*
X129846450Y-97710894D01*
X130046662Y-97617534D01*
X130227620Y-97490826D01*
X130383826Y-97334620D01*
X130510534Y-97153662D01*
X130570617Y-97024811D01*
X130616375Y-96972635D01*
X130683000Y-96953216D01*
X130749625Y-96972635D01*
X130795382Y-97024811D01*
X130835918Y-97111742D01*
X130855466Y-97153662D01*
X130982174Y-97334620D01*
X131138380Y-97490826D01*
X131319338Y-97617534D01*
X131519550Y-97710894D01*
X131732932Y-97768070D01*
X131837234Y-97777195D01*
X131952999Y-97787323D01*
X131952999Y-97787322D01*
X131953000Y-97787323D01*
X132068762Y-97777195D01*
X132135450Y-97790028D01*
X132185377Y-97836064D01*
X132203567Y-97901495D01*
X132184563Y-97966694D01*
X132116213Y-98075473D01*
X132056631Y-98245748D01*
X132036434Y-98425000D01*
X132056631Y-98604251D01*
X132056631Y-98604253D01*
X132056632Y-98604255D01*
X132116211Y-98774522D01*
X132116212Y-98774523D01*
X132212185Y-98927264D01*
X132339735Y-99054814D01*
X132339737Y-99054815D01*
X132339738Y-99054816D01*
X132492478Y-99150789D01*
X132662745Y-99210368D01*
X132842000Y-99230565D01*
X133021255Y-99210368D01*
X133191522Y-99150789D01*
X133344262Y-99054816D01*
X133471816Y-98927262D01*
X133567789Y-98774522D01*
X133627368Y-98604255D01*
X133647565Y-98425000D01*
X133627368Y-98245745D01*
X133567789Y-98075478D01*
X133471816Y-97922738D01*
X133471815Y-97922737D01*
X133471814Y-97922735D01*
X133344264Y-97795185D01*
X133281867Y-97755979D01*
X133191522Y-97699211D01*
X133021255Y-97639632D01*
X133021251Y-97639631D01*
X133021250Y-97639631D01*
X132915435Y-97627708D01*
X132852006Y-97601435D01*
X132812277Y-97545442D01*
X132808428Y-97476895D01*
X132841635Y-97416810D01*
X132923826Y-97334620D01*
X133050534Y-97153662D01*
X133110617Y-97024811D01*
X133156375Y-96972635D01*
X133223000Y-96953216D01*
X133289625Y-96972635D01*
X133335382Y-97024811D01*
X133375918Y-97111742D01*
X133395466Y-97153662D01*
X133522174Y-97334620D01*
X133678380Y-97490826D01*
X133859338Y-97617534D01*
X134059550Y-97710894D01*
X134272932Y-97768070D01*
X134493000Y-97787323D01*
X134713068Y-97768070D01*
X134926450Y-97710894D01*
X135126662Y-97617534D01*
X135307620Y-97490826D01*
X135463826Y-97334620D01*
X135488067Y-97300000D01*
X135994540Y-97300000D01*
X136014326Y-97488257D01*
X136072820Y-97668284D01*
X136167466Y-97832216D01*
X136294129Y-97972889D01*
X136447269Y-98084151D01*
X136620197Y-98161144D01*
X136805352Y-98200500D01*
X136805354Y-98200500D01*
X136994646Y-98200500D01*
X136994648Y-98200500D01*
X137118083Y-98174262D01*
X137179803Y-98161144D01*
X137352730Y-98084151D01*
X137457834Y-98007789D01*
X137505870Y-97972889D01*
X137632533Y-97832216D01*
X137727179Y-97668284D01*
X137743810Y-97617100D01*
X137785674Y-97488256D01*
X137805460Y-97300000D01*
X137785674Y-97111744D01*
X137743355Y-96981500D01*
X137727179Y-96931715D01*
X137632533Y-96767783D01*
X137505870Y-96627110D01*
X137358445Y-96520000D01*
X143385676Y-96520000D01*
X143404929Y-96740065D01*
X143462106Y-96953451D01*
X143535918Y-97111742D01*
X143555466Y-97153662D01*
X143682174Y-97334620D01*
X143838380Y-97490826D01*
X144019338Y-97617534D01*
X144219550Y-97710894D01*
X144432932Y-97768070D01*
X144653000Y-97787323D01*
X144873068Y-97768070D01*
X145086450Y-97710894D01*
X145286662Y-97617534D01*
X145467620Y-97490826D01*
X145467620Y-97490825D01*
X145476507Y-97484603D01*
X145476994Y-97485299D01*
X145520957Y-97459364D01*
X145582880Y-97457624D01*
X145637916Y-97486055D01*
X145672332Y-97537561D01*
X145705209Y-97631519D01*
X145801185Y-97784264D01*
X145928735Y-97911814D01*
X145928737Y-97911815D01*
X145928738Y-97911816D01*
X146081478Y-98007789D01*
X146251745Y-98067368D01*
X146386186Y-98082515D01*
X146430999Y-98087565D01*
X146430999Y-98087564D01*
X146431000Y-98087565D01*
X146610255Y-98067368D01*
X146780522Y-98007789D01*
X146933262Y-97911816D01*
X147060816Y-97784262D01*
X147156789Y-97631522D01*
X147216368Y-97461255D01*
X147236565Y-97282000D01*
X147216368Y-97102745D01*
X147214253Y-97096700D01*
X149054434Y-97096700D01*
X149074631Y-97275951D01*
X149074631Y-97275953D01*
X149074632Y-97275955D01*
X149134211Y-97446222D01*
X149162237Y-97490825D01*
X149230185Y-97598964D01*
X149357735Y-97726514D01*
X149357737Y-97726515D01*
X149357738Y-97726516D01*
X149510478Y-97822489D01*
X149680745Y-97882068D01*
X149860000Y-97902265D01*
X150039255Y-97882068D01*
X150209522Y-97822489D01*
X150362262Y-97726516D01*
X150489816Y-97598962D01*
X150585789Y-97446222D01*
X150645368Y-97275955D01*
X150665565Y-97096700D01*
X150645368Y-96917445D01*
X150585789Y-96747178D01*
X150489816Y-96594438D01*
X150489815Y-96594437D01*
X150489814Y-96594435D01*
X150362264Y-96466885D01*
X150255021Y-96399500D01*
X150209522Y-96370911D01*
X150039255Y-96311332D01*
X150039253Y-96311331D01*
X150039251Y-96311331D01*
X149860000Y-96291134D01*
X149680748Y-96311331D01*
X149680745Y-96311331D01*
X149680745Y-96311332D01*
X149510478Y-96370911D01*
X149510476Y-96370911D01*
X149510476Y-96370912D01*
X149357735Y-96466885D01*
X149230185Y-96594435D01*
X149134212Y-96747176D01*
X149134211Y-96747178D01*
X149074632Y-96917445D01*
X149074631Y-96917448D01*
X149054434Y-97096700D01*
X147214253Y-97096700D01*
X147156789Y-96932478D01*
X147060816Y-96779738D01*
X147060815Y-96779737D01*
X147060814Y-96779735D01*
X146933264Y-96652185D01*
X146791724Y-96563250D01*
X146780522Y-96556211D01*
X146610255Y-96496632D01*
X146610253Y-96496631D01*
X146610251Y-96496631D01*
X146431000Y-96476434D01*
X146251747Y-96496631D01*
X146078762Y-96557161D01*
X146023156Y-96563250D01*
X145970532Y-96544282D01*
X145931599Y-96504116D01*
X145914280Y-96450926D01*
X145901070Y-96299934D01*
X145901070Y-96299932D01*
X145843894Y-96086550D01*
X145750534Y-95886339D01*
X145623826Y-95705380D01*
X145467620Y-95549174D01*
X145286662Y-95422466D01*
X145247677Y-95404287D01*
X145086451Y-95329106D01*
X144873065Y-95271929D01*
X144653000Y-95252676D01*
X144432934Y-95271929D01*
X144219548Y-95329106D01*
X144019338Y-95422466D01*
X143838379Y-95549174D01*
X143682174Y-95705379D01*
X143555466Y-95886338D01*
X143462106Y-96086548D01*
X143404929Y-96299934D01*
X143385676Y-96520000D01*
X137358445Y-96520000D01*
X137352730Y-96515848D01*
X137179802Y-96438855D01*
X136994648Y-96399500D01*
X136994646Y-96399500D01*
X136805354Y-96399500D01*
X136805352Y-96399500D01*
X136620197Y-96438855D01*
X136447269Y-96515848D01*
X136294129Y-96627110D01*
X136167466Y-96767783D01*
X136072820Y-96931715D01*
X136014326Y-97111742D01*
X135994540Y-97300000D01*
X135488067Y-97300000D01*
X135590534Y-97153662D01*
X135683894Y-96953450D01*
X135741070Y-96740068D01*
X135760323Y-96520000D01*
X135741070Y-96299932D01*
X135683894Y-96086550D01*
X135590534Y-95886339D01*
X135463826Y-95705380D01*
X135307620Y-95549174D01*
X135126662Y-95422466D01*
X135087677Y-95404287D01*
X134926451Y-95329106D01*
X134713065Y-95271929D01*
X134493000Y-95252676D01*
X134272934Y-95271929D01*
X134059548Y-95329106D01*
X133859338Y-95422466D01*
X133678379Y-95549174D01*
X133522174Y-95705379D01*
X133395466Y-95886338D01*
X133335382Y-96015189D01*
X133289625Y-96067365D01*
X133223000Y-96086784D01*
X133156375Y-96067365D01*
X133110618Y-96015189D01*
X133093744Y-95979004D01*
X133050534Y-95886339D01*
X132923826Y-95705380D01*
X132767620Y-95549174D01*
X132586662Y-95422466D01*
X132547677Y-95404287D01*
X132386451Y-95329106D01*
X132173065Y-95271929D01*
X131953000Y-95252676D01*
X131732934Y-95271929D01*
X131519548Y-95329106D01*
X131319338Y-95422466D01*
X131138379Y-95549174D01*
X130982174Y-95705379D01*
X130855466Y-95886338D01*
X130795382Y-96015189D01*
X130749625Y-96067365D01*
X130683000Y-96086784D01*
X130616375Y-96067365D01*
X130570618Y-96015189D01*
X130553744Y-95979004D01*
X130510534Y-95886339D01*
X130383826Y-95705380D01*
X130227620Y-95549174D01*
X130046662Y-95422466D01*
X130007677Y-95404287D01*
X129846451Y-95329106D01*
X129633065Y-95271929D01*
X129413000Y-95252676D01*
X129192934Y-95271929D01*
X128979548Y-95329106D01*
X128779338Y-95422466D01*
X128598379Y-95549174D01*
X128442174Y-95705379D01*
X128315467Y-95886336D01*
X128255105Y-96015782D01*
X128209347Y-96067957D01*
X128142722Y-96087376D01*
X128076097Y-96067956D01*
X128030341Y-96015780D01*
X127970099Y-95886590D01*
X127924740Y-95821811D01*
X127226553Y-96520000D01*
X127226553Y-96520001D01*
X126519446Y-96520001D01*
X126519446Y-96520000D01*
X125821258Y-95821811D01*
X125821258Y-95821812D01*
X125775900Y-95886589D01*
X125682578Y-96086719D01*
X125625424Y-96300021D01*
X125606178Y-96519999D01*
X101339500Y-96519999D01*
X101339500Y-94805500D01*
X119272934Y-94805500D01*
X119293131Y-94984751D01*
X119293131Y-94984753D01*
X119293132Y-94984755D01*
X119352711Y-95155022D01*
X119409478Y-95245367D01*
X119448685Y-95307764D01*
X119576235Y-95435314D01*
X119576237Y-95435315D01*
X119576238Y-95435316D01*
X119728978Y-95531289D01*
X119899245Y-95590868D01*
X120078500Y-95611065D01*
X120257755Y-95590868D01*
X120428022Y-95531289D01*
X120580762Y-95435316D01*
X120708316Y-95307762D01*
X120804289Y-95155022D01*
X120863868Y-94984755D01*
X120884065Y-94805500D01*
X120869756Y-94678499D01*
X123082934Y-94678499D01*
X123103131Y-94857751D01*
X123103131Y-94857753D01*
X123103132Y-94857755D01*
X123162711Y-95028022D01*
X123162712Y-95028023D01*
X123258685Y-95180764D01*
X123386235Y-95308314D01*
X123386237Y-95308315D01*
X123386238Y-95308316D01*
X123538978Y-95404289D01*
X123709245Y-95463868D01*
X123843686Y-95479015D01*
X123888499Y-95484065D01*
X123888499Y-95484064D01*
X123888500Y-95484065D01*
X124028792Y-95468258D01*
X126174811Y-95468258D01*
X126873000Y-96166446D01*
X126873001Y-96166446D01*
X127571187Y-95468258D01*
X127506406Y-95422898D01*
X127306281Y-95329579D01*
X127092978Y-95272424D01*
X126873000Y-95253178D01*
X126653021Y-95272424D01*
X126439719Y-95329578D01*
X126239589Y-95422900D01*
X126174812Y-95468258D01*
X126174811Y-95468258D01*
X124028792Y-95468258D01*
X124067755Y-95463868D01*
X124238022Y-95404289D01*
X124390762Y-95308316D01*
X124518316Y-95180762D01*
X124614289Y-95028022D01*
X124673868Y-94857755D01*
X124694065Y-94678500D01*
X124673868Y-94499245D01*
X124614289Y-94328978D01*
X124518316Y-94176238D01*
X124518315Y-94176237D01*
X124518314Y-94176235D01*
X124390764Y-94048685D01*
X124313177Y-93999934D01*
X124238022Y-93952711D01*
X124067755Y-93893132D01*
X124067753Y-93893131D01*
X124067751Y-93893131D01*
X123888500Y-93872934D01*
X123709248Y-93893131D01*
X123709245Y-93893131D01*
X123709245Y-93893132D01*
X123538978Y-93952711D01*
X123538976Y-93952711D01*
X123538976Y-93952712D01*
X123386235Y-94048685D01*
X123258685Y-94176235D01*
X123162712Y-94328976D01*
X123162711Y-94328978D01*
X123118272Y-94455978D01*
X123103131Y-94499248D01*
X123082934Y-94678499D01*
X120869756Y-94678499D01*
X120863868Y-94626245D01*
X120804289Y-94455978D01*
X120708316Y-94303238D01*
X120708315Y-94303237D01*
X120708314Y-94303235D01*
X120580764Y-94175685D01*
X120518367Y-94136478D01*
X120428022Y-94079711D01*
X120257755Y-94020132D01*
X120257753Y-94020131D01*
X120257751Y-94020131D01*
X120078500Y-93999934D01*
X119899248Y-94020131D01*
X119899245Y-94020131D01*
X119899245Y-94020132D01*
X119728978Y-94079711D01*
X119728976Y-94079711D01*
X119728976Y-94079712D01*
X119576235Y-94175685D01*
X119448685Y-94303235D01*
X119352712Y-94455976D01*
X119293131Y-94626248D01*
X119272934Y-94805500D01*
X101339500Y-94805500D01*
X101339500Y-93844000D01*
X109740434Y-93844000D01*
X109760631Y-94023251D01*
X109760631Y-94023253D01*
X109760632Y-94023255D01*
X109820211Y-94193522D01*
X109820212Y-94193523D01*
X109916185Y-94346264D01*
X110043735Y-94473814D01*
X110043737Y-94473815D01*
X110043738Y-94473816D01*
X110196478Y-94569789D01*
X110366745Y-94629368D01*
X110546000Y-94649565D01*
X110725255Y-94629368D01*
X110895522Y-94569789D01*
X111048262Y-94473816D01*
X111175816Y-94346262D01*
X111271789Y-94193522D01*
X111331368Y-94023255D01*
X111351565Y-93844000D01*
X111331368Y-93664745D01*
X111271789Y-93494478D01*
X111175816Y-93341738D01*
X111175815Y-93341737D01*
X111175814Y-93341735D01*
X111048264Y-93214185D01*
X110985867Y-93174978D01*
X110895522Y-93118211D01*
X110725255Y-93058632D01*
X110725253Y-93058631D01*
X110725251Y-93058631D01*
X110546000Y-93038434D01*
X110366748Y-93058631D01*
X110366745Y-93058631D01*
X110366745Y-93058632D01*
X110196478Y-93118211D01*
X110196476Y-93118211D01*
X110196476Y-93118212D01*
X110043735Y-93214185D01*
X109916185Y-93341735D01*
X109820212Y-93494476D01*
X109760631Y-93664748D01*
X109740434Y-93844000D01*
X101339500Y-93844000D01*
X101339500Y-92583000D01*
X132036434Y-92583000D01*
X132056631Y-92762251D01*
X132056631Y-92762253D01*
X132056632Y-92762255D01*
X132116211Y-92932522D01*
X132116212Y-92932523D01*
X132212185Y-93085264D01*
X132339735Y-93212814D01*
X132339737Y-93212815D01*
X132339738Y-93212816D01*
X132492478Y-93308789D01*
X132662745Y-93368368D01*
X132842000Y-93388565D01*
X133021255Y-93368368D01*
X133191522Y-93308789D01*
X133344262Y-93212816D01*
X133471816Y-93085262D01*
X133567789Y-92932522D01*
X133627368Y-92762255D01*
X133647565Y-92583000D01*
X133627368Y-92403745D01*
X133567789Y-92233478D01*
X133471816Y-92080738D01*
X133471815Y-92080737D01*
X133471814Y-92080735D01*
X133344264Y-91953185D01*
X133336012Y-91948000D01*
X137833434Y-91948000D01*
X137853631Y-92127251D01*
X137853631Y-92127253D01*
X137853632Y-92127255D01*
X137913211Y-92297522D01*
X137913212Y-92297523D01*
X138009185Y-92450264D01*
X138136735Y-92577814D01*
X138136737Y-92577815D01*
X138136738Y-92577816D01*
X138289478Y-92673789D01*
X138459745Y-92733368D01*
X138639000Y-92753565D01*
X138818255Y-92733368D01*
X138988522Y-92673789D01*
X139141262Y-92577816D01*
X139268816Y-92450262D01*
X139364789Y-92297522D01*
X139424368Y-92127255D01*
X139444565Y-91948000D01*
X139443918Y-91942262D01*
X139432751Y-91843151D01*
X139424368Y-91768745D01*
X139364789Y-91598478D01*
X139268816Y-91445738D01*
X139268815Y-91445737D01*
X139268814Y-91445735D01*
X139141264Y-91318185D01*
X139028381Y-91247256D01*
X138988522Y-91222211D01*
X138818255Y-91162632D01*
X138818253Y-91162631D01*
X138818251Y-91162631D01*
X138639000Y-91142434D01*
X138459748Y-91162631D01*
X138459745Y-91162631D01*
X138459745Y-91162632D01*
X138289478Y-91222211D01*
X138289476Y-91222211D01*
X138289476Y-91222212D01*
X138136735Y-91318185D01*
X138009185Y-91445735D01*
X137917774Y-91591216D01*
X137913211Y-91598478D01*
X137853632Y-91768745D01*
X137853631Y-91768748D01*
X137833434Y-91948000D01*
X133336012Y-91948000D01*
X133281867Y-91913979D01*
X133191522Y-91857211D01*
X133021255Y-91797632D01*
X133021253Y-91797631D01*
X133021251Y-91797631D01*
X132842000Y-91777434D01*
X132662748Y-91797631D01*
X132662745Y-91797631D01*
X132662745Y-91797632D01*
X132492478Y-91857211D01*
X132492476Y-91857211D01*
X132492476Y-91857212D01*
X132339735Y-91953185D01*
X132212185Y-92080735D01*
X132116212Y-92233476D01*
X132056631Y-92403748D01*
X132036434Y-92583000D01*
X101339500Y-92583000D01*
X101339500Y-91440000D01*
X128734434Y-91440000D01*
X128754631Y-91619251D01*
X128754631Y-91619253D01*
X128754632Y-91619255D01*
X128814211Y-91789522D01*
X128870979Y-91879867D01*
X128910185Y-91942264D01*
X129037735Y-92069814D01*
X129037737Y-92069815D01*
X129037738Y-92069816D01*
X129190478Y-92165789D01*
X129360745Y-92225368D01*
X129540000Y-92245565D01*
X129719255Y-92225368D01*
X129889522Y-92165789D01*
X130042262Y-92069816D01*
X130169816Y-91942262D01*
X130265789Y-91789522D01*
X130325368Y-91619255D01*
X130345565Y-91440000D01*
X130325368Y-91260745D01*
X130265789Y-91090478D01*
X130246009Y-91058999D01*
X150605540Y-91058999D01*
X150625326Y-91247257D01*
X150683820Y-91427284D01*
X150778466Y-91591216D01*
X150905129Y-91731889D01*
X151058269Y-91843151D01*
X151231197Y-91920144D01*
X151416352Y-91959500D01*
X151416354Y-91959500D01*
X151605646Y-91959500D01*
X151605648Y-91959500D01*
X151729083Y-91933262D01*
X151790803Y-91920144D01*
X151963730Y-91843151D01*
X152054182Y-91777434D01*
X152116870Y-91731889D01*
X152243533Y-91591216D01*
X152338179Y-91427284D01*
X152338178Y-91427284D01*
X152396674Y-91247256D01*
X152416460Y-91059000D01*
X152396674Y-90870744D01*
X152366332Y-90777363D01*
X152338179Y-90690715D01*
X152243533Y-90526783D01*
X152116870Y-90386110D01*
X151963730Y-90274848D01*
X151790802Y-90197855D01*
X151605648Y-90158500D01*
X151605646Y-90158500D01*
X151416354Y-90158500D01*
X151416352Y-90158500D01*
X151231197Y-90197855D01*
X151058269Y-90274848D01*
X150905129Y-90386110D01*
X150778466Y-90526783D01*
X150683820Y-90690715D01*
X150625326Y-90870742D01*
X150605540Y-91058999D01*
X130246009Y-91058999D01*
X130169816Y-90937738D01*
X130169815Y-90937737D01*
X130169814Y-90937735D01*
X130042264Y-90810185D01*
X129979867Y-90770978D01*
X129889522Y-90714211D01*
X129719255Y-90654632D01*
X129719253Y-90654631D01*
X129719251Y-90654631D01*
X129540000Y-90634434D01*
X129360748Y-90654631D01*
X129360745Y-90654631D01*
X129360745Y-90654632D01*
X129190478Y-90714211D01*
X129190476Y-90714211D01*
X129190476Y-90714212D01*
X129037735Y-90810185D01*
X128910185Y-90937735D01*
X128833990Y-91059000D01*
X128814211Y-91090478D01*
X128788964Y-91162631D01*
X128754631Y-91260748D01*
X128734434Y-91440000D01*
X101339500Y-91440000D01*
X101339500Y-87756999D01*
X101988753Y-87756999D01*
X102007719Y-88058452D01*
X102064319Y-88355163D01*
X102157658Y-88642428D01*
X102286268Y-88915739D01*
X102410968Y-89112234D01*
X102448115Y-89170768D01*
X102600449Y-89354909D01*
X102640650Y-89403503D01*
X102860839Y-89610276D01*
X103105204Y-89787816D01*
X103237550Y-89860574D01*
X103369896Y-89933332D01*
X103510316Y-89988928D01*
X103650737Y-90044525D01*
X103805141Y-90084168D01*
X103943302Y-90119642D01*
X104192314Y-90151100D01*
X104242972Y-90157500D01*
X104242973Y-90157500D01*
X104545027Y-90157500D01*
X104545028Y-90157500D01*
X104588360Y-90152025D01*
X104844698Y-90119642D01*
X105137262Y-90044525D01*
X105418104Y-89933332D01*
X105682795Y-89787816D01*
X105682795Y-89787815D01*
X105927160Y-89610276D01*
X105951079Y-89587814D01*
X106147349Y-89403504D01*
X106339885Y-89170768D01*
X106501733Y-88915736D01*
X106630341Y-88642430D01*
X106723681Y-88355160D01*
X106780280Y-88058457D01*
X106799246Y-87757000D01*
X106780280Y-87455543D01*
X106723681Y-87158840D01*
X106721803Y-87153061D01*
X106718209Y-87142000D01*
X133134434Y-87142000D01*
X133154631Y-87321251D01*
X133154631Y-87321253D01*
X133154632Y-87321255D01*
X133214211Y-87491522D01*
X133248673Y-87546368D01*
X133310185Y-87644264D01*
X133437735Y-87771814D01*
X133437737Y-87771815D01*
X133437738Y-87771816D01*
X133590478Y-87867789D01*
X133760745Y-87927368D01*
X133940000Y-87947565D01*
X134119255Y-87927368D01*
X134289522Y-87867789D01*
X134442262Y-87771816D01*
X134569816Y-87644262D01*
X134594681Y-87604688D01*
X134645873Y-87558940D01*
X134713559Y-87547440D01*
X134883300Y-87566565D01*
X135062555Y-87546368D01*
X135232822Y-87486789D01*
X135385562Y-87390816D01*
X135425318Y-87351059D01*
X135480906Y-87318965D01*
X135545094Y-87318965D01*
X135600682Y-87351060D01*
X135640436Y-87390815D01*
X135640438Y-87390816D01*
X135793178Y-87486789D01*
X135963445Y-87546368D01*
X136142700Y-87566565D01*
X136321955Y-87546368D01*
X136492222Y-87486789D01*
X136644962Y-87390816D01*
X136772516Y-87263262D01*
X136868489Y-87110522D01*
X136928068Y-86940255D01*
X136948265Y-86761000D01*
X136928068Y-86581745D01*
X136868489Y-86411478D01*
X136772516Y-86258738D01*
X136772515Y-86258737D01*
X136772514Y-86258735D01*
X136644964Y-86131185D01*
X136582567Y-86091979D01*
X136492222Y-86035211D01*
X136321955Y-85975632D01*
X136321953Y-85975631D01*
X136321951Y-85975631D01*
X136142700Y-85955434D01*
X135963448Y-85975631D01*
X135963445Y-85975631D01*
X135963445Y-85975632D01*
X135793178Y-86035211D01*
X135793176Y-86035211D01*
X135793176Y-86035212D01*
X135640435Y-86131185D01*
X135600681Y-86170940D01*
X135545094Y-86203034D01*
X135480906Y-86203034D01*
X135425319Y-86170940D01*
X135385564Y-86131185D01*
X135323167Y-86091979D01*
X135232822Y-86035211D01*
X135062555Y-85975632D01*
X135062553Y-85975631D01*
X135062551Y-85975631D01*
X134883300Y-85955434D01*
X134704048Y-85975631D01*
X134704045Y-85975631D01*
X134704045Y-85975632D01*
X134533778Y-86035211D01*
X134533776Y-86035211D01*
X134533776Y-86035212D01*
X134381038Y-86131183D01*
X134253484Y-86258738D01*
X134228617Y-86298313D01*
X134177425Y-86344060D01*
X134109741Y-86355559D01*
X133940000Y-86336434D01*
X133760748Y-86356631D01*
X133760745Y-86356631D01*
X133760745Y-86356632D01*
X133590478Y-86416211D01*
X133590476Y-86416211D01*
X133590476Y-86416212D01*
X133437735Y-86512185D01*
X133310185Y-86639735D01*
X133233990Y-86761000D01*
X133214211Y-86792478D01*
X133197655Y-86839793D01*
X133154631Y-86962748D01*
X133134434Y-87142000D01*
X106718209Y-87142000D01*
X106665063Y-86978433D01*
X106630341Y-86871570D01*
X106501733Y-86598264D01*
X106501732Y-86598263D01*
X106501731Y-86598260D01*
X106383194Y-86411476D01*
X106339885Y-86343232D01*
X106147349Y-86110496D01*
X106124870Y-86089387D01*
X105927160Y-85903723D01*
X105682795Y-85726183D01*
X105418102Y-85580667D01*
X105137262Y-85469474D01*
X104844700Y-85394358D01*
X104545028Y-85356500D01*
X104545027Y-85356500D01*
X104242973Y-85356500D01*
X104242972Y-85356500D01*
X103943299Y-85394358D01*
X103650737Y-85469474D01*
X103369897Y-85580667D01*
X103105204Y-85726183D01*
X102860839Y-85903723D01*
X102640650Y-86110496D01*
X102448114Y-86343233D01*
X102286268Y-86598260D01*
X102157658Y-86871571D01*
X102064319Y-87158836D01*
X102007719Y-87455547D01*
X101988753Y-87756999D01*
X101339500Y-87756999D01*
X101339500Y-84706000D01*
X101356113Y-84644000D01*
X101401500Y-84598613D01*
X101463500Y-84582000D01*
X112550000Y-84582000D01*
X112612000Y-84598613D01*
X112657387Y-84644000D01*
X112674000Y-84706000D01*
X112674000Y-84902824D01*
X112680402Y-84962375D01*
X112730647Y-85097089D01*
X112816811Y-85212188D01*
X112931910Y-85298352D01*
X113066624Y-85348597D01*
X113126176Y-85355000D01*
X113774000Y-85355000D01*
X113774000Y-84582000D01*
X114274000Y-84582000D01*
X114274000Y-85355000D01*
X114921824Y-85355000D01*
X114981375Y-85348597D01*
X115116089Y-85298352D01*
X115231188Y-85212188D01*
X115317352Y-85097089D01*
X115366422Y-84965528D01*
X115401401Y-84915149D01*
X115456246Y-84887696D01*
X115517539Y-84889885D01*
X115570285Y-84921181D01*
X115692599Y-85043495D01*
X115886170Y-85179035D01*
X116100337Y-85278903D01*
X116328592Y-85340063D01*
X116564000Y-85360659D01*
X116799408Y-85340063D01*
X117027663Y-85278903D01*
X117241830Y-85179035D01*
X117435401Y-85043495D01*
X117602495Y-84876401D01*
X117732426Y-84690839D01*
X117776743Y-84651975D01*
X117834000Y-84637964D01*
X117891257Y-84651975D01*
X117935573Y-84690839D01*
X118065505Y-84876401D01*
X118232599Y-85043495D01*
X118426170Y-85179035D01*
X118640337Y-85278903D01*
X118868592Y-85340063D01*
X119104000Y-85360659D01*
X119339408Y-85340063D01*
X119567663Y-85278903D01*
X119781830Y-85179035D01*
X119975401Y-85043495D01*
X120142495Y-84876401D01*
X120278035Y-84682830D01*
X120291667Y-84653595D01*
X120337424Y-84601420D01*
X120404049Y-84582000D01*
X121920000Y-84582000D01*
X121920000Y-81754500D01*
X121936613Y-81692500D01*
X121982000Y-81647113D01*
X122044000Y-81630500D01*
X144992650Y-81630500D01*
X145047785Y-81643432D01*
G37*
%TD.AperFunction*%
%TD*%
%TA.AperFunction,Conductor*%
%TO.N,+3V3*%
G36*
X174104864Y-87186211D02*
G01*
X174150484Y-87234285D01*
X174164829Y-87298989D01*
X174143800Y-87361840D01*
X174093404Y-87404882D01*
X173959264Y-87467432D01*
X173772859Y-87597953D01*
X173611953Y-87758859D01*
X173481432Y-87945264D01*
X173385261Y-88151502D01*
X173326364Y-88371310D01*
X173306531Y-88597999D01*
X173326364Y-88824689D01*
X173385261Y-89044497D01*
X173481432Y-89250735D01*
X173611953Y-89437140D01*
X173772859Y-89598046D01*
X173805794Y-89621107D01*
X173959266Y-89728568D01*
X174017275Y-89755618D01*
X174069450Y-89801375D01*
X174088869Y-89868000D01*
X174069450Y-89934625D01*
X174017275Y-89980382D01*
X173959263Y-90007433D01*
X173772859Y-90137953D01*
X173611953Y-90298859D01*
X173481432Y-90485264D01*
X173385261Y-90691502D01*
X173326364Y-90911310D01*
X173306531Y-91137999D01*
X173326364Y-91364689D01*
X173385261Y-91584497D01*
X173481432Y-91790735D01*
X173611953Y-91977140D01*
X173772859Y-92138046D01*
X173946281Y-92259476D01*
X173959266Y-92268568D01*
X173988022Y-92281977D01*
X174017275Y-92295618D01*
X174069450Y-92341375D01*
X174088869Y-92408000D01*
X174069450Y-92474625D01*
X174017275Y-92520382D01*
X173959263Y-92547433D01*
X173772859Y-92677953D01*
X173611953Y-92838859D01*
X173481432Y-93025264D01*
X173385261Y-93231502D01*
X173326364Y-93451310D01*
X173306531Y-93677999D01*
X173326364Y-93904689D01*
X173385261Y-94124497D01*
X173481432Y-94330735D01*
X173611953Y-94517140D01*
X173772859Y-94678046D01*
X173957122Y-94807067D01*
X173959266Y-94808568D01*
X174017275Y-94835618D01*
X174069450Y-94881375D01*
X174088869Y-94948000D01*
X174069450Y-95014625D01*
X174017275Y-95060382D01*
X173959263Y-95087433D01*
X173772859Y-95217953D01*
X173611953Y-95378859D01*
X173481432Y-95565264D01*
X173385261Y-95771502D01*
X173326364Y-95991310D01*
X173306531Y-96217999D01*
X173326364Y-96444689D01*
X173385261Y-96664497D01*
X173481432Y-96870735D01*
X173611953Y-97057140D01*
X173772858Y-97218045D01*
X173797461Y-97235272D01*
X173836599Y-97280114D01*
X173850333Y-97338028D01*
X173835500Y-97395669D01*
X173795516Y-97439758D01*
X173739594Y-97460138D01*
X173704515Y-97463909D01*
X173569669Y-97514204D01*
X173454454Y-97600454D01*
X173368204Y-97715668D01*
X173317909Y-97850515D01*
X173317909Y-97850517D01*
X173313919Y-97887634D01*
X173311500Y-97910131D01*
X173311500Y-99192100D01*
X173292494Y-99258072D01*
X173241302Y-99303820D01*
X173173616Y-99315320D01*
X173006000Y-99296434D01*
X172826748Y-99316631D01*
X172826745Y-99316631D01*
X172826745Y-99316632D01*
X172656478Y-99376211D01*
X172656476Y-99376211D01*
X172656476Y-99376212D01*
X172503735Y-99472185D01*
X172376185Y-99599735D01*
X172330259Y-99672827D01*
X172280211Y-99752478D01*
X172240348Y-99866401D01*
X172220631Y-99922748D01*
X172200434Y-100102000D01*
X172220631Y-100281251D01*
X172220631Y-100281253D01*
X172220632Y-100281255D01*
X172280211Y-100451522D01*
X172280212Y-100451523D01*
X172376185Y-100604264D01*
X172503735Y-100731814D01*
X172503737Y-100731815D01*
X172503738Y-100731816D01*
X172656478Y-100827789D01*
X172826745Y-100887368D01*
X173006000Y-100907565D01*
X173185255Y-100887368D01*
X173355522Y-100827789D01*
X173508262Y-100731816D01*
X173635816Y-100604262D01*
X173731789Y-100451522D01*
X173791368Y-100281255D01*
X173799651Y-100207742D01*
X173804060Y-100168615D01*
X173824826Y-100112647D01*
X173869339Y-100072869D01*
X173927280Y-100058499D01*
X174370720Y-100058499D01*
X174428661Y-100072869D01*
X174473174Y-100112647D01*
X174493940Y-100168615D01*
X174506631Y-100281250D01*
X174506631Y-100281251D01*
X174506632Y-100281255D01*
X174566211Y-100451522D01*
X174566212Y-100451523D01*
X174662185Y-100604264D01*
X174789737Y-100731816D01*
X174872987Y-100784125D01*
X174917218Y-100832273D01*
X174930812Y-100896225D01*
X174909990Y-100958202D01*
X174860539Y-101000973D01*
X174796209Y-101012647D01*
X174612000Y-100996531D01*
X174385310Y-101016364D01*
X174165502Y-101075261D01*
X173959264Y-101171432D01*
X173772859Y-101301953D01*
X173611953Y-101462859D01*
X173481432Y-101649264D01*
X173385261Y-101855502D01*
X173326364Y-102075310D01*
X173306531Y-102301999D01*
X173326364Y-102528689D01*
X173385261Y-102748497D01*
X173481432Y-102954735D01*
X173611953Y-103141140D01*
X173772859Y-103302046D01*
X173959263Y-103432566D01*
X173959266Y-103432568D01*
X174010063Y-103456255D01*
X174017275Y-103459618D01*
X174069450Y-103505375D01*
X174088869Y-103572000D01*
X174069450Y-103638625D01*
X174017275Y-103684382D01*
X173959263Y-103711433D01*
X173772859Y-103841953D01*
X173611953Y-104002859D01*
X173481432Y-104189264D01*
X173385261Y-104395502D01*
X173326364Y-104615310D01*
X173306531Y-104841999D01*
X173326364Y-105068689D01*
X173385261Y-105288497D01*
X173481432Y-105494735D01*
X173611953Y-105681140D01*
X173772859Y-105842046D01*
X173908712Y-105937170D01*
X173959266Y-105972568D01*
X174017275Y-105999618D01*
X174069450Y-106045375D01*
X174088869Y-106112000D01*
X174069450Y-106178625D01*
X174017275Y-106224381D01*
X174006346Y-106229478D01*
X173959263Y-106251433D01*
X173772859Y-106381953D01*
X173611953Y-106542859D01*
X173481432Y-106729264D01*
X173385261Y-106935502D01*
X173326364Y-107155310D01*
X173306531Y-107381999D01*
X173326364Y-107608689D01*
X173385261Y-107828497D01*
X173481432Y-108034735D01*
X173611953Y-108221140D01*
X173772859Y-108382046D01*
X173959263Y-108512566D01*
X173959266Y-108512568D01*
X174010063Y-108536255D01*
X174017275Y-108539618D01*
X174069450Y-108585375D01*
X174088869Y-108652000D01*
X174069450Y-108718625D01*
X174017275Y-108764382D01*
X173959263Y-108791433D01*
X173772859Y-108921953D01*
X173611953Y-109082859D01*
X173481432Y-109269264D01*
X173385261Y-109475502D01*
X173326364Y-109695310D01*
X173306531Y-109921999D01*
X173326364Y-110148689D01*
X173385261Y-110368497D01*
X173481432Y-110574735D01*
X173611953Y-110761140D01*
X173772858Y-110922045D01*
X173797461Y-110939272D01*
X173836599Y-110984114D01*
X173850333Y-111042028D01*
X173835500Y-111099669D01*
X173795516Y-111143758D01*
X173739594Y-111164138D01*
X173704515Y-111167909D01*
X173569669Y-111218204D01*
X173454454Y-111304454D01*
X173368204Y-111419668D01*
X173317909Y-111554516D01*
X173311500Y-111614130D01*
X173311500Y-113309869D01*
X173316198Y-113353565D01*
X173317909Y-113369483D01*
X173368204Y-113504331D01*
X173454454Y-113619546D01*
X173569669Y-113705796D01*
X173704517Y-113756091D01*
X173764127Y-113762500D01*
X175459872Y-113762499D01*
X175519483Y-113756091D01*
X175654331Y-113705796D01*
X175769546Y-113619546D01*
X175855796Y-113504331D01*
X175906091Y-113369483D01*
X175912500Y-113309873D01*
X175912500Y-112548000D01*
X182614434Y-112548000D01*
X182634631Y-112727251D01*
X182634631Y-112727253D01*
X182634632Y-112727255D01*
X182694211Y-112897522D01*
X182701107Y-112908497D01*
X182790185Y-113050264D01*
X182917735Y-113177814D01*
X182917737Y-113177815D01*
X182917738Y-113177816D01*
X183070478Y-113273789D01*
X183240745Y-113333368D01*
X183420000Y-113353565D01*
X183599255Y-113333368D01*
X183769522Y-113273789D01*
X183922262Y-113177816D01*
X184049816Y-113050262D01*
X184145789Y-112897522D01*
X184205368Y-112727255D01*
X184225565Y-112548000D01*
X184215875Y-112461999D01*
X188546531Y-112461999D01*
X188566364Y-112688689D01*
X188625261Y-112908497D01*
X188721432Y-113114735D01*
X188851953Y-113301140D01*
X189012859Y-113462046D01*
X189199264Y-113592567D01*
X189199265Y-113592567D01*
X189199266Y-113592568D01*
X189405504Y-113688739D01*
X189625308Y-113747635D01*
X189852000Y-113767468D01*
X190078692Y-113747635D01*
X190298496Y-113688739D01*
X190504734Y-113592568D01*
X190691139Y-113462047D01*
X190852047Y-113301139D01*
X190982568Y-113114734D01*
X191078739Y-112908496D01*
X191137635Y-112688692D01*
X191157468Y-112462000D01*
X191137635Y-112235308D01*
X191078739Y-112015504D01*
X190982568Y-111809266D01*
X190852047Y-111622861D01*
X190852046Y-111622859D01*
X190691140Y-111461953D01*
X190504733Y-111331431D01*
X190457654Y-111309478D01*
X190446724Y-111304381D01*
X190394549Y-111258625D01*
X190375129Y-111192000D01*
X190394549Y-111125375D01*
X190446725Y-111079618D01*
X190504734Y-111052568D01*
X190691139Y-110922047D01*
X190852047Y-110761139D01*
X190982568Y-110574734D01*
X191078739Y-110368496D01*
X191137635Y-110148692D01*
X191157468Y-109922000D01*
X191137635Y-109695308D01*
X191078739Y-109475504D01*
X190982568Y-109269266D01*
X190852047Y-109082861D01*
X190852046Y-109082859D01*
X190691140Y-108921953D01*
X190504733Y-108791431D01*
X190446725Y-108764382D01*
X190394549Y-108718625D01*
X190375129Y-108652000D01*
X190394549Y-108585375D01*
X190446725Y-108539618D01*
X190453937Y-108536255D01*
X190504734Y-108512568D01*
X190691139Y-108382047D01*
X190852047Y-108221139D01*
X190982568Y-108034734D01*
X191078739Y-107828496D01*
X191137635Y-107608692D01*
X191157468Y-107382000D01*
X191137635Y-107155308D01*
X191078739Y-106935504D01*
X190982568Y-106729266D01*
X190944236Y-106674522D01*
X190852046Y-106542859D01*
X190691140Y-106381953D01*
X190504733Y-106251431D01*
X190457654Y-106229478D01*
X190446724Y-106224381D01*
X190394549Y-106178625D01*
X190375129Y-106112000D01*
X190394549Y-106045375D01*
X190446725Y-105999618D01*
X190504734Y-105972568D01*
X190691139Y-105842047D01*
X190852047Y-105681139D01*
X190982568Y-105494734D01*
X191078739Y-105288496D01*
X191137635Y-105068692D01*
X191157468Y-104842000D01*
X191137635Y-104615308D01*
X191078739Y-104395504D01*
X190982568Y-104189266D01*
X190852047Y-104002861D01*
X190852046Y-104002859D01*
X190691140Y-103841953D01*
X190504733Y-103711431D01*
X190446725Y-103684382D01*
X190394549Y-103638625D01*
X190375129Y-103572000D01*
X190394549Y-103505375D01*
X190446725Y-103459618D01*
X190453937Y-103456255D01*
X190504734Y-103432568D01*
X190691139Y-103302047D01*
X190852047Y-103141139D01*
X190982568Y-102954734D01*
X191078739Y-102748496D01*
X191137635Y-102528692D01*
X191157468Y-102302000D01*
X191137635Y-102075308D01*
X191078739Y-101855504D01*
X190982568Y-101649266D01*
X190940922Y-101589789D01*
X190852046Y-101462859D01*
X190691140Y-101301953D01*
X190504735Y-101171432D01*
X190298497Y-101075261D01*
X190078689Y-101016364D01*
X189852000Y-100996531D01*
X189625310Y-101016364D01*
X189405502Y-101075261D01*
X189199264Y-101171432D01*
X189012859Y-101301953D01*
X188851953Y-101462859D01*
X188721432Y-101649264D01*
X188625261Y-101855502D01*
X188566364Y-102075310D01*
X188546531Y-102301999D01*
X188566364Y-102528689D01*
X188625261Y-102748497D01*
X188721432Y-102954735D01*
X188851953Y-103141140D01*
X189012859Y-103302046D01*
X189199263Y-103432566D01*
X189199266Y-103432568D01*
X189250063Y-103456255D01*
X189257275Y-103459618D01*
X189309450Y-103505375D01*
X189328869Y-103572000D01*
X189309450Y-103638625D01*
X189257275Y-103684382D01*
X189199263Y-103711433D01*
X189012859Y-103841953D01*
X188851953Y-104002859D01*
X188721432Y-104189264D01*
X188625261Y-104395502D01*
X188566364Y-104615310D01*
X188546531Y-104841999D01*
X188566364Y-105068689D01*
X188625261Y-105288497D01*
X188721432Y-105494735D01*
X188851953Y-105681140D01*
X189012859Y-105842046D01*
X189148712Y-105937170D01*
X189199266Y-105972568D01*
X189257275Y-105999618D01*
X189309450Y-106045375D01*
X189328869Y-106112000D01*
X189309450Y-106178625D01*
X189257275Y-106224381D01*
X189246346Y-106229478D01*
X189199263Y-106251433D01*
X189012859Y-106381953D01*
X188851953Y-106542859D01*
X188721432Y-106729264D01*
X188625261Y-106935502D01*
X188566364Y-107155310D01*
X188546531Y-107381999D01*
X188566364Y-107608689D01*
X188625261Y-107828497D01*
X188721432Y-108034735D01*
X188851953Y-108221140D01*
X189012859Y-108382046D01*
X189199263Y-108512566D01*
X189199266Y-108512568D01*
X189250063Y-108536255D01*
X189257275Y-108539618D01*
X189309450Y-108585375D01*
X189328869Y-108652000D01*
X189309450Y-108718625D01*
X189257275Y-108764382D01*
X189199263Y-108791433D01*
X189012859Y-108921953D01*
X188851953Y-109082859D01*
X188721432Y-109269264D01*
X188625261Y-109475502D01*
X188566364Y-109695310D01*
X188546531Y-109921999D01*
X188566364Y-110148689D01*
X188625261Y-110368497D01*
X188721432Y-110574735D01*
X188851953Y-110761140D01*
X189012859Y-110922046D01*
X189149070Y-111017421D01*
X189199266Y-111052568D01*
X189257275Y-111079618D01*
X189309450Y-111125375D01*
X189328869Y-111192000D01*
X189309450Y-111258625D01*
X189257275Y-111304381D01*
X189246346Y-111309478D01*
X189199263Y-111331433D01*
X189012859Y-111461953D01*
X188851953Y-111622859D01*
X188721432Y-111809264D01*
X188625261Y-112015502D01*
X188566364Y-112235310D01*
X188546531Y-112461999D01*
X184215875Y-112461999D01*
X184205368Y-112368745D01*
X184169389Y-112265925D01*
X184163211Y-112211087D01*
X184181435Y-112159002D01*
X184275989Y-112008522D01*
X184335568Y-111838255D01*
X184355765Y-111659000D01*
X184335568Y-111479745D01*
X184275989Y-111309478D01*
X184180016Y-111156738D01*
X184180015Y-111156737D01*
X184180014Y-111156735D01*
X184052464Y-111029185D01*
X183980734Y-110984114D01*
X183899722Y-110933211D01*
X183729455Y-110873632D01*
X183729453Y-110873631D01*
X183729451Y-110873631D01*
X183550200Y-110853434D01*
X183370948Y-110873631D01*
X183370945Y-110873631D01*
X183370945Y-110873632D01*
X183200678Y-110933211D01*
X183200676Y-110933211D01*
X183200676Y-110933212D01*
X183047935Y-111029185D01*
X182920385Y-111156735D01*
X182856364Y-111258625D01*
X182824411Y-111309478D01*
X182816729Y-111331432D01*
X182764831Y-111479748D01*
X182744634Y-111658999D01*
X182764831Y-111838252D01*
X182800810Y-111941074D01*
X182806988Y-111995911D01*
X182788762Y-112048000D01*
X182694212Y-112198476D01*
X182634631Y-112368748D01*
X182614434Y-112548000D01*
X175912500Y-112548000D01*
X175912499Y-111614128D01*
X175906091Y-111554517D01*
X175855796Y-111419669D01*
X175769546Y-111304454D01*
X175654331Y-111218204D01*
X175519483Y-111167909D01*
X175484404Y-111164137D01*
X175428484Y-111143758D01*
X175388500Y-111099669D01*
X175373667Y-111042028D01*
X175387401Y-110984114D01*
X175426539Y-110939272D01*
X175428470Y-110937919D01*
X175451139Y-110922047D01*
X175612047Y-110761139D01*
X175742568Y-110574734D01*
X175838739Y-110368496D01*
X175897635Y-110148692D01*
X175917468Y-109922000D01*
X175897635Y-109695308D01*
X175838739Y-109475504D01*
X175742568Y-109269266D01*
X175612047Y-109082861D01*
X175612046Y-109082859D01*
X175451140Y-108921953D01*
X175264733Y-108791431D01*
X175206725Y-108764382D01*
X175154549Y-108718625D01*
X175135129Y-108652000D01*
X175154549Y-108585375D01*
X175206725Y-108539618D01*
X175213937Y-108536255D01*
X175264734Y-108512568D01*
X175451139Y-108382047D01*
X175612047Y-108221139D01*
X175742568Y-108034734D01*
X175838739Y-107828496D01*
X175897635Y-107608692D01*
X175917468Y-107382000D01*
X175904739Y-107236517D01*
X175914125Y-107177259D01*
X175950232Y-107129343D01*
X176004608Y-107103987D01*
X176064522Y-107107127D01*
X176115949Y-107138028D01*
X176186735Y-107208814D01*
X176186737Y-107208815D01*
X176186738Y-107208816D01*
X176339478Y-107304789D01*
X176509745Y-107364368D01*
X176689000Y-107384565D01*
X176868255Y-107364368D01*
X177038522Y-107304789D01*
X177191262Y-107208816D01*
X177244770Y-107155308D01*
X177328696Y-107071383D01*
X177331104Y-107073791D01*
X177359929Y-107047033D01*
X177422516Y-107032739D01*
X177468978Y-107047068D01*
X177469291Y-107046174D01*
X177482475Y-107050787D01*
X177482478Y-107050789D01*
X177652745Y-107110368D01*
X177832000Y-107130565D01*
X178011255Y-107110368D01*
X178167299Y-107055766D01*
X182075200Y-107055766D01*
X182095397Y-107235017D01*
X182095397Y-107235019D01*
X182095398Y-107235021D01*
X182154977Y-107405288D01*
X182154978Y-107405289D01*
X182250951Y-107558030D01*
X182378501Y-107685580D01*
X182378503Y-107685581D01*
X182378504Y-107685582D01*
X182531244Y-107781555D01*
X182701511Y-107841134D01*
X182718157Y-107843009D01*
X182770242Y-107861234D01*
X182809265Y-107900256D01*
X182827492Y-107952344D01*
X182821314Y-108007183D01*
X182761631Y-108177747D01*
X182741434Y-108357000D01*
X182761631Y-108536251D01*
X182761631Y-108536253D01*
X182761632Y-108536255D01*
X182821211Y-108706522D01*
X182821212Y-108706523D01*
X182917185Y-108859264D01*
X183044735Y-108986814D01*
X183044737Y-108986815D01*
X183044738Y-108986816D01*
X183197478Y-109082789D01*
X183367745Y-109142368D01*
X183547000Y-109162565D01*
X183726255Y-109142368D01*
X183896522Y-109082789D01*
X184049262Y-108986816D01*
X184176816Y-108859262D01*
X184272789Y-108706522D01*
X184332368Y-108536255D01*
X184332368Y-108536251D01*
X184336982Y-108523067D01*
X184340787Y-108524398D01*
X184357318Y-108484454D01*
X184394486Y-108458078D01*
X184392692Y-108455222D01*
X184404520Y-108447789D01*
X184404522Y-108447789D01*
X184557262Y-108351816D01*
X184610222Y-108298855D01*
X184656947Y-108269497D01*
X184711785Y-108263318D01*
X184763874Y-108281544D01*
X184802896Y-108320566D01*
X184822184Y-108351263D01*
X184949735Y-108478814D01*
X184949737Y-108478815D01*
X184949738Y-108478816D01*
X185102478Y-108574789D01*
X185272745Y-108634368D01*
X185452000Y-108654565D01*
X185631255Y-108634368D01*
X185801522Y-108574789D01*
X185954262Y-108478816D01*
X186081816Y-108351262D01*
X186177789Y-108198522D01*
X186237368Y-108028255D01*
X186257565Y-107849000D01*
X186237368Y-107669745D01*
X186177789Y-107499478D01*
X186081816Y-107346738D01*
X186081815Y-107346737D01*
X186081814Y-107346735D01*
X185954264Y-107219185D01*
X185825103Y-107138028D01*
X185801522Y-107123211D01*
X185631255Y-107063632D01*
X185631253Y-107063631D01*
X185631251Y-107063631D01*
X185451999Y-107043434D01*
X185272748Y-107063631D01*
X185272745Y-107063631D01*
X185272745Y-107063632D01*
X185102478Y-107123211D01*
X185102476Y-107123211D01*
X185102476Y-107123212D01*
X184949738Y-107219183D01*
X184896778Y-107272143D01*
X184850051Y-107301503D01*
X184795213Y-107307681D01*
X184743125Y-107289454D01*
X184704103Y-107250433D01*
X184684814Y-107219735D01*
X184631857Y-107166778D01*
X184602496Y-107120051D01*
X184596318Y-107065213D01*
X184614545Y-107013124D01*
X184653567Y-106974102D01*
X184684262Y-106954816D01*
X184811816Y-106827262D01*
X184907789Y-106674522D01*
X184967368Y-106504255D01*
X184987565Y-106325000D01*
X184967368Y-106145745D01*
X184907789Y-105975478D01*
X184811816Y-105822738D01*
X184811815Y-105822737D01*
X184811814Y-105822735D01*
X184684264Y-105695185D01*
X184621867Y-105655978D01*
X184531522Y-105599211D01*
X184361255Y-105539632D01*
X184361253Y-105539631D01*
X184361251Y-105539631D01*
X184182000Y-105519434D01*
X184002748Y-105539631D01*
X184002745Y-105539631D01*
X184002745Y-105539632D01*
X183832478Y-105599211D01*
X183832476Y-105599211D01*
X183832476Y-105599212D01*
X183679735Y-105695185D01*
X183552185Y-105822735D01*
X183456212Y-105975476D01*
X183396631Y-106145749D01*
X183387760Y-106224475D01*
X183369533Y-106276563D01*
X183330511Y-106315584D01*
X183278423Y-106333810D01*
X183223586Y-106327632D01*
X183216064Y-106325000D01*
X183060021Y-106270398D01*
X183060020Y-106270397D01*
X183060018Y-106270397D01*
X182880766Y-106250200D01*
X182701514Y-106270397D01*
X182701511Y-106270397D01*
X182701511Y-106270398D01*
X182531244Y-106329977D01*
X182531242Y-106329977D01*
X182531242Y-106329978D01*
X182378501Y-106425951D01*
X182250951Y-106553501D01*
X182154978Y-106706242D01*
X182154977Y-106706244D01*
X182136778Y-106758255D01*
X182095397Y-106876514D01*
X182075200Y-107055766D01*
X178167299Y-107055766D01*
X178181522Y-107050789D01*
X178334262Y-106954816D01*
X178461816Y-106827262D01*
X178557789Y-106674522D01*
X178617368Y-106504255D01*
X178637565Y-106325000D01*
X178617368Y-106145745D01*
X178557789Y-105975478D01*
X178461816Y-105822738D01*
X178461815Y-105822737D01*
X178461814Y-105822735D01*
X178334264Y-105695185D01*
X178271867Y-105655978D01*
X178181522Y-105599211D01*
X178011255Y-105539632D01*
X178011253Y-105539631D01*
X178011251Y-105539631D01*
X177832000Y-105519434D01*
X177652748Y-105539631D01*
X177652745Y-105539631D01*
X177652745Y-105539632D01*
X177482478Y-105599211D01*
X177482476Y-105599211D01*
X177482476Y-105599212D01*
X177329738Y-105695183D01*
X177281324Y-105743598D01*
X177202184Y-105822738D01*
X177202182Y-105822740D01*
X177192306Y-105832617D01*
X177189898Y-105830209D01*
X177161049Y-105856978D01*
X177098472Y-105871260D01*
X177052021Y-105856932D01*
X177051709Y-105857826D01*
X177038524Y-105853212D01*
X177038522Y-105853211D01*
X176868255Y-105793632D01*
X176868253Y-105793631D01*
X176868251Y-105793631D01*
X176689000Y-105773434D01*
X176509748Y-105793631D01*
X176509745Y-105793631D01*
X176509745Y-105793632D01*
X176339478Y-105853211D01*
X176339476Y-105853211D01*
X176339476Y-105853212D01*
X176186735Y-105949185D01*
X176059185Y-106076735D01*
X175963212Y-106229476D01*
X175963211Y-106229478D01*
X175928045Y-106329977D01*
X175903631Y-106399748D01*
X175886039Y-106555882D01*
X175865446Y-106611594D01*
X175821306Y-106651338D01*
X175763746Y-106665995D01*
X175705974Y-106652201D01*
X175661244Y-106613121D01*
X175612047Y-106542860D01*
X175451140Y-106381953D01*
X175264733Y-106251431D01*
X175217654Y-106229478D01*
X175206724Y-106224381D01*
X175154549Y-106178625D01*
X175135129Y-106112000D01*
X175154549Y-106045375D01*
X175206725Y-105999618D01*
X175264734Y-105972568D01*
X175451139Y-105842047D01*
X175612047Y-105681139D01*
X175742568Y-105494734D01*
X175838739Y-105288496D01*
X175897635Y-105068692D01*
X175917468Y-104842000D01*
X175897635Y-104615308D01*
X175838739Y-104395504D01*
X175742568Y-104189266D01*
X175612047Y-104002861D01*
X175612046Y-104002859D01*
X175451140Y-103841953D01*
X175264733Y-103711431D01*
X175206725Y-103684382D01*
X175154549Y-103638625D01*
X175135129Y-103572000D01*
X175154549Y-103505375D01*
X175206725Y-103459618D01*
X175213937Y-103456255D01*
X175264734Y-103432568D01*
X175451139Y-103302047D01*
X175612047Y-103141139D01*
X175742568Y-102954734D01*
X175829178Y-102769000D01*
X179312434Y-102769000D01*
X179332631Y-102948251D01*
X179332631Y-102948253D01*
X179332632Y-102948255D01*
X179392211Y-103118522D01*
X179392212Y-103118523D01*
X179488185Y-103271264D01*
X179615735Y-103398814D01*
X179615737Y-103398815D01*
X179615738Y-103398816D01*
X179768478Y-103494789D01*
X179938745Y-103554368D01*
X180028372Y-103564466D01*
X180117997Y-103574565D01*
X180117998Y-103574564D01*
X180118000Y-103574565D01*
X180162505Y-103569550D01*
X180230191Y-103581049D01*
X180281384Y-103626798D01*
X180377184Y-103779263D01*
X180504735Y-103906814D01*
X180504737Y-103906815D01*
X180504738Y-103906816D01*
X180657478Y-104002789D01*
X180827745Y-104062368D01*
X180962186Y-104077515D01*
X181006999Y-104082565D01*
X181006999Y-104082564D01*
X181007000Y-104082565D01*
X181186255Y-104062368D01*
X181356522Y-104002789D01*
X181509262Y-103906816D01*
X181636816Y-103779262D01*
X181732789Y-103626522D01*
X181792368Y-103456255D01*
X181812565Y-103277000D01*
X181792368Y-103097745D01*
X181732789Y-102927478D01*
X181636816Y-102774738D01*
X181636815Y-102774737D01*
X181636814Y-102774735D01*
X181509264Y-102647185D01*
X181417848Y-102589745D01*
X181356522Y-102551211D01*
X181186255Y-102491632D01*
X181186253Y-102491631D01*
X181186251Y-102491631D01*
X181006999Y-102471434D01*
X180962491Y-102476449D01*
X180894806Y-102464949D01*
X180843614Y-102419200D01*
X180747816Y-102266737D01*
X180742079Y-102261000D01*
X183376434Y-102261000D01*
X183396631Y-102440251D01*
X183396631Y-102440253D01*
X183396632Y-102440255D01*
X183456211Y-102610522D01*
X183479248Y-102647185D01*
X183552185Y-102763264D01*
X183679735Y-102890814D01*
X183679737Y-102890815D01*
X183679738Y-102890816D01*
X183832478Y-102986789D01*
X184002745Y-103046368D01*
X184182000Y-103066565D01*
X184361255Y-103046368D01*
X184531522Y-102986789D01*
X184684262Y-102890816D01*
X184811816Y-102763262D01*
X184907789Y-102610522D01*
X184967368Y-102440255D01*
X184987565Y-102261000D01*
X184967368Y-102081745D01*
X184907789Y-101911478D01*
X184811816Y-101758738D01*
X184811815Y-101758737D01*
X184811814Y-101758735D01*
X184684264Y-101631185D01*
X184618379Y-101589787D01*
X184531522Y-101535211D01*
X184361255Y-101475632D01*
X184361253Y-101475631D01*
X184361251Y-101475631D01*
X184181999Y-101455434D01*
X184002748Y-101475631D01*
X184002745Y-101475631D01*
X184002745Y-101475632D01*
X183832478Y-101535211D01*
X183832476Y-101535211D01*
X183832476Y-101535212D01*
X183679735Y-101631185D01*
X183552185Y-101758735D01*
X183456212Y-101911476D01*
X183456211Y-101911478D01*
X183430964Y-101983631D01*
X183396631Y-102081748D01*
X183376434Y-102261000D01*
X180742079Y-102261000D01*
X180620264Y-102139185D01*
X180518604Y-102075308D01*
X180467522Y-102043211D01*
X180297255Y-101983632D01*
X180297253Y-101983631D01*
X180297251Y-101983631D01*
X180118000Y-101963434D01*
X179938748Y-101983631D01*
X179938745Y-101983631D01*
X179938745Y-101983632D01*
X179768478Y-102043211D01*
X179768476Y-102043211D01*
X179768476Y-102043212D01*
X179615735Y-102139185D01*
X179488185Y-102266735D01*
X179392212Y-102419476D01*
X179392211Y-102419478D01*
X179346116Y-102551211D01*
X179332631Y-102589748D01*
X179312434Y-102769000D01*
X175829178Y-102769000D01*
X175838739Y-102748496D01*
X175897635Y-102528692D01*
X175917468Y-102302000D01*
X175897635Y-102075308D01*
X175838739Y-101855504D01*
X175742568Y-101649266D01*
X175700922Y-101589789D01*
X175612046Y-101462859D01*
X175451140Y-101301953D01*
X175264732Y-101171430D01*
X175197241Y-101139958D01*
X175145315Y-101094591D01*
X175125650Y-101028502D01*
X175144327Y-100962127D01*
X175195569Y-100915990D01*
X175263530Y-100904357D01*
X175292000Y-100907565D01*
X175292001Y-100907564D01*
X175292002Y-100907565D01*
X175429434Y-100892080D01*
X175471255Y-100887368D01*
X175601387Y-100841832D01*
X175656222Y-100835654D01*
X175708310Y-100853880D01*
X175747332Y-100892901D01*
X175765559Y-100944989D01*
X175776631Y-101043251D01*
X175776631Y-101043253D01*
X175776632Y-101043255D01*
X175836211Y-101213522D01*
X175836212Y-101213523D01*
X175932185Y-101366264D01*
X176059735Y-101493814D01*
X176059737Y-101493815D01*
X176059738Y-101493816D01*
X176212478Y-101589789D01*
X176382745Y-101649368D01*
X176517186Y-101664515D01*
X176561999Y-101669565D01*
X176561999Y-101669564D01*
X176562000Y-101669565D01*
X176741255Y-101649368D01*
X176911522Y-101589789D01*
X177064262Y-101493816D01*
X177191816Y-101366262D01*
X177287789Y-101213522D01*
X177347368Y-101043255D01*
X177352082Y-101001413D01*
X177370307Y-100949330D01*
X177409330Y-100910307D01*
X177461413Y-100892082D01*
X177503255Y-100887368D01*
X177673522Y-100827789D01*
X177826262Y-100731816D01*
X177953816Y-100604262D01*
X178049789Y-100451522D01*
X178109368Y-100281255D01*
X178129565Y-100102000D01*
X178109368Y-99922745D01*
X178049789Y-99752478D01*
X177953816Y-99599738D01*
X177953815Y-99599737D01*
X177953814Y-99599735D01*
X177826264Y-99472185D01*
X177763867Y-99432979D01*
X177673522Y-99376211D01*
X177503255Y-99316632D01*
X177503253Y-99316631D01*
X177503251Y-99316631D01*
X177324000Y-99296434D01*
X177144748Y-99316631D01*
X177144745Y-99316631D01*
X177144745Y-99316632D01*
X176974478Y-99376211D01*
X176974476Y-99376211D01*
X176974476Y-99376212D01*
X176821735Y-99472185D01*
X176694185Y-99599735D01*
X176648259Y-99672827D01*
X176598211Y-99752478D01*
X176558348Y-99866401D01*
X176538631Y-99922748D01*
X176533917Y-99964583D01*
X176515690Y-100016670D01*
X176476670Y-100055690D01*
X176424583Y-100073917D01*
X176382748Y-100078631D01*
X176382745Y-100078631D01*
X176382745Y-100078632D01*
X176252612Y-100124167D01*
X176197776Y-100130345D01*
X176145688Y-100112119D01*
X176106666Y-100073097D01*
X176088440Y-100021009D01*
X176077368Y-99922748D01*
X176077368Y-99922745D01*
X176017789Y-99752478D01*
X175931504Y-99615157D01*
X175912499Y-99549186D01*
X175912499Y-98832000D01*
X182741434Y-98832000D01*
X182761631Y-99011251D01*
X182761631Y-99011253D01*
X182761632Y-99011255D01*
X182821211Y-99181522D01*
X182821212Y-99181523D01*
X182917185Y-99334264D01*
X183044735Y-99461814D01*
X183044737Y-99461815D01*
X183044738Y-99461816D01*
X183197478Y-99557789D01*
X183367745Y-99617368D01*
X183547000Y-99637565D01*
X183726255Y-99617368D01*
X183896522Y-99557789D01*
X184049262Y-99461816D01*
X184176816Y-99334262D01*
X184272789Y-99181522D01*
X184332368Y-99011255D01*
X184352565Y-98832000D01*
X184332368Y-98652745D01*
X184272789Y-98482478D01*
X184256162Y-98456017D01*
X184237157Y-98390045D01*
X184256164Y-98324074D01*
X184275986Y-98292526D01*
X184275989Y-98292522D01*
X184335568Y-98122255D01*
X184355765Y-97943000D01*
X184335568Y-97763745D01*
X184275989Y-97593478D01*
X184180016Y-97440738D01*
X184180015Y-97440737D01*
X184180014Y-97440735D01*
X184052464Y-97313185D01*
X183990067Y-97273978D01*
X183899722Y-97217211D01*
X183729455Y-97157632D01*
X183729453Y-97157631D01*
X183729451Y-97157631D01*
X183550200Y-97137434D01*
X183370948Y-97157631D01*
X183370945Y-97157631D01*
X183370945Y-97157632D01*
X183200678Y-97217211D01*
X183200676Y-97217211D01*
X183200676Y-97217212D01*
X183047935Y-97313185D01*
X182920385Y-97440735D01*
X182853407Y-97547331D01*
X182824411Y-97593478D01*
X182800243Y-97662546D01*
X182764831Y-97763748D01*
X182744634Y-97943000D01*
X182764831Y-98122251D01*
X182764831Y-98122253D01*
X182764832Y-98122255D01*
X182824411Y-98292522D01*
X182841037Y-98318982D01*
X182860042Y-98384952D01*
X182841037Y-98450923D01*
X182821212Y-98482474D01*
X182761631Y-98652748D01*
X182741434Y-98832000D01*
X175912499Y-98832000D01*
X175912499Y-97943000D01*
X180836434Y-97943000D01*
X180856631Y-98122251D01*
X180856631Y-98122253D01*
X180856632Y-98122255D01*
X180916211Y-98292522D01*
X180972978Y-98382867D01*
X181012185Y-98445264D01*
X181139735Y-98572814D01*
X181139737Y-98572815D01*
X181139738Y-98572816D01*
X181292478Y-98668789D01*
X181462745Y-98728368D01*
X181642000Y-98748565D01*
X181821255Y-98728368D01*
X181991522Y-98668789D01*
X182144262Y-98572816D01*
X182271816Y-98445262D01*
X182367789Y-98292522D01*
X182427368Y-98122255D01*
X182447565Y-97943000D01*
X182427368Y-97763745D01*
X182367789Y-97593478D01*
X182271816Y-97440738D01*
X182271815Y-97440737D01*
X182271814Y-97440735D01*
X182144264Y-97313185D01*
X182081867Y-97273978D01*
X181991522Y-97217211D01*
X181821255Y-97157632D01*
X181821253Y-97157631D01*
X181821251Y-97157631D01*
X181642000Y-97137434D01*
X181462748Y-97157631D01*
X181462745Y-97157631D01*
X181462745Y-97157632D01*
X181292478Y-97217211D01*
X181292476Y-97217211D01*
X181292476Y-97217212D01*
X181139735Y-97313185D01*
X181012185Y-97440735D01*
X180945207Y-97547331D01*
X180916211Y-97593478D01*
X180892043Y-97662546D01*
X180856631Y-97763748D01*
X180836434Y-97943000D01*
X175912499Y-97943000D01*
X175912499Y-97910130D01*
X175910081Y-97887634D01*
X175906091Y-97850517D01*
X175855796Y-97715669D01*
X175769546Y-97600454D01*
X175654331Y-97514204D01*
X175519483Y-97463909D01*
X175484404Y-97460137D01*
X175428484Y-97439758D01*
X175388500Y-97395669D01*
X175373667Y-97338028D01*
X175387401Y-97280114D01*
X175426539Y-97235272D01*
X175428470Y-97233919D01*
X175451139Y-97218047D01*
X175612047Y-97057139D01*
X175742568Y-96870734D01*
X175838739Y-96664496D01*
X175897635Y-96444692D01*
X175917468Y-96218000D01*
X175897635Y-95991308D01*
X175838739Y-95771504D01*
X175742568Y-95565266D01*
X175736871Y-95557130D01*
X175612046Y-95378859D01*
X175451140Y-95217953D01*
X175264733Y-95087431D01*
X175206725Y-95060382D01*
X175154549Y-95014625D01*
X175135129Y-94948000D01*
X175154549Y-94881375D01*
X175206725Y-94835618D01*
X175239671Y-94820255D01*
X175264734Y-94808568D01*
X175451139Y-94678047D01*
X175612047Y-94517139D01*
X175742568Y-94330734D01*
X175838739Y-94124496D01*
X175897635Y-93904692D01*
X175917468Y-93678000D01*
X175897635Y-93451308D01*
X175838739Y-93231504D01*
X175742568Y-93025266D01*
X175695834Y-92958523D01*
X175612046Y-92838859D01*
X175451140Y-92677953D01*
X175352664Y-92609000D01*
X177026434Y-92609000D01*
X177046631Y-92788251D01*
X177046631Y-92788253D01*
X177046632Y-92788255D01*
X177106211Y-92958522D01*
X177106212Y-92958523D01*
X177202185Y-93111264D01*
X177329735Y-93238814D01*
X177329737Y-93238815D01*
X177329738Y-93238816D01*
X177482478Y-93334789D01*
X177652745Y-93394368D01*
X177832000Y-93414565D01*
X178011255Y-93394368D01*
X178160585Y-93342115D01*
X182082850Y-93342115D01*
X182103047Y-93521367D01*
X182103047Y-93521369D01*
X182103048Y-93521371D01*
X182162627Y-93691638D01*
X182162628Y-93691639D01*
X182258601Y-93844380D01*
X182386151Y-93971930D01*
X182386153Y-93971931D01*
X182386154Y-93971932D01*
X182538894Y-94067905D01*
X182709161Y-94127484D01*
X182715133Y-94128156D01*
X182717653Y-94128441D01*
X182769742Y-94146667D01*
X182808764Y-94185688D01*
X182826991Y-94237777D01*
X182820813Y-94292615D01*
X182761631Y-94461747D01*
X182741434Y-94641000D01*
X182761631Y-94820251D01*
X182761631Y-94820253D01*
X182761632Y-94820255D01*
X182821211Y-94990522D01*
X182836356Y-95014625D01*
X182917185Y-95143264D01*
X183044735Y-95270814D01*
X183044737Y-95270815D01*
X183044738Y-95270816D01*
X183197478Y-95366789D01*
X183367745Y-95426368D01*
X183502186Y-95441515D01*
X183546999Y-95446565D01*
X183546999Y-95446564D01*
X183547000Y-95446565D01*
X183726255Y-95426368D01*
X183896522Y-95366789D01*
X184049262Y-95270816D01*
X184176816Y-95143262D01*
X184272789Y-94990522D01*
X184332368Y-94820255D01*
X184332368Y-94820251D01*
X184336982Y-94807067D01*
X184340787Y-94808398D01*
X184357318Y-94768454D01*
X184394486Y-94742078D01*
X184392692Y-94739222D01*
X184404520Y-94731789D01*
X184404522Y-94731789D01*
X184557262Y-94635816D01*
X184610222Y-94582855D01*
X184656947Y-94553497D01*
X184711785Y-94547318D01*
X184763874Y-94565544D01*
X184802896Y-94604566D01*
X184822184Y-94635263D01*
X184949735Y-94762814D01*
X184949737Y-94762815D01*
X184949738Y-94762816D01*
X185102478Y-94858789D01*
X185272745Y-94918368D01*
X185452000Y-94938565D01*
X185631255Y-94918368D01*
X185801522Y-94858789D01*
X185954262Y-94762816D01*
X186081816Y-94635262D01*
X186177789Y-94482522D01*
X186237368Y-94312255D01*
X186257565Y-94133000D01*
X186237368Y-93953745D01*
X186177789Y-93783478D01*
X186081816Y-93630738D01*
X186081815Y-93630737D01*
X186081814Y-93630735D01*
X185954264Y-93503185D01*
X185838163Y-93430234D01*
X185801522Y-93407211D01*
X185631255Y-93347632D01*
X185631253Y-93347631D01*
X185631251Y-93347631D01*
X185452000Y-93327434D01*
X185272748Y-93347631D01*
X185272745Y-93347631D01*
X185272745Y-93347632D01*
X185102478Y-93407211D01*
X185102476Y-93407211D01*
X185102476Y-93407212D01*
X184949738Y-93503183D01*
X184896778Y-93556143D01*
X184850051Y-93585503D01*
X184795213Y-93591681D01*
X184743125Y-93573454D01*
X184704103Y-93534433D01*
X184684814Y-93503735D01*
X184631857Y-93450778D01*
X184602496Y-93404051D01*
X184596318Y-93349213D01*
X184614545Y-93297124D01*
X184653567Y-93258102D01*
X184684262Y-93238816D01*
X184811816Y-93111262D01*
X184907789Y-92958522D01*
X184967368Y-92788255D01*
X184987565Y-92609000D01*
X184967368Y-92429745D01*
X184907789Y-92259478D01*
X184811816Y-92106738D01*
X184811815Y-92106737D01*
X184811814Y-92106735D01*
X184684264Y-91979185D01*
X184621867Y-91939979D01*
X184531522Y-91883211D01*
X184361255Y-91823632D01*
X184361253Y-91823631D01*
X184361251Y-91823631D01*
X184182000Y-91803434D01*
X184002748Y-91823631D01*
X184002745Y-91823631D01*
X184002745Y-91823632D01*
X183832478Y-91883211D01*
X183832476Y-91883211D01*
X183832476Y-91883212D01*
X183679735Y-91979185D01*
X183552185Y-92106735D01*
X183456212Y-92259476D01*
X183456211Y-92259478D01*
X183448339Y-92281977D01*
X183396631Y-92429749D01*
X183387796Y-92508160D01*
X183369570Y-92560248D01*
X183330548Y-92599270D01*
X183278459Y-92617496D01*
X183223624Y-92611318D01*
X183067671Y-92556748D01*
X183067669Y-92556747D01*
X183067667Y-92556747D01*
X182888416Y-92536550D01*
X182709164Y-92556747D01*
X182709161Y-92556747D01*
X182709161Y-92556748D01*
X182538894Y-92616327D01*
X182538892Y-92616327D01*
X182538892Y-92616328D01*
X182386151Y-92712301D01*
X182258601Y-92839851D01*
X182184035Y-92958523D01*
X182162627Y-92992594D01*
X182121103Y-93111262D01*
X182103047Y-93162864D01*
X182082850Y-93342115D01*
X178160585Y-93342115D01*
X178181522Y-93334789D01*
X178334262Y-93238816D01*
X178461816Y-93111262D01*
X178557789Y-92958522D01*
X178617368Y-92788255D01*
X178637565Y-92609000D01*
X178617368Y-92429745D01*
X178557789Y-92259478D01*
X178461816Y-92106738D01*
X178461815Y-92106737D01*
X178461814Y-92106735D01*
X178334264Y-91979185D01*
X178271867Y-91939979D01*
X178181522Y-91883211D01*
X178011255Y-91823632D01*
X178011253Y-91823631D01*
X178011251Y-91823631D01*
X177832000Y-91803434D01*
X177652748Y-91823631D01*
X177652745Y-91823631D01*
X177652745Y-91823632D01*
X177482478Y-91883211D01*
X177482476Y-91883211D01*
X177482476Y-91883212D01*
X177329735Y-91979185D01*
X177202185Y-92106735D01*
X177106212Y-92259476D01*
X177106211Y-92259478D01*
X177093565Y-92295618D01*
X177046631Y-92429748D01*
X177026434Y-92609000D01*
X175352664Y-92609000D01*
X175264733Y-92547431D01*
X175206725Y-92520382D01*
X175154549Y-92474625D01*
X175135129Y-92408000D01*
X175154549Y-92341375D01*
X175206725Y-92295618D01*
X175235978Y-92281977D01*
X175264734Y-92268568D01*
X175451139Y-92138047D01*
X175612047Y-91977139D01*
X175742568Y-91790734D01*
X175838739Y-91584496D01*
X175897635Y-91364692D01*
X175917468Y-91138000D01*
X175897635Y-90911308D01*
X175838739Y-90691504D01*
X175742568Y-90485266D01*
X175659453Y-90366565D01*
X175612046Y-90298859D01*
X175451140Y-90137953D01*
X175264733Y-90007431D01*
X175206725Y-89980382D01*
X175154549Y-89934625D01*
X175135129Y-89868000D01*
X175154549Y-89801375D01*
X175206725Y-89755618D01*
X175264734Y-89728568D01*
X175451139Y-89598047D01*
X175488187Y-89560999D01*
X180201434Y-89560999D01*
X180221631Y-89740251D01*
X180221631Y-89740253D01*
X180221632Y-89740255D01*
X180281211Y-89910522D01*
X180296356Y-89934625D01*
X180377185Y-90063264D01*
X180504735Y-90190814D01*
X180504737Y-90190815D01*
X180504738Y-90190816D01*
X180657478Y-90286789D01*
X180827745Y-90346368D01*
X181007000Y-90366565D01*
X181186255Y-90346368D01*
X181356522Y-90286789D01*
X181509262Y-90190816D01*
X181636816Y-90063262D01*
X181732789Y-89910522D01*
X181792368Y-89740255D01*
X181812565Y-89561000D01*
X181792368Y-89381745D01*
X181732789Y-89211478D01*
X181636816Y-89058738D01*
X181636815Y-89058737D01*
X181636814Y-89058735D01*
X181509264Y-88931185D01*
X181446867Y-88891978D01*
X181356522Y-88835211D01*
X181186255Y-88775632D01*
X181186253Y-88775631D01*
X181186251Y-88775631D01*
X181007000Y-88755434D01*
X180827748Y-88775631D01*
X180827745Y-88775631D01*
X180827745Y-88775632D01*
X180657478Y-88835211D01*
X180657476Y-88835211D01*
X180657476Y-88835212D01*
X180504735Y-88931185D01*
X180377185Y-89058735D01*
X180361010Y-89084478D01*
X180281211Y-89211478D01*
X180266071Y-89254745D01*
X180221631Y-89381748D01*
X180201434Y-89560999D01*
X175488187Y-89560999D01*
X175612047Y-89437139D01*
X175742568Y-89250734D01*
X175838739Y-89044496D01*
X175897635Y-88824692D01*
X175917468Y-88598000D01*
X175897635Y-88371308D01*
X175838739Y-88151504D01*
X175742568Y-87945266D01*
X175665538Y-87835255D01*
X175612046Y-87758859D01*
X175451140Y-87597953D01*
X175264735Y-87467432D01*
X175130596Y-87404882D01*
X175080200Y-87361840D01*
X175059171Y-87298989D01*
X175073516Y-87234285D01*
X175119136Y-87186211D01*
X175183001Y-87168500D01*
X179461346Y-87168500D01*
X179524347Y-87185697D01*
X179569874Y-87232519D01*
X179585297Y-87295977D01*
X179566340Y-87358471D01*
X179519213Y-87433474D01*
X179519212Y-87433475D01*
X179519211Y-87433478D01*
X179468875Y-87577331D01*
X179459631Y-87603748D01*
X179439434Y-87783000D01*
X179459631Y-87962251D01*
X179459631Y-87962253D01*
X179459632Y-87962255D01*
X179519211Y-88132522D01*
X179519212Y-88132523D01*
X179615185Y-88285264D01*
X179742735Y-88412814D01*
X179742737Y-88412815D01*
X179742738Y-88412816D01*
X179895478Y-88508789D01*
X180065745Y-88568368D01*
X180245000Y-88588565D01*
X180424255Y-88568368D01*
X180594522Y-88508789D01*
X180747262Y-88412816D01*
X180874816Y-88285262D01*
X180970789Y-88132522D01*
X181030368Y-87962255D01*
X181050565Y-87783000D01*
X181030368Y-87603745D01*
X180970789Y-87433478D01*
X180950927Y-87401868D01*
X180923660Y-87358471D01*
X180904703Y-87295977D01*
X180920126Y-87232519D01*
X180965653Y-87185697D01*
X181028654Y-87168500D01*
X183583730Y-87168500D01*
X183640644Y-87182333D01*
X183684860Y-87220745D01*
X183706512Y-87275166D01*
X183700772Y-87333452D01*
X183667588Y-87428287D01*
X183650631Y-87476748D01*
X183630434Y-87656000D01*
X183650631Y-87835251D01*
X183650631Y-87835253D01*
X183650632Y-87835255D01*
X183710211Y-88005522D01*
X183710212Y-88005523D01*
X183806185Y-88158264D01*
X183933735Y-88285814D01*
X183933737Y-88285815D01*
X183933738Y-88285816D01*
X184086478Y-88381789D01*
X184256745Y-88441368D01*
X184436000Y-88461565D01*
X184615255Y-88441368D01*
X184785522Y-88381789D01*
X184938262Y-88285816D01*
X185065816Y-88158262D01*
X185161789Y-88005522D01*
X185221368Y-87835255D01*
X185241565Y-87656000D01*
X185221368Y-87476745D01*
X185171227Y-87333452D01*
X185165488Y-87275166D01*
X185187140Y-87220745D01*
X185231356Y-87182333D01*
X185288270Y-87168500D01*
X189280999Y-87168500D01*
X189344864Y-87186211D01*
X189390484Y-87234285D01*
X189404829Y-87298989D01*
X189383800Y-87361840D01*
X189333404Y-87404882D01*
X189199264Y-87467432D01*
X189012859Y-87597953D01*
X188851953Y-87758859D01*
X188721432Y-87945264D01*
X188625261Y-88151502D01*
X188566364Y-88371310D01*
X188546531Y-88597999D01*
X188566364Y-88824689D01*
X188625261Y-89044497D01*
X188721432Y-89250735D01*
X188851953Y-89437140D01*
X189012859Y-89598046D01*
X189045794Y-89621107D01*
X189199266Y-89728568D01*
X189257275Y-89755618D01*
X189309450Y-89801375D01*
X189328869Y-89868000D01*
X189309450Y-89934625D01*
X189257275Y-89980382D01*
X189199263Y-90007433D01*
X189012859Y-90137953D01*
X188851953Y-90298859D01*
X188721432Y-90485264D01*
X188625261Y-90691502D01*
X188566364Y-90911310D01*
X188546531Y-91137999D01*
X188566364Y-91364689D01*
X188625261Y-91584497D01*
X188721432Y-91790735D01*
X188851953Y-91977140D01*
X189012859Y-92138046D01*
X189186281Y-92259476D01*
X189199266Y-92268568D01*
X189228022Y-92281977D01*
X189257275Y-92295618D01*
X189309450Y-92341375D01*
X189328869Y-92408000D01*
X189309450Y-92474625D01*
X189257275Y-92520382D01*
X189199263Y-92547433D01*
X189012859Y-92677953D01*
X188851953Y-92838859D01*
X188721432Y-93025264D01*
X188625261Y-93231502D01*
X188566364Y-93451310D01*
X188546531Y-93677999D01*
X188566364Y-93904689D01*
X188625261Y-94124497D01*
X188721432Y-94330735D01*
X188851953Y-94517140D01*
X189012859Y-94678046D01*
X189197122Y-94807067D01*
X189199266Y-94808568D01*
X189257275Y-94835618D01*
X189309450Y-94881375D01*
X189328869Y-94948000D01*
X189309450Y-95014625D01*
X189257275Y-95060382D01*
X189199263Y-95087433D01*
X189012859Y-95217953D01*
X188851953Y-95378859D01*
X188721432Y-95565264D01*
X188625261Y-95771502D01*
X188566364Y-95991310D01*
X188546531Y-96217999D01*
X188566364Y-96444689D01*
X188625261Y-96664497D01*
X188721432Y-96870735D01*
X188851953Y-97057140D01*
X189012859Y-97218046D01*
X189148732Y-97313184D01*
X189199266Y-97348568D01*
X189257275Y-97375618D01*
X189309450Y-97421375D01*
X189328869Y-97488000D01*
X189309450Y-97554625D01*
X189257275Y-97600381D01*
X189236576Y-97610033D01*
X189199263Y-97627433D01*
X189012859Y-97757953D01*
X188851953Y-97918859D01*
X188721432Y-98105264D01*
X188625261Y-98311502D01*
X188566364Y-98531310D01*
X188546531Y-98757999D01*
X188566364Y-98984689D01*
X188625261Y-99204497D01*
X188721432Y-99410735D01*
X188851953Y-99597140D01*
X189012859Y-99758046D01*
X189199264Y-99888567D01*
X189199265Y-99888567D01*
X189199266Y-99888568D01*
X189405504Y-99984739D01*
X189625308Y-100043635D01*
X189852000Y-100063468D01*
X190078692Y-100043635D01*
X190298496Y-99984739D01*
X190504734Y-99888568D01*
X190691139Y-99758047D01*
X190852047Y-99597139D01*
X190982568Y-99410734D01*
X191078739Y-99204496D01*
X191137635Y-98984692D01*
X191157468Y-98758000D01*
X191137635Y-98531308D01*
X191078739Y-98311504D01*
X190982568Y-98105266D01*
X190878405Y-97956505D01*
X190852046Y-97918859D01*
X190691140Y-97757953D01*
X190504733Y-97627431D01*
X190463727Y-97608310D01*
X190446724Y-97600381D01*
X190394549Y-97554625D01*
X190375129Y-97488000D01*
X190394549Y-97421375D01*
X190446725Y-97375618D01*
X190504734Y-97348568D01*
X190691139Y-97218047D01*
X190852047Y-97057139D01*
X190982568Y-96870734D01*
X191078739Y-96664496D01*
X191137635Y-96444692D01*
X191157468Y-96218000D01*
X191137635Y-95991308D01*
X191078739Y-95771504D01*
X190982568Y-95565266D01*
X190976871Y-95557130D01*
X190852046Y-95378859D01*
X190691140Y-95217953D01*
X190504733Y-95087431D01*
X190446725Y-95060382D01*
X190394549Y-95014625D01*
X190375129Y-94948000D01*
X190394549Y-94881375D01*
X190446725Y-94835618D01*
X190479671Y-94820255D01*
X190504734Y-94808568D01*
X190691139Y-94678047D01*
X190852047Y-94517139D01*
X190982568Y-94330734D01*
X191078739Y-94124496D01*
X191137635Y-93904692D01*
X191157468Y-93678000D01*
X191137635Y-93451308D01*
X191078739Y-93231504D01*
X190982568Y-93025266D01*
X190935834Y-92958523D01*
X190852046Y-92838859D01*
X190691140Y-92677953D01*
X190504733Y-92547431D01*
X190446725Y-92520382D01*
X190394549Y-92474625D01*
X190375129Y-92408000D01*
X190394549Y-92341375D01*
X190446725Y-92295618D01*
X190475978Y-92281977D01*
X190504734Y-92268568D01*
X190691139Y-92138047D01*
X190852047Y-91977139D01*
X190982568Y-91790734D01*
X191078739Y-91584496D01*
X191137635Y-91364692D01*
X191157468Y-91138000D01*
X191137635Y-90911308D01*
X191078739Y-90691504D01*
X190982568Y-90485266D01*
X190899453Y-90366565D01*
X190852046Y-90298859D01*
X190691140Y-90137953D01*
X190504733Y-90007431D01*
X190446725Y-89980382D01*
X190394549Y-89934625D01*
X190375129Y-89868000D01*
X190394549Y-89801375D01*
X190446725Y-89755618D01*
X190504734Y-89728568D01*
X190691139Y-89598047D01*
X190852047Y-89437139D01*
X190982568Y-89250734D01*
X191078739Y-89044496D01*
X191137635Y-88824692D01*
X191157468Y-88598000D01*
X191137635Y-88371308D01*
X191078739Y-88151504D01*
X190982568Y-87945266D01*
X190905538Y-87835255D01*
X190852046Y-87758859D01*
X190691140Y-87597953D01*
X190504735Y-87467432D01*
X190370596Y-87404882D01*
X190320200Y-87361840D01*
X190299171Y-87298989D01*
X190313516Y-87234285D01*
X190359136Y-87186211D01*
X190423001Y-87168500D01*
X191937500Y-87168500D01*
X191999500Y-87185113D01*
X192044887Y-87230500D01*
X192061500Y-87292500D01*
X192061500Y-113943500D01*
X192044887Y-114005500D01*
X191999500Y-114050887D01*
X191937500Y-114067500D01*
X169486000Y-114067500D01*
X169424000Y-114050887D01*
X169378613Y-114005500D01*
X169362000Y-113943500D01*
X169362000Y-113012450D01*
X169381419Y-112945825D01*
X169433595Y-112900068D01*
X169501076Y-112868600D01*
X169694581Y-112733106D01*
X169861606Y-112566081D01*
X169997100Y-112372576D01*
X170096930Y-112158492D01*
X170154136Y-111945000D01*
X169362000Y-111945000D01*
X169362000Y-111445000D01*
X170154136Y-111445000D01*
X170154135Y-111444999D01*
X170096930Y-111231507D01*
X169997099Y-111017421D01*
X169861609Y-110823921D01*
X169694581Y-110656893D01*
X169508904Y-110526880D01*
X169470039Y-110482562D01*
X169456028Y-110425305D01*
X169470039Y-110368048D01*
X169508902Y-110323732D01*
X169694901Y-110193495D01*
X169861995Y-110026401D01*
X169997535Y-109832830D01*
X170097403Y-109618663D01*
X170158563Y-109390408D01*
X170179159Y-109155000D01*
X170158563Y-108919592D01*
X170097403Y-108691337D01*
X169997535Y-108477171D01*
X169861995Y-108283599D01*
X169694901Y-108116505D01*
X169509339Y-107986573D01*
X169470475Y-107942257D01*
X169456464Y-107885000D01*
X169470475Y-107827743D01*
X169509339Y-107783426D01*
X169694901Y-107653495D01*
X169861995Y-107486401D01*
X169997535Y-107292830D01*
X170097403Y-107078663D01*
X170158563Y-106850408D01*
X170179159Y-106615000D01*
X170169469Y-106504251D01*
X170158563Y-106379592D01*
X170145269Y-106329977D01*
X170097403Y-106151337D01*
X169997535Y-105937171D01*
X169861995Y-105743599D01*
X169694901Y-105576505D01*
X169509339Y-105446573D01*
X169470475Y-105402257D01*
X169456464Y-105345000D01*
X169470475Y-105287743D01*
X169509339Y-105243426D01*
X169694901Y-105113495D01*
X169861995Y-104946401D01*
X169997535Y-104752830D01*
X170097403Y-104538663D01*
X170158563Y-104310408D01*
X170179159Y-104075000D01*
X170158563Y-103839592D01*
X170097403Y-103611337D01*
X169997535Y-103397171D01*
X169861995Y-103203599D01*
X169694901Y-103036505D01*
X169509339Y-102906573D01*
X169470474Y-102862255D01*
X169456464Y-102804999D01*
X169470475Y-102747742D01*
X169509337Y-102703428D01*
X169694901Y-102573495D01*
X169861995Y-102406401D01*
X169997535Y-102212830D01*
X170097403Y-101998663D01*
X170158563Y-101770408D01*
X170179159Y-101535000D01*
X170158563Y-101299592D01*
X170097403Y-101071337D01*
X169997535Y-100857171D01*
X169861995Y-100663599D01*
X169694901Y-100496505D01*
X169509339Y-100366573D01*
X169470474Y-100322255D01*
X169456464Y-100264999D01*
X169470475Y-100207742D01*
X169509337Y-100163428D01*
X169694901Y-100033495D01*
X169861995Y-99866401D01*
X169997535Y-99672830D01*
X170097403Y-99458663D01*
X170158563Y-99230408D01*
X170179159Y-98995000D01*
X170158563Y-98759592D01*
X170097403Y-98531337D01*
X169997535Y-98317171D01*
X169861995Y-98123599D01*
X169740069Y-98001673D01*
X169708773Y-97948927D01*
X169706584Y-97887634D01*
X169734037Y-97832789D01*
X169784416Y-97797810D01*
X169915831Y-97748796D01*
X170031046Y-97662546D01*
X170117296Y-97547331D01*
X170167591Y-97412483D01*
X170174000Y-97352873D01*
X170173999Y-95557128D01*
X170167591Y-95497517D01*
X170117296Y-95362669D01*
X170031046Y-95247454D01*
X169915831Y-95161204D01*
X169780983Y-95110909D01*
X169721373Y-95104500D01*
X169721369Y-95104500D01*
X169486000Y-95104500D01*
X169424000Y-95087887D01*
X169378613Y-95042500D01*
X169362000Y-94980500D01*
X169362000Y-93430234D01*
X169376855Y-93371383D01*
X169417861Y-93326633D01*
X169475194Y-93306706D01*
X169511841Y-93303499D01*
X169549477Y-93300207D01*
X169760830Y-93243575D01*
X169959139Y-93151102D01*
X170138377Y-93025598D01*
X170293098Y-92870877D01*
X170418602Y-92691639D01*
X170511075Y-92493330D01*
X170567707Y-92281977D01*
X170586777Y-92064000D01*
X170567707Y-91846023D01*
X170511075Y-91634670D01*
X170418602Y-91436362D01*
X170293098Y-91257123D01*
X170138377Y-91102402D01*
X169959139Y-90976898D01*
X169867705Y-90934261D01*
X169760831Y-90884425D01*
X169549474Y-90827792D01*
X169475194Y-90821294D01*
X169417861Y-90801367D01*
X169376855Y-90756617D01*
X169362000Y-90697766D01*
X169362000Y-90029732D01*
X169376855Y-89970882D01*
X169417861Y-89926132D01*
X169475193Y-89906204D01*
X169549386Y-89899712D01*
X169760659Y-89843102D01*
X169958885Y-89750667D01*
X170146940Y-89618990D01*
X170148422Y-89621107D01*
X170186494Y-89598641D01*
X170248420Y-89596896D01*
X170303461Y-89625327D01*
X170337879Y-89676835D01*
X170375209Y-89783519D01*
X170471185Y-89936264D01*
X170598735Y-90063814D01*
X170598737Y-90063815D01*
X170598738Y-90063816D01*
X170751478Y-90159789D01*
X170921745Y-90219368D01*
X171056186Y-90234515D01*
X171100999Y-90239565D01*
X171100999Y-90239564D01*
X171101000Y-90239565D01*
X171280255Y-90219368D01*
X171450522Y-90159789D01*
X171603262Y-90063816D01*
X171730816Y-89936262D01*
X171826789Y-89783522D01*
X171886368Y-89613255D01*
X171906565Y-89434000D01*
X171886368Y-89254745D01*
X171826789Y-89084478D01*
X171730816Y-88931738D01*
X171730815Y-88931737D01*
X171730814Y-88931735D01*
X171603264Y-88804185D01*
X171453843Y-88710298D01*
X171450522Y-88708211D01*
X171280255Y-88648632D01*
X171280253Y-88648631D01*
X171280251Y-88648631D01*
X171101000Y-88628434D01*
X170921747Y-88648631D01*
X170745513Y-88710298D01*
X170689907Y-88716387D01*
X170637283Y-88697419D01*
X170598350Y-88657253D01*
X170581031Y-88604063D01*
X170567212Y-88446113D01*
X170510602Y-88234840D01*
X170418167Y-88036615D01*
X170374623Y-87974428D01*
X169419180Y-88929871D01*
X169363593Y-88961965D01*
X169362000Y-88961965D01*
X169362000Y-88279947D01*
X170021072Y-87620874D01*
X170021071Y-87620873D01*
X169958886Y-87577331D01*
X169760661Y-87484898D01*
X169549386Y-87428287D01*
X169475193Y-87421796D01*
X169417861Y-87401868D01*
X169376855Y-87357118D01*
X169362000Y-87298268D01*
X169362000Y-87292500D01*
X169378613Y-87230500D01*
X169424000Y-87185113D01*
X169486000Y-87168500D01*
X174040999Y-87168500D01*
X174104864Y-87186211D01*
G37*
%TD.AperFunction*%
%TD*%
M02*
