%TF.GenerationSoftware,KiCad,Pcbnew,7.0.1*%
%TF.CreationDate,2023-04-28T19:57:16+03:00*%
%TF.ProjectId,leanometer_esp32,6c65616e-6f6d-4657-9465-725f65737033,R1*%
%TF.SameCoordinates,Original*%
%TF.FileFunction,Copper,L4,Bot*%
%TF.FilePolarity,Positive*%
%FSLAX46Y46*%
G04 Gerber Fmt 4.6, Leading zero omitted, Abs format (unit mm)*
G04 Created by KiCad (PCBNEW 7.0.1) date 2023-04-28 19:57:16*
%MOMM*%
%LPD*%
G01*
G04 APERTURE LIST*
G04 Aperture macros list*
%AMRoundRect*
0 Rectangle with rounded corners*
0 $1 Rounding radius*
0 $2 $3 $4 $5 $6 $7 $8 $9 X,Y pos of 4 corners*
0 Add a 4 corners polygon primitive as box body*
4,1,4,$2,$3,$4,$5,$6,$7,$8,$9,$2,$3,0*
0 Add four circle primitives for the rounded corners*
1,1,$1+$1,$2,$3*
1,1,$1+$1,$4,$5*
1,1,$1+$1,$6,$7*
1,1,$1+$1,$8,$9*
0 Add four rect primitives between the rounded corners*
20,1,$1+$1,$2,$3,$4,$5,0*
20,1,$1+$1,$4,$5,$6,$7,0*
20,1,$1+$1,$6,$7,$8,$9,0*
20,1,$1+$1,$8,$9,$2,$3,0*%
G04 Aperture macros list end*
%TA.AperFunction,ComponentPad*%
%ADD10C,1.524000*%
%TD*%
%TA.AperFunction,ComponentPad*%
%ADD11R,1.700000X1.700000*%
%TD*%
%TA.AperFunction,ComponentPad*%
%ADD12O,1.700000X1.700000*%
%TD*%
%TA.AperFunction,HeatsinkPad*%
%ADD13C,0.600000*%
%TD*%
%TA.AperFunction,HeatsinkPad*%
%ADD14C,3.200000*%
%TD*%
%TA.AperFunction,ComponentPad*%
%ADD15C,3.800000*%
%TD*%
%TA.AperFunction,ComponentPad*%
%ADD16R,1.350000X1.350000*%
%TD*%
%TA.AperFunction,ComponentPad*%
%ADD17O,1.350000X1.350000*%
%TD*%
%TA.AperFunction,ComponentPad*%
%ADD18C,1.000000*%
%TD*%
%TA.AperFunction,SMDPad,CuDef*%
%ADD19RoundRect,0.200000X-0.200000X-0.275000X0.200000X-0.275000X0.200000X0.275000X-0.200000X0.275000X0*%
%TD*%
%TA.AperFunction,SMDPad,CuDef*%
%ADD20RoundRect,0.200000X-0.275000X0.200000X-0.275000X-0.200000X0.275000X-0.200000X0.275000X0.200000X0*%
%TD*%
%TA.AperFunction,SMDPad,CuDef*%
%ADD21RoundRect,0.250000X-0.262500X-0.450000X0.262500X-0.450000X0.262500X0.450000X-0.262500X0.450000X0*%
%TD*%
%TA.AperFunction,SMDPad,CuDef*%
%ADD22R,3.500000X3.300000*%
%TD*%
%TA.AperFunction,SMDPad,CuDef*%
%ADD23C,10.200000*%
%TD*%
%TA.AperFunction,SMDPad,CuDef*%
%ADD24R,2.000000X1.500000*%
%TD*%
%TA.AperFunction,SMDPad,CuDef*%
%ADD25R,2.000000X3.800000*%
%TD*%
%TA.AperFunction,SMDPad,CuDef*%
%ADD26RoundRect,0.225000X0.250000X-0.225000X0.250000X0.225000X-0.250000X0.225000X-0.250000X-0.225000X0*%
%TD*%
%TA.AperFunction,SMDPad,CuDef*%
%ADD27RoundRect,0.250000X0.262500X0.450000X-0.262500X0.450000X-0.262500X-0.450000X0.262500X-0.450000X0*%
%TD*%
%TA.AperFunction,SMDPad,CuDef*%
%ADD28RoundRect,0.250000X-1.000000X1.400000X-1.000000X-1.400000X1.000000X-1.400000X1.000000X1.400000X0*%
%TD*%
%TA.AperFunction,SMDPad,CuDef*%
%ADD29RoundRect,0.250000X-0.250000X-0.475000X0.250000X-0.475000X0.250000X0.475000X-0.250000X0.475000X0*%
%TD*%
%TA.AperFunction,ComponentPad*%
%ADD30R,1.600000X1.600000*%
%TD*%
%TA.AperFunction,ComponentPad*%
%ADD31C,1.600000*%
%TD*%
%TA.AperFunction,ComponentPad*%
%ADD32C,1.500000*%
%TD*%
%TA.AperFunction,SMDPad,CuDef*%
%ADD33RoundRect,0.200000X0.275000X-0.200000X0.275000X0.200000X-0.275000X0.200000X-0.275000X-0.200000X0*%
%TD*%
%TA.AperFunction,SMDPad,CuDef*%
%ADD34RoundRect,0.200000X0.200000X0.275000X-0.200000X0.275000X-0.200000X-0.275000X0.200000X-0.275000X0*%
%TD*%
%TA.AperFunction,ComponentPad*%
%ADD35RoundRect,0.250000X0.625000X-0.350000X0.625000X0.350000X-0.625000X0.350000X-0.625000X-0.350000X0*%
%TD*%
%TA.AperFunction,ComponentPad*%
%ADD36O,1.750000X1.200000*%
%TD*%
%TA.AperFunction,ViaPad*%
%ADD37C,0.800000*%
%TD*%
%TA.AperFunction,ViaPad*%
%ADD38C,0.600000*%
%TD*%
%TA.AperFunction,Conductor*%
%ADD39C,0.250000*%
%TD*%
%TA.AperFunction,Conductor*%
%ADD40C,0.254000*%
%TD*%
%TA.AperFunction,Conductor*%
%ADD41C,0.406400*%
%TD*%
%TA.AperFunction,Conductor*%
%ADD42C,0.635000*%
%TD*%
%TA.AperFunction,Conductor*%
%ADD43C,0.508000*%
%TD*%
G04 APERTURE END LIST*
D10*
%TO.P,U8,1,VCC*%
%TO.N,+3V3*%
X126873000Y-96520000D03*
%TO.P,U8,2,GND*%
%TO.N,GND*%
X129413000Y-96520000D03*
%TO.P,U8,3,SCL*%
%TO.N,/MainBoard/I2C_SCL*%
X131953000Y-96520000D03*
%TO.P,U8,4,SDA*%
%TO.N,/MainBoard/I2C_SDA*%
X134493000Y-96520000D03*
%TO.P,U8,8,INT*%
%TO.N,/MainBoard/IMU_INT*%
X144653000Y-96520000D03*
%TD*%
D11*
%TO.P,J5,1,Pin_1*%
%TO.N,+3V3*%
X114024000Y-84005000D03*
D12*
%TO.P,J5,2,Pin_2*%
%TO.N,GND*%
X116564000Y-84005000D03*
%TO.P,J5,3,Pin_3*%
%TO.N,/MainBoard/ADC_VBAT*%
X119104000Y-84005000D03*
%TD*%
D11*
%TO.P,J1,1,Pin_1*%
%TO.N,/DisplayBoard/ADC_LDR*%
X162846000Y-96490000D03*
D12*
%TO.P,J1,2,Pin_2*%
%TO.N,/DisplayBoard/DISP_BRIGHT*%
X162846000Y-99030000D03*
%TO.P,J1,3,Pin_3*%
%TO.N,/DisplayBoard/DISP_LATCH*%
X162846000Y-101570000D03*
%TO.P,J1,4,Pin_4*%
%TO.N,/DisplayBoard/DISP_CLOCK*%
X162846000Y-104110000D03*
%TO.P,J1,5,Pin_5*%
%TO.N,/DisplayBoard/DISP_DATA*%
X162846000Y-106650000D03*
%TO.P,J1,6,Pin_6*%
%TO.N,GND*%
X162846000Y-109190000D03*
%TO.P,J1,7,Pin_7*%
%TO.N,+3V3*%
X162846000Y-111730000D03*
%TD*%
D13*
%TO.P,U2,39,GND*%
%TO.N,GND*%
X144172000Y-110679000D03*
X144172000Y-109279000D03*
X142816000Y-111989000D03*
X142816000Y-107925000D03*
D14*
X142141000Y-109979000D03*
D13*
X141416000Y-111989000D03*
X141416000Y-107925000D03*
X140108000Y-110679000D03*
X140108000Y-109279000D03*
%TD*%
D11*
%TO.P,J7,1,Pin_1*%
%TO.N,+3V3*%
X114039000Y-78830000D03*
D12*
%TO.P,J7,2,Pin_2*%
%TO.N,GND*%
X116579000Y-78830000D03*
%TO.P,J7,3,Pin_3*%
%TO.N,/MainBoard/ADC_VBAT*%
X119119000Y-78830000D03*
%TD*%
D15*
%TO.P,H1,1,1*%
%TO.N,GND*%
X104394000Y-87757000D03*
%TD*%
D11*
%TO.P,J6,1,Pin_1*%
%TO.N,/DisplayBoard/ADC_LDR*%
X168823500Y-96455000D03*
D12*
%TO.P,J6,2,Pin_2*%
%TO.N,/DisplayBoard/DISP_BRIGHT*%
X168823500Y-98995000D03*
%TO.P,J6,3,Pin_3*%
%TO.N,/DisplayBoard/DISP_LATCH*%
X168823500Y-101535000D03*
%TO.P,J6,4,Pin_4*%
%TO.N,/DisplayBoard/DISP_CLOCK*%
X168823500Y-104075000D03*
%TO.P,J6,5,Pin_5*%
%TO.N,/DisplayBoard/DISP_DATA*%
X168823500Y-106615000D03*
%TO.P,J6,6,Pin_6*%
%TO.N,GND*%
X168823500Y-109155000D03*
%TO.P,J6,7,Pin_7*%
%TO.N,+3V3*%
X168823500Y-111695000D03*
%TD*%
D16*
%TO.P,J2,1,Pin_1*%
%TO.N,+3V3*%
X121714000Y-110998000D03*
D17*
%TO.P,J2,2,Pin_2*%
%TO.N,GND*%
X123714000Y-110998000D03*
%TO.P,J2,3,Pin_3*%
%TO.N,/MainBoard/TX*%
X125714000Y-110998000D03*
%TO.P,J2,4,Pin_4*%
%TO.N,/MainBoard/RX*%
X127714000Y-110998000D03*
%TD*%
D18*
%TO.P,Y1,1,1*%
%TO.N,Net-(U9-OSCO)*%
X160650000Y-82700000D03*
%TO.P,Y1,2,2*%
%TO.N,Net-(U9-OSCI)*%
X162550000Y-82700000D03*
%TD*%
D15*
%TO.P,H2,1,1*%
%TO.N,GND*%
X160020000Y-116205000D03*
%TD*%
D19*
%TO.P,R7,2*%
%TO.N,/MainBoard/I2C_SCL*%
X130238000Y-94615000D03*
%TO.P,R7,1*%
%TO.N,+3V3*%
X128588000Y-94615000D03*
%TD*%
D20*
%TO.P,R5,1*%
%TO.N,+3V3*%
X156337000Y-108522000D03*
%TO.P,R5,2*%
%TO.N,/MainBoard/EN*%
X156337000Y-110172000D03*
%TD*%
D21*
%TO.P,R22,1*%
%TO.N,Net-(U4-QF)*%
X185437000Y-109912000D03*
%TO.P,R22,2*%
%TO.N,Net-(U6-F)*%
X187262000Y-109912000D03*
%TD*%
D22*
%TO.P,BT1,1,+*%
%TO.N,Net-(BT1-+)*%
X144600000Y-87605000D03*
X160400000Y-87605000D03*
D23*
%TO.P,BT1,2,-*%
%TO.N,GND*%
X152500000Y-87605000D03*
%TD*%
D19*
%TO.P,R3,1*%
%TO.N,+3V3*%
X122100500Y-93281500D03*
%TO.P,R3,2*%
%TO.N,/MainBoard/IO0*%
X123750500Y-93281500D03*
%TD*%
D24*
%TO.P,U1,1,GND*%
%TO.N,GND*%
X113289000Y-74130000D03*
%TO.P,U1,2,VO*%
%TO.N,+3V3*%
X113289000Y-71830000D03*
D25*
X119589000Y-71830000D03*
D24*
%TO.P,U1,3,VI*%
%TO.N,+BATT*%
X113289000Y-69530000D03*
%TD*%
D26*
%TO.P,C1,1*%
%TO.N,GND*%
X146812000Y-108852000D03*
%TO.P,C1,2*%
%TO.N,/MainBoard/ADC_VBAT*%
X146812000Y-107302000D03*
%TD*%
D27*
%TO.P,R19,1*%
%TO.N,Net-(U4-QC)*%
X179134000Y-104832000D03*
%TO.P,R19,2*%
%TO.N,Net-(U6-C)*%
X177309000Y-104832000D03*
%TD*%
D21*
%TO.P,R26,1*%
%TO.N,Net-(U5-QB)*%
X185437000Y-88586000D03*
%TO.P,R26,2*%
%TO.N,Net-(U7-B)*%
X187262000Y-88586000D03*
%TD*%
D28*
%TO.P,D1,1,A1*%
%TO.N,GND*%
X103183800Y-65480000D03*
%TO.P,D1,2,A2*%
%TO.N,+BATT*%
X109983800Y-65480000D03*
%TD*%
D21*
%TO.P,R31,1*%
%TO.N,Net-(U5-QG)*%
X185437000Y-98746000D03*
%TO.P,R31,2*%
%TO.N,Net-(U7-G)*%
X187262000Y-98746000D03*
%TD*%
D19*
%TO.P,R8,2*%
%TO.N,/MainBoard/I2C_SDA*%
X130238000Y-92837000D03*
%TO.P,R8,1*%
%TO.N,+3V3*%
X128588000Y-92837000D03*
%TD*%
D29*
%TO.P,C4,1*%
%TO.N,+3V3*%
X118029000Y-67004000D03*
%TO.P,C4,2*%
%TO.N,GND*%
X119929000Y-67004000D03*
%TD*%
D27*
%TO.P,R27,1*%
%TO.N,Net-(U5-QC)*%
X179134000Y-91126000D03*
%TO.P,R27,2*%
%TO.N,Net-(U7-C)*%
X177309000Y-91126000D03*
%TD*%
D30*
%TO.P,U6,1,E*%
%TO.N,Net-(U6-E)*%
X174612000Y-112462000D03*
D31*
%TO.P,U6,2,D*%
%TO.N,Net-(U6-D)*%
X174612000Y-109922000D03*
%TO.P,U6,3,CC*%
%TO.N,/DisplayBoard/LED_CATH*%
X174612000Y-107382000D03*
%TO.P,U6,4,C*%
%TO.N,Net-(U6-C)*%
X174612000Y-104842000D03*
%TO.P,U6,5,DP*%
%TO.N,Net-(U6-DP)*%
X174612000Y-102302000D03*
%TO.P,U6,6,B*%
%TO.N,Net-(U6-B)*%
X189852000Y-102302000D03*
%TO.P,U6,7,A*%
%TO.N,Net-(U6-A)*%
X189852000Y-104842000D03*
%TO.P,U6,8,CC*%
%TO.N,/DisplayBoard/LED_CATH*%
X189852000Y-107382000D03*
%TO.P,U6,9,F*%
%TO.N,Net-(U6-F)*%
X189852000Y-109922000D03*
%TO.P,U6,10,G*%
%TO.N,Net-(U6-G)*%
X189852000Y-112462000D03*
%TD*%
D21*
%TO.P,R25,1*%
%TO.N,Net-(U5-QA)*%
X185437000Y-91126000D03*
%TO.P,R25,2*%
%TO.N,Net-(U7-A)*%
X187262000Y-91126000D03*
%TD*%
%TO.P,R17,1*%
%TO.N,Net-(U4-QA)*%
X185437000Y-104832000D03*
%TO.P,R17,2*%
%TO.N,Net-(U6-A)*%
X187262000Y-104832000D03*
%TD*%
D27*
%TO.P,R20,1*%
%TO.N,Net-(U4-QD)*%
X179134000Y-109912000D03*
%TO.P,R20,2*%
%TO.N,Net-(U6-D)*%
X177309000Y-109912000D03*
%TD*%
D21*
%TO.P,R30,1*%
%TO.N,Net-(U5-QF)*%
X185437000Y-96206000D03*
%TO.P,R30,2*%
%TO.N,Net-(U7-F)*%
X187262000Y-96206000D03*
%TD*%
D30*
%TO.P,U7,1,E*%
%TO.N,Net-(U7-E)*%
X174612000Y-98758000D03*
D31*
%TO.P,U7,2,D*%
%TO.N,Net-(U7-D)*%
X174612000Y-96218000D03*
%TO.P,U7,3,CC*%
%TO.N,/DisplayBoard/LED_CATH*%
X174612000Y-93678000D03*
%TO.P,U7,4,C*%
%TO.N,Net-(U7-C)*%
X174612000Y-91138000D03*
%TO.P,U7,5,DP*%
%TO.N,Net-(U7-DP)*%
X174612000Y-88598000D03*
%TO.P,U7,6,B*%
%TO.N,Net-(U7-B)*%
X189852000Y-88598000D03*
%TO.P,U7,7,A*%
%TO.N,Net-(U7-A)*%
X189852000Y-91138000D03*
%TO.P,U7,8,CC*%
%TO.N,/DisplayBoard/LED_CATH*%
X189852000Y-93678000D03*
%TO.P,U7,9,F*%
%TO.N,Net-(U7-F)*%
X189852000Y-96218000D03*
%TO.P,U7,10,G*%
%TO.N,Net-(U7-G)*%
X189852000Y-98758000D03*
%TD*%
D27*
%TO.P,R29,1*%
%TO.N,Net-(U5-QE)*%
X179109500Y-98746000D03*
%TO.P,R29,2*%
%TO.N,Net-(U7-E)*%
X177284500Y-98746000D03*
%TD*%
D32*
%TO.P,R15,1*%
%TO.N,+3V3*%
X169331500Y-88664000D03*
%TO.P,R15,2*%
%TO.N,/DisplayBoard/ADC_LDR*%
X169331500Y-92064000D03*
%TD*%
D27*
%TO.P,R32,1*%
%TO.N,Net-(U5-QH)*%
X179134000Y-88586000D03*
%TO.P,R32,2*%
%TO.N,Net-(U7-DP)*%
X177309000Y-88586000D03*
%TD*%
D29*
%TO.P,C2,1*%
%TO.N,+BATT*%
X112949000Y-67004000D03*
%TO.P,C2,2*%
%TO.N,GND*%
X114849000Y-67004000D03*
%TD*%
D19*
%TO.P,R1,1*%
%TO.N,+BATT*%
X108400400Y-77570400D03*
%TO.P,R1,2*%
%TO.N,/MainBoard/ADC_VBAT*%
X110050400Y-77570400D03*
%TD*%
D27*
%TO.P,R21,1*%
%TO.N,Net-(U4-QE)*%
X179134000Y-112452000D03*
%TO.P,R21,2*%
%TO.N,Net-(U6-E)*%
X177309000Y-112452000D03*
%TD*%
D21*
%TO.P,R18,1*%
%TO.N,Net-(U4-QB)*%
X185437000Y-102292000D03*
%TO.P,R18,2*%
%TO.N,Net-(U6-B)*%
X187262000Y-102292000D03*
%TD*%
D33*
%TO.P,R6,1*%
%TO.N,+3V3*%
X151200000Y-98925000D03*
%TO.P,R6,2*%
%TO.N,/MainBoard/BUT*%
X151200000Y-97275000D03*
%TD*%
D21*
%TO.P,R23,1*%
%TO.N,Net-(U4-QG)*%
X185437000Y-112452000D03*
%TO.P,R23,2*%
%TO.N,Net-(U6-G)*%
X187262000Y-112452000D03*
%TD*%
D27*
%TO.P,R28,1*%
%TO.N,Net-(U5-QD)*%
X179134000Y-96206000D03*
%TO.P,R28,2*%
%TO.N,Net-(U7-D)*%
X177309000Y-96206000D03*
%TD*%
D34*
%TO.P,R2,1*%
%TO.N,/MainBoard/ADC_VBAT*%
X110050400Y-79094400D03*
%TO.P,R2,2*%
%TO.N,GND*%
X108400400Y-79094400D03*
%TD*%
D27*
%TO.P,R24,1*%
%TO.N,Net-(U4-QH)*%
X179134000Y-102292000D03*
%TO.P,R24,2*%
%TO.N,Net-(U6-DP)*%
X177309000Y-102292000D03*
%TD*%
D35*
%TO.P,J3,1,Pin_1*%
%TO.N,GND*%
X109541800Y-73846000D03*
D36*
%TO.P,J3,2,Pin_2*%
%TO.N,+BATT*%
X109541800Y-71846000D03*
%TD*%
D26*
%TO.P,C16,1*%
%TO.N,GND*%
X152400000Y-108738000D03*
%TO.P,C16,2*%
%TO.N,/DisplayBoard/ADC_LDR*%
X152400000Y-107188000D03*
%TD*%
D37*
%TO.N,GND*%
X151511000Y-91059000D03*
%TO.N,Net-(BT1-+)*%
X145700000Y-82500000D03*
D38*
%TO.N,GND*%
X109347000Y-100076000D03*
X171101000Y-89434000D03*
X120078500Y-94805500D03*
X120361000Y-68453000D03*
X129540000Y-91440000D03*
X133118000Y-117592000D03*
X177832000Y-106325000D03*
X113249000Y-75692000D03*
X116043000Y-67056000D03*
X106772000Y-77470000D03*
X177832000Y-92609000D03*
X146326000Y-101463000D03*
X136142700Y-86761000D03*
X111633000Y-74168000D03*
X148104000Y-117592000D03*
X132842000Y-92583000D03*
X110546000Y-93844000D03*
X138639000Y-91948000D03*
X103216000Y-67818000D03*
X105121000Y-64897000D03*
X183420000Y-112548000D03*
X105121000Y-66040000D03*
X114900000Y-65532000D03*
X183547000Y-98832000D03*
X134883300Y-86761000D03*
X120361000Y-65532000D03*
X154813000Y-106807000D03*
X115027000Y-74168000D03*
X103216000Y-63119000D03*
%TO.N,/MainBoard/ADC_VBAT*%
X147955000Y-107315000D03*
%TO.N,/MainBoard/EN*%
X155067000Y-110435000D03*
%TO.N,+3V3*%
X179102000Y-108357000D03*
X119599000Y-74422000D03*
X179102000Y-94641000D03*
X117983000Y-95123000D03*
X120205500Y-92138500D03*
X186722000Y-94514000D03*
X118075000Y-71830000D03*
X157480000Y-106744000D03*
X111545000Y-98806000D03*
D37*
X157700000Y-94200000D03*
D38*
X186722000Y-108230000D03*
D37*
X151200000Y-99900000D03*
D38*
X119599000Y-69215000D03*
X104267000Y-99441000D03*
X105156000Y-95123000D03*
X114900000Y-71120000D03*
X114900000Y-72517000D03*
X137115000Y-86507000D03*
X132035000Y-88920000D03*
D37*
X153797000Y-116078000D03*
D38*
%TO.N,/MainBoard/SD_DET_B*%
X104938618Y-101232000D03*
X118237000Y-101473000D03*
%TO.N,/DisplayBoard/ADC_LDR*%
X151130000Y-108458000D03*
%TO.N,/DisplayBoard/DISP_DATA*%
X183550200Y-111659000D03*
%TO.N,/DisplayBoard/DISP_LATCH*%
X176689000Y-106579000D03*
%TO.N,/DisplayBoard/DISP_BRIGHT*%
X176562000Y-100864000D03*
%TO.N,/MainBoard/SD_MOSI*%
X112649000Y-102616000D03*
X129667000Y-116459000D03*
D37*
%TO.N,/MainBoard/I2C_SCL*%
X136900000Y-97300000D03*
D38*
X129921000Y-114681000D03*
%TO.N,/DisplayBoard/LED_CATH*%
X173006000Y-100102000D03*
X177324000Y-100102000D03*
X175292000Y-100102000D03*
%TO.N,/MainBoard/IO0*%
X123888500Y-94678500D03*
%TO.N,/MainBoard/BUT*%
X149860000Y-97096700D03*
X146431000Y-97282000D03*
X130175000Y-103505000D03*
%TO.N,/MainBoard/IMU_INT*%
X132842000Y-98425000D03*
X133940000Y-87142000D03*
%TO.N,/DisplayBoard/SH_REG_OUT_1*%
X183550200Y-97943000D03*
X181642000Y-97943000D03*
%TO.N,Net-(U5-QA)*%
X185452000Y-94133000D03*
%TO.N,Net-(U5-QB)*%
X184436000Y-87656000D03*
%TO.N,Net-(U5-QC)*%
X181007000Y-89561000D03*
%TO.N,Net-(U5-QD)*%
X184182000Y-92609000D03*
%TO.N,Net-(U5-QE)*%
X182888416Y-93342116D03*
%TO.N,Net-(U5-QF)*%
X184055000Y-94006000D03*
%TO.N,Net-(U5-QG)*%
X183547000Y-94641000D03*
%TO.N,Net-(U5-QH)*%
X180245000Y-87783000D03*
%TO.N,Net-(U4-QH)*%
X180118000Y-102769000D03*
%TO.N,Net-(U4-QG)*%
X183547000Y-108357000D03*
%TO.N,Net-(U4-QF)*%
X184055000Y-107722000D03*
%TO.N,Net-(U4-QE)*%
X182880766Y-107055766D03*
%TO.N,Net-(U4-QD)*%
X184182000Y-106325000D03*
%TO.N,Net-(U4-QC)*%
X181007000Y-103277000D03*
%TO.N,Net-(U4-QB)*%
X184182000Y-102261000D03*
%TO.N,Net-(U4-QA)*%
X185452000Y-107849000D03*
%TD*%
D39*
%TO.N,Net-(BT1-+)*%
X144600000Y-83600000D02*
X145700000Y-82500000D01*
X144600000Y-87605000D02*
X144600000Y-83600000D01*
D40*
%TO.N,+3V3*%
X126873000Y-96330000D02*
X126873000Y-96520000D01*
X128588000Y-94615000D02*
X126873000Y-96330000D01*
X128588000Y-92837000D02*
X128588000Y-94615000D01*
%TO.N,/MainBoard/I2C_SDA*%
X130810000Y-92837000D02*
X134493000Y-96520000D01*
X130238000Y-92837000D02*
X130810000Y-92837000D01*
%TO.N,/MainBoard/I2C_SCL*%
X130238000Y-94805000D02*
X131953000Y-96520000D01*
X130238000Y-94615000D02*
X130238000Y-94805000D01*
D41*
%TO.N,GND*%
X106772000Y-77470000D02*
X106772000Y-78486000D01*
X106772000Y-78486000D02*
X107380400Y-79094400D01*
X107380400Y-79094400D02*
X108400400Y-79094400D01*
D40*
%TO.N,/MainBoard/ADC_VBAT*%
X147942000Y-107302000D02*
X147955000Y-107315000D01*
X117369000Y-77080000D02*
X119119000Y-78830000D01*
X146812000Y-107302000D02*
X147942000Y-107302000D01*
X110050400Y-77570400D02*
X110540800Y-77080000D01*
X147955000Y-95631000D02*
X136329000Y-84005000D01*
X147955000Y-107315000D02*
X147955000Y-95631000D01*
X110540800Y-77080000D02*
X117369000Y-77080000D01*
X110050400Y-77570400D02*
X110050400Y-79094400D01*
X136329000Y-84005000D02*
X119104000Y-84005000D01*
%TO.N,+BATT*%
X108400400Y-77570400D02*
X107789000Y-76959000D01*
X107789000Y-76959000D02*
X107789000Y-72580000D01*
D42*
X109541800Y-71846000D02*
X109541800Y-65922000D01*
X112949000Y-67004000D02*
X112949000Y-69190000D01*
X109983800Y-65480000D02*
X111425000Y-65480000D01*
X111425000Y-65480000D02*
X112949000Y-67004000D01*
D40*
X108523000Y-71846000D02*
X109541800Y-71846000D01*
D42*
X112949000Y-69190000D02*
X113289000Y-69530000D01*
D40*
X107789000Y-72580000D02*
X108523000Y-71846000D01*
D42*
X109541800Y-65922000D02*
X109983800Y-65480000D01*
D40*
%TO.N,/MainBoard/EN*%
X156337000Y-110172000D02*
X155330000Y-110172000D01*
X155330000Y-110172000D02*
X155067000Y-110435000D01*
D43*
%TO.N,+3V3*%
X119589000Y-71830000D02*
X119589000Y-69225000D01*
X119589000Y-69225000D02*
X119599000Y-69215000D01*
X114190000Y-71830000D02*
X114900000Y-71120000D01*
D40*
X156337000Y-107887000D02*
X157480000Y-106744000D01*
X121348500Y-93281500D02*
X120205500Y-92138500D01*
X156337000Y-108522000D02*
X156337000Y-107887000D01*
D43*
X113289000Y-71830000D02*
X114190000Y-71830000D01*
X114213000Y-71830000D02*
X114900000Y-72517000D01*
X118029000Y-67004000D02*
X118029000Y-67645000D01*
X119589000Y-71830000D02*
X118075000Y-71830000D01*
X119589000Y-71830000D02*
X119589000Y-74412000D01*
X113289000Y-71830000D02*
X114213000Y-71830000D01*
D40*
X122100500Y-93281500D02*
X121348500Y-93281500D01*
D43*
X118029000Y-67645000D02*
X119599000Y-69215000D01*
X119589000Y-74412000D02*
X119599000Y-74422000D01*
D39*
X151200000Y-98925000D02*
X151200000Y-99900000D01*
D40*
%TO.N,/MainBoard/SD_DET_B*%
X118237000Y-101473000D02*
X105179618Y-101473000D01*
X105179618Y-101473000D02*
X104938618Y-101232000D01*
%TO.N,/DisplayBoard/ADC_LDR*%
X151130000Y-108458000D02*
X152400000Y-107188000D01*
X162846000Y-96742000D02*
X152400000Y-107188000D01*
X162846000Y-96742000D02*
X162846000Y-96490000D01*
%TO.N,/DisplayBoard/DISP_DATA*%
X171609000Y-112167000D02*
X171609000Y-109400500D01*
X183550200Y-111659000D02*
X182404000Y-111659000D01*
X173260000Y-113818000D02*
X171609000Y-112167000D01*
X180245000Y-113818000D02*
X173260000Y-113818000D01*
X171609000Y-109400500D02*
X168823500Y-106615000D01*
X182404000Y-111659000D02*
X180245000Y-113818000D01*
%TO.N,/DisplayBoard/DISP_LATCH*%
X176181000Y-106071000D02*
X173359500Y-106071000D01*
X173359500Y-106071000D02*
X168823500Y-101535000D01*
X176689000Y-106579000D02*
X176181000Y-106071000D01*
%TO.N,/DisplayBoard/DISP_BRIGHT*%
X176562000Y-100864000D02*
X170692500Y-100864000D01*
X170692500Y-100864000D02*
X168823500Y-98995000D01*
%TO.N,/MainBoard/SD_MOSI*%
X112649000Y-105664000D02*
X123444000Y-116459000D01*
X123444000Y-116459000D02*
X129667000Y-116459000D01*
X112649000Y-102616000D02*
X112649000Y-105664000D01*
D39*
%TO.N,/MainBoard/I2C_SCL*%
X136400000Y-97800000D02*
X133233000Y-97800000D01*
X136900000Y-97300000D02*
X136400000Y-97800000D01*
X133233000Y-97800000D02*
X131953000Y-96520000D01*
D40*
X129159000Y-113919000D02*
X129159000Y-99314000D01*
X129159000Y-99314000D02*
X131953000Y-96520000D01*
X129921000Y-114681000D02*
X129159000Y-113919000D01*
D43*
%TO.N,/DisplayBoard/LED_CATH*%
X173006000Y-95284000D02*
X174612000Y-93678000D01*
X175292000Y-100102000D02*
X177324000Y-100102000D01*
X173006000Y-100102000D02*
X173006000Y-95284000D01*
D40*
%TO.N,/MainBoard/IO0*%
X123888500Y-93419500D02*
X123750500Y-93281500D01*
X123888500Y-94678500D02*
X123888500Y-93419500D01*
%TO.N,/MainBoard/BUT*%
X130175000Y-103505000D02*
X140208000Y-103505000D01*
D39*
X151021700Y-97096700D02*
X149860000Y-97096700D01*
X151200000Y-97275000D02*
X151021700Y-97096700D01*
D40*
X140208000Y-103505000D02*
X146431000Y-97282000D01*
%TO.N,/MainBoard/IMU_INT*%
X133940000Y-87142000D02*
X135317000Y-88519000D01*
X135317000Y-88519000D02*
X136652000Y-88519000D01*
X132842000Y-98425000D02*
X142748000Y-98425000D01*
X136652000Y-88519000D02*
X144653000Y-96520000D01*
X142748000Y-98425000D02*
X144653000Y-96520000D01*
%TO.N,/DisplayBoard/SH_REG_OUT_1*%
X181642000Y-97943000D02*
X183550200Y-97943000D01*
%TO.N,Net-(U5-QA)*%
X185452000Y-94133000D02*
X185452000Y-91141000D01*
X185452000Y-91141000D02*
X185437000Y-91126000D01*
%TO.N,Net-(U7-A)*%
X187274000Y-91138000D02*
X189852000Y-91138000D01*
X187262000Y-91126000D02*
X187274000Y-91138000D01*
%TO.N,Net-(U5-QB)*%
X184436000Y-87656000D02*
X184507000Y-87656000D01*
X184507000Y-87656000D02*
X185437000Y-88586000D01*
%TO.N,Net-(U7-B)*%
X187262000Y-88586000D02*
X187274000Y-88598000D01*
X187274000Y-88598000D02*
X189852000Y-88598000D01*
%TO.N,Net-(U5-QC)*%
X180699000Y-89561000D02*
X179134000Y-91126000D01*
X181007000Y-89561000D02*
X180699000Y-89561000D01*
%TO.N,Net-(U7-C)*%
X177309000Y-91126000D02*
X177297000Y-91138000D01*
X177297000Y-91138000D02*
X174612000Y-91138000D01*
%TO.N,Net-(U5-QD)*%
X182731000Y-92609000D02*
X179134000Y-96206000D01*
X184182000Y-92609000D02*
X182731000Y-92609000D01*
%TO.N,Net-(U7-D)*%
X177297000Y-96218000D02*
X174612000Y-96218000D01*
X177309000Y-96206000D02*
X177297000Y-96218000D01*
%TO.N,Net-(U5-QE)*%
X182888416Y-93342116D02*
X182888416Y-94967084D01*
X182888416Y-94967084D02*
X179109500Y-98746000D01*
%TO.N,Net-(U7-E)*%
X177284500Y-98746000D02*
X177272500Y-98758000D01*
X177272500Y-98758000D02*
X174612000Y-98758000D01*
%TO.N,Net-(U5-QF)*%
X184055000Y-94006000D02*
X185437000Y-95388000D01*
X185437000Y-95388000D02*
X185437000Y-96206000D01*
%TO.N,Net-(U7-F)*%
X187262000Y-96206000D02*
X187274000Y-96218000D01*
X187274000Y-96218000D02*
X189852000Y-96218000D01*
%TO.N,Net-(U5-QG)*%
X183547000Y-94641000D02*
X183547000Y-96856000D01*
X183547000Y-96856000D02*
X185437000Y-98746000D01*
%TO.N,Net-(U7-G)*%
X187274000Y-98758000D02*
X189852000Y-98758000D01*
X187262000Y-98746000D02*
X187274000Y-98758000D01*
%TO.N,Net-(U5-QH)*%
X179937000Y-87783000D02*
X179134000Y-88586000D01*
X180245000Y-87783000D02*
X179937000Y-87783000D01*
%TO.N,Net-(U7-DP)*%
X177309000Y-88586000D02*
X177297000Y-88598000D01*
X177297000Y-88598000D02*
X174612000Y-88598000D01*
%TO.N,Net-(U6-G)*%
X187272000Y-112462000D02*
X189852000Y-112462000D01*
X187262000Y-112452000D02*
X187272000Y-112462000D01*
%TO.N,Net-(U6-F)*%
X187262000Y-109912000D02*
X187272000Y-109922000D01*
X187272000Y-109922000D02*
X189852000Y-109922000D01*
%TO.N,Net-(U6-E)*%
X177309000Y-112452000D02*
X177299000Y-112462000D01*
X177299000Y-112462000D02*
X174612000Y-112462000D01*
%TO.N,Net-(U6-DP)*%
X177309000Y-102292000D02*
X177299000Y-102302000D01*
X177299000Y-102302000D02*
X174612000Y-102302000D01*
%TO.N,Net-(U6-D)*%
X177299000Y-109922000D02*
X174612000Y-109922000D01*
X177309000Y-109912000D02*
X177299000Y-109922000D01*
%TO.N,Net-(U6-C)*%
X177309000Y-104832000D02*
X177299000Y-104842000D01*
X177299000Y-104842000D02*
X174612000Y-104842000D01*
%TO.N,Net-(U6-B)*%
X187272000Y-102302000D02*
X189852000Y-102302000D01*
X187262000Y-102292000D02*
X187272000Y-102302000D01*
%TO.N,Net-(U6-A)*%
X187272000Y-104842000D02*
X189852000Y-104842000D01*
X187262000Y-104832000D02*
X187272000Y-104842000D01*
%TO.N,Net-(U4-QH)*%
X179611000Y-102769000D02*
X179134000Y-102292000D01*
X180118000Y-102769000D02*
X179611000Y-102769000D01*
%TO.N,Net-(U4-QG)*%
X183547000Y-110562000D02*
X185437000Y-112452000D01*
X183547000Y-108357000D02*
X183547000Y-110562000D01*
%TO.N,Net-(U4-QF)*%
X184055000Y-107722000D02*
X185437000Y-109104000D01*
X185437000Y-109104000D02*
X185437000Y-109912000D01*
%TO.N,Net-(U4-QE)*%
X182880766Y-107055766D02*
X182880766Y-108705234D01*
X182880766Y-108705234D02*
X179134000Y-112452000D01*
%TO.N,Net-(U4-QD)*%
X182721000Y-106325000D02*
X179134000Y-109912000D01*
X184182000Y-106325000D02*
X182721000Y-106325000D01*
%TO.N,Net-(U4-QC)*%
X181007000Y-103277000D02*
X180689000Y-103277000D01*
X180689000Y-103277000D02*
X179134000Y-104832000D01*
%TO.N,Net-(U4-QB)*%
X184182000Y-102261000D02*
X185406000Y-102261000D01*
X185406000Y-102261000D02*
X185437000Y-102292000D01*
%TO.N,Net-(U4-QA)*%
X185452000Y-104847000D02*
X185437000Y-104832000D01*
X185452000Y-107849000D02*
X185452000Y-104847000D01*
%TD*%
%TA.AperFunction,Conductor*%
%TO.N,GND*%
G36*
X145513672Y-81644933D02*
G01*
X145558813Y-81684924D01*
X145580198Y-81741312D01*
X145572929Y-81801180D01*
X145538670Y-81850812D01*
X145485274Y-81878837D01*
X145466207Y-81883537D01*
X145466206Y-81883537D01*
X145466204Y-81883538D01*
X145325472Y-81957400D01*
X145206501Y-82062799D01*
X145116212Y-82193605D01*
X145059850Y-82342219D01*
X145056409Y-82370563D01*
X145040693Y-82500000D01*
X145046574Y-82548437D01*
X145040599Y-82604725D01*
X145010587Y-82652717D01*
X144368724Y-83294580D01*
X144348550Y-83310964D01*
X144339419Y-83316930D01*
X144319792Y-83342146D01*
X144309463Y-83353842D01*
X144309418Y-83353886D01*
X144297212Y-83370981D01*
X144294105Y-83375148D01*
X144256691Y-83423218D01*
X144256638Y-83423322D01*
X144239259Y-83481695D01*
X144237672Y-83486650D01*
X144217888Y-83544281D01*
X144217875Y-83544369D01*
X144220392Y-83605214D01*
X144220500Y-83610421D01*
X144220500Y-85574501D01*
X144203619Y-85637501D01*
X144157500Y-85683620D01*
X144094500Y-85700501D01*
X142824932Y-85700501D01*
X142750699Y-85715265D01*
X142666515Y-85771515D01*
X142610266Y-85855698D01*
X142595500Y-85929933D01*
X142595500Y-89280068D01*
X142610265Y-89354300D01*
X142666515Y-89438484D01*
X142722764Y-89476068D01*
X142750699Y-89494734D01*
X142824933Y-89509500D01*
X146375066Y-89509499D01*
X146375068Y-89509499D01*
X146424556Y-89499655D01*
X146449301Y-89494734D01*
X146533484Y-89438484D01*
X146589734Y-89354301D01*
X146604500Y-89280067D01*
X146604499Y-87605000D01*
X146988633Y-87605000D01*
X147008488Y-88072396D01*
X147067908Y-88536417D01*
X147166471Y-88993746D01*
X147303455Y-89441052D01*
X147477884Y-89875133D01*
X147688500Y-90292865D01*
X147933780Y-90691225D01*
X148211961Y-91067351D01*
X148432974Y-91318470D01*
X148432975Y-91318471D01*
X152146446Y-87605000D01*
X152853553Y-87605000D01*
X156567024Y-91318471D01*
X156567025Y-91318470D01*
X156788033Y-91067358D01*
X157066219Y-90691225D01*
X157311499Y-90292865D01*
X157522115Y-89875133D01*
X157696544Y-89441052D01*
X157833528Y-88993746D01*
X157932091Y-88536417D01*
X157991511Y-88072396D01*
X158011366Y-87605000D01*
X157991511Y-87137603D01*
X157932091Y-86673582D01*
X157833528Y-86216253D01*
X157696544Y-85768947D01*
X157522115Y-85334866D01*
X157311499Y-84917134D01*
X157066219Y-84518774D01*
X156788038Y-84142648D01*
X156567024Y-83891528D01*
X156567023Y-83891527D01*
X152853553Y-87604998D01*
X152853553Y-87605000D01*
X152146446Y-87605000D01*
X152146446Y-87604998D01*
X148432974Y-83891527D01*
X148432974Y-83891528D01*
X148211961Y-84142648D01*
X147933780Y-84518774D01*
X147688500Y-84917134D01*
X147477884Y-85334866D01*
X147303455Y-85768947D01*
X147166471Y-86216253D01*
X147067908Y-86673582D01*
X147008488Y-87137603D01*
X146988633Y-87605000D01*
X146604499Y-87605000D01*
X146604499Y-85929934D01*
X146604499Y-85929932D01*
X146604499Y-85929931D01*
X146589734Y-85855699D01*
X146533484Y-85771515D01*
X146449301Y-85715266D01*
X146449296Y-85715265D01*
X146375067Y-85700500D01*
X146375066Y-85700500D01*
X145105500Y-85700500D01*
X145042500Y-85683619D01*
X144996381Y-85637500D01*
X144979500Y-85574500D01*
X144979500Y-83809385D01*
X144989091Y-83761167D01*
X145016404Y-83720290D01*
X145199209Y-83537485D01*
X148786039Y-83537485D01*
X152499999Y-87251446D01*
X152500001Y-87251446D01*
X156213960Y-83537485D01*
X156213960Y-83537484D01*
X156141223Y-83467773D01*
X155777234Y-83173873D01*
X155389653Y-82911914D01*
X155010311Y-82700000D01*
X159890726Y-82700000D01*
X159909763Y-82868956D01*
X159924795Y-82911914D01*
X159965918Y-83029437D01*
X159982420Y-83055699D01*
X160056377Y-83173402D01*
X160176597Y-83293622D01*
X160176599Y-83293623D01*
X160176600Y-83293624D01*
X160320563Y-83384082D01*
X160481046Y-83440237D01*
X160650000Y-83459274D01*
X160818954Y-83440237D01*
X160979437Y-83384082D01*
X161123400Y-83293624D01*
X161243624Y-83173400D01*
X161334082Y-83029437D01*
X161390237Y-82868954D01*
X161409274Y-82700000D01*
X161790726Y-82700000D01*
X161809763Y-82868956D01*
X161824795Y-82911914D01*
X161865918Y-83029437D01*
X161882420Y-83055699D01*
X161956377Y-83173402D01*
X162076597Y-83293622D01*
X162076599Y-83293623D01*
X162076600Y-83293624D01*
X162220563Y-83384082D01*
X162381046Y-83440237D01*
X162550000Y-83459274D01*
X162718954Y-83440237D01*
X162879437Y-83384082D01*
X163023400Y-83293624D01*
X163143624Y-83173400D01*
X163234082Y-83029437D01*
X163290237Y-82868954D01*
X163309274Y-82700000D01*
X163290237Y-82531046D01*
X163234082Y-82370563D01*
X163143624Y-82226600D01*
X163143623Y-82226599D01*
X163143622Y-82226597D01*
X163023402Y-82106377D01*
X162965260Y-82069844D01*
X162879437Y-82015918D01*
X162825942Y-81997199D01*
X162718956Y-81959763D01*
X162550000Y-81940726D01*
X162381043Y-81959763D01*
X162220563Y-82015918D01*
X162076597Y-82106377D01*
X161956377Y-82226597D01*
X161865918Y-82370563D01*
X161809763Y-82531043D01*
X161790726Y-82700000D01*
X161409274Y-82700000D01*
X161390237Y-82531046D01*
X161334082Y-82370563D01*
X161243624Y-82226600D01*
X161243623Y-82226599D01*
X161243622Y-82226597D01*
X161123402Y-82106377D01*
X161065260Y-82069844D01*
X160979437Y-82015918D01*
X160925942Y-81997199D01*
X160818956Y-81959763D01*
X160650000Y-81940726D01*
X160481043Y-81959763D01*
X160320563Y-82015918D01*
X160176597Y-82106377D01*
X160056377Y-82226597D01*
X159965918Y-82370563D01*
X159909763Y-82531043D01*
X159890726Y-82700000D01*
X155010311Y-82700000D01*
X154981233Y-82683756D01*
X154554944Y-82491062D01*
X154113853Y-82335214D01*
X153661139Y-82217336D01*
X153200037Y-82138273D01*
X152733909Y-82098600D01*
X152266091Y-82098600D01*
X151799962Y-82138273D01*
X151338860Y-82217336D01*
X150886146Y-82335214D01*
X150445055Y-82491062D01*
X150018766Y-82683756D01*
X149610346Y-82911914D01*
X149222765Y-83173873D01*
X148858777Y-83467772D01*
X148786039Y-83537485D01*
X145199209Y-83537485D01*
X145545288Y-83191405D01*
X145586166Y-83164091D01*
X145634384Y-83154500D01*
X145779469Y-83154500D01*
X145779471Y-83154500D01*
X145933793Y-83116463D01*
X146074529Y-83042599D01*
X146193498Y-82937201D01*
X146283787Y-82806395D01*
X146340149Y-82657782D01*
X146359307Y-82500000D01*
X146340149Y-82342218D01*
X146283787Y-82193605D01*
X146193498Y-82062799D01*
X146074529Y-81957401D01*
X145933793Y-81883537D01*
X145914725Y-81878837D01*
X145861330Y-81850812D01*
X145827071Y-81801180D01*
X145819802Y-81741312D01*
X145841187Y-81684924D01*
X145886328Y-81644933D01*
X145944883Y-81630500D01*
X165435500Y-81630500D01*
X165498500Y-81647381D01*
X165544619Y-81693500D01*
X165561500Y-81756500D01*
X165561500Y-85980000D01*
X165544619Y-86043000D01*
X165498500Y-86089119D01*
X165435500Y-86106000D01*
X162530499Y-86106000D01*
X162467499Y-86089119D01*
X162421380Y-86043000D01*
X162404499Y-85980000D01*
X162404499Y-85929932D01*
X162389734Y-85855699D01*
X162333484Y-85771515D01*
X162249301Y-85715266D01*
X162249296Y-85715265D01*
X162175066Y-85700500D01*
X158624931Y-85700500D01*
X158550699Y-85715265D01*
X158466515Y-85771515D01*
X158410266Y-85855698D01*
X158395500Y-85929933D01*
X158395500Y-89280068D01*
X158410265Y-89354300D01*
X158466515Y-89438484D01*
X158522764Y-89476068D01*
X158550699Y-89494734D01*
X158624933Y-89509500D01*
X162175066Y-89509499D01*
X162180000Y-89509499D01*
X162243000Y-89526380D01*
X162289119Y-89572499D01*
X162306000Y-89635499D01*
X162306000Y-95259501D01*
X162289119Y-95322501D01*
X162243000Y-95368620D01*
X162180000Y-95385500D01*
X161970934Y-95385501D01*
X161970932Y-95385501D01*
X161896699Y-95400265D01*
X161812515Y-95456515D01*
X161756266Y-95540698D01*
X161756265Y-95540699D01*
X161756266Y-95540699D01*
X161743008Y-95607355D01*
X161741500Y-95614934D01*
X161741500Y-97254786D01*
X161731909Y-97303004D01*
X161704595Y-97343881D01*
X152601882Y-106446595D01*
X152561005Y-106473909D01*
X152512787Y-106483500D01*
X152104136Y-106483500D01*
X152047027Y-106489639D01*
X152047027Y-106489640D01*
X151917836Y-106537825D01*
X151807455Y-106620455D01*
X151724825Y-106730836D01*
X151678955Y-106853819D01*
X151676640Y-106860027D01*
X151673552Y-106888754D01*
X151670500Y-106917137D01*
X151670500Y-107325787D01*
X151660909Y-107374005D01*
X151633595Y-107414883D01*
X151183001Y-107865475D01*
X151149634Y-107889385D01*
X151110352Y-107901301D01*
X150985246Y-107917771D01*
X150850356Y-107973645D01*
X150734525Y-108062525D01*
X150645645Y-108178356D01*
X150589771Y-108313246D01*
X150570715Y-108458000D01*
X150589771Y-108602753D01*
X150645644Y-108737642D01*
X150645645Y-108737643D01*
X150734526Y-108853474D01*
X150850357Y-108942355D01*
X150985246Y-108998228D01*
X151130000Y-109017285D01*
X151274754Y-108998228D01*
X151348504Y-108967679D01*
X151406589Y-108958475D01*
X151462526Y-108976637D01*
X151504127Y-109018209D01*
X151514808Y-109051032D01*
X151517815Y-109050159D01*
X151565923Y-109215750D01*
X151647133Y-109353068D01*
X151759931Y-109465866D01*
X151897249Y-109547076D01*
X152050439Y-109591582D01*
X152086241Y-109594400D01*
X152150000Y-109594400D01*
X152150000Y-108988000D01*
X152650000Y-108988000D01*
X152650000Y-109594399D01*
X152713760Y-109594399D01*
X152749558Y-109591582D01*
X152902750Y-109547076D01*
X153040068Y-109465866D01*
X153152866Y-109353068D01*
X153234076Y-109215750D01*
X153278582Y-109062560D01*
X153281400Y-109026759D01*
X153281400Y-108988000D01*
X152650000Y-108988000D01*
X152150000Y-108988000D01*
X152150000Y-108776747D01*
X155607500Y-108776747D01*
X155610379Y-108807452D01*
X155655630Y-108936771D01*
X155736989Y-109047010D01*
X155847228Y-109128370D01*
X155976545Y-109173620D01*
X155976546Y-109173620D01*
X155976549Y-109173621D01*
X156007251Y-109176500D01*
X156666748Y-109176499D01*
X156697451Y-109173621D01*
X156826773Y-109128369D01*
X156937010Y-109047010D01*
X157018369Y-108936773D01*
X157063621Y-108807451D01*
X157066500Y-108776749D01*
X157066499Y-108267252D01*
X157063621Y-108236549D01*
X157023864Y-108122931D01*
X157018369Y-108107226D01*
X156929007Y-107986145D01*
X156906037Y-107931655D01*
X156910456Y-107872687D01*
X156941289Y-107822231D01*
X157426997Y-107336523D01*
X157460361Y-107312615D01*
X157499643Y-107300699D01*
X157515705Y-107298584D01*
X157624754Y-107284228D01*
X157759643Y-107228355D01*
X157875474Y-107139474D01*
X157964355Y-107023643D01*
X158020228Y-106888754D01*
X158039285Y-106744000D01*
X158020228Y-106599246D01*
X157964355Y-106464358D01*
X157964354Y-106464357D01*
X157964354Y-106464356D01*
X157875475Y-106348527D01*
X157875472Y-106348525D01*
X157759643Y-106259645D01*
X157759642Y-106259644D01*
X157624753Y-106203771D01*
X157480000Y-106184715D01*
X157335246Y-106203771D01*
X157200356Y-106259645D01*
X157084525Y-106348525D01*
X156995645Y-106464356D01*
X156939771Y-106599246D01*
X156923301Y-106724352D01*
X156911385Y-106763634D01*
X156887474Y-106797002D01*
X156104452Y-107580023D01*
X156084276Y-107596407D01*
X156075043Y-107602439D01*
X156055288Y-107627820D01*
X156044972Y-107639504D01*
X156044890Y-107639586D01*
X156044887Y-107639589D01*
X156044886Y-107639591D01*
X156032809Y-107656503D01*
X156032612Y-107656781D01*
X156029503Y-107660950D01*
X155991936Y-107709216D01*
X155991803Y-107709475D01*
X155974349Y-107768099D01*
X155972761Y-107773056D01*
X155954123Y-107827347D01*
X155924309Y-107875266D01*
X155876568Y-107905363D01*
X155847226Y-107915630D01*
X155736991Y-107996988D01*
X155655629Y-108107228D01*
X155610379Y-108236545D01*
X155607500Y-108267253D01*
X155607500Y-108776747D01*
X152150000Y-108776747D01*
X152150000Y-108614000D01*
X152166881Y-108551000D01*
X152213000Y-108504881D01*
X152276000Y-108488000D01*
X153281399Y-108488000D01*
X153281399Y-108449240D01*
X153278582Y-108413441D01*
X153234076Y-108260249D01*
X153152866Y-108122931D01*
X153040068Y-108010133D01*
X152986089Y-107978210D01*
X152942514Y-107935130D01*
X152924413Y-107876589D01*
X152936067Y-107816433D01*
X152974720Y-107768887D01*
X152975773Y-107768099D01*
X152992544Y-107755544D01*
X152993172Y-107754706D01*
X153009144Y-107733368D01*
X153075175Y-107645163D01*
X153123360Y-107515973D01*
X153129500Y-107458864D01*
X153129500Y-107050212D01*
X153139091Y-107001994D01*
X153166405Y-106961117D01*
X157366769Y-102760753D01*
X161593271Y-98534250D01*
X161650128Y-98501541D01*
X161715724Y-98501843D01*
X161772279Y-98535078D01*
X161804463Y-98592237D01*
X161803554Y-98657828D01*
X161755654Y-98826180D01*
X161736767Y-99030000D01*
X161755654Y-99233819D01*
X161811672Y-99430702D01*
X161902910Y-99613933D01*
X161963314Y-99693920D01*
X162026268Y-99777285D01*
X162177538Y-99915186D01*
X162246332Y-99957782D01*
X162290076Y-100003594D01*
X162306000Y-100064907D01*
X162306000Y-100535093D01*
X162290076Y-100596406D01*
X162246332Y-100642217D01*
X162200463Y-100670619D01*
X162177537Y-100684814D01*
X162026267Y-100822716D01*
X161902910Y-100986066D01*
X161811672Y-101169297D01*
X161755654Y-101366180D01*
X161736767Y-101569999D01*
X161755654Y-101773819D01*
X161811672Y-101970702D01*
X161902910Y-102153933D01*
X161963314Y-102233921D01*
X162026268Y-102317285D01*
X162177538Y-102455186D01*
X162246332Y-102497782D01*
X162290076Y-102543594D01*
X162306000Y-102604907D01*
X162306000Y-103075093D01*
X162290076Y-103136406D01*
X162246332Y-103182217D01*
X162200463Y-103210619D01*
X162177537Y-103224814D01*
X162026267Y-103362716D01*
X161902910Y-103526066D01*
X161811672Y-103709297D01*
X161755654Y-103906180D01*
X161736767Y-104110000D01*
X161755654Y-104313819D01*
X161811672Y-104510702D01*
X161902910Y-104693933D01*
X161963314Y-104773920D01*
X162026268Y-104857285D01*
X162177538Y-104995186D01*
X162246332Y-105037782D01*
X162290076Y-105083594D01*
X162306000Y-105144907D01*
X162306000Y-105615093D01*
X162290076Y-105676406D01*
X162246332Y-105722217D01*
X162200463Y-105750619D01*
X162177537Y-105764814D01*
X162026267Y-105902716D01*
X161902910Y-106066066D01*
X161811672Y-106249297D01*
X161755654Y-106446180D01*
X161736767Y-106649999D01*
X161755654Y-106853819D01*
X161811672Y-107050702D01*
X161902910Y-107233933D01*
X161937788Y-107280118D01*
X162026268Y-107397285D01*
X162177538Y-107535186D01*
X162246332Y-107577782D01*
X162290076Y-107623594D01*
X162306000Y-107684907D01*
X162306000Y-107975252D01*
X162286267Y-108042952D01*
X162233250Y-108089447D01*
X162215399Y-108097770D01*
X162035313Y-108223868D01*
X161879868Y-108379313D01*
X161753770Y-108559399D01*
X161660859Y-108758648D01*
X161612265Y-108939999D01*
X161612266Y-108940000D01*
X162306000Y-108940000D01*
X162306000Y-109440000D01*
X161612266Y-109440000D01*
X161660860Y-109621353D01*
X161753769Y-109820599D01*
X161879868Y-110000686D01*
X162035313Y-110156131D01*
X162215398Y-110282228D01*
X162233248Y-110290552D01*
X162286267Y-110337048D01*
X162306000Y-110404748D01*
X162306000Y-110695093D01*
X162290076Y-110756406D01*
X162246332Y-110802217D01*
X162200698Y-110830474D01*
X162177537Y-110844814D01*
X162026267Y-110982716D01*
X161902910Y-111146066D01*
X161811672Y-111329297D01*
X161755654Y-111526180D01*
X161736767Y-111729999D01*
X161755654Y-111933819D01*
X161811672Y-112130702D01*
X161902910Y-112313933D01*
X161963314Y-112393921D01*
X162026268Y-112477285D01*
X162177538Y-112615186D01*
X162246332Y-112657782D01*
X162290076Y-112703594D01*
X162306000Y-112764907D01*
X162306000Y-114681000D01*
X165435500Y-114681000D01*
X165498500Y-114697881D01*
X165544619Y-114744000D01*
X165561500Y-114807000D01*
X165561500Y-118998327D01*
X165544537Y-119061470D01*
X165498214Y-119107611D01*
X165435007Y-119124325D01*
X164741505Y-119121605D01*
X164678715Y-119104561D01*
X164632799Y-119058464D01*
X164617237Y-119000236D01*
X164616001Y-118999000D01*
X164616000Y-118999000D01*
X151939420Y-118999000D01*
X151879810Y-118984007D01*
X151834386Y-118942597D01*
X151813957Y-118884624D01*
X151812037Y-118863901D01*
X151811500Y-118852277D01*
X151811500Y-118844158D01*
X151811432Y-118843793D01*
X151810006Y-118836166D01*
X151808399Y-118824646D01*
X151804850Y-118786347D01*
X151797115Y-118763271D01*
X151796061Y-118761569D01*
X151796061Y-118761567D01*
X151776868Y-118730570D01*
X151771207Y-118720405D01*
X151754064Y-118685976D01*
X151738519Y-118667256D01*
X151707822Y-118644075D01*
X151698879Y-118636648D01*
X151671933Y-118612084D01*
X151671930Y-118612083D01*
X151670453Y-118610736D01*
X151649187Y-118598891D01*
X151612202Y-118588367D01*
X151601171Y-118584670D01*
X151565305Y-118570776D01*
X151541202Y-118567414D01*
X151502902Y-118570963D01*
X151491277Y-118571500D01*
X129853494Y-118571500D01*
X129824202Y-118567414D01*
X129785902Y-118570963D01*
X129774277Y-118571500D01*
X129766154Y-118571500D01*
X129758152Y-118572995D01*
X129746641Y-118574600D01*
X129708353Y-118578148D01*
X129685267Y-118585886D01*
X129652573Y-118606129D01*
X129642409Y-118611790D01*
X129607981Y-118628933D01*
X129589252Y-118644486D01*
X129566082Y-118675168D01*
X129558649Y-118684118D01*
X129532739Y-118712539D01*
X129520891Y-118733811D01*
X129510365Y-118770803D01*
X129506669Y-118781832D01*
X129492775Y-118817696D01*
X129489413Y-118841800D01*
X129489733Y-118845249D01*
X129476986Y-118913184D01*
X129430319Y-118964172D01*
X129363776Y-118982869D01*
X101465005Y-118873462D01*
X101402215Y-118856418D01*
X101356299Y-118810321D01*
X101339500Y-118747464D01*
X101339500Y-118004559D01*
X158573992Y-118004559D01*
X158612943Y-118038718D01*
X158864323Y-118206685D01*
X159135489Y-118340410D01*
X159421776Y-118437591D01*
X159718308Y-118496575D01*
X160020000Y-118516348D01*
X160321691Y-118496575D01*
X160618223Y-118437591D01*
X160904510Y-118340410D01*
X161175677Y-118206685D01*
X161427061Y-118038715D01*
X161466006Y-118004560D01*
X161466006Y-118004558D01*
X160020001Y-116558553D01*
X160019999Y-116558553D01*
X158573992Y-118004558D01*
X158573992Y-118004559D01*
X101339500Y-118004559D01*
X101339500Y-101231999D01*
X104379333Y-101231999D01*
X104398389Y-101376753D01*
X104454262Y-101511642D01*
X104454263Y-101511643D01*
X104543144Y-101627474D01*
X104658975Y-101716355D01*
X104793864Y-101772228D01*
X104938618Y-101791285D01*
X104938620Y-101791284D01*
X104939360Y-101791382D01*
X104975574Y-101806528D01*
X104975643Y-101806329D01*
X104985807Y-101809818D01*
X104996068Y-101815100D01*
X105000305Y-101816872D01*
X105001856Y-101818079D01*
X105002069Y-101818189D01*
X105009747Y-101820474D01*
X105009748Y-101820475D01*
X105060753Y-101835659D01*
X105065618Y-101837217D01*
X105115957Y-101854500D01*
X105115960Y-101854500D01*
X105123539Y-101857102D01*
X105123768Y-101857136D01*
X105131775Y-101856804D01*
X105131776Y-101856805D01*
X105184890Y-101854608D01*
X105190098Y-101854500D01*
X112404999Y-101854500D01*
X112470834Y-101873067D01*
X112517266Y-101923297D01*
X112530611Y-101990386D01*
X112506935Y-102054561D01*
X112453217Y-102096909D01*
X112369356Y-102131645D01*
X112253525Y-102220525D01*
X112164645Y-102336356D01*
X112108771Y-102471246D01*
X112089715Y-102616000D01*
X112108771Y-102760753D01*
X112164645Y-102895644D01*
X112241462Y-102995753D01*
X112260813Y-103031955D01*
X112267500Y-103072457D01*
X112267500Y-105611367D01*
X112264818Y-105637225D01*
X112262554Y-105648017D01*
X112266532Y-105679922D01*
X112267500Y-105695508D01*
X112267500Y-105695614D01*
X112270975Y-105716443D01*
X112271725Y-105721589D01*
X112279294Y-105782302D01*
X112279371Y-105782542D01*
X112283181Y-105789583D01*
X112283182Y-105789586D01*
X112308492Y-105836355D01*
X112310874Y-105840984D01*
X112337742Y-105895943D01*
X112337884Y-105896134D01*
X112343779Y-105901561D01*
X112343780Y-105901562D01*
X112382931Y-105937603D01*
X112386663Y-105941185D01*
X123137015Y-116691537D01*
X123153403Y-116711716D01*
X123159440Y-116720957D01*
X123184815Y-116740706D01*
X123196528Y-116751050D01*
X123196590Y-116751112D01*
X123213773Y-116763380D01*
X123217930Y-116766479D01*
X123259915Y-116799158D01*
X123266234Y-116804076D01*
X123266456Y-116804190D01*
X123274128Y-116806474D01*
X123274130Y-116806475D01*
X123325135Y-116821659D01*
X123330000Y-116823217D01*
X123380339Y-116840500D01*
X123380342Y-116840500D01*
X123387921Y-116843102D01*
X123388150Y-116843136D01*
X123396157Y-116842804D01*
X123396158Y-116842805D01*
X123449272Y-116840608D01*
X123454480Y-116840500D01*
X129210543Y-116840500D01*
X129251045Y-116847187D01*
X129287247Y-116866538D01*
X129387355Y-116943354D01*
X129387356Y-116943354D01*
X129387357Y-116943355D01*
X129522246Y-116999228D01*
X129667000Y-117018285D01*
X129811754Y-116999228D01*
X129946643Y-116943355D01*
X130062474Y-116854474D01*
X130151355Y-116738643D01*
X130207228Y-116603754D01*
X130226285Y-116459000D01*
X130207228Y-116314246D01*
X130151355Y-116179358D01*
X130151354Y-116179357D01*
X130151354Y-116179356D01*
X130073581Y-116078000D01*
X153137693Y-116078000D01*
X153156850Y-116235780D01*
X153213212Y-116384394D01*
X153213213Y-116384395D01*
X153303502Y-116515201D01*
X153422471Y-116620599D01*
X153563207Y-116694463D01*
X153717529Y-116732500D01*
X153876469Y-116732500D01*
X153876471Y-116732500D01*
X154030793Y-116694463D01*
X154171529Y-116620599D01*
X154290498Y-116515201D01*
X154380787Y-116384395D01*
X154437149Y-116235782D01*
X154440887Y-116205000D01*
X157708651Y-116205000D01*
X157728424Y-116506691D01*
X157787408Y-116803223D01*
X157884589Y-117089510D01*
X158018314Y-117360676D01*
X158186281Y-117612056D01*
X158220439Y-117651006D01*
X158220440Y-117651006D01*
X159666447Y-116205001D01*
X160373553Y-116205001D01*
X161819558Y-117651006D01*
X161819560Y-117651006D01*
X161853715Y-117612061D01*
X162021685Y-117360677D01*
X162155410Y-117089510D01*
X162252591Y-116803223D01*
X162311575Y-116506691D01*
X162331348Y-116205000D01*
X162311575Y-115903308D01*
X162252591Y-115606776D01*
X162155410Y-115320489D01*
X162021685Y-115049324D01*
X161853718Y-114797943D01*
X161819559Y-114758992D01*
X161819558Y-114758992D01*
X160373553Y-116204999D01*
X160373553Y-116205001D01*
X159666447Y-116205001D01*
X159666447Y-116204999D01*
X158220440Y-114758992D01*
X158220438Y-114758992D01*
X158186283Y-114797940D01*
X158018314Y-115049323D01*
X157884589Y-115320489D01*
X157787408Y-115606776D01*
X157728424Y-115903308D01*
X157708651Y-116205000D01*
X154440887Y-116205000D01*
X154456307Y-116078000D01*
X154437149Y-115920218D01*
X154380787Y-115771605D01*
X154290498Y-115640799D01*
X154171529Y-115535401D01*
X154030793Y-115461537D01*
X153876471Y-115423500D01*
X153717529Y-115423500D01*
X153563207Y-115461537D01*
X153563206Y-115461537D01*
X153563204Y-115461538D01*
X153422472Y-115535400D01*
X153303501Y-115640799D01*
X153213212Y-115771605D01*
X153156850Y-115920219D01*
X153137693Y-116078000D01*
X130073581Y-116078000D01*
X130062475Y-116063527D01*
X129946642Y-115974644D01*
X129811753Y-115918771D01*
X129667000Y-115899715D01*
X129522246Y-115918771D01*
X129387356Y-115974645D01*
X129287248Y-116051462D01*
X129251046Y-116070813D01*
X129210544Y-116077500D01*
X123654212Y-116077500D01*
X123605994Y-116067909D01*
X123565117Y-116040595D01*
X119222590Y-111698068D01*
X120784500Y-111698068D01*
X120799265Y-111772300D01*
X120855515Y-111856484D01*
X120900997Y-111886874D01*
X120939699Y-111912734D01*
X121013933Y-111927500D01*
X122414066Y-111927499D01*
X122414068Y-111927499D01*
X122463556Y-111917655D01*
X122488301Y-111912734D01*
X122572484Y-111856484D01*
X122628734Y-111772301D01*
X122639570Y-111717821D01*
X122663303Y-111665548D01*
X122707767Y-111629228D01*
X122763729Y-111616406D01*
X122819571Y-111629744D01*
X122863698Y-111666473D01*
X122911410Y-111729654D01*
X123059520Y-111864673D01*
X123229911Y-111970176D01*
X123416796Y-112042574D01*
X123463999Y-112051399D01*
X123464000Y-112051400D01*
X123464000Y-112051399D01*
X123964000Y-112051399D01*
X124011203Y-112042574D01*
X124198088Y-111970176D01*
X124368479Y-111864673D01*
X124516588Y-111729654D01*
X124637362Y-111569725D01*
X124687176Y-111469685D01*
X124731995Y-111419755D01*
X124796087Y-111399908D01*
X124861279Y-111415772D01*
X124909086Y-111462848D01*
X124957877Y-111547357D01*
X125088615Y-111692556D01*
X125088617Y-111692558D01*
X125246690Y-111807405D01*
X125425187Y-111886876D01*
X125616306Y-111927500D01*
X125811692Y-111927500D01*
X125811694Y-111927500D01*
X126002813Y-111886876D01*
X126181310Y-111807405D01*
X126339383Y-111692558D01*
X126470123Y-111547356D01*
X126567818Y-111378144D01*
X126594166Y-111297050D01*
X126627747Y-111244135D01*
X126682665Y-111213944D01*
X126745335Y-111213944D01*
X126800253Y-111244135D01*
X126833833Y-111297050D01*
X126860181Y-111378143D01*
X126957877Y-111547357D01*
X127088615Y-111692556D01*
X127088617Y-111692558D01*
X127246690Y-111807405D01*
X127425187Y-111886876D01*
X127616306Y-111927500D01*
X127811692Y-111927500D01*
X127811694Y-111927500D01*
X128002813Y-111886876D01*
X128181310Y-111807405D01*
X128339383Y-111692558D01*
X128470123Y-111547356D01*
X128518914Y-111462848D01*
X128542381Y-111422203D01*
X128588500Y-111376084D01*
X128651500Y-111359203D01*
X128714500Y-111376084D01*
X128760619Y-111422203D01*
X128777500Y-111485203D01*
X128777500Y-113866367D01*
X128774818Y-113892225D01*
X128772554Y-113903017D01*
X128776532Y-113934922D01*
X128777500Y-113950508D01*
X128777500Y-113950614D01*
X128780975Y-113971443D01*
X128781725Y-113976589D01*
X128789294Y-114037302D01*
X128789371Y-114037542D01*
X128793181Y-114044583D01*
X128793182Y-114044586D01*
X128816933Y-114088474D01*
X128818492Y-114091355D01*
X128820874Y-114095984D01*
X128847742Y-114150943D01*
X128847884Y-114151134D01*
X128853779Y-114156561D01*
X128853780Y-114156562D01*
X128892931Y-114192603D01*
X128896663Y-114196185D01*
X129328474Y-114627996D01*
X129352385Y-114661363D01*
X129364301Y-114700645D01*
X129380771Y-114825753D01*
X129436644Y-114960642D01*
X129436645Y-114960643D01*
X129525526Y-115076474D01*
X129641357Y-115165355D01*
X129776246Y-115221228D01*
X129921000Y-115240285D01*
X130065754Y-115221228D01*
X130200643Y-115165355D01*
X130316474Y-115076474D01*
X130405355Y-114960643D01*
X130461228Y-114825754D01*
X130480285Y-114681000D01*
X130461228Y-114536246D01*
X130407046Y-114405440D01*
X158573992Y-114405440D01*
X160019999Y-115851447D01*
X160020001Y-115851447D01*
X161466006Y-114405440D01*
X161466006Y-114405439D01*
X161427056Y-114371281D01*
X161175676Y-114203314D01*
X160904510Y-114069589D01*
X160618223Y-113972408D01*
X160321691Y-113913424D01*
X160020000Y-113893651D01*
X159718308Y-113913424D01*
X159421776Y-113972408D01*
X159135489Y-114069589D01*
X158864323Y-114203314D01*
X158612940Y-114371283D01*
X158573992Y-114405438D01*
X158573992Y-114405440D01*
X130407046Y-114405440D01*
X130405355Y-114401358D01*
X130405354Y-114401357D01*
X130405354Y-114401356D01*
X130316475Y-114285527D01*
X130299366Y-114272399D01*
X130200643Y-114196645D01*
X130200642Y-114196644D01*
X130065753Y-114140771D01*
X129940646Y-114124301D01*
X129901364Y-114112385D01*
X129867997Y-114088474D01*
X129577405Y-113797882D01*
X129550091Y-113757005D01*
X129540500Y-113708787D01*
X129540500Y-112633880D01*
X141124672Y-112633880D01*
X141163665Y-112654344D01*
X141330230Y-112695400D01*
X141501770Y-112695400D01*
X141668334Y-112654345D01*
X141707326Y-112633880D01*
X142524672Y-112633880D01*
X142563665Y-112654344D01*
X142730230Y-112695400D01*
X142901770Y-112695400D01*
X143068334Y-112654345D01*
X143107326Y-112633880D01*
X143107326Y-112633878D01*
X142816001Y-112342553D01*
X142816000Y-112342553D01*
X142524672Y-112633879D01*
X142524672Y-112633880D01*
X141707326Y-112633880D01*
X141707326Y-112633878D01*
X141416001Y-112342553D01*
X141416000Y-112342553D01*
X141124672Y-112633879D01*
X141124672Y-112633880D01*
X129540500Y-112633880D01*
X129540500Y-111989000D01*
X140704411Y-111989000D01*
X140725088Y-112159292D01*
X140771026Y-112280420D01*
X141326905Y-111724542D01*
X141383389Y-111691930D01*
X141448611Y-111691930D01*
X141505096Y-111724542D01*
X142060972Y-112280419D01*
X142089553Y-112274284D01*
X142142444Y-112274285D01*
X142171026Y-112280420D01*
X142726905Y-111724542D01*
X142783389Y-111691930D01*
X142848611Y-111691930D01*
X142905096Y-111724542D01*
X143460972Y-112280419D01*
X143460973Y-112280419D01*
X143506911Y-112159292D01*
X143527588Y-111989000D01*
X143506911Y-111818707D01*
X143446080Y-111658308D01*
X143400002Y-111591554D01*
X142141001Y-110332553D01*
X142140999Y-110332553D01*
X140936036Y-111537516D01*
X140900383Y-111562526D01*
X140858346Y-111573904D01*
X140843231Y-111575277D01*
X140785919Y-111658309D01*
X140725088Y-111818707D01*
X140704411Y-111989000D01*
X129540500Y-111989000D01*
X129540500Y-110678999D01*
X139396411Y-110678999D01*
X139417088Y-110849292D01*
X139463026Y-110970419D01*
X139754447Y-110679000D01*
X139754447Y-110678999D01*
X139463026Y-110387578D01*
X139463025Y-110387578D01*
X139417088Y-110508706D01*
X139396411Y-110678999D01*
X129540500Y-110678999D01*
X129540500Y-110034118D01*
X139816671Y-110034118D01*
X140108000Y-110325446D01*
X140108000Y-110325447D01*
X140372457Y-110589904D01*
X140405069Y-110646388D01*
X140405069Y-110711610D01*
X140372457Y-110768094D01*
X139816672Y-111323878D01*
X139816672Y-111323880D01*
X139855665Y-111344344D01*
X140022230Y-111385400D01*
X140193770Y-111385400D01*
X140360336Y-111344344D01*
X140512225Y-111264627D01*
X140532110Y-111247008D01*
X140532145Y-111246855D01*
X140558719Y-111207726D01*
X141787446Y-109979001D01*
X142494553Y-109979001D01*
X143722280Y-111206727D01*
X143748853Y-111245853D01*
X143749410Y-111248356D01*
X143767772Y-111264625D01*
X143919663Y-111344344D01*
X144086230Y-111385400D01*
X144257770Y-111385400D01*
X144424334Y-111344345D01*
X144463326Y-111323880D01*
X144463326Y-111323878D01*
X143907542Y-110768094D01*
X143874930Y-110711610D01*
X143874930Y-110679001D01*
X144525553Y-110679001D01*
X144816971Y-110970419D01*
X144816973Y-110970419D01*
X144862911Y-110849292D01*
X144883588Y-110679000D01*
X144862911Y-110508707D01*
X144834957Y-110435000D01*
X154507715Y-110435000D01*
X154526771Y-110579753D01*
X154582644Y-110714642D01*
X154582645Y-110714643D01*
X154671526Y-110830474D01*
X154787357Y-110919355D01*
X154922246Y-110975228D01*
X155067000Y-110994285D01*
X155211754Y-110975228D01*
X155346643Y-110919355D01*
X155462474Y-110830474D01*
X155551355Y-110714643D01*
X155551355Y-110714641D01*
X155551828Y-110714026D01*
X155602847Y-110674624D01*
X155666678Y-110665613D01*
X155726611Y-110689351D01*
X155847226Y-110778369D01*
X155976545Y-110823620D01*
X155976546Y-110823620D01*
X155976549Y-110823621D01*
X156007251Y-110826500D01*
X156666748Y-110826499D01*
X156697451Y-110823621D01*
X156826773Y-110778369D01*
X156937010Y-110697010D01*
X157018369Y-110586773D01*
X157020826Y-110579753D01*
X157063620Y-110457454D01*
X157063620Y-110457453D01*
X157063621Y-110457451D01*
X157066500Y-110426749D01*
X157066499Y-109917252D01*
X157063621Y-109886549D01*
X157018369Y-109757227D01*
X156973874Y-109696939D01*
X156937010Y-109646989D01*
X156826771Y-109565629D01*
X156697454Y-109520379D01*
X156682099Y-109518939D01*
X156666749Y-109517500D01*
X156666746Y-109517500D01*
X156007252Y-109517500D01*
X155976547Y-109520379D01*
X155847228Y-109565630D01*
X155736988Y-109646990D01*
X155668846Y-109739321D01*
X155624250Y-109776980D01*
X155567467Y-109790500D01*
X155382633Y-109790500D01*
X155356775Y-109787818D01*
X155345982Y-109785554D01*
X155314078Y-109789532D01*
X155298492Y-109790500D01*
X155298386Y-109790500D01*
X155277562Y-109793974D01*
X155272416Y-109794724D01*
X155211701Y-109802293D01*
X155211449Y-109802374D01*
X155157661Y-109831482D01*
X155153035Y-109833864D01*
X155086681Y-109866304D01*
X155086410Y-109866498D01*
X155047360Y-109878300D01*
X154922246Y-109894771D01*
X154787356Y-109950645D01*
X154671525Y-110039525D01*
X154582645Y-110155356D01*
X154526771Y-110290246D01*
X154507715Y-110435000D01*
X144834957Y-110435000D01*
X144816973Y-110387579D01*
X144816972Y-110387579D01*
X144525553Y-110679000D01*
X144525553Y-110679001D01*
X143874930Y-110679001D01*
X143874930Y-110646388D01*
X143907542Y-110589903D01*
X144172000Y-110325446D01*
X144172003Y-110325443D01*
X144463326Y-110034119D01*
X144457823Y-109997961D01*
X144457823Y-109960041D01*
X144463326Y-109923878D01*
X143907542Y-109368094D01*
X143874930Y-109311610D01*
X143874930Y-109279001D01*
X144525553Y-109279001D01*
X144816971Y-109570419D01*
X144816973Y-109570419D01*
X144862911Y-109449292D01*
X144883588Y-109279000D01*
X144862911Y-109108707D01*
X144860367Y-109102000D01*
X145930601Y-109102000D01*
X145930601Y-109140760D01*
X145933417Y-109176558D01*
X145977923Y-109329750D01*
X146059133Y-109467068D01*
X146171931Y-109579866D01*
X146309249Y-109661076D01*
X146462439Y-109705582D01*
X146498241Y-109708400D01*
X146562000Y-109708400D01*
X146562000Y-109102000D01*
X147062000Y-109102000D01*
X147062000Y-109708399D01*
X147125760Y-109708399D01*
X147161558Y-109705582D01*
X147314750Y-109661076D01*
X147452068Y-109579866D01*
X147564866Y-109467068D01*
X147646076Y-109329750D01*
X147690582Y-109176560D01*
X147693400Y-109140759D01*
X147693400Y-109102000D01*
X147062000Y-109102000D01*
X146562000Y-109102000D01*
X145930601Y-109102000D01*
X144860367Y-109102000D01*
X144816973Y-108987579D01*
X144816972Y-108987579D01*
X144525553Y-109279000D01*
X144525553Y-109279001D01*
X143874930Y-109279001D01*
X143874930Y-109246388D01*
X143907542Y-109189903D01*
X144172000Y-108925446D01*
X144172003Y-108925443D01*
X144463327Y-108634118D01*
X144424336Y-108613655D01*
X144257770Y-108572600D01*
X144086230Y-108572600D01*
X143919663Y-108613655D01*
X143767774Y-108693372D01*
X143749412Y-108709636D01*
X143748853Y-108712151D01*
X143722283Y-108751269D01*
X142494553Y-109978999D01*
X142494553Y-109979001D01*
X141787446Y-109979001D01*
X141787447Y-109979000D01*
X141787447Y-109978999D01*
X140558717Y-108750270D01*
X140532146Y-108711148D01*
X140532110Y-108710987D01*
X140512228Y-108693374D01*
X140360336Y-108613655D01*
X140193770Y-108572600D01*
X140022230Y-108572600D01*
X139855667Y-108613654D01*
X139816672Y-108634119D01*
X140108000Y-108925446D01*
X140108000Y-108925447D01*
X140372457Y-109189904D01*
X140405069Y-109246388D01*
X140405069Y-109311610D01*
X140372457Y-109368094D01*
X139816672Y-109923878D01*
X139822176Y-109960042D01*
X139822175Y-109997959D01*
X139816671Y-110034118D01*
X129540500Y-110034118D01*
X129540500Y-109278999D01*
X139396411Y-109278999D01*
X139417088Y-109449292D01*
X139463026Y-109570419D01*
X139754447Y-109279000D01*
X139754447Y-109278999D01*
X139463026Y-108987578D01*
X139463025Y-108987578D01*
X139417088Y-109108706D01*
X139396411Y-109278999D01*
X129540500Y-109278999D01*
X129540500Y-107925000D01*
X140704411Y-107925000D01*
X140725088Y-108095292D01*
X140785918Y-108255689D01*
X140864925Y-108370149D01*
X140878820Y-108373910D01*
X140914473Y-108398920D01*
X142140999Y-109625447D01*
X142141001Y-109625447D01*
X143375064Y-108391383D01*
X143377374Y-108367762D01*
X143395235Y-108329352D01*
X143446080Y-108255691D01*
X143506911Y-108095292D01*
X143527588Y-107924999D01*
X143506911Y-107754707D01*
X143460973Y-107633579D01*
X143460971Y-107633579D01*
X142905094Y-108189457D01*
X142848610Y-108222069D01*
X142783388Y-108222069D01*
X142726903Y-108189457D01*
X142171025Y-107633578D01*
X142142444Y-107639714D01*
X142089556Y-107639714D01*
X142060972Y-107633578D01*
X141505094Y-108189457D01*
X141448610Y-108222069D01*
X141383388Y-108222069D01*
X141326903Y-108189457D01*
X140771025Y-107633578D01*
X140725088Y-107754706D01*
X140704411Y-107925000D01*
X129540500Y-107925000D01*
X129540500Y-107280119D01*
X141124671Y-107280119D01*
X141415999Y-107571447D01*
X141416000Y-107571447D01*
X141707326Y-107280119D01*
X142524671Y-107280119D01*
X142815999Y-107571447D01*
X142816000Y-107571447D01*
X143107327Y-107280118D01*
X143068336Y-107259655D01*
X142901770Y-107218600D01*
X142730230Y-107218600D01*
X142563667Y-107259654D01*
X142524671Y-107280119D01*
X141707326Y-107280119D01*
X141707327Y-107280118D01*
X141668336Y-107259655D01*
X141501770Y-107218600D01*
X141330230Y-107218600D01*
X141163667Y-107259654D01*
X141124671Y-107280119D01*
X129540500Y-107280119D01*
X129540500Y-103960153D01*
X129555769Y-103900031D01*
X129597875Y-103854481D01*
X129656614Y-103834541D01*
X129717748Y-103845046D01*
X129766462Y-103883449D01*
X129772597Y-103891445D01*
X129779526Y-103900474D01*
X129895357Y-103989355D01*
X130030246Y-104045228D01*
X130175000Y-104064285D01*
X130319754Y-104045228D01*
X130454643Y-103989355D01*
X130478324Y-103971183D01*
X130554753Y-103912538D01*
X130590955Y-103893187D01*
X130631457Y-103886500D01*
X140155367Y-103886500D01*
X140181224Y-103889181D01*
X140192017Y-103891445D01*
X140223922Y-103887468D01*
X140239508Y-103886500D01*
X140239611Y-103886500D01*
X140260476Y-103883017D01*
X140265512Y-103882283D01*
X140318360Y-103875696D01*
X140318362Y-103875694D01*
X140326327Y-103874702D01*
X140326524Y-103874639D01*
X140333583Y-103870818D01*
X140333586Y-103870818D01*
X140380380Y-103845493D01*
X140384943Y-103843144D01*
X140432746Y-103819776D01*
X140432747Y-103819774D01*
X140439959Y-103816249D01*
X140440123Y-103816127D01*
X140445559Y-103810221D01*
X140445562Y-103810220D01*
X140481626Y-103771041D01*
X140485163Y-103767357D01*
X146377997Y-97874523D01*
X146411361Y-97850615D01*
X146450643Y-97838699D01*
X146466705Y-97836584D01*
X146575754Y-97822228D01*
X146710643Y-97766355D01*
X146826474Y-97677474D01*
X146915355Y-97561643D01*
X146971228Y-97426754D01*
X146990285Y-97282000D01*
X146971228Y-97137246D01*
X146915355Y-97002358D01*
X146915354Y-97002357D01*
X146915354Y-97002356D01*
X146826475Y-96886527D01*
X146826472Y-96886525D01*
X146710643Y-96797645D01*
X146710642Y-96797644D01*
X146575753Y-96741771D01*
X146431000Y-96722715D01*
X146286246Y-96741771D01*
X146151356Y-96797645D01*
X146035525Y-96886525D01*
X145946645Y-97002356D01*
X145890771Y-97137246D01*
X145874301Y-97262353D01*
X145862385Y-97301635D01*
X145838474Y-97335002D01*
X140086882Y-103086595D01*
X140046005Y-103113909D01*
X139997787Y-103123500D01*
X130631457Y-103123500D01*
X130590955Y-103116813D01*
X130554753Y-103097462D01*
X130454644Y-103020645D01*
X130319753Y-102964771D01*
X130175000Y-102945715D01*
X130030246Y-102964771D01*
X129895356Y-103020645D01*
X129779525Y-103109525D01*
X129766462Y-103126551D01*
X129717748Y-103164954D01*
X129656614Y-103175459D01*
X129597875Y-103155519D01*
X129555769Y-103109969D01*
X129540500Y-103049847D01*
X129540500Y-99524212D01*
X129550091Y-99475994D01*
X129577405Y-99435117D01*
X130530294Y-98482228D01*
X131498542Y-97513979D01*
X131557020Y-97480852D01*
X131624210Y-97482501D01*
X131753731Y-97521792D01*
X131953000Y-97541418D01*
X132152269Y-97521792D01*
X132283959Y-97481843D01*
X132351149Y-97480194D01*
X132409629Y-97513323D01*
X132623183Y-97726877D01*
X132654662Y-97779395D01*
X132657667Y-97840552D01*
X132631489Y-97895904D01*
X132582309Y-97932380D01*
X132562356Y-97940645D01*
X132446525Y-98029525D01*
X132357645Y-98145356D01*
X132301771Y-98280246D01*
X132282715Y-98425000D01*
X132301771Y-98569753D01*
X132357644Y-98704642D01*
X132357645Y-98704643D01*
X132446526Y-98820474D01*
X132562357Y-98909355D01*
X132697246Y-98965228D01*
X132842000Y-98984285D01*
X132986754Y-98965228D01*
X133121643Y-98909355D01*
X133157664Y-98881715D01*
X133221753Y-98832538D01*
X133257955Y-98813187D01*
X133298457Y-98806500D01*
X142695367Y-98806500D01*
X142721224Y-98809181D01*
X142732017Y-98811445D01*
X142763922Y-98807468D01*
X142779508Y-98806500D01*
X142779611Y-98806500D01*
X142800476Y-98803017D01*
X142805512Y-98802283D01*
X142858360Y-98795696D01*
X142858362Y-98795694D01*
X142866327Y-98794702D01*
X142866524Y-98794639D01*
X142873583Y-98790818D01*
X142873586Y-98790818D01*
X142920380Y-98765493D01*
X142924943Y-98763144D01*
X142972746Y-98739776D01*
X142972747Y-98739774D01*
X142979959Y-98736249D01*
X142980123Y-98736127D01*
X142985559Y-98730221D01*
X142985562Y-98730220D01*
X143021626Y-98691041D01*
X143025163Y-98687357D01*
X144198541Y-97513979D01*
X144257019Y-97480852D01*
X144324210Y-97482502D01*
X144453730Y-97521792D01*
X144653000Y-97541418D01*
X144852269Y-97521792D01*
X145043880Y-97463667D01*
X145220469Y-97369278D01*
X145375252Y-97242252D01*
X145502278Y-97087469D01*
X145596667Y-96910880D01*
X145654792Y-96719269D01*
X145674418Y-96520000D01*
X145654792Y-96320731D01*
X145596667Y-96129120D01*
X145502278Y-95952531D01*
X145421088Y-95853600D01*
X145375252Y-95797747D01*
X145236202Y-95683634D01*
X145220469Y-95670722D01*
X145043880Y-95576333D01*
X145043879Y-95576332D01*
X145043878Y-95576332D01*
X144852269Y-95518207D01*
X144653000Y-95498581D01*
X144453733Y-95518207D01*
X144324210Y-95557497D01*
X144257019Y-95559146D01*
X144198540Y-95526017D01*
X136958981Y-88286458D01*
X136942592Y-88266276D01*
X136936561Y-88257045D01*
X136936560Y-88257044D01*
X136911183Y-88237292D01*
X136899475Y-88226952D01*
X136899410Y-88226887D01*
X136899409Y-88226886D01*
X136882191Y-88214593D01*
X136878080Y-88211527D01*
X136836085Y-88178842D01*
X136836082Y-88178840D01*
X136829771Y-88173929D01*
X136829534Y-88173807D01*
X136821870Y-88171525D01*
X136770899Y-88156350D01*
X136765949Y-88154764D01*
X136708080Y-88134897D01*
X136707848Y-88134863D01*
X136646727Y-88137392D01*
X136641520Y-88137500D01*
X135527212Y-88137500D01*
X135478994Y-88127909D01*
X135438117Y-88100595D01*
X134532526Y-87195004D01*
X134508615Y-87161637D01*
X134496699Y-87122355D01*
X134480228Y-86997246D01*
X134424354Y-86862356D01*
X134335475Y-86746527D01*
X134335472Y-86746525D01*
X134253692Y-86683772D01*
X134219642Y-86657644D01*
X134084753Y-86601771D01*
X133940000Y-86582715D01*
X133795246Y-86601771D01*
X133660356Y-86657645D01*
X133544525Y-86746525D01*
X133455645Y-86862356D01*
X133399771Y-86997246D01*
X133380715Y-87142000D01*
X133399771Y-87286753D01*
X133455644Y-87421642D01*
X133455645Y-87421643D01*
X133544526Y-87537474D01*
X133632527Y-87605000D01*
X133660357Y-87626355D01*
X133795246Y-87682228D01*
X133920355Y-87698699D01*
X133959637Y-87710615D01*
X133993003Y-87734525D01*
X134515521Y-88257044D01*
X135010018Y-88751541D01*
X135026406Y-88771721D01*
X135032438Y-88780954D01*
X135032439Y-88780955D01*
X135032440Y-88780956D01*
X135057818Y-88800708D01*
X135069523Y-88811046D01*
X135069591Y-88811114D01*
X135086782Y-88823388D01*
X135090958Y-88826502D01*
X135139237Y-88864079D01*
X135139451Y-88864189D01*
X135147129Y-88866474D01*
X135147130Y-88866475D01*
X135198133Y-88881658D01*
X135202997Y-88883216D01*
X135253339Y-88900500D01*
X135253341Y-88900500D01*
X135260920Y-88903102D01*
X135261151Y-88903136D01*
X135269158Y-88902804D01*
X135269159Y-88902805D01*
X135322273Y-88900607D01*
X135327480Y-88900500D01*
X136441788Y-88900500D01*
X136490006Y-88910091D01*
X136530883Y-88937405D01*
X143659017Y-96065540D01*
X143692146Y-96124019D01*
X143690497Y-96191210D01*
X143651207Y-96320733D01*
X143631581Y-96520000D01*
X143651207Y-96719266D01*
X143690497Y-96848789D01*
X143692146Y-96915980D01*
X143659017Y-96974459D01*
X142626882Y-98006595D01*
X142586005Y-98033909D01*
X142537787Y-98043500D01*
X137379993Y-98043500D01*
X137321438Y-98029067D01*
X137276297Y-97989076D01*
X137254912Y-97932688D01*
X137262181Y-97872820D01*
X137296439Y-97823188D01*
X137297523Y-97822228D01*
X137393498Y-97737201D01*
X137483787Y-97606395D01*
X137540149Y-97457782D01*
X137559307Y-97300000D01*
X137540149Y-97142218D01*
X137483787Y-96993605D01*
X137393498Y-96862799D01*
X137274529Y-96757401D01*
X137133793Y-96683537D01*
X136979471Y-96645500D01*
X136820529Y-96645500D01*
X136666207Y-96683537D01*
X136666206Y-96683537D01*
X136666204Y-96683538D01*
X136525472Y-96757400D01*
X136406501Y-96862799D01*
X136316212Y-96993605D01*
X136259850Y-97142219D01*
X136239517Y-97309687D01*
X136218132Y-97366076D01*
X136172991Y-97406067D01*
X136114436Y-97420500D01*
X135335373Y-97420500D01*
X135267964Y-97400952D01*
X135221471Y-97348373D01*
X135210320Y-97279077D01*
X135237973Y-97214567D01*
X135288707Y-97152746D01*
X135342278Y-97087469D01*
X135436667Y-96910880D01*
X135494792Y-96719269D01*
X135514418Y-96520000D01*
X135494792Y-96320731D01*
X135436667Y-96129120D01*
X135342278Y-95952531D01*
X135261088Y-95853600D01*
X135215252Y-95797747D01*
X135076202Y-95683634D01*
X135060469Y-95670722D01*
X134883880Y-95576333D01*
X134883879Y-95576332D01*
X134883878Y-95576332D01*
X134692269Y-95518207D01*
X134493000Y-95498581D01*
X134293733Y-95518207D01*
X134164210Y-95557497D01*
X134097019Y-95559146D01*
X134038540Y-95526017D01*
X131116981Y-92604458D01*
X131100592Y-92584276D01*
X131094561Y-92575045D01*
X131094560Y-92575044D01*
X131069183Y-92555292D01*
X131057475Y-92544952D01*
X131057410Y-92544887D01*
X131057409Y-92544886D01*
X131040191Y-92532593D01*
X131036080Y-92529527D01*
X130994085Y-92496842D01*
X130994082Y-92496840D01*
X130987771Y-92491929D01*
X130987534Y-92491807D01*
X130979870Y-92489525D01*
X130945903Y-92479412D01*
X130894890Y-92449825D01*
X130862929Y-92400268D01*
X130844369Y-92347227D01*
X130823055Y-92318348D01*
X130763010Y-92236989D01*
X130652771Y-92155629D01*
X130523454Y-92110379D01*
X130508100Y-92108939D01*
X130492749Y-92107500D01*
X130492746Y-92107500D01*
X129983252Y-92107500D01*
X129952547Y-92110379D01*
X129823228Y-92155630D01*
X129712989Y-92236989D01*
X129631629Y-92347228D01*
X129586379Y-92476545D01*
X129583500Y-92507253D01*
X129583500Y-93166747D01*
X129586379Y-93197452D01*
X129631630Y-93326771D01*
X129712989Y-93437010D01*
X129823228Y-93518370D01*
X129952545Y-93563620D01*
X129952546Y-93563620D01*
X129952549Y-93563621D01*
X129983251Y-93566500D01*
X130492748Y-93566499D01*
X130523451Y-93563621D01*
X130611921Y-93532663D01*
X130652771Y-93518370D01*
X130652771Y-93518369D01*
X130652773Y-93518369D01*
X130737605Y-93455759D01*
X130792094Y-93432790D01*
X130851063Y-93437209D01*
X130901521Y-93468044D01*
X133499017Y-96065540D01*
X133532146Y-96124019D01*
X133530497Y-96191210D01*
X133491207Y-96320733D01*
X133471581Y-96520000D01*
X133491207Y-96719269D01*
X133549332Y-96910878D01*
X133549333Y-96910880D01*
X133643722Y-97087469D01*
X133671295Y-97121067D01*
X133748027Y-97214567D01*
X133775680Y-97279077D01*
X133764529Y-97348373D01*
X133718036Y-97400952D01*
X133650627Y-97420500D01*
X133442384Y-97420500D01*
X133394166Y-97410909D01*
X133353289Y-97383595D01*
X132946323Y-96976629D01*
X132913194Y-96918149D01*
X132914843Y-96850959D01*
X132954792Y-96719269D01*
X132974418Y-96520000D01*
X132954792Y-96320731D01*
X132896667Y-96129120D01*
X132802278Y-95952531D01*
X132721088Y-95853600D01*
X132675252Y-95797747D01*
X132536202Y-95683634D01*
X132520469Y-95670722D01*
X132343880Y-95576333D01*
X132343879Y-95576332D01*
X132343878Y-95576332D01*
X132152269Y-95518207D01*
X131953000Y-95498581D01*
X131753730Y-95518207D01*
X131624211Y-95557497D01*
X131557019Y-95559147D01*
X131498540Y-95526018D01*
X130929404Y-94956882D01*
X130902090Y-94916005D01*
X130892499Y-94867787D01*
X130892499Y-94285252D01*
X130891285Y-94272303D01*
X130889621Y-94254549D01*
X130844369Y-94125227D01*
X130783106Y-94042219D01*
X130763010Y-94014989D01*
X130652771Y-93933629D01*
X130523454Y-93888379D01*
X130508100Y-93886939D01*
X130492749Y-93885500D01*
X130492746Y-93885500D01*
X129983252Y-93885500D01*
X129952547Y-93888379D01*
X129823228Y-93933630D01*
X129712989Y-94014989D01*
X129631629Y-94125228D01*
X129586379Y-94254545D01*
X129583500Y-94285253D01*
X129583500Y-94944747D01*
X129586379Y-94975452D01*
X129631629Y-95104771D01*
X129670588Y-95157558D01*
X129693648Y-95212614D01*
X129688782Y-95272105D01*
X129657080Y-95322681D01*
X129605658Y-95352992D01*
X129546056Y-95356234D01*
X129521266Y-95351600D01*
X129304733Y-95351600D01*
X129279942Y-95356234D01*
X129220340Y-95352991D01*
X129168918Y-95322681D01*
X129137217Y-95272104D01*
X129132351Y-95212613D01*
X129155412Y-95157557D01*
X129194369Y-95104773D01*
X129205147Y-95073973D01*
X129239620Y-94975454D01*
X129239620Y-94975453D01*
X129239621Y-94975451D01*
X129242500Y-94944749D01*
X129242499Y-94285252D01*
X129239621Y-94254549D01*
X129194369Y-94125227D01*
X129133105Y-94042218D01*
X129113009Y-94014988D01*
X129020679Y-93946846D01*
X128983020Y-93902250D01*
X128969500Y-93845467D01*
X128969500Y-93606533D01*
X128983020Y-93549750D01*
X129020679Y-93505154D01*
X129113009Y-93437011D01*
X129113010Y-93437010D01*
X129194369Y-93326773D01*
X129239621Y-93197451D01*
X129242500Y-93166749D01*
X129242499Y-92507252D01*
X129239621Y-92476549D01*
X129194369Y-92347227D01*
X129147154Y-92283253D01*
X129113010Y-92236989D01*
X129002771Y-92155629D01*
X128873454Y-92110379D01*
X128858100Y-92108939D01*
X128842749Y-92107500D01*
X128842746Y-92107500D01*
X128333252Y-92107500D01*
X128302547Y-92110379D01*
X128173228Y-92155630D01*
X128062989Y-92236989D01*
X127981629Y-92347228D01*
X127936379Y-92476545D01*
X127933500Y-92507253D01*
X127933500Y-93166747D01*
X127936379Y-93197452D01*
X127981630Y-93326771D01*
X128062990Y-93437011D01*
X128155321Y-93505154D01*
X128192980Y-93549750D01*
X128206500Y-93606533D01*
X128206500Y-93845467D01*
X128192980Y-93902250D01*
X128155321Y-93946846D01*
X128062990Y-94014988D01*
X127981629Y-94125228D01*
X127936379Y-94254545D01*
X127933500Y-94285253D01*
X127933500Y-94677786D01*
X127923909Y-94726004D01*
X127896595Y-94766882D01*
X127180861Y-95482614D01*
X127134214Y-95512153D01*
X127079416Y-95518911D01*
X126873000Y-95498581D01*
X126673730Y-95518207D01*
X126482121Y-95576332D01*
X126305532Y-95670721D01*
X126150747Y-95797747D01*
X126023721Y-95952532D01*
X125929332Y-96129121D01*
X125871207Y-96320730D01*
X125851581Y-96520000D01*
X125871207Y-96719269D01*
X125929332Y-96910878D01*
X125929333Y-96910880D01*
X126023722Y-97087469D01*
X126051295Y-97121067D01*
X126150747Y-97242252D01*
X126216109Y-97295892D01*
X126305531Y-97369278D01*
X126482120Y-97463667D01*
X126558092Y-97486713D01*
X126673730Y-97521792D01*
X126873000Y-97541418D01*
X127072269Y-97521792D01*
X127131162Y-97503927D01*
X128782625Y-97503927D01*
X128889963Y-97570388D01*
X129091882Y-97648611D01*
X129304734Y-97688400D01*
X129521266Y-97688400D01*
X129734117Y-97648611D01*
X129936033Y-97570389D01*
X130043372Y-97503926D01*
X129413000Y-96873553D01*
X129412999Y-96873553D01*
X128782625Y-97503926D01*
X128782625Y-97503927D01*
X127131162Y-97503927D01*
X127263880Y-97463667D01*
X127440469Y-97369278D01*
X127595252Y-97242252D01*
X127722278Y-97087469D01*
X127816667Y-96910880D01*
X127874792Y-96719269D01*
X127894418Y-96520000D01*
X127894418Y-96519999D01*
X128239594Y-96519999D01*
X128259574Y-96735617D01*
X128318831Y-96943885D01*
X128415348Y-97137717D01*
X128426698Y-97152746D01*
X129059446Y-96520000D01*
X129766553Y-96520000D01*
X130399300Y-97152747D01*
X130399301Y-97152746D01*
X130410649Y-97137719D01*
X130507170Y-96943880D01*
X130566425Y-96735617D01*
X130586405Y-96519999D01*
X130566425Y-96304382D01*
X130507170Y-96096119D01*
X130410649Y-95902279D01*
X130399301Y-95887252D01*
X130399299Y-95887252D01*
X129766553Y-96519999D01*
X129766553Y-96520000D01*
X129059446Y-96520000D01*
X129059446Y-96519999D01*
X128426698Y-95887251D01*
X128426697Y-95887251D01*
X128415349Y-95902281D01*
X128318831Y-96096114D01*
X128259574Y-96304382D01*
X128239594Y-96519999D01*
X127894418Y-96519999D01*
X127874792Y-96320731D01*
X127835502Y-96191211D01*
X127816667Y-96129119D01*
X127789915Y-96079071D01*
X127775306Y-96027916D01*
X127783112Y-95975291D01*
X127811937Y-95930583D01*
X128361120Y-95381400D01*
X128401994Y-95354090D01*
X128450212Y-95344499D01*
X128663388Y-95344499D01*
X128730541Y-95363886D01*
X128777030Y-95416079D01*
X128788549Y-95485019D01*
X128782626Y-95536073D01*
X129412999Y-96166446D01*
X129413000Y-96166446D01*
X130043373Y-95536071D01*
X130037450Y-95485021D01*
X130048968Y-95416080D01*
X130095456Y-95363886D01*
X130162608Y-95344499D01*
X130185788Y-95344499D01*
X130234005Y-95354090D01*
X130274882Y-95381404D01*
X130959018Y-96065540D01*
X130992147Y-96124019D01*
X130990497Y-96191211D01*
X130951207Y-96320730D01*
X130931581Y-96520000D01*
X130951207Y-96719264D01*
X130951207Y-96719266D01*
X130951208Y-96719269D01*
X130974983Y-96797644D01*
X130990497Y-96848787D01*
X130992146Y-96915979D01*
X130959017Y-96974458D01*
X128926455Y-99007020D01*
X128906280Y-99023405D01*
X128897042Y-99029440D01*
X128877288Y-99054820D01*
X128866972Y-99066504D01*
X128866890Y-99066586D01*
X128854612Y-99083781D01*
X128851503Y-99087950D01*
X128813936Y-99136216D01*
X128813803Y-99136475D01*
X128796349Y-99195099D01*
X128794762Y-99200055D01*
X128774897Y-99257921D01*
X128774863Y-99258151D01*
X128777392Y-99319273D01*
X128777500Y-99324480D01*
X128777500Y-110510797D01*
X128760619Y-110573797D01*
X128714500Y-110619916D01*
X128651500Y-110636797D01*
X128588500Y-110619916D01*
X128542381Y-110573797D01*
X128470122Y-110448642D01*
X128339384Y-110303443D01*
X128331800Y-110297933D01*
X128181310Y-110188595D01*
X128002813Y-110109124D01*
X127811694Y-110068500D01*
X127616306Y-110068500D01*
X127425187Y-110109124D01*
X127425184Y-110109125D01*
X127425185Y-110109125D01*
X127246689Y-110188595D01*
X127088615Y-110303443D01*
X126957877Y-110448642D01*
X126860181Y-110617855D01*
X126833833Y-110698950D01*
X126800253Y-110751864D01*
X126745335Y-110782055D01*
X126682665Y-110782055D01*
X126627747Y-110751864D01*
X126594167Y-110698950D01*
X126567818Y-110617855D01*
X126470122Y-110448642D01*
X126339384Y-110303443D01*
X126331800Y-110297933D01*
X126181310Y-110188595D01*
X126002813Y-110109124D01*
X125811694Y-110068500D01*
X125616306Y-110068500D01*
X125425187Y-110109124D01*
X125425184Y-110109125D01*
X125425185Y-110109125D01*
X125246689Y-110188595D01*
X125088615Y-110303443D01*
X124957877Y-110448642D01*
X124909086Y-110533151D01*
X124861279Y-110580228D01*
X124796087Y-110596091D01*
X124731995Y-110576244D01*
X124687176Y-110526314D01*
X124637362Y-110426274D01*
X124516588Y-110266345D01*
X124368479Y-110131326D01*
X124198088Y-110025823D01*
X124011203Y-109953425D01*
X123964000Y-109944600D01*
X123964000Y-112051399D01*
X123464000Y-112051399D01*
X123464000Y-109944601D01*
X123463999Y-109944600D01*
X123416796Y-109953425D01*
X123229911Y-110025823D01*
X123059520Y-110131326D01*
X122911410Y-110266345D01*
X122863698Y-110329527D01*
X122819571Y-110366256D01*
X122763729Y-110379594D01*
X122707766Y-110366771D01*
X122663302Y-110330451D01*
X122639569Y-110278174D01*
X122628734Y-110223699D01*
X122572484Y-110139515D01*
X122488301Y-110083266D01*
X122488300Y-110083265D01*
X122414066Y-110068500D01*
X121013931Y-110068500D01*
X120939699Y-110083265D01*
X120855515Y-110139515D01*
X120799266Y-110223698D01*
X120784500Y-110297933D01*
X120784500Y-111698068D01*
X119222590Y-111698068D01*
X113067405Y-105542882D01*
X113040091Y-105502005D01*
X113030500Y-105453787D01*
X113030500Y-103072457D01*
X113037187Y-103031955D01*
X113056538Y-102995753D01*
X113133354Y-102895644D01*
X113133353Y-102895644D01*
X113133355Y-102895643D01*
X113189228Y-102760754D01*
X113208285Y-102616000D01*
X113189228Y-102471246D01*
X113133355Y-102336358D01*
X113133354Y-102336357D01*
X113133354Y-102336356D01*
X113044475Y-102220527D01*
X113044472Y-102220525D01*
X112928643Y-102131645D01*
X112928642Y-102131644D01*
X112844784Y-102096909D01*
X112791066Y-102054561D01*
X112767390Y-101990386D01*
X112780735Y-101923297D01*
X112827167Y-101873067D01*
X112893002Y-101854500D01*
X117780543Y-101854500D01*
X117821045Y-101861187D01*
X117857247Y-101880538D01*
X117957355Y-101957354D01*
X117957356Y-101957354D01*
X117957357Y-101957355D01*
X118092246Y-102013228D01*
X118237000Y-102032285D01*
X118381754Y-102013228D01*
X118516643Y-101957355D01*
X118632474Y-101868474D01*
X118721355Y-101752643D01*
X118777228Y-101617754D01*
X118796285Y-101473000D01*
X118777228Y-101328246D01*
X118721355Y-101193358D01*
X118721354Y-101193357D01*
X118721354Y-101193356D01*
X118632475Y-101077527D01*
X118516642Y-100988644D01*
X118381753Y-100932771D01*
X118237000Y-100913715D01*
X118092246Y-100932771D01*
X117957356Y-100988645D01*
X117857248Y-101065462D01*
X117821046Y-101084813D01*
X117780544Y-101091500D01*
X105564798Y-101091500D01*
X105516580Y-101081909D01*
X105475702Y-101054595D01*
X105448389Y-101013718D01*
X105422972Y-100952355D01*
X105334093Y-100836527D01*
X105334090Y-100836525D01*
X105218261Y-100747645D01*
X105218260Y-100747644D01*
X105083371Y-100691771D01*
X104938618Y-100672715D01*
X104793864Y-100691771D01*
X104658974Y-100747645D01*
X104543143Y-100836525D01*
X104454263Y-100952356D01*
X104398389Y-101087246D01*
X104379333Y-101231999D01*
X101339500Y-101231999D01*
X101339500Y-99441000D01*
X103707715Y-99441000D01*
X103726771Y-99585753D01*
X103782644Y-99720642D01*
X103782645Y-99720643D01*
X103871526Y-99836474D01*
X103987357Y-99925355D01*
X104122246Y-99981228D01*
X104267000Y-100000285D01*
X104411754Y-99981228D01*
X104546643Y-99925355D01*
X104662474Y-99836474D01*
X104751355Y-99720643D01*
X104807228Y-99585754D01*
X104826285Y-99441000D01*
X104807228Y-99296246D01*
X104751355Y-99161358D01*
X104751354Y-99161357D01*
X104751354Y-99161356D01*
X104662475Y-99045527D01*
X104662472Y-99045525D01*
X104582663Y-98984284D01*
X104546642Y-98956644D01*
X104411753Y-98900771D01*
X104267000Y-98881715D01*
X104122246Y-98900771D01*
X103987356Y-98956645D01*
X103871525Y-99045525D01*
X103782645Y-99161356D01*
X103726771Y-99296246D01*
X103707715Y-99441000D01*
X101339500Y-99441000D01*
X101339500Y-98806000D01*
X110985715Y-98806000D01*
X111004771Y-98950753D01*
X111060644Y-99085642D01*
X111060645Y-99085643D01*
X111149526Y-99201474D01*
X111265357Y-99290355D01*
X111400246Y-99346228D01*
X111545000Y-99365285D01*
X111689754Y-99346228D01*
X111824643Y-99290355D01*
X111940474Y-99201474D01*
X112029355Y-99085643D01*
X112085228Y-98950754D01*
X112104285Y-98806000D01*
X112085228Y-98661246D01*
X112029355Y-98526358D01*
X112029354Y-98526357D01*
X112029354Y-98526356D01*
X111940475Y-98410527D01*
X111940472Y-98410525D01*
X111848457Y-98339918D01*
X111824642Y-98321644D01*
X111689753Y-98265771D01*
X111545000Y-98246715D01*
X111400246Y-98265771D01*
X111265356Y-98321645D01*
X111149525Y-98410525D01*
X111060645Y-98526356D01*
X111004771Y-98661246D01*
X110985715Y-98806000D01*
X101339500Y-98806000D01*
X101339500Y-95122999D01*
X104596715Y-95122999D01*
X104615771Y-95267753D01*
X104671644Y-95402642D01*
X104671645Y-95402643D01*
X104760526Y-95518474D01*
X104876357Y-95607355D01*
X105011246Y-95663228D01*
X105156000Y-95682285D01*
X105300754Y-95663228D01*
X105435643Y-95607355D01*
X105551474Y-95518474D01*
X105640355Y-95402643D01*
X105696228Y-95267754D01*
X105715285Y-95123000D01*
X105715285Y-95122999D01*
X117423715Y-95122999D01*
X117442771Y-95267753D01*
X117498644Y-95402642D01*
X117498645Y-95402643D01*
X117587526Y-95518474D01*
X117703357Y-95607355D01*
X117838246Y-95663228D01*
X117983000Y-95682285D01*
X118127754Y-95663228D01*
X118262643Y-95607355D01*
X118378474Y-95518474D01*
X118467355Y-95402643D01*
X118523228Y-95267754D01*
X118542285Y-95123000D01*
X118523228Y-94978246D01*
X118467355Y-94843358D01*
X118467354Y-94843357D01*
X118467354Y-94843356D01*
X118378475Y-94727527D01*
X118378472Y-94727525D01*
X118262643Y-94638645D01*
X118262642Y-94638644D01*
X118127753Y-94582771D01*
X117983000Y-94563715D01*
X117838246Y-94582771D01*
X117703356Y-94638645D01*
X117587525Y-94727525D01*
X117498645Y-94843356D01*
X117442771Y-94978246D01*
X117423715Y-95122999D01*
X105715285Y-95122999D01*
X105696228Y-94978246D01*
X105640355Y-94843358D01*
X105640354Y-94843357D01*
X105640354Y-94843356D01*
X105551475Y-94727527D01*
X105551472Y-94727525D01*
X105435643Y-94638645D01*
X105435642Y-94638644D01*
X105300753Y-94582771D01*
X105156000Y-94563715D01*
X105011246Y-94582771D01*
X104876356Y-94638645D01*
X104760525Y-94727525D01*
X104671645Y-94843356D01*
X104615771Y-94978246D01*
X104596715Y-95122999D01*
X101339500Y-95122999D01*
X101339500Y-92138499D01*
X119646215Y-92138499D01*
X119665271Y-92283253D01*
X119721144Y-92418142D01*
X119721145Y-92418143D01*
X119810026Y-92533974D01*
X119925857Y-92622855D01*
X120060746Y-92678728D01*
X120185853Y-92695198D01*
X120225135Y-92707114D01*
X120258502Y-92731024D01*
X120694223Y-93166746D01*
X121041521Y-93514044D01*
X121057908Y-93534224D01*
X121063938Y-93543454D01*
X121063939Y-93543455D01*
X121063940Y-93543456D01*
X121089318Y-93563208D01*
X121101023Y-93573546D01*
X121101091Y-93573614D01*
X121118282Y-93585888D01*
X121122458Y-93589002D01*
X121170737Y-93626579D01*
X121170951Y-93626689D01*
X121178629Y-93628974D01*
X121178630Y-93628975D01*
X121229635Y-93644159D01*
X121234500Y-93645717D01*
X121284839Y-93663000D01*
X121284842Y-93663000D01*
X121292421Y-93665602D01*
X121292650Y-93665636D01*
X121300657Y-93665304D01*
X121300658Y-93665305D01*
X121353772Y-93663108D01*
X121358980Y-93663000D01*
X121366843Y-93663000D01*
X121417230Y-93673513D01*
X121459208Y-93703299D01*
X121485771Y-93747383D01*
X121491166Y-93762799D01*
X121494131Y-93771273D01*
X121575489Y-93881510D01*
X121685728Y-93962870D01*
X121815045Y-94008120D01*
X121815046Y-94008120D01*
X121815049Y-94008121D01*
X121845751Y-94011000D01*
X122355248Y-94010999D01*
X122385951Y-94008121D01*
X122515273Y-93962869D01*
X122625510Y-93881510D01*
X122706869Y-93771273D01*
X122715228Y-93747386D01*
X122752120Y-93641954D01*
X122752120Y-93641953D01*
X122752121Y-93641951D01*
X122755000Y-93611249D01*
X122755000Y-93611247D01*
X123096000Y-93611247D01*
X123098879Y-93641952D01*
X123144130Y-93771271D01*
X123225489Y-93881510D01*
X123335728Y-93962870D01*
X123422615Y-93993273D01*
X123466702Y-94019837D01*
X123496487Y-94061816D01*
X123507000Y-94112202D01*
X123507000Y-94222044D01*
X123500313Y-94262546D01*
X123480962Y-94298748D01*
X123404145Y-94398856D01*
X123348271Y-94533746D01*
X123329215Y-94678499D01*
X123348271Y-94823253D01*
X123404144Y-94958142D01*
X123404145Y-94958143D01*
X123493026Y-95073974D01*
X123608857Y-95162855D01*
X123743746Y-95218728D01*
X123888500Y-95237785D01*
X124033254Y-95218728D01*
X124168143Y-95162855D01*
X124283974Y-95073974D01*
X124372855Y-94958143D01*
X124428728Y-94823254D01*
X124447785Y-94678500D01*
X124428728Y-94533746D01*
X124372855Y-94398858D01*
X124372854Y-94398857D01*
X124372854Y-94398856D01*
X124296038Y-94298748D01*
X124276687Y-94262546D01*
X124270000Y-94222044D01*
X124270000Y-93930438D01*
X124276313Y-93891054D01*
X124294621Y-93855617D01*
X124356869Y-93771273D01*
X124402120Y-93641954D01*
X124402120Y-93641953D01*
X124402121Y-93641951D01*
X124405000Y-93611249D01*
X124404999Y-92951752D01*
X124402121Y-92921049D01*
X124356869Y-92791727D01*
X124310640Y-92729089D01*
X124275510Y-92681489D01*
X124165271Y-92600129D01*
X124035954Y-92554879D01*
X124020599Y-92553439D01*
X124005249Y-92552000D01*
X124005246Y-92552000D01*
X123495752Y-92552000D01*
X123465047Y-92554879D01*
X123335728Y-92600130D01*
X123225489Y-92681489D01*
X123144129Y-92791728D01*
X123098879Y-92921045D01*
X123096000Y-92951753D01*
X123096000Y-93611247D01*
X122755000Y-93611247D01*
X122754999Y-92951752D01*
X122752121Y-92921049D01*
X122706869Y-92791727D01*
X122660640Y-92729089D01*
X122625510Y-92681489D01*
X122515271Y-92600129D01*
X122385954Y-92554879D01*
X122370599Y-92553439D01*
X122355249Y-92552000D01*
X122355246Y-92552000D01*
X121845752Y-92552000D01*
X121815047Y-92554879D01*
X121685728Y-92600130D01*
X121575489Y-92681489D01*
X121540360Y-92729089D01*
X121499929Y-92764545D01*
X121448397Y-92779915D01*
X121395149Y-92772397D01*
X121349886Y-92743363D01*
X120798025Y-92191503D01*
X120774114Y-92158135D01*
X120762198Y-92118852D01*
X120745728Y-91993746D01*
X120689854Y-91858856D01*
X120600975Y-91743027D01*
X120600972Y-91743025D01*
X120509082Y-91672514D01*
X120485142Y-91654144D01*
X120350253Y-91598271D01*
X120205500Y-91579215D01*
X120060746Y-91598271D01*
X119925856Y-91654145D01*
X119810025Y-91743025D01*
X119721145Y-91858856D01*
X119665271Y-91993746D01*
X119646215Y-92138499D01*
X101339500Y-92138499D01*
X101339500Y-89556559D01*
X102947992Y-89556559D01*
X102986943Y-89590718D01*
X103238323Y-89758685D01*
X103509489Y-89892410D01*
X103795776Y-89989591D01*
X104092308Y-90048575D01*
X104394000Y-90068348D01*
X104695691Y-90048575D01*
X104992223Y-89989591D01*
X105278510Y-89892410D01*
X105549677Y-89758685D01*
X105801061Y-89590715D01*
X105840006Y-89556560D01*
X105840006Y-89556558D01*
X104394001Y-88110553D01*
X104393999Y-88110553D01*
X102947992Y-89556558D01*
X102947992Y-89556559D01*
X101339500Y-89556559D01*
X101339500Y-87757000D01*
X102082651Y-87757000D01*
X102102424Y-88058691D01*
X102161408Y-88355223D01*
X102258589Y-88641510D01*
X102392314Y-88912676D01*
X102560281Y-89164056D01*
X102594439Y-89203006D01*
X102594440Y-89203006D01*
X104040447Y-87757001D01*
X104747553Y-87757001D01*
X106193558Y-89203006D01*
X106193560Y-89203006D01*
X106227715Y-89164061D01*
X106390793Y-88919999D01*
X131475715Y-88919999D01*
X131494771Y-89064753D01*
X131550644Y-89199642D01*
X131571323Y-89226592D01*
X131639526Y-89315474D01*
X131755357Y-89404355D01*
X131890246Y-89460228D01*
X132035000Y-89479285D01*
X132179754Y-89460228D01*
X132314643Y-89404355D01*
X132430474Y-89315474D01*
X132519355Y-89199643D01*
X132575228Y-89064754D01*
X132594285Y-88920000D01*
X132575228Y-88775246D01*
X132519355Y-88640358D01*
X132519354Y-88640357D01*
X132519354Y-88640356D01*
X132430475Y-88524527D01*
X132430472Y-88524525D01*
X132314643Y-88435645D01*
X132314642Y-88435644D01*
X132179753Y-88379771D01*
X132035000Y-88360715D01*
X131890246Y-88379771D01*
X131755356Y-88435645D01*
X131639525Y-88524525D01*
X131550645Y-88640356D01*
X131494771Y-88775246D01*
X131475715Y-88919999D01*
X106390793Y-88919999D01*
X106395685Y-88912677D01*
X106529410Y-88641510D01*
X106626591Y-88355223D01*
X106685575Y-88058691D01*
X106705348Y-87757000D01*
X106685575Y-87455308D01*
X106626591Y-87158776D01*
X106529410Y-86872489D01*
X106395685Y-86601324D01*
X106332659Y-86506999D01*
X136555715Y-86506999D01*
X136574771Y-86651753D01*
X136630644Y-86786642D01*
X136630645Y-86786643D01*
X136719526Y-86902474D01*
X136835357Y-86991355D01*
X136970246Y-87047228D01*
X137115000Y-87066285D01*
X137259754Y-87047228D01*
X137394643Y-86991355D01*
X137510474Y-86902474D01*
X137599355Y-86786643D01*
X137655228Y-86651754D01*
X137674285Y-86507000D01*
X137655228Y-86362246D01*
X137599355Y-86227358D01*
X137599354Y-86227357D01*
X137599354Y-86227356D01*
X137510475Y-86111527D01*
X137510472Y-86111525D01*
X137394643Y-86022645D01*
X137394642Y-86022644D01*
X137259753Y-85966771D01*
X137115000Y-85947715D01*
X136970246Y-85966771D01*
X136835356Y-86022645D01*
X136719525Y-86111525D01*
X136630645Y-86227356D01*
X136574771Y-86362246D01*
X136555715Y-86506999D01*
X106332659Y-86506999D01*
X106227718Y-86349943D01*
X106193559Y-86310992D01*
X106193558Y-86310992D01*
X104747553Y-87756999D01*
X104747553Y-87757001D01*
X104040447Y-87757001D01*
X104040447Y-87756999D01*
X102594440Y-86310992D01*
X102594438Y-86310992D01*
X102560283Y-86349940D01*
X102392314Y-86601323D01*
X102258589Y-86872489D01*
X102161408Y-87158776D01*
X102102424Y-87455308D01*
X102082651Y-87757000D01*
X101339500Y-87757000D01*
X101339500Y-85957440D01*
X102947992Y-85957440D01*
X104393999Y-87403447D01*
X104394001Y-87403447D01*
X105840006Y-85957440D01*
X105840006Y-85957439D01*
X105801056Y-85923281D01*
X105549676Y-85755314D01*
X105278510Y-85621589D01*
X104992223Y-85524408D01*
X104695691Y-85465424D01*
X104394000Y-85445651D01*
X104092308Y-85465424D01*
X103795776Y-85524408D01*
X103509489Y-85621589D01*
X103238323Y-85755314D01*
X102986940Y-85923283D01*
X102947992Y-85957438D01*
X102947992Y-85957440D01*
X101339500Y-85957440D01*
X101339500Y-84708000D01*
X101356381Y-84645000D01*
X101402500Y-84598881D01*
X101465500Y-84582000D01*
X112793501Y-84582000D01*
X112856501Y-84598881D01*
X112902620Y-84645000D01*
X112919501Y-84708000D01*
X112919501Y-84880068D01*
X112934265Y-84954300D01*
X112990515Y-85038484D01*
X113040506Y-85071887D01*
X113074699Y-85094734D01*
X113148933Y-85109500D01*
X114899066Y-85109499D01*
X114899068Y-85109499D01*
X114948556Y-85099655D01*
X114973301Y-85094734D01*
X115057484Y-85038484D01*
X115113734Y-84954301D01*
X115128500Y-84880067D01*
X115128499Y-84708000D01*
X115145381Y-84645000D01*
X115191500Y-84598881D01*
X115254500Y-84582000D01*
X115368647Y-84582000D01*
X115426827Y-84596237D01*
X115471860Y-84635729D01*
X115597868Y-84815686D01*
X115753313Y-84971131D01*
X115933400Y-85097230D01*
X116132646Y-85190139D01*
X116313999Y-85238734D01*
X116314000Y-85238734D01*
X116314000Y-84582000D01*
X116814000Y-84582000D01*
X116814000Y-85238734D01*
X116995353Y-85190139D01*
X117194599Y-85097230D01*
X117374686Y-84971131D01*
X117530131Y-84815686D01*
X117656140Y-84635729D01*
X117701173Y-84596237D01*
X117759353Y-84582000D01*
X118092935Y-84582000D01*
X118149098Y-84595209D01*
X118193483Y-84632066D01*
X118284268Y-84752285D01*
X118435538Y-84890186D01*
X118609573Y-84997944D01*
X118800444Y-85071888D01*
X119001653Y-85109500D01*
X119206345Y-85109500D01*
X119206347Y-85109500D01*
X119407556Y-85071888D01*
X119598427Y-84997944D01*
X119772462Y-84890186D01*
X119923732Y-84752285D01*
X120014516Y-84632066D01*
X120058902Y-84595209D01*
X120115065Y-84582000D01*
X121920000Y-84582000D01*
X121920000Y-84512500D01*
X121936881Y-84449500D01*
X121983000Y-84403381D01*
X122046000Y-84386500D01*
X136118788Y-84386500D01*
X136167006Y-84396091D01*
X136207883Y-84423405D01*
X147536595Y-95752118D01*
X147563909Y-95792995D01*
X147573500Y-95841213D01*
X147573500Y-106609218D01*
X147554697Y-106675436D01*
X147503900Y-106721890D01*
X147436270Y-106734717D01*
X147371991Y-106710086D01*
X147294163Y-106651825D01*
X147289267Y-106649999D01*
X147164973Y-106603640D01*
X147107864Y-106597500D01*
X146516136Y-106597500D01*
X146459026Y-106603640D01*
X146459027Y-106603640D01*
X146329836Y-106651825D01*
X146219455Y-106734455D01*
X146136825Y-106844836D01*
X146118501Y-106893965D01*
X146088640Y-106974027D01*
X146082500Y-107031136D01*
X146082500Y-107572864D01*
X146088640Y-107629973D01*
X146118665Y-107710473D01*
X146136825Y-107759163D01*
X146219454Y-107869543D01*
X146237281Y-107882888D01*
X146275932Y-107930434D01*
X146287586Y-107990590D01*
X146269485Y-108049130D01*
X146225911Y-108092209D01*
X146171933Y-108124131D01*
X146059133Y-108236931D01*
X145977923Y-108374249D01*
X145933417Y-108527439D01*
X145930600Y-108563241D01*
X145930600Y-108602000D01*
X147693399Y-108602000D01*
X147693399Y-108563240D01*
X147690582Y-108527441D01*
X147646076Y-108374249D01*
X147564866Y-108236931D01*
X147452068Y-108124133D01*
X147398089Y-108092210D01*
X147354514Y-108049130D01*
X147336413Y-107990589D01*
X147348067Y-107930433D01*
X147386720Y-107882887D01*
X147404545Y-107869543D01*
X147460309Y-107795052D01*
X147512037Y-107754538D01*
X147577128Y-107745575D01*
X147637881Y-107770598D01*
X147675357Y-107799355D01*
X147810246Y-107855228D01*
X147955000Y-107874285D01*
X148099754Y-107855228D01*
X148234643Y-107799355D01*
X148350474Y-107710474D01*
X148439355Y-107594643D01*
X148495228Y-107459754D01*
X148514285Y-107315000D01*
X148495228Y-107170246D01*
X148439355Y-107035358D01*
X148439354Y-107035357D01*
X148439354Y-107035356D01*
X148362538Y-106935248D01*
X148343187Y-106899046D01*
X148336500Y-106858544D01*
X148336500Y-99179747D01*
X150470500Y-99179747D01*
X150473379Y-99210452D01*
X150518630Y-99339773D01*
X150606175Y-99458392D01*
X150627685Y-99505388D01*
X150628518Y-99557066D01*
X150619530Y-99578500D01*
X150621638Y-99579300D01*
X150559850Y-99742219D01*
X150540693Y-99899999D01*
X150559850Y-100057780D01*
X150616212Y-100206394D01*
X150616213Y-100206395D01*
X150706502Y-100337201D01*
X150825471Y-100442599D01*
X150966207Y-100516463D01*
X151120529Y-100554500D01*
X151279469Y-100554500D01*
X151279471Y-100554500D01*
X151433793Y-100516463D01*
X151574529Y-100442599D01*
X151693498Y-100337201D01*
X151783787Y-100206395D01*
X151840149Y-100057782D01*
X151859307Y-99900000D01*
X151840149Y-99742218D01*
X151791497Y-99613935D01*
X151778362Y-99579300D01*
X151780469Y-99578500D01*
X151771489Y-99557105D01*
X151772309Y-99505407D01*
X151793824Y-99458391D01*
X151800008Y-99450010D01*
X151800010Y-99450010D01*
X151881369Y-99339773D01*
X151886721Y-99324480D01*
X151926620Y-99210454D01*
X151926620Y-99210453D01*
X151926621Y-99210451D01*
X151929500Y-99179749D01*
X151929499Y-98670252D01*
X151926621Y-98639549D01*
X151881369Y-98510227D01*
X151832770Y-98444378D01*
X151800010Y-98399989D01*
X151689771Y-98318629D01*
X151560454Y-98273379D01*
X151545099Y-98271939D01*
X151529749Y-98270500D01*
X151529746Y-98270500D01*
X150870252Y-98270500D01*
X150839547Y-98273379D01*
X150710228Y-98318630D01*
X150599989Y-98399989D01*
X150518629Y-98510228D01*
X150473379Y-98639545D01*
X150470500Y-98670253D01*
X150470500Y-99179747D01*
X148336500Y-99179747D01*
X148336500Y-97096700D01*
X149300715Y-97096700D01*
X149319771Y-97241453D01*
X149375644Y-97376342D01*
X149375645Y-97376343D01*
X149464526Y-97492174D01*
X149580357Y-97581055D01*
X149715246Y-97636928D01*
X149860000Y-97655985D01*
X150004754Y-97636928D01*
X150139643Y-97581055D01*
X150166491Y-97560454D01*
X150242360Y-97502238D01*
X150278562Y-97482887D01*
X150319064Y-97476200D01*
X150354497Y-97476200D01*
X150404883Y-97486713D01*
X150446862Y-97516498D01*
X150473425Y-97560584D01*
X150480588Y-97581054D01*
X150518630Y-97689771D01*
X150599989Y-97800010D01*
X150710228Y-97881370D01*
X150839545Y-97926620D01*
X150839546Y-97926620D01*
X150839549Y-97926621D01*
X150870251Y-97929500D01*
X151529748Y-97929499D01*
X151560451Y-97926621D01*
X151689773Y-97881369D01*
X151800010Y-97800010D01*
X151881369Y-97689773D01*
X151881850Y-97688400D01*
X151926620Y-97560454D01*
X151926620Y-97560453D01*
X151926621Y-97560451D01*
X151929500Y-97529749D01*
X151929499Y-97020252D01*
X151926621Y-96989549D01*
X151881369Y-96860227D01*
X151835181Y-96797645D01*
X151800010Y-96749989D01*
X151689771Y-96668629D01*
X151560454Y-96623379D01*
X151545099Y-96621939D01*
X151529749Y-96620500D01*
X151529746Y-96620500D01*
X150870252Y-96620500D01*
X150839547Y-96623379D01*
X150710228Y-96668629D01*
X150677779Y-96692579D01*
X150642341Y-96710887D01*
X150602957Y-96717200D01*
X150319064Y-96717200D01*
X150278562Y-96710513D01*
X150242360Y-96691162D01*
X150139644Y-96612345D01*
X150004753Y-96556471D01*
X149860000Y-96537415D01*
X149715246Y-96556471D01*
X149580356Y-96612345D01*
X149464525Y-96701225D01*
X149375645Y-96817056D01*
X149319771Y-96951946D01*
X149300715Y-97096700D01*
X148336500Y-97096700D01*
X148336500Y-95683634D01*
X148339182Y-95657776D01*
X148341445Y-95646983D01*
X148337468Y-95615079D01*
X148336500Y-95599493D01*
X148336500Y-95599388D01*
X148333025Y-95578571D01*
X148332276Y-95573439D01*
X148325696Y-95520640D01*
X148325695Y-95520639D01*
X148324704Y-95512681D01*
X148324636Y-95512470D01*
X148320818Y-95505415D01*
X148320818Y-95505414D01*
X148295509Y-95458648D01*
X148293133Y-95454031D01*
X148266255Y-95399052D01*
X148266114Y-95398862D01*
X148221081Y-95357407D01*
X148217323Y-95353801D01*
X147063522Y-94200000D01*
X157040693Y-94200000D01*
X157059850Y-94357780D01*
X157116212Y-94506394D01*
X157168931Y-94582771D01*
X157206502Y-94637201D01*
X157325471Y-94742599D01*
X157466207Y-94816463D01*
X157620529Y-94854500D01*
X157779469Y-94854500D01*
X157779471Y-94854500D01*
X157933793Y-94816463D01*
X158074529Y-94742599D01*
X158193498Y-94637201D01*
X158283787Y-94506395D01*
X158340149Y-94357782D01*
X158359307Y-94200000D01*
X158340149Y-94042218D01*
X158283787Y-93893605D01*
X158193498Y-93762799D01*
X158074529Y-93657401D01*
X157941153Y-93587400D01*
X157933795Y-93583538D01*
X157933794Y-93583537D01*
X157933793Y-93583537D01*
X157779471Y-93545500D01*
X157620529Y-93545500D01*
X157466207Y-93583537D01*
X157466206Y-93583537D01*
X157466204Y-93583538D01*
X157325472Y-93657400D01*
X157206501Y-93762799D01*
X157116212Y-93893605D01*
X157059850Y-94042219D01*
X157040693Y-94200000D01*
X147063522Y-94200000D01*
X144536036Y-91672514D01*
X148786038Y-91672514D01*
X148858776Y-91742226D01*
X149222765Y-92036126D01*
X149610346Y-92298085D01*
X150018766Y-92526243D01*
X150445055Y-92718937D01*
X150886146Y-92874785D01*
X151338860Y-92992663D01*
X151799962Y-93071726D01*
X152266091Y-93111400D01*
X152733909Y-93111400D01*
X153200037Y-93071726D01*
X153661139Y-92992663D01*
X154113853Y-92874785D01*
X154554944Y-92718937D01*
X154981233Y-92526243D01*
X155389653Y-92298085D01*
X155777234Y-92036126D01*
X156141229Y-91742221D01*
X156213959Y-91672514D01*
X156213960Y-91672513D01*
X152500001Y-87958553D01*
X152499999Y-87958553D01*
X148786038Y-91672513D01*
X148786038Y-91672514D01*
X144536036Y-91672514D01*
X136635981Y-83772458D01*
X136619592Y-83752276D01*
X136613561Y-83743045D01*
X136613560Y-83743044D01*
X136588183Y-83723292D01*
X136576475Y-83712952D01*
X136576410Y-83712887D01*
X136576409Y-83712886D01*
X136559191Y-83700593D01*
X136555080Y-83697527D01*
X136513085Y-83664842D01*
X136513082Y-83664840D01*
X136506771Y-83659929D01*
X136506534Y-83659807D01*
X136498870Y-83657525D01*
X136447899Y-83642350D01*
X136442949Y-83640764D01*
X136385080Y-83620897D01*
X136384848Y-83620863D01*
X136323727Y-83623392D01*
X136318520Y-83623500D01*
X122046000Y-83623500D01*
X121983000Y-83606619D01*
X121936881Y-83560500D01*
X121920000Y-83497500D01*
X121920000Y-81756500D01*
X121936881Y-81693500D01*
X121983000Y-81647381D01*
X122046000Y-81630500D01*
X145455117Y-81630500D01*
X145513672Y-81644933D01*
G37*
%TD.AperFunction*%
%TD*%
%TA.AperFunction,Conductor*%
%TO.N,GND*%
G36*
X121175500Y-61897381D02*
G01*
X121221619Y-61943500D01*
X121238500Y-62006500D01*
X121238500Y-78204000D01*
X121221619Y-78267000D01*
X121175500Y-78313119D01*
X121112500Y-78330000D01*
X120181898Y-78330000D01*
X120115567Y-78311127D01*
X120069107Y-78260161D01*
X120062088Y-78246065D01*
X120004956Y-78170410D01*
X119938732Y-78082715D01*
X119787462Y-77944814D01*
X119715324Y-77900148D01*
X119613428Y-77837056D01*
X119503549Y-77794489D01*
X119422556Y-77763112D01*
X119221347Y-77725500D01*
X119016653Y-77725500D01*
X118815444Y-77763112D01*
X118815439Y-77763113D01*
X118730682Y-77795947D01*
X118683226Y-77804440D01*
X118636054Y-77794489D01*
X118596073Y-77767550D01*
X117675981Y-76847458D01*
X117659592Y-76827276D01*
X117653561Y-76818045D01*
X117630685Y-76800240D01*
X117628183Y-76798292D01*
X117616475Y-76787952D01*
X117616410Y-76787887D01*
X117616409Y-76787886D01*
X117599191Y-76775593D01*
X117595080Y-76772527D01*
X117553085Y-76739842D01*
X117553082Y-76739840D01*
X117546771Y-76734929D01*
X117546534Y-76734807D01*
X117538870Y-76732525D01*
X117487899Y-76717350D01*
X117482949Y-76715764D01*
X117425080Y-76695897D01*
X117424848Y-76695863D01*
X117363727Y-76698392D01*
X117358520Y-76698500D01*
X110593433Y-76698500D01*
X110567575Y-76695818D01*
X110556782Y-76693554D01*
X110524878Y-76697532D01*
X110509292Y-76698500D01*
X110509186Y-76698500D01*
X110488357Y-76701975D01*
X110483210Y-76702725D01*
X110422506Y-76710292D01*
X110422252Y-76710374D01*
X110415215Y-76714181D01*
X110415214Y-76714182D01*
X110368453Y-76739486D01*
X110363839Y-76741862D01*
X110308880Y-76768731D01*
X110308641Y-76768909D01*
X110279798Y-76800240D01*
X110237712Y-76830288D01*
X110187100Y-76840900D01*
X109795652Y-76840900D01*
X109764947Y-76843779D01*
X109635628Y-76889030D01*
X109525389Y-76970389D01*
X109444029Y-77080628D01*
X109398779Y-77209945D01*
X109395900Y-77240653D01*
X109395900Y-77900147D01*
X109398779Y-77930852D01*
X109444030Y-78060173D01*
X109494959Y-78129179D01*
X109519134Y-78193410D01*
X109506060Y-78260782D01*
X109459616Y-78311309D01*
X109393580Y-78330000D01*
X109057220Y-78330000D01*
X108991184Y-78311309D01*
X108944740Y-78260782D01*
X108931666Y-78193410D01*
X108955841Y-78129179D01*
X109006769Y-78060173D01*
X109052020Y-77930854D01*
X109052020Y-77930853D01*
X109052021Y-77930851D01*
X109054900Y-77900149D01*
X109054899Y-77240652D01*
X109052021Y-77209949D01*
X109006769Y-77080627D01*
X108955709Y-77011443D01*
X108925410Y-76970389D01*
X108815171Y-76889029D01*
X108685854Y-76843779D01*
X108667429Y-76842051D01*
X108655149Y-76840900D01*
X108655147Y-76840900D01*
X108296500Y-76840900D01*
X108233500Y-76824019D01*
X108187381Y-76777900D01*
X108170500Y-76714900D01*
X108170500Y-74682181D01*
X108184233Y-74624978D01*
X108222439Y-74580245D01*
X108276789Y-74557732D01*
X108335436Y-74562348D01*
X108385595Y-74593086D01*
X108511286Y-74718777D01*
X108654041Y-74803202D01*
X108813298Y-74849470D01*
X108850519Y-74852400D01*
X109291800Y-74852400D01*
X109291800Y-74096000D01*
X109791800Y-74096000D01*
X109791800Y-74852399D01*
X110233081Y-74852399D01*
X110270300Y-74849470D01*
X110429558Y-74803202D01*
X110572313Y-74718777D01*
X110689577Y-74601513D01*
X110774002Y-74458758D01*
X110796883Y-74380000D01*
X111882601Y-74380000D01*
X111882601Y-74911983D01*
X111897673Y-75007151D01*
X111956117Y-75121855D01*
X112047144Y-75212882D01*
X112161848Y-75271326D01*
X112257017Y-75286400D01*
X113039000Y-75286400D01*
X113039000Y-74380000D01*
X113539000Y-74380000D01*
X113539000Y-75286399D01*
X114320983Y-75286399D01*
X114416151Y-75271326D01*
X114530855Y-75212882D01*
X114621882Y-75121855D01*
X114680326Y-75007151D01*
X114695400Y-74911983D01*
X114695400Y-74380000D01*
X113539000Y-74380000D01*
X113039000Y-74380000D01*
X111882601Y-74380000D01*
X110796883Y-74380000D01*
X110820270Y-74299501D01*
X110823200Y-74262281D01*
X110823200Y-74096000D01*
X109791800Y-74096000D01*
X109291800Y-74096000D01*
X109291800Y-73880000D01*
X111882600Y-73880000D01*
X114695399Y-73880000D01*
X114695399Y-73348017D01*
X114680326Y-73252849D01*
X114676822Y-73245971D01*
X114663416Y-73179705D01*
X114686194Y-73116049D01*
X114738596Y-73073330D01*
X114805533Y-73063848D01*
X114900000Y-73076285D01*
X115044754Y-73057228D01*
X115179643Y-73001355D01*
X115295474Y-72912474D01*
X115384355Y-72796643D01*
X115440228Y-72661754D01*
X115459285Y-72517000D01*
X115440228Y-72372246D01*
X115384355Y-72237358D01*
X115384354Y-72237357D01*
X115384354Y-72237356D01*
X115295474Y-72121525D01*
X115179643Y-72032645D01*
X115126196Y-72010506D01*
X115085321Y-71983193D01*
X115009722Y-71907594D01*
X114977110Y-71851110D01*
X114977110Y-71785888D01*
X115009719Y-71729406D01*
X115085324Y-71653801D01*
X115126193Y-71626493D01*
X115179643Y-71604355D01*
X115295474Y-71515474D01*
X115384355Y-71399643D01*
X115440228Y-71264754D01*
X115459285Y-71120000D01*
X115440228Y-70975246D01*
X115384355Y-70840358D01*
X115384354Y-70840357D01*
X115384354Y-70840356D01*
X115295475Y-70724527D01*
X115179642Y-70635644D01*
X115044753Y-70579771D01*
X114900000Y-70560715D01*
X114755246Y-70579771D01*
X114640588Y-70627265D01*
X114577560Y-70635983D01*
X114527772Y-70616496D01*
X114531328Y-70665791D01*
X114507110Y-70721157D01*
X114459782Y-70782836D01*
X114404204Y-70824056D01*
X114335240Y-70829711D01*
X114314068Y-70825500D01*
X112263931Y-70825500D01*
X112189699Y-70840265D01*
X112105515Y-70896515D01*
X112049266Y-70980698D01*
X112034500Y-71054933D01*
X112034500Y-72605068D01*
X112049265Y-72679300D01*
X112105515Y-72763484D01*
X112142351Y-72788097D01*
X112185172Y-72836765D01*
X112198130Y-72900280D01*
X112177796Y-72961832D01*
X112129552Y-73005129D01*
X112047143Y-73047118D01*
X111956117Y-73138144D01*
X111897673Y-73252848D01*
X111882600Y-73348017D01*
X111882600Y-73880000D01*
X109291800Y-73880000D01*
X109291800Y-73722000D01*
X109308681Y-73659000D01*
X109354800Y-73612881D01*
X109417800Y-73596000D01*
X110823199Y-73596000D01*
X110823199Y-73429719D01*
X110820270Y-73392499D01*
X110774002Y-73233241D01*
X110689577Y-73090486D01*
X110572313Y-72973222D01*
X110429558Y-72888797D01*
X110270301Y-72842529D01*
X110262320Y-72841901D01*
X110202858Y-72821488D01*
X110160660Y-72774886D01*
X110146233Y-72713695D01*
X110163167Y-72653151D01*
X110207244Y-72608326D01*
X110336971Y-72530273D01*
X110471908Y-72402454D01*
X110576213Y-72248615D01*
X110645009Y-72075951D01*
X110675078Y-71892535D01*
X110665016Y-71706942D01*
X110615292Y-71527852D01*
X110528231Y-71363638D01*
X110528230Y-71363636D01*
X110407906Y-71221979D01*
X110259939Y-71109498D01*
X110186894Y-71075704D01*
X110133635Y-71029209D01*
X110113800Y-70961349D01*
X110113800Y-67510499D01*
X110130681Y-67447499D01*
X110176800Y-67401380D01*
X110239800Y-67384499D01*
X111032058Y-67384499D01*
X111062097Y-67381269D01*
X111092142Y-67378040D01*
X111228067Y-67327342D01*
X111344204Y-67240404D01*
X111431142Y-67124267D01*
X111481840Y-66988342D01*
X111488300Y-66928255D01*
X111488299Y-66656417D01*
X111502032Y-66599218D01*
X111540238Y-66554484D01*
X111594588Y-66531971D01*
X111653235Y-66536587D01*
X111703394Y-66567325D01*
X112157595Y-67021526D01*
X112184909Y-67062403D01*
X112194500Y-67110621D01*
X112194500Y-67527257D01*
X112200959Y-67587338D01*
X112200959Y-67587340D01*
X112200960Y-67587342D01*
X112251658Y-67723267D01*
X112338596Y-67839404D01*
X112338598Y-67839405D01*
X112349453Y-67853906D01*
X112347446Y-67855408D01*
X112363675Y-67874830D01*
X112377000Y-67931224D01*
X112377000Y-68399605D01*
X112364006Y-68455334D01*
X112327703Y-68499568D01*
X112275580Y-68523184D01*
X112189699Y-68540265D01*
X112105515Y-68596515D01*
X112049266Y-68680698D01*
X112034500Y-68754933D01*
X112034500Y-70305068D01*
X112049265Y-70379300D01*
X112105515Y-70463484D01*
X112161617Y-70500970D01*
X112189699Y-70519734D01*
X112263933Y-70534500D01*
X114314066Y-70534499D01*
X114382569Y-70520874D01*
X114442935Y-70523642D01*
X114474065Y-70541888D01*
X114466758Y-70500970D01*
X114487605Y-70440854D01*
X114528734Y-70379301D01*
X114543500Y-70305067D01*
X114543499Y-68754934D01*
X114543499Y-68754933D01*
X114543499Y-68754931D01*
X114528734Y-68680699D01*
X114472484Y-68596515D01*
X114388301Y-68540266D01*
X114388300Y-68540265D01*
X114314067Y-68525500D01*
X114314066Y-68525500D01*
X113647000Y-68525500D01*
X113584000Y-68508619D01*
X113537881Y-68462500D01*
X113521000Y-68399500D01*
X113521000Y-67931224D01*
X113534325Y-67874830D01*
X113550553Y-67855408D01*
X113548547Y-67853906D01*
X113559401Y-67839405D01*
X113559404Y-67839404D01*
X113646342Y-67723267D01*
X113697040Y-67587342D01*
X113697040Y-67587338D01*
X113702570Y-67572513D01*
X113704669Y-67573296D01*
X113721857Y-67530544D01*
X113776852Y-67489751D01*
X113845061Y-67483745D01*
X113906340Y-67514298D01*
X113942591Y-67572387D01*
X113991797Y-67741758D01*
X114076222Y-67884513D01*
X114193486Y-68001777D01*
X114336241Y-68086202D01*
X114495498Y-68132470D01*
X114532719Y-68135400D01*
X114599000Y-68135400D01*
X114599000Y-67254000D01*
X115099000Y-67254000D01*
X115099000Y-68135399D01*
X115165281Y-68135399D01*
X115202500Y-68132470D01*
X115361758Y-68086202D01*
X115504513Y-68001777D01*
X115621777Y-67884513D01*
X115706202Y-67741758D01*
X115752470Y-67582501D01*
X115755400Y-67545281D01*
X115755400Y-67527257D01*
X117274500Y-67527257D01*
X117280959Y-67587338D01*
X117280959Y-67587340D01*
X117280960Y-67587342D01*
X117309794Y-67664650D01*
X117331658Y-67723268D01*
X117418595Y-67839404D01*
X117534731Y-67926341D01*
X117534732Y-67926341D01*
X117534733Y-67926342D01*
X117599131Y-67950361D01*
X117644189Y-67979317D01*
X117653420Y-67988548D01*
X117659538Y-67995119D01*
X117692579Y-68033250D01*
X117696696Y-68035896D01*
X117717670Y-68052798D01*
X119043595Y-69378723D01*
X119070909Y-69419600D01*
X119080500Y-69467818D01*
X119080500Y-69549501D01*
X119063619Y-69612501D01*
X119017500Y-69658620D01*
X118954500Y-69675501D01*
X118563932Y-69675501D01*
X118489699Y-69690265D01*
X118405515Y-69746515D01*
X118349266Y-69830698D01*
X118349265Y-69830699D01*
X118349266Y-69830699D01*
X118334501Y-69904931D01*
X118334500Y-69904934D01*
X118334500Y-71161203D01*
X118314767Y-71228903D01*
X118261750Y-71275398D01*
X118192054Y-71286125D01*
X118075000Y-71270715D01*
X117930246Y-71289771D01*
X117795356Y-71345645D01*
X117679525Y-71434525D01*
X117590645Y-71550356D01*
X117534771Y-71685246D01*
X117515715Y-71830000D01*
X117534771Y-71974753D01*
X117590644Y-72109642D01*
X117590645Y-72109643D01*
X117679526Y-72225474D01*
X117795357Y-72314355D01*
X117930246Y-72370228D01*
X118075000Y-72389285D01*
X118158572Y-72378282D01*
X118192055Y-72373875D01*
X118261751Y-72384602D01*
X118314768Y-72431097D01*
X118334501Y-72498797D01*
X118334501Y-73755068D01*
X118349265Y-73829300D01*
X118405515Y-73913484D01*
X118461764Y-73951068D01*
X118489699Y-73969734D01*
X118563933Y-73984500D01*
X118954500Y-73984500D01*
X119017500Y-74001381D01*
X119063619Y-74047500D01*
X119080500Y-74110500D01*
X119080500Y-74199727D01*
X119070909Y-74247943D01*
X119064971Y-74262281D01*
X119058771Y-74277248D01*
X119039715Y-74422000D01*
X119058771Y-74566753D01*
X119114644Y-74701642D01*
X119114645Y-74701643D01*
X119203526Y-74817474D01*
X119319357Y-74906355D01*
X119454246Y-74962228D01*
X119599000Y-74981285D01*
X119743754Y-74962228D01*
X119878643Y-74906355D01*
X119994474Y-74817474D01*
X120083355Y-74701643D01*
X120139228Y-74566754D01*
X120158285Y-74422000D01*
X120139228Y-74277246D01*
X120107090Y-74199660D01*
X120097500Y-74151443D01*
X120097500Y-74110499D01*
X120114381Y-74047499D01*
X120160500Y-74001380D01*
X120223500Y-73984499D01*
X120614068Y-73984499D01*
X120663555Y-73974655D01*
X120688301Y-73969734D01*
X120772484Y-73913484D01*
X120828734Y-73829301D01*
X120843500Y-73755067D01*
X120843499Y-69904934D01*
X120843499Y-69904933D01*
X120843499Y-69904931D01*
X120828734Y-69830699D01*
X120772484Y-69746515D01*
X120688301Y-69690266D01*
X120688296Y-69690265D01*
X120614067Y-69675500D01*
X120614066Y-69675500D01*
X120223500Y-69675500D01*
X120160500Y-69658619D01*
X120114381Y-69612500D01*
X120097500Y-69549500D01*
X120097500Y-69485557D01*
X120107090Y-69437340D01*
X120139228Y-69359754D01*
X120158285Y-69215000D01*
X120139228Y-69070246D01*
X120083355Y-68935358D01*
X120083354Y-68935357D01*
X120083354Y-68935356D01*
X119994474Y-68819525D01*
X119878643Y-68730645D01*
X119825196Y-68708506D01*
X119784321Y-68681193D01*
X119443414Y-68340286D01*
X119410667Y-68283292D01*
X119411080Y-68217561D01*
X119444541Y-68160983D01*
X119501942Y-68128955D01*
X119567663Y-68130194D01*
X119575499Y-68132470D01*
X119612719Y-68135400D01*
X119679000Y-68135400D01*
X119679000Y-67254000D01*
X120179000Y-67254000D01*
X120179000Y-68135399D01*
X120245281Y-68135399D01*
X120282500Y-68132470D01*
X120441758Y-68086202D01*
X120584513Y-68001777D01*
X120701777Y-67884513D01*
X120786202Y-67741758D01*
X120832470Y-67582501D01*
X120835400Y-67545281D01*
X120835400Y-67254000D01*
X120179000Y-67254000D01*
X119679000Y-67254000D01*
X119679000Y-65872601D01*
X119612719Y-65872601D01*
X119575499Y-65875529D01*
X119416241Y-65921797D01*
X119273486Y-66006222D01*
X119156222Y-66123486D01*
X119071798Y-66266240D01*
X119022591Y-66435610D01*
X118986338Y-66493700D01*
X118925058Y-66524252D01*
X118856849Y-66518243D01*
X118801853Y-66477448D01*
X118784671Y-66434704D01*
X118782571Y-66435488D01*
X118726341Y-66284731D01*
X118639404Y-66168595D01*
X118523268Y-66081658D01*
X118387339Y-66030959D01*
X118327255Y-66024500D01*
X117730742Y-66024500D01*
X117670661Y-66030959D01*
X117534731Y-66081658D01*
X117418595Y-66168595D01*
X117331658Y-66284731D01*
X117280959Y-66420660D01*
X117274500Y-66480744D01*
X117274500Y-67527257D01*
X115755400Y-67527257D01*
X115755400Y-67254000D01*
X115099000Y-67254000D01*
X114599000Y-67254000D01*
X114599000Y-65872601D01*
X114532719Y-65872601D01*
X114495499Y-65875529D01*
X114336241Y-65921797D01*
X114193486Y-66006222D01*
X114076222Y-66123486D01*
X113991798Y-66266240D01*
X113942591Y-66435610D01*
X113906338Y-66493700D01*
X113845058Y-66524252D01*
X113776849Y-66518243D01*
X113721853Y-66477448D01*
X113704671Y-66434704D01*
X113702571Y-66435488D01*
X113646341Y-66284731D01*
X113559404Y-66168595D01*
X113443268Y-66081658D01*
X113307339Y-66030959D01*
X113247255Y-66024500D01*
X112830622Y-66024500D01*
X112782404Y-66014909D01*
X112741527Y-65987596D01*
X112626531Y-65872600D01*
X115099000Y-65872600D01*
X115099000Y-66754000D01*
X115755399Y-66754000D01*
X115755399Y-66462719D01*
X115752470Y-66425499D01*
X115706202Y-66266241D01*
X115621777Y-66123486D01*
X115504513Y-66006222D01*
X115361758Y-65921797D01*
X115202501Y-65875529D01*
X115165281Y-65872600D01*
X120179000Y-65872600D01*
X120179000Y-66754000D01*
X120835399Y-66754000D01*
X120835399Y-66462719D01*
X120832470Y-66425499D01*
X120786202Y-66266241D01*
X120701777Y-66123486D01*
X120584513Y-66006222D01*
X120441758Y-65921797D01*
X120282501Y-65875529D01*
X120245281Y-65872600D01*
X120179000Y-65872600D01*
X115165281Y-65872600D01*
X115099000Y-65872600D01*
X112626531Y-65872600D01*
X111861815Y-65107885D01*
X111850948Y-65095494D01*
X111832955Y-65072045D01*
X111713468Y-64980359D01*
X111713467Y-64980358D01*
X111566081Y-64919309D01*
X111525204Y-64891995D01*
X111497890Y-64851118D01*
X111488299Y-64802900D01*
X111488299Y-64031742D01*
X111481840Y-63971661D01*
X111481840Y-63971660D01*
X111481840Y-63971658D01*
X111431142Y-63835733D01*
X111431141Y-63835731D01*
X111344204Y-63719595D01*
X111228068Y-63632658D01*
X111092139Y-63581959D01*
X111032055Y-63575500D01*
X108935542Y-63575500D01*
X108875461Y-63581959D01*
X108739531Y-63632658D01*
X108623395Y-63719595D01*
X108536458Y-63835731D01*
X108485759Y-63971660D01*
X108479300Y-64031744D01*
X108479300Y-66928257D01*
X108485759Y-66988338D01*
X108536458Y-67124268D01*
X108623395Y-67240404D01*
X108739531Y-67327341D01*
X108739532Y-67327341D01*
X108739533Y-67327342D01*
X108875458Y-67378040D01*
X108875460Y-67378040D01*
X108887833Y-67382655D01*
X108930750Y-67409521D01*
X108959627Y-67451111D01*
X108969800Y-67500711D01*
X108969800Y-70956213D01*
X108953483Y-71018225D01*
X108908760Y-71064177D01*
X108905890Y-71065903D01*
X108905889Y-71065904D01*
X108833435Y-71109498D01*
X108746630Y-71161726D01*
X108611692Y-71289545D01*
X108524537Y-71418090D01*
X108486053Y-71454831D01*
X108435836Y-71472412D01*
X108404702Y-71476293D01*
X108404451Y-71476373D01*
X108350663Y-71505481D01*
X108346036Y-71507863D01*
X108291066Y-71534736D01*
X108290857Y-71534892D01*
X108249418Y-71579906D01*
X108245814Y-71583661D01*
X107556455Y-72273020D01*
X107536280Y-72289405D01*
X107527042Y-72295440D01*
X107507288Y-72320820D01*
X107496972Y-72332504D01*
X107496890Y-72332586D01*
X107484612Y-72349781D01*
X107481503Y-72353950D01*
X107443936Y-72402216D01*
X107443803Y-72402475D01*
X107426349Y-72461099D01*
X107424762Y-72466055D01*
X107404897Y-72523921D01*
X107404863Y-72524151D01*
X107407392Y-72585273D01*
X107407500Y-72590480D01*
X107407500Y-76906367D01*
X107404818Y-76932225D01*
X107402554Y-76943017D01*
X107406532Y-76974922D01*
X107407500Y-76990508D01*
X107407500Y-76990614D01*
X107410975Y-77011443D01*
X107411725Y-77016589D01*
X107419294Y-77077302D01*
X107419371Y-77077542D01*
X107423181Y-77084583D01*
X107423182Y-77084586D01*
X107448492Y-77131355D01*
X107450874Y-77135984D01*
X107477742Y-77190943D01*
X107477884Y-77191134D01*
X107483779Y-77196561D01*
X107483780Y-77196562D01*
X107522931Y-77232603D01*
X107526663Y-77236185D01*
X107708995Y-77418517D01*
X107736309Y-77459394D01*
X107745900Y-77507612D01*
X107745900Y-77900147D01*
X107748779Y-77930852D01*
X107794030Y-78060173D01*
X107844959Y-78129179D01*
X107869134Y-78193410D01*
X107856060Y-78260782D01*
X107809616Y-78311309D01*
X107743580Y-78330000D01*
X101465500Y-78330000D01*
X101402500Y-78313119D01*
X101356381Y-78267000D01*
X101339500Y-78204000D01*
X101339500Y-67202427D01*
X101356249Y-67139656D01*
X101402044Y-67093573D01*
X101464709Y-67076429D01*
X101527584Y-67092784D01*
X101573954Y-67138288D01*
X101661022Y-67285513D01*
X101778286Y-67402777D01*
X101921041Y-67487202D01*
X102080298Y-67533470D01*
X102117519Y-67536400D01*
X102933800Y-67536400D01*
X102933800Y-65730000D01*
X103433800Y-65730000D01*
X103433800Y-67536399D01*
X104250081Y-67536399D01*
X104287300Y-67533470D01*
X104446558Y-67487202D01*
X104589313Y-67402777D01*
X104706577Y-67285513D01*
X104791002Y-67142758D01*
X104837270Y-66983501D01*
X104840200Y-66946281D01*
X104840200Y-65730000D01*
X103433800Y-65730000D01*
X102933800Y-65730000D01*
X102933800Y-63423601D01*
X102117519Y-63423601D01*
X102080299Y-63426529D01*
X101921041Y-63472797D01*
X101778286Y-63557222D01*
X101661022Y-63674486D01*
X101573954Y-63821712D01*
X101527584Y-63867216D01*
X101464709Y-63883571D01*
X101402044Y-63866427D01*
X101356249Y-63820344D01*
X101339500Y-63757573D01*
X101339500Y-63423600D01*
X103433800Y-63423600D01*
X103433800Y-65230000D01*
X104840199Y-65230000D01*
X104840199Y-64013719D01*
X104837270Y-63976499D01*
X104791002Y-63817241D01*
X104706577Y-63674486D01*
X104589313Y-63557222D01*
X104446558Y-63472797D01*
X104287301Y-63426529D01*
X104250081Y-63423600D01*
X103433800Y-63423600D01*
X101339500Y-63423600D01*
X101339500Y-62006500D01*
X101356381Y-61943500D01*
X101402500Y-61897381D01*
X101465500Y-61880500D01*
X121112500Y-61880500D01*
X121175500Y-61897381D01*
G37*
%TD.AperFunction*%
%TD*%
M02*
