%TF.GenerationSoftware,KiCad,Pcbnew,7.0.1*%
%TF.CreationDate,2023-04-28T21:22:04+03:00*%
%TF.ProjectId,leanometer_esp32,6c65616e-6f6d-4657-9465-725f65737033,R1*%
%TF.SameCoordinates,Original*%
%TF.FileFunction,Copper,L1,Top*%
%TF.FilePolarity,Positive*%
%FSLAX46Y46*%
G04 Gerber Fmt 4.6, Leading zero omitted, Abs format (unit mm)*
G04 Created by KiCad (PCBNEW 7.0.1) date 2023-04-28 21:22:04*
%MOMM*%
%LPD*%
G01*
G04 APERTURE LIST*
G04 Aperture macros list*
%AMRoundRect*
0 Rectangle with rounded corners*
0 $1 Rounding radius*
0 $2 $3 $4 $5 $6 $7 $8 $9 X,Y pos of 4 corners*
0 Add a 4 corners polygon primitive as box body*
4,1,4,$2,$3,$4,$5,$6,$7,$8,$9,$2,$3,0*
0 Add four circle primitives for the rounded corners*
1,1,$1+$1,$2,$3*
1,1,$1+$1,$4,$5*
1,1,$1+$1,$6,$7*
1,1,$1+$1,$8,$9*
0 Add four rect primitives between the rounded corners*
20,1,$1+$1,$2,$3,$4,$5,0*
20,1,$1+$1,$4,$5,$6,$7,0*
20,1,$1+$1,$6,$7,$8,$9,0*
20,1,$1+$1,$8,$9,$2,$3,0*%
G04 Aperture macros list end*
%TA.AperFunction,SMDPad,CuDef*%
%ADD10RoundRect,0.150000X0.587500X0.150000X-0.587500X0.150000X-0.587500X-0.150000X0.587500X-0.150000X0*%
%TD*%
%TA.AperFunction,SMDPad,CuDef*%
%ADD11R,0.700000X1.200000*%
%TD*%
%TA.AperFunction,SMDPad,CuDef*%
%ADD12R,1.000000X0.800000*%
%TD*%
%TA.AperFunction,SMDPad,CuDef*%
%ADD13R,1.000000X1.200000*%
%TD*%
%TA.AperFunction,SMDPad,CuDef*%
%ADD14R,1.000000X2.800000*%
%TD*%
%TA.AperFunction,SMDPad,CuDef*%
%ADD15R,1.300000X1.900000*%
%TD*%
%TA.AperFunction,SMDPad,CuDef*%
%ADD16RoundRect,0.150000X-0.150000X0.825000X-0.150000X-0.825000X0.150000X-0.825000X0.150000X0.825000X0*%
%TD*%
%TA.AperFunction,ComponentPad*%
%ADD17C,1.524000*%
%TD*%
%TA.AperFunction,SMDPad,CuDef*%
%ADD18RoundRect,0.250000X0.475000X-0.250000X0.475000X0.250000X-0.475000X0.250000X-0.475000X-0.250000X0*%
%TD*%
%TA.AperFunction,SMDPad,CuDef*%
%ADD19R,1.800000X1.100000*%
%TD*%
%TA.AperFunction,SMDPad,CuDef*%
%ADD20RoundRect,0.225000X0.250000X-0.225000X0.250000X0.225000X-0.250000X0.225000X-0.250000X-0.225000X0*%
%TD*%
%TA.AperFunction,SMDPad,CuDef*%
%ADD21RoundRect,0.200000X-0.275000X0.200000X-0.275000X-0.200000X0.275000X-0.200000X0.275000X0.200000X0*%
%TD*%
%TA.AperFunction,SMDPad,CuDef*%
%ADD22RoundRect,0.075000X0.350000X0.075000X-0.350000X0.075000X-0.350000X-0.075000X0.350000X-0.075000X0*%
%TD*%
%TA.AperFunction,SMDPad,CuDef*%
%ADD23RoundRect,0.075000X-0.075000X0.350000X-0.075000X-0.350000X0.075000X-0.350000X0.075000X0.350000X0*%
%TD*%
%TA.AperFunction,ComponentPad*%
%ADD24R,1.700000X1.700000*%
%TD*%
%TA.AperFunction,ComponentPad*%
%ADD25O,1.700000X1.700000*%
%TD*%
%TA.AperFunction,SMDPad,CuDef*%
%ADD26RoundRect,0.200000X0.275000X-0.200000X0.275000X0.200000X-0.275000X0.200000X-0.275000X-0.200000X0*%
%TD*%
%TA.AperFunction,SMDPad,CuDef*%
%ADD27R,1.500000X0.900000*%
%TD*%
%TA.AperFunction,SMDPad,CuDef*%
%ADD28R,0.900000X1.500000*%
%TD*%
%TA.AperFunction,HeatsinkPad*%
%ADD29C,0.600000*%
%TD*%
%TA.AperFunction,SMDPad,CuDef*%
%ADD30R,0.900000X0.900000*%
%TD*%
%TA.AperFunction,HeatsinkPad*%
%ADD31C,3.200000*%
%TD*%
%TA.AperFunction,SMDPad,CuDef*%
%ADD32R,3.800000X3.800000*%
%TD*%
%TA.AperFunction,ComponentPad*%
%ADD33C,3.800000*%
%TD*%
%TA.AperFunction,SMDPad,CuDef*%
%ADD34RoundRect,0.225000X0.225000X0.250000X-0.225000X0.250000X-0.225000X-0.250000X0.225000X-0.250000X0*%
%TD*%
%TA.AperFunction,SMDPad,CuDef*%
%ADD35RoundRect,0.200000X-0.200000X-0.275000X0.200000X-0.275000X0.200000X0.275000X-0.200000X0.275000X0*%
%TD*%
%TA.AperFunction,SMDPad,CuDef*%
%ADD36RoundRect,0.225000X-0.225000X-0.250000X0.225000X-0.250000X0.225000X0.250000X-0.225000X0.250000X0*%
%TD*%
%TA.AperFunction,ComponentPad*%
%ADD37R,1.350000X1.350000*%
%TD*%
%TA.AperFunction,ComponentPad*%
%ADD38O,1.350000X1.350000*%
%TD*%
%TA.AperFunction,ComponentPad*%
%ADD39C,1.000000*%
%TD*%
%TA.AperFunction,SMDPad,CuDef*%
%ADD40RoundRect,0.225000X-0.250000X0.225000X-0.250000X-0.225000X0.250000X-0.225000X0.250000X0.225000X0*%
%TD*%
%TA.AperFunction,SMDPad,CuDef*%
%ADD41R,1.100000X1.800000*%
%TD*%
%TA.AperFunction,ComponentPad*%
%ADD42R,1.600000X1.600000*%
%TD*%
%TA.AperFunction,ComponentPad*%
%ADD43C,1.600000*%
%TD*%
%TA.AperFunction,ComponentPad*%
%ADD44C,1.500000*%
%TD*%
%TA.AperFunction,ComponentPad*%
%ADD45RoundRect,0.250000X0.625000X-0.350000X0.625000X0.350000X-0.625000X0.350000X-0.625000X-0.350000X0*%
%TD*%
%TA.AperFunction,ComponentPad*%
%ADD46O,1.750000X1.200000*%
%TD*%
%TA.AperFunction,ViaPad*%
%ADD47C,0.600000*%
%TD*%
%TA.AperFunction,ViaPad*%
%ADD48C,0.800000*%
%TD*%
%TA.AperFunction,Conductor*%
%ADD49C,0.254000*%
%TD*%
%TA.AperFunction,Conductor*%
%ADD50C,0.635000*%
%TD*%
%TA.AperFunction,Conductor*%
%ADD51C,0.508000*%
%TD*%
%TA.AperFunction,Conductor*%
%ADD52C,0.250000*%
%TD*%
%TA.AperFunction,Conductor*%
%ADD53C,0.406400*%
%TD*%
G04 APERTURE END LIST*
D10*
%TO.P,Q1,1,G*%
%TO.N,/DisplayBoard/DISP_BRIGHT*%
X180547500Y-101052000D03*
%TO.P,Q1,2,S*%
%TO.N,GND*%
X180547500Y-99152000D03*
%TO.P,Q1,3,D*%
%TO.N,/DisplayBoard/LED_CATH*%
X178672500Y-100102000D03*
%TD*%
D11*
%TO.P,J4,1,DAT2*%
%TO.N,/MainBoard/SD_D2*%
X114845000Y-101232000D03*
%TO.P,J4,2,DAT3/CD*%
%TO.N,/MainBoard/SD_SS*%
X113745000Y-101232000D03*
%TO.P,J4,3,CMD*%
%TO.N,/MainBoard/SD_MOSI*%
X112645000Y-101232000D03*
%TO.P,J4,4,VDD*%
%TO.N,+3V3*%
X111545000Y-101232000D03*
%TO.P,J4,5,CLK*%
%TO.N,/MainBoard/SD_SCK*%
X110445000Y-101232000D03*
%TO.P,J4,6,VSS*%
%TO.N,GND*%
X109345000Y-101232000D03*
%TO.P,J4,7,DAT0*%
%TO.N,/MainBoard/SD_MISO*%
X108245000Y-101232000D03*
%TO.P,J4,8,DAT1*%
%TO.N,/MainBoard/SD_D1*%
X107145000Y-101232000D03*
%TO.P,J4,9,DET_B*%
%TO.N,/MainBoard/SD_DET_B*%
X106195000Y-101232000D03*
D12*
%TO.P,J4,10,DET_A*%
%TO.N,GND*%
X105245000Y-111732000D03*
D13*
%TO.P,J4,11,SHIELD*%
X105245000Y-105532000D03*
D14*
X105245000Y-115882000D03*
D13*
X116395000Y-101232000D03*
D15*
X118745000Y-116332000D03*
%TD*%
D16*
%TO.P,U4,1,QB*%
%TO.N,Net-(U4-QB)*%
X186730500Y-104897000D03*
%TO.P,U4,2,QC*%
%TO.N,Net-(U4-QC)*%
X185460500Y-104897000D03*
%TO.P,U4,3,QD*%
%TO.N,Net-(U4-QD)*%
X184190500Y-104897000D03*
%TO.P,U4,4,QE*%
%TO.N,Net-(U4-QE)*%
X182920500Y-104897000D03*
%TO.P,U4,5,QF*%
%TO.N,Net-(U4-QF)*%
X181650500Y-104897000D03*
%TO.P,U4,6,QG*%
%TO.N,Net-(U4-QG)*%
X180380500Y-104897000D03*
%TO.P,U4,7,QH*%
%TO.N,Net-(U4-QH)*%
X179110500Y-104897000D03*
%TO.P,U4,8,GND*%
%TO.N,GND*%
X177840500Y-104897000D03*
%TO.P,U4,9,QH'*%
%TO.N,/DisplayBoard/SH_REG_OUT_1*%
X177840500Y-109847000D03*
%TO.P,U4,10,~{SRCLR}*%
%TO.N,+3V3*%
X179110500Y-109847000D03*
%TO.P,U4,11,SRCLK*%
%TO.N,/DisplayBoard/DISP_CLOCK*%
X180380500Y-109847000D03*
%TO.P,U4,12,RCLK*%
%TO.N,/DisplayBoard/DISP_LATCH*%
X181650500Y-109847000D03*
%TO.P,U4,13,~{OE}*%
%TO.N,GND*%
X182920500Y-109847000D03*
%TO.P,U4,14,SER*%
%TO.N,/DisplayBoard/DISP_DATA*%
X184190500Y-109847000D03*
%TO.P,U4,15,QA*%
%TO.N,Net-(U4-QA)*%
X185460500Y-109847000D03*
%TO.P,U4,16,VCC*%
%TO.N,+3V3*%
X186730500Y-109847000D03*
%TD*%
D17*
%TO.P,U8,1,VCC*%
%TO.N,+3V3*%
X126873000Y-96520000D03*
%TO.P,U8,2,GND*%
%TO.N,GND*%
X129413000Y-96520000D03*
%TO.P,U8,3,SCL*%
%TO.N,/MainBoard/I2C_SCL*%
X131953000Y-96520000D03*
%TO.P,U8,4,SDA*%
%TO.N,/MainBoard/I2C_SDA*%
X134493000Y-96520000D03*
%TO.P,U8,8,INT*%
%TO.N,/MainBoard/IMU_INT*%
X144653000Y-96520000D03*
%TD*%
D18*
%TO.P,C5,1*%
%TO.N,GND*%
X155017000Y-117981000D03*
%TO.P,C5,2*%
%TO.N,+3V3*%
X155017000Y-116081000D03*
%TD*%
D19*
%TO.P,SW2,1,1*%
%TO.N,/MainBoard/EN*%
X159437000Y-110435000D03*
X153237000Y-110435000D03*
%TO.P,SW2,2,2*%
%TO.N,GND*%
X159437000Y-106735000D03*
X153237000Y-106735000D03*
%TD*%
D20*
%TO.P,C17,1*%
%TO.N,GND*%
X152908000Y-90818000D03*
%TO.P,C17,2*%
%TO.N,Net-(U9-VDD)*%
X152908000Y-89268000D03*
%TD*%
D21*
%TO.P,R12,1*%
%TO.N,+3V3*%
X103378000Y-100775000D03*
%TO.P,R12,2*%
%TO.N,/MainBoard/SD_DET_B*%
X103378000Y-102425000D03*
%TD*%
D22*
%TO.P,U3,1,CLKIN*%
%TO.N,GND*%
X137713000Y-91420000D03*
%TO.P,U3,2,NC*%
%TO.N,unconnected-(U3-NC-Pad2)*%
X137713000Y-90920000D03*
%TO.P,U3,3,NC*%
%TO.N,unconnected-(U3-NC-Pad3)*%
X137713000Y-90420000D03*
%TO.P,U3,4,NC*%
%TO.N,unconnected-(U3-NC-Pad4)*%
X137713000Y-89920000D03*
%TO.P,U3,5,NC*%
%TO.N,unconnected-(U3-NC-Pad5)*%
X137713000Y-89420000D03*
%TO.P,U3,6,AUX_DA*%
%TO.N,unconnected-(U3-AUX_DA-Pad6)*%
X137713000Y-88920000D03*
D23*
%TO.P,U3,7,AUX_CL*%
%TO.N,unconnected-(U3-AUX_CL-Pad7)*%
X137013000Y-88220000D03*
%TO.P,U3,8,VLOGIC*%
%TO.N,+3V3*%
X136513000Y-88220000D03*
%TO.P,U3,9,AD0*%
%TO.N,GND*%
X136013000Y-88220000D03*
%TO.P,U3,10,REGOUT*%
%TO.N,Net-(U3-REGOUT)*%
X135513000Y-88220000D03*
%TO.P,U3,11,FSYNC*%
%TO.N,GND*%
X135013000Y-88220000D03*
%TO.P,U3,12,INT*%
%TO.N,/MainBoard/IMU_INT*%
X134513000Y-88220000D03*
D22*
%TO.P,U3,13,VDD*%
%TO.N,+3V3*%
X133813000Y-88920000D03*
%TO.P,U3,14,NC*%
%TO.N,unconnected-(U3-NC-Pad14)*%
X133813000Y-89420000D03*
%TO.P,U3,15,NC*%
%TO.N,unconnected-(U3-NC-Pad15)*%
X133813000Y-89920000D03*
%TO.P,U3,16,NC*%
%TO.N,unconnected-(U3-NC-Pad16)*%
X133813000Y-90420000D03*
%TO.P,U3,17,NC*%
%TO.N,unconnected-(U3-NC-Pad17)*%
X133813000Y-90920000D03*
%TO.P,U3,18,GND*%
%TO.N,GND*%
X133813000Y-91420000D03*
D23*
%TO.P,U3,19,RESV*%
%TO.N,unconnected-(U3-RESV-Pad19)*%
X134513000Y-92120000D03*
%TO.P,U3,20,CPOUT*%
%TO.N,Net-(U3-CPOUT)*%
X135013000Y-92120000D03*
%TO.P,U3,21,RESV*%
%TO.N,unconnected-(U3-RESV-Pad21)*%
X135513000Y-92120000D03*
%TO.P,U3,22,RESV*%
%TO.N,unconnected-(U3-RESV-Pad22)*%
X136013000Y-92120000D03*
%TO.P,U3,23,SCL*%
%TO.N,/MainBoard/I2C_SCL*%
X136513000Y-92120000D03*
%TO.P,U3,24,SDA*%
%TO.N,/MainBoard/I2C_SDA*%
X137013000Y-92120000D03*
%TD*%
D24*
%TO.P,J5,1,Pin_1*%
%TO.N,+3V3*%
X114024000Y-84005000D03*
D25*
%TO.P,J5,2,Pin_2*%
%TO.N,GND*%
X116564000Y-84005000D03*
%TO.P,J5,3,Pin_3*%
%TO.N,/MainBoard/ADC_VBAT*%
X119104000Y-84005000D03*
%TD*%
D26*
%TO.P,R4,1*%
%TO.N,+3V3*%
X155017000Y-114046000D03*
%TO.P,R4,2*%
%TO.N,/MainBoard/EN*%
X155017000Y-112396000D03*
%TD*%
D24*
%TO.P,J1,1,Pin_1*%
%TO.N,/DisplayBoard/ADC_LDR*%
X162846000Y-96490000D03*
D25*
%TO.P,J1,2,Pin_2*%
%TO.N,/DisplayBoard/DISP_BRIGHT*%
X162846000Y-99030000D03*
%TO.P,J1,3,Pin_3*%
%TO.N,/DisplayBoard/DISP_LATCH*%
X162846000Y-101570000D03*
%TO.P,J1,4,Pin_4*%
%TO.N,/DisplayBoard/DISP_CLOCK*%
X162846000Y-104110000D03*
%TO.P,J1,5,Pin_5*%
%TO.N,/DisplayBoard/DISP_DATA*%
X162846000Y-106650000D03*
%TO.P,J1,6,Pin_6*%
%TO.N,GND*%
X162846000Y-109190000D03*
%TO.P,J1,7,Pin_7*%
%TO.N,+3V3*%
X162846000Y-111730000D03*
%TD*%
D27*
%TO.P,U2,1,GND*%
%TO.N,GND*%
X149366000Y-117699000D03*
%TO.P,U2,2,VDD*%
%TO.N,+3V3*%
X149366000Y-116429000D03*
%TO.P,U2,3,EN*%
%TO.N,/MainBoard/EN*%
X149366000Y-115159000D03*
%TO.P,U2,4,SENSOR_VP*%
%TO.N,unconnected-(U2-SENSOR_VP-Pad4)*%
X149366000Y-113889000D03*
%TO.P,U2,5,SENSOR_VN*%
%TO.N,unconnected-(U2-SENSOR_VN-Pad5)*%
X149366000Y-112619000D03*
%TO.P,U2,6,IO34*%
%TO.N,unconnected-(U2-IO34-Pad6)*%
X149366000Y-111349000D03*
%TO.P,U2,7,IO35*%
%TO.N,unconnected-(U2-IO35-Pad7)*%
X149366000Y-110079000D03*
%TO.P,U2,8,IO32*%
%TO.N,/DisplayBoard/ADC_LDR*%
X149366000Y-108809000D03*
%TO.P,U2,9,IO33*%
%TO.N,/MainBoard/ADC_VBAT*%
X149366000Y-107539000D03*
%TO.P,U2,10,IO25*%
%TO.N,/DisplayBoard/DISP_DATA*%
X149366000Y-106269000D03*
%TO.P,U2,11,IO26*%
%TO.N,/DisplayBoard/DISP_CLOCK*%
X149366000Y-104999000D03*
%TO.P,U2,12,IO27*%
%TO.N,/DisplayBoard/DISP_LATCH*%
X149366000Y-103729000D03*
%TO.P,U2,13,IO14*%
%TO.N,unconnected-(U2-IO14-Pad13)*%
X149366000Y-102459000D03*
%TO.P,U2,14,IO12*%
%TO.N,unconnected-(U2-IO12-Pad14)*%
X149366000Y-101189000D03*
D28*
%TO.P,U2,15,GND*%
%TO.N,GND*%
X146326000Y-99939000D03*
%TO.P,U2,16,IO13*%
%TO.N,/DisplayBoard/DISP_BRIGHT*%
X145056000Y-99939000D03*
%TO.P,U2,17,SHD/SD2*%
%TO.N,unconnected-(U2-SHD{slash}SD2-Pad17)*%
X143786000Y-99939000D03*
%TO.P,U2,18,SWP/SD3*%
%TO.N,unconnected-(U2-SWP{slash}SD3-Pad18)*%
X142516000Y-99939000D03*
%TO.P,U2,19,SCS/CMD*%
%TO.N,unconnected-(U2-SCS{slash}CMD-Pad19)*%
X141246000Y-99939000D03*
%TO.P,U2,20,SCK/CLK*%
%TO.N,unconnected-(U2-SCK{slash}CLK-Pad20)*%
X139976000Y-99939000D03*
%TO.P,U2,21,SDO/SD0*%
%TO.N,unconnected-(U2-SDO{slash}SD0-Pad21)*%
X138706000Y-99939000D03*
%TO.P,U2,22,SDI/SD1*%
%TO.N,unconnected-(U2-SDI{slash}SD1-Pad22)*%
X137436000Y-99939000D03*
%TO.P,U2,23,IO15*%
%TO.N,unconnected-(U2-IO15-Pad23)*%
X136166000Y-99939000D03*
%TO.P,U2,24,IO2*%
%TO.N,unconnected-(U2-IO2-Pad24)*%
X134896000Y-99939000D03*
D27*
%TO.P,U2,25,IO0*%
%TO.N,/MainBoard/IO0*%
X131866000Y-101189000D03*
%TO.P,U2,26,IO4*%
%TO.N,/MainBoard/IMU_INT*%
X131866000Y-102459000D03*
%TO.P,U2,27,IO16*%
%TO.N,/MainBoard/BUT*%
X131866000Y-103729000D03*
%TO.P,U2,28,IO17*%
%TO.N,/MainBoard/SD_DET_B*%
X131866000Y-104999000D03*
%TO.P,U2,29,IO5*%
%TO.N,/MainBoard/SD_SS*%
X131866000Y-106269000D03*
%TO.P,U2,30,IO18*%
%TO.N,/MainBoard/SD_SCK*%
X131866000Y-107539000D03*
%TO.P,U2,31,IO19*%
%TO.N,/MainBoard/SD_MISO*%
X131866000Y-108809000D03*
%TO.P,U2,32,NC*%
%TO.N,unconnected-(U2-NC-Pad32)*%
X131866000Y-110079000D03*
%TO.P,U2,33,IO21*%
%TO.N,/MainBoard/I2C_SDA*%
X131866000Y-111349000D03*
%TO.P,U2,34,RXD0/IO3*%
%TO.N,/MainBoard/RX*%
X131866000Y-112619000D03*
%TO.P,U2,35,TXD0/IO1*%
%TO.N,/MainBoard/TX*%
X131866000Y-113889000D03*
%TO.P,U2,36,IO22*%
%TO.N,/MainBoard/I2C_SCL*%
X131866000Y-115159000D03*
%TO.P,U2,37,IO23*%
%TO.N,/MainBoard/SD_MOSI*%
X131866000Y-116429000D03*
%TO.P,U2,38,GND*%
%TO.N,GND*%
X131866000Y-117699000D03*
D29*
%TO.P,U2,39,GND*%
X144172000Y-110679000D03*
X144172000Y-109279000D03*
D30*
X143516000Y-111379000D03*
X143516000Y-109979000D03*
X143516000Y-108579000D03*
D29*
X142816000Y-111989000D03*
X142816000Y-107925000D03*
D31*
X142141000Y-109979000D03*
D30*
X142116000Y-111379000D03*
X142116000Y-109979000D03*
D32*
X142116000Y-109979000D03*
D30*
X142116000Y-108579000D03*
D29*
X141416000Y-111989000D03*
X141416000Y-107925000D03*
D30*
X140716000Y-111379000D03*
X140716000Y-109979000D03*
X140716000Y-108579000D03*
D29*
X140108000Y-110679000D03*
X140108000Y-109279000D03*
%TD*%
D24*
%TO.P,J7,1,Pin_1*%
%TO.N,+3V3*%
X114039000Y-78830000D03*
D25*
%TO.P,J7,2,Pin_2*%
%TO.N,GND*%
X116579000Y-78830000D03*
%TO.P,J7,3,Pin_3*%
%TO.N,/MainBoard/ADC_VBAT*%
X119119000Y-78830000D03*
%TD*%
D33*
%TO.P,H1,1,1*%
%TO.N,GND*%
X104394000Y-87757000D03*
%TD*%
D21*
%TO.P,R14,1*%
%TO.N,+3V3*%
X106258000Y-95103000D03*
%TO.P,R14,2*%
%TO.N,/MainBoard/SD_D1*%
X106258000Y-96753000D03*
%TD*%
D34*
%TO.P,C14,1*%
%TO.N,+3V3*%
X186870500Y-98746000D03*
%TO.P,C14,2*%
%TO.N,GND*%
X185320500Y-98746000D03*
%TD*%
D20*
%TO.P,C3,1*%
%TO.N,/MainBoard/EN*%
X152731000Y-113996000D03*
%TO.P,C3,2*%
%TO.N,GND*%
X152731000Y-112446000D03*
%TD*%
D24*
%TO.P,J6,1,Pin_1*%
%TO.N,/DisplayBoard/ADC_LDR*%
X168823500Y-96455000D03*
D25*
%TO.P,J6,2,Pin_2*%
%TO.N,/DisplayBoard/DISP_BRIGHT*%
X168823500Y-98995000D03*
%TO.P,J6,3,Pin_3*%
%TO.N,/DisplayBoard/DISP_LATCH*%
X168823500Y-101535000D03*
%TO.P,J6,4,Pin_4*%
%TO.N,/DisplayBoard/DISP_CLOCK*%
X168823500Y-104075000D03*
%TO.P,J6,5,Pin_5*%
%TO.N,/DisplayBoard/DISP_DATA*%
X168823500Y-106615000D03*
%TO.P,J6,6,Pin_6*%
%TO.N,GND*%
X168823500Y-109155000D03*
%TO.P,J6,7,Pin_7*%
%TO.N,+3V3*%
X168823500Y-111695000D03*
%TD*%
D20*
%TO.P,C11,1*%
%TO.N,GND*%
X103378000Y-105550000D03*
%TO.P,C11,2*%
%TO.N,/MainBoard/SD_DET_B*%
X103378000Y-104000000D03*
%TD*%
D35*
%TO.P,R16,1*%
%TO.N,/DisplayBoard/ADC_LDR*%
X168506500Y-90364000D03*
%TO.P,R16,2*%
%TO.N,GND*%
X170156500Y-90364000D03*
%TD*%
D18*
%TO.P,C7,1*%
%TO.N,+3V3*%
X111592000Y-96878000D03*
%TO.P,C7,2*%
%TO.N,GND*%
X111592000Y-94978000D03*
%TD*%
D36*
%TO.P,C9,1*%
%TO.N,+3V3*%
X137147000Y-85090000D03*
%TO.P,C9,2*%
%TO.N,GND*%
X138697000Y-85090000D03*
%TD*%
%TO.P,C12,1*%
%TO.N,GND*%
X133210000Y-85090000D03*
%TO.P,C12,2*%
%TO.N,Net-(U3-REGOUT)*%
X134760000Y-85090000D03*
%TD*%
D37*
%TO.P,J2,1,Pin_1*%
%TO.N,+3V3*%
X121714000Y-110998000D03*
D38*
%TO.P,J2,2,Pin_2*%
%TO.N,GND*%
X123714000Y-110998000D03*
%TO.P,J2,3,Pin_3*%
%TO.N,/MainBoard/TX*%
X125714000Y-110998000D03*
%TO.P,J2,4,Pin_4*%
%TO.N,/MainBoard/RX*%
X127714000Y-110998000D03*
%TD*%
D34*
%TO.P,C15,1*%
%TO.N,+3V3*%
X186870500Y-112452000D03*
%TO.P,C15,2*%
%TO.N,GND*%
X185320500Y-112452000D03*
%TD*%
D16*
%TO.P,U5,1,QB*%
%TO.N,Net-(U5-QB)*%
X186730500Y-91191000D03*
%TO.P,U5,2,QC*%
%TO.N,Net-(U5-QC)*%
X185460500Y-91191000D03*
%TO.P,U5,3,QD*%
%TO.N,Net-(U5-QD)*%
X184190500Y-91191000D03*
%TO.P,U5,4,QE*%
%TO.N,Net-(U5-QE)*%
X182920500Y-91191000D03*
%TO.P,U5,5,QF*%
%TO.N,Net-(U5-QF)*%
X181650500Y-91191000D03*
%TO.P,U5,6,QG*%
%TO.N,Net-(U5-QG)*%
X180380500Y-91191000D03*
%TO.P,U5,7,QH*%
%TO.N,Net-(U5-QH)*%
X179110500Y-91191000D03*
%TO.P,U5,8,GND*%
%TO.N,GND*%
X177840500Y-91191000D03*
%TO.P,U5,9,QH'*%
%TO.N,unconnected-(U5-QH'-Pad9)*%
X177840500Y-96141000D03*
%TO.P,U5,10,~{SRCLR}*%
%TO.N,+3V3*%
X179110500Y-96141000D03*
%TO.P,U5,11,SRCLK*%
%TO.N,/DisplayBoard/DISP_CLOCK*%
X180380500Y-96141000D03*
%TO.P,U5,12,RCLK*%
%TO.N,/DisplayBoard/DISP_LATCH*%
X181650500Y-96141000D03*
%TO.P,U5,13,~{OE}*%
%TO.N,GND*%
X182920500Y-96141000D03*
%TO.P,U5,14,SER*%
%TO.N,/DisplayBoard/SH_REG_OUT_1*%
X184190500Y-96141000D03*
%TO.P,U5,15,QA*%
%TO.N,Net-(U5-QA)*%
X185460500Y-96141000D03*
%TO.P,U5,16,VCC*%
%TO.N,+3V3*%
X186730500Y-96141000D03*
%TD*%
D39*
%TO.P,Y1,1,1*%
%TO.N,Net-(U9-OSCO)*%
X160650000Y-82700000D03*
%TO.P,Y1,2,2*%
%TO.N,Net-(U9-OSCI)*%
X162550000Y-82700000D03*
%TD*%
D40*
%TO.P,C8,1*%
%TO.N,GND*%
X109814000Y-95153000D03*
%TO.P,C8,2*%
%TO.N,+3V3*%
X109814000Y-96703000D03*
%TD*%
D21*
%TO.P,R10,1*%
%TO.N,+3V3*%
X115402000Y-95103000D03*
%TO.P,R10,2*%
%TO.N,/MainBoard/SD_SS*%
X115402000Y-96753000D03*
%TD*%
%TO.P,R13,1*%
%TO.N,+3V3*%
X107782000Y-95103000D03*
%TO.P,R13,2*%
%TO.N,/MainBoard/SD_MISO*%
X107782000Y-96753000D03*
%TD*%
D36*
%TO.P,C13,1*%
%TO.N,GND*%
X129527000Y-92583000D03*
%TO.P,C13,2*%
%TO.N,Net-(U3-CPOUT)*%
X131077000Y-92583000D03*
%TD*%
D19*
%TO.P,SW3,1,1*%
%TO.N,/MainBoard/BUT*%
X154230000Y-97144000D03*
X148030000Y-97144000D03*
%TO.P,SW3,2,2*%
%TO.N,GND*%
X154230000Y-93444000D03*
X148030000Y-93444000D03*
%TD*%
D16*
%TO.P,U9,1,OSCI*%
%TO.N,Net-(U9-OSCI)*%
X151130000Y-84266000D03*
%TO.P,U9,2,OSCO*%
%TO.N,Net-(U9-OSCO)*%
X149860000Y-84266000D03*
%TO.P,U9,3,VBAT*%
%TO.N,Net-(BT1-+)*%
X148590000Y-84266000D03*
%TO.P,U9,4,VSS*%
%TO.N,GND*%
X147320000Y-84266000D03*
%TO.P,U9,5,SDA*%
%TO.N,/MainBoard/I2C_SDA*%
X147320000Y-89216000D03*
%TO.P,U9,6,SCL*%
%TO.N,/MainBoard/I2C_SCL*%
X148590000Y-89216000D03*
%TO.P,U9,7,~{INT1}/CLKOUT*%
%TO.N,unconnected-(U9-~{INT1}{slash}CLKOUT-Pad7)*%
X149860000Y-89216000D03*
%TO.P,U9,8,VDD*%
%TO.N,Net-(U9-VDD)*%
X151130000Y-89216000D03*
%TD*%
D20*
%TO.P,C10,1*%
%TO.N,GND*%
X131019000Y-90457000D03*
%TO.P,C10,2*%
%TO.N,+3V3*%
X131019000Y-88907000D03*
%TD*%
D40*
%TO.P,C6,1*%
%TO.N,+3V3*%
X152731000Y-116256000D03*
%TO.P,C6,2*%
%TO.N,GND*%
X152731000Y-117806000D03*
%TD*%
D41*
%TO.P,SW1,1,1*%
%TO.N,/MainBoard/IO0*%
X123905500Y-90181500D03*
X123905500Y-96381500D03*
%TO.P,SW1,2,2*%
%TO.N,GND*%
X120205500Y-90181500D03*
X120205500Y-96381500D03*
%TD*%
D26*
%TO.P,R33,1*%
%TO.N,+3V3*%
X154686000Y-90868000D03*
%TO.P,R33,2*%
%TO.N,Net-(U9-VDD)*%
X154686000Y-89218000D03*
%TD*%
D33*
%TO.P,H2,1,1*%
%TO.N,GND*%
X160020000Y-116205000D03*
%TD*%
D21*
%TO.P,R11,1*%
%TO.N,+3V3*%
X113878000Y-95103000D03*
%TO.P,R11,2*%
%TO.N,/MainBoard/SD_MOSI*%
X113878000Y-96753000D03*
%TD*%
%TO.P,R9,1*%
%TO.N,+3V3*%
X116926000Y-95103000D03*
%TO.P,R9,2*%
%TO.N,/MainBoard/SD_D2*%
X116926000Y-96753000D03*
%TD*%
D42*
%TO.P,U6,1,E*%
%TO.N,Net-(U6-E)*%
X174612000Y-112462000D03*
D43*
%TO.P,U6,2,D*%
%TO.N,Net-(U6-D)*%
X174612000Y-109922000D03*
%TO.P,U6,3,CC*%
%TO.N,/DisplayBoard/LED_CATH*%
X174612000Y-107382000D03*
%TO.P,U6,4,C*%
%TO.N,Net-(U6-C)*%
X174612000Y-104842000D03*
%TO.P,U6,5,DP*%
%TO.N,Net-(U6-DP)*%
X174612000Y-102302000D03*
%TO.P,U6,6,B*%
%TO.N,Net-(U6-B)*%
X189852000Y-102302000D03*
%TO.P,U6,7,A*%
%TO.N,Net-(U6-A)*%
X189852000Y-104842000D03*
%TO.P,U6,8,CC*%
%TO.N,/DisplayBoard/LED_CATH*%
X189852000Y-107382000D03*
%TO.P,U6,9,F*%
%TO.N,Net-(U6-F)*%
X189852000Y-109922000D03*
%TO.P,U6,10,G*%
%TO.N,Net-(U6-G)*%
X189852000Y-112462000D03*
%TD*%
D42*
%TO.P,U7,1,E*%
%TO.N,Net-(U7-E)*%
X174612000Y-98758000D03*
D43*
%TO.P,U7,2,D*%
%TO.N,Net-(U7-D)*%
X174612000Y-96218000D03*
%TO.P,U7,3,CC*%
%TO.N,/DisplayBoard/LED_CATH*%
X174612000Y-93678000D03*
%TO.P,U7,4,C*%
%TO.N,Net-(U7-C)*%
X174612000Y-91138000D03*
%TO.P,U7,5,DP*%
%TO.N,Net-(U7-DP)*%
X174612000Y-88598000D03*
%TO.P,U7,6,B*%
%TO.N,Net-(U7-B)*%
X189852000Y-88598000D03*
%TO.P,U7,7,A*%
%TO.N,Net-(U7-A)*%
X189852000Y-91138000D03*
%TO.P,U7,8,CC*%
%TO.N,/DisplayBoard/LED_CATH*%
X189852000Y-93678000D03*
%TO.P,U7,9,F*%
%TO.N,Net-(U7-F)*%
X189852000Y-96218000D03*
%TO.P,U7,10,G*%
%TO.N,Net-(U7-G)*%
X189852000Y-98758000D03*
%TD*%
D44*
%TO.P,R15,1*%
%TO.N,+3V3*%
X169331500Y-88664000D03*
%TO.P,R15,2*%
%TO.N,/DisplayBoard/ADC_LDR*%
X169331500Y-92064000D03*
%TD*%
D45*
%TO.P,J3,1,Pin_1*%
%TO.N,GND*%
X109541800Y-73846000D03*
D46*
%TO.P,J3,2,Pin_2*%
%TO.N,+BATT*%
X109541800Y-71846000D03*
%TD*%
D47*
%TO.N,GND*%
X109347000Y-100076000D03*
X171101000Y-89434000D03*
X120078500Y-94805500D03*
X120361000Y-68453000D03*
X129540000Y-91440000D03*
X133118000Y-117592000D03*
X177832000Y-106325000D03*
X113249000Y-75692000D03*
X116043000Y-67056000D03*
X106772000Y-77470000D03*
X177832000Y-92609000D03*
X146326000Y-101463000D03*
X136142700Y-86761000D03*
D48*
X151511000Y-91059000D03*
D47*
X111633000Y-74168000D03*
X148104000Y-117592000D03*
X132842000Y-92583000D03*
X110546000Y-93844000D03*
X138639000Y-91948000D03*
X103216000Y-67818000D03*
X105121000Y-64897000D03*
X183420000Y-112548000D03*
X105121000Y-66040000D03*
X114900000Y-65532000D03*
X183547000Y-98832000D03*
X134883300Y-86761000D03*
X120361000Y-65532000D03*
X154813000Y-106807000D03*
X115027000Y-74168000D03*
X103216000Y-63119000D03*
%TO.N,/MainBoard/ADC_VBAT*%
X147955000Y-107315000D03*
%TO.N,/MainBoard/EN*%
X155067000Y-110435000D03*
%TO.N,+3V3*%
X179102000Y-108357000D03*
X119599000Y-74422000D03*
X179102000Y-94641000D03*
X117983000Y-95123000D03*
X120205500Y-92138500D03*
X186722000Y-94514000D03*
X118075000Y-71830000D03*
X157480000Y-106744000D03*
X111545000Y-98806000D03*
X157700000Y-94200000D03*
X186722000Y-108230000D03*
X151200000Y-99900000D03*
X119599000Y-69215000D03*
X104267000Y-99441000D03*
X105156000Y-95123000D03*
X114900000Y-71120000D03*
X114900000Y-72517000D03*
X137115000Y-86507000D03*
X132035000Y-88920000D03*
D48*
X153797000Y-116078000D03*
D47*
%TO.N,/MainBoard/SD_DET_B*%
X104938618Y-101232000D03*
X118237000Y-101473000D03*
%TO.N,/DisplayBoard/ADC_LDR*%
X151130000Y-108458000D03*
%TO.N,/DisplayBoard/DISP_DATA*%
X183550200Y-111659000D03*
%TO.N,/DisplayBoard/DISP_LATCH*%
X176689000Y-106579000D03*
%TO.N,/DisplayBoard/DISP_BRIGHT*%
X176562000Y-100864000D03*
%TO.N,/MainBoard/SD_MOSI*%
X112649000Y-102616000D03*
X129667000Y-116459000D03*
%TO.N,/MainBoard/I2C_SCL*%
X136900000Y-97300000D03*
X129921000Y-114681000D03*
%TO.N,/DisplayBoard/LED_CATH*%
X173006000Y-100102000D03*
X177324000Y-100102000D03*
X175292000Y-100102000D03*
%TO.N,/MainBoard/IO0*%
X123888500Y-94678500D03*
%TO.N,/MainBoard/BUT*%
X149860000Y-97096700D03*
X146431000Y-97282000D03*
X130175000Y-103505000D03*
%TO.N,/MainBoard/IMU_INT*%
X132842000Y-98425000D03*
X133940000Y-87142000D03*
%TO.N,/DisplayBoard/SH_REG_OUT_1*%
X183550200Y-97943000D03*
X181642000Y-97943000D03*
%TO.N,Net-(U5-QA)*%
X185452000Y-94133000D03*
%TO.N,Net-(U5-QB)*%
X184436000Y-87656000D03*
%TO.N,Net-(U5-QC)*%
X181007000Y-89561000D03*
%TO.N,Net-(U5-QD)*%
X184182000Y-92609000D03*
%TO.N,Net-(U5-QE)*%
X182888416Y-93342116D03*
%TO.N,Net-(U5-QF)*%
X184055000Y-94006000D03*
%TO.N,Net-(U5-QG)*%
X183547000Y-94641000D03*
%TO.N,Net-(U5-QH)*%
X180245000Y-87783000D03*
%TO.N,Net-(U4-QH)*%
X180118000Y-102769000D03*
%TO.N,Net-(U4-QG)*%
X183547000Y-108357000D03*
%TO.N,Net-(U4-QF)*%
X184055000Y-107722000D03*
%TO.N,Net-(U4-QE)*%
X182880766Y-107055766D03*
%TO.N,Net-(U4-QD)*%
X184182000Y-106325000D03*
%TO.N,Net-(U4-QC)*%
X181007000Y-103277000D03*
%TO.N,Net-(U4-QB)*%
X184182000Y-102261000D03*
%TO.N,Net-(U4-QA)*%
X185452000Y-107849000D03*
%TO.N,Net-(BT1-+)*%
X145700000Y-82500000D03*
%TD*%
D49*
%TO.N,GND*%
X170156500Y-90364000D02*
X170171000Y-90364000D01*
X183420000Y-112548000D02*
X183516000Y-112452000D01*
X132842000Y-92583000D02*
X132842000Y-91821000D01*
X135013000Y-86890700D02*
X134883300Y-86761000D01*
X148211000Y-117699000D02*
X148104000Y-117592000D01*
X183633000Y-98746000D02*
X185320500Y-98746000D01*
X135013000Y-88220000D02*
X135013000Y-86890700D01*
X183516000Y-112452000D02*
X185320500Y-112452000D01*
X131866000Y-117699000D02*
X133011000Y-117699000D01*
X136013000Y-88220000D02*
X136013000Y-86890700D01*
X149366000Y-117699000D02*
X148211000Y-117699000D01*
X177840500Y-91191000D02*
X177840500Y-92600500D01*
X177840500Y-104897000D02*
X177840500Y-106316500D01*
X136013000Y-86890700D02*
X136142700Y-86761000D01*
X183420000Y-112548000D02*
X182920500Y-112048500D01*
X138111000Y-91420000D02*
X137713000Y-91420000D01*
X183547000Y-98832000D02*
X183633000Y-98746000D01*
X183547000Y-98832000D02*
X182920500Y-98205500D01*
X182920500Y-112048500D02*
X182920500Y-109847000D01*
X138639000Y-91948000D02*
X138111000Y-91420000D01*
D50*
X116564000Y-84005000D02*
X116564000Y-78845000D01*
D49*
X180547500Y-99152000D02*
X183227000Y-99152000D01*
X183227000Y-99152000D02*
X183547000Y-98832000D01*
X146326000Y-99939000D02*
X146326000Y-101463000D01*
X177840500Y-106316500D02*
X177832000Y-106325000D01*
X170171000Y-90364000D02*
X171101000Y-89434000D01*
X132842000Y-91821000D02*
X133243000Y-91420000D01*
X177840500Y-92600500D02*
X177832000Y-92609000D01*
X133011000Y-117699000D02*
X133118000Y-117592000D01*
D51*
X162846000Y-109190000D02*
X168788500Y-109190000D01*
D49*
X182920500Y-98205500D02*
X182920500Y-96141000D01*
X133243000Y-91420000D02*
X133813000Y-91420000D01*
%TO.N,/MainBoard/ADC_VBAT*%
X119104000Y-84005000D02*
X119104000Y-78845000D01*
X149366000Y-107539000D02*
X148179000Y-107539000D01*
X148179000Y-107539000D02*
X147955000Y-107315000D01*
%TO.N,/MainBoard/EN*%
X152731000Y-113996000D02*
X153417000Y-113996000D01*
X155017000Y-110485000D02*
X155067000Y-110435000D01*
X153417000Y-113996000D02*
X155017000Y-112396000D01*
X155067000Y-110435000D02*
X159437000Y-110435000D01*
X151568000Y-115159000D02*
X152731000Y-113996000D01*
X155017000Y-112396000D02*
X155017000Y-110485000D01*
X153237000Y-110435000D02*
X155067000Y-110435000D01*
X149366000Y-115159000D02*
X151568000Y-115159000D01*
%TO.N,+3V3*%
X106258000Y-95103000D02*
X107782000Y-95103000D01*
X137115000Y-85122000D02*
X137147000Y-85090000D01*
D51*
X111592000Y-96878000D02*
X109989000Y-96878000D01*
D49*
X132035000Y-88920000D02*
X131032000Y-88920000D01*
D51*
X152731000Y-116256000D02*
X152558000Y-116429000D01*
D49*
X105176000Y-95103000D02*
X105156000Y-95123000D01*
D51*
X111545000Y-96925000D02*
X111592000Y-96878000D01*
D49*
X155017000Y-114046000D02*
X155017000Y-116081000D01*
X106258000Y-95103000D02*
X105176000Y-95103000D01*
D52*
X154686000Y-90868000D02*
X154686000Y-91186000D01*
D49*
X116926000Y-95103000D02*
X117963000Y-95103000D01*
X117963000Y-95103000D02*
X117983000Y-95123000D01*
D51*
X109989000Y-96878000D02*
X109814000Y-96703000D01*
X155017000Y-116081000D02*
X153800000Y-116081000D01*
D49*
X103378000Y-100775000D02*
X103378000Y-100330000D01*
X133813000Y-88920000D02*
X132035000Y-88920000D01*
X179110500Y-108365500D02*
X179102000Y-108357000D01*
D53*
X186730500Y-98606000D02*
X186730500Y-96141000D01*
D49*
X179110500Y-96141000D02*
X179110500Y-94649500D01*
D53*
X186730500Y-112312000D02*
X186730500Y-109847000D01*
D51*
X162846000Y-111730000D02*
X168788500Y-111730000D01*
D53*
X111545000Y-101232000D02*
X111545000Y-96925000D01*
D51*
X153797000Y-116078000D02*
X153794000Y-116081000D01*
D49*
X137115000Y-87119961D02*
X137115000Y-86507000D01*
X137115000Y-86507000D02*
X137115000Y-85122000D01*
D53*
X186870500Y-112452000D02*
X186730500Y-112312000D01*
D51*
X152906000Y-116081000D02*
X152731000Y-116256000D01*
D53*
X186730500Y-109847000D02*
X186730500Y-108238500D01*
D51*
X153800000Y-116081000D02*
X153797000Y-116078000D01*
D53*
X186870500Y-98746000D02*
X186730500Y-98606000D01*
D49*
X131032000Y-88920000D02*
X131019000Y-88907000D01*
X179110500Y-94649500D02*
X179102000Y-94641000D01*
X116926000Y-95103000D02*
X115402000Y-95103000D01*
D53*
X186730500Y-108238500D02*
X186722000Y-108230000D01*
D51*
X153794000Y-116081000D02*
X152906000Y-116081000D01*
D52*
X154686000Y-91186000D02*
X157700000Y-94200000D01*
D49*
X136513000Y-87721961D02*
X137115000Y-87119961D01*
D50*
X114024000Y-84005000D02*
X114024000Y-78845000D01*
D49*
X103378000Y-100330000D02*
X104267000Y-99441000D01*
D53*
X186730500Y-94522500D02*
X186722000Y-94514000D01*
D49*
X115402000Y-95103000D02*
X113878000Y-95103000D01*
X179110500Y-109847000D02*
X179110500Y-108365500D01*
D53*
X186730500Y-96141000D02*
X186730500Y-94522500D01*
D49*
X136513000Y-88220000D02*
X136513000Y-87721961D01*
D51*
X152558000Y-116429000D02*
X149366000Y-116429000D01*
D49*
%TO.N,/MainBoard/SD_DET_B*%
X103378000Y-104000000D02*
X103378000Y-102425000D01*
X103378000Y-102425000D02*
X103745618Y-102425000D01*
X103745618Y-102425000D02*
X104938618Y-101232000D01*
X104938618Y-101232000D02*
X106195000Y-101232000D01*
X131866000Y-104999000D02*
X121763000Y-104999000D01*
X121763000Y-104999000D02*
X118237000Y-101473000D01*
%TO.N,Net-(U3-REGOUT)*%
X134760000Y-85090000D02*
X135513000Y-85843000D01*
X135513000Y-85843000D02*
X135513000Y-88220000D01*
%TO.N,Net-(U3-CPOUT)*%
X131839000Y-93345000D02*
X134493000Y-93345000D01*
X131077000Y-92583000D02*
X131839000Y-93345000D01*
X135013000Y-92825000D02*
X135013000Y-92120000D01*
X134493000Y-93345000D02*
X135013000Y-92825000D01*
%TO.N,/DisplayBoard/ADC_LDR*%
X149366000Y-108809000D02*
X150779000Y-108809000D01*
X169331500Y-95947000D02*
X168823500Y-96455000D01*
X168506500Y-91239000D02*
X169331500Y-92064000D01*
X162846000Y-96490000D02*
X168788500Y-96490000D01*
X168506500Y-90364000D02*
X168506500Y-91239000D01*
X169331500Y-92064000D02*
X169331500Y-95947000D01*
X150779000Y-108809000D02*
X151130000Y-108458000D01*
%TO.N,/DisplayBoard/DISP_DATA*%
X151186000Y-105453000D02*
X161649000Y-105453000D01*
X184190500Y-111018700D02*
X183550200Y-111659000D01*
X149366000Y-106269000D02*
X150370000Y-106269000D01*
X150370000Y-106269000D02*
X151186000Y-105453000D01*
X184190500Y-109847000D02*
X184190500Y-111018700D01*
X162846000Y-106650000D02*
X168788500Y-106650000D01*
X161649000Y-105453000D02*
X162846000Y-106650000D01*
%TO.N,/DisplayBoard/DISP_CLOCK*%
X179864000Y-111405000D02*
X176308000Y-111405000D01*
X172244000Y-109627000D02*
X172244000Y-107495500D01*
X176811200Y-94010800D02*
X175927000Y-94895000D01*
X180380500Y-110888500D02*
X179864000Y-111405000D01*
X173768000Y-111151000D02*
X172244000Y-109627000D01*
X175927000Y-94895000D02*
X174022000Y-94895000D01*
X174022000Y-94895000D02*
X172117000Y-96800000D01*
X161957000Y-104999000D02*
X162846000Y-104110000D01*
X179363038Y-94010800D02*
X176811200Y-94010800D01*
X180380500Y-96141000D02*
X180380500Y-95028262D01*
X162846000Y-104110000D02*
X168788500Y-104110000D01*
X180380500Y-95028262D02*
X179363038Y-94010800D01*
X149366000Y-104999000D02*
X161957000Y-104999000D01*
X176308000Y-111405000D02*
X176054000Y-111151000D01*
X180380500Y-109847000D02*
X180380500Y-110888500D01*
X172244000Y-107495500D02*
X168823500Y-104075000D01*
X172117000Y-100781500D02*
X168823500Y-104075000D01*
X176054000Y-111151000D02*
X173768000Y-111151000D01*
X172117000Y-96800000D02*
X172117000Y-100781500D01*
%TO.N,/DisplayBoard/DISP_LATCH*%
X181650500Y-109847000D02*
X181650500Y-108746500D01*
X179991000Y-107087000D02*
X177197000Y-107087000D01*
X149366000Y-103729000D02*
X160687000Y-103729000D01*
X171482000Y-94514000D02*
X171482000Y-98876500D01*
X173514000Y-92482000D02*
X171482000Y-94514000D01*
X171482000Y-98876500D02*
X168823500Y-101535000D01*
X181650500Y-96141000D02*
X181650500Y-95651684D01*
X181650500Y-108746500D02*
X179991000Y-107087000D01*
X179552416Y-93553600D02*
X176998600Y-93553600D01*
X160687000Y-103729000D02*
X162846000Y-101570000D01*
X181650500Y-95651684D02*
X179552416Y-93553600D01*
X176998600Y-93553600D02*
X175927000Y-92482000D01*
X175927000Y-92482000D02*
X173514000Y-92482000D01*
X177197000Y-107087000D02*
X176689000Y-106579000D01*
X162846000Y-101570000D02*
X168788500Y-101570000D01*
%TO.N,/DisplayBoard/DISP_BRIGHT*%
X180547500Y-101052000D02*
X176750000Y-101052000D01*
X145439000Y-98552000D02*
X162368000Y-98552000D01*
X162368000Y-98552000D02*
X162846000Y-99030000D01*
X176750000Y-101052000D02*
X176562000Y-100864000D01*
X145056000Y-99939000D02*
X145056000Y-98935000D01*
X162846000Y-99030000D02*
X168788500Y-99030000D01*
X145056000Y-98935000D02*
X145439000Y-98552000D01*
%TO.N,/MainBoard/RX*%
X131866000Y-112619000D02*
X129335000Y-112619000D01*
X129335000Y-112619000D02*
X127714000Y-110998000D01*
%TO.N,/MainBoard/TX*%
X131866000Y-113889000D02*
X128605000Y-113889000D01*
X128605000Y-113889000D02*
X125714000Y-110998000D01*
%TO.N,/MainBoard/SD_D2*%
X114845000Y-101232000D02*
X114845000Y-98834000D01*
X114845000Y-98834000D02*
X116926000Y-96753000D01*
%TO.N,/MainBoard/SD_SS*%
X114681000Y-103124000D02*
X119126000Y-103124000D01*
X113745000Y-98410000D02*
X115402000Y-96753000D01*
X113745000Y-101232000D02*
X113745000Y-98410000D01*
X113745000Y-102188000D02*
X114681000Y-103124000D01*
X119126000Y-103124000D02*
X122271000Y-106269000D01*
X113745000Y-101232000D02*
X113745000Y-102188000D01*
X122271000Y-106269000D02*
X131866000Y-106269000D01*
%TO.N,/MainBoard/SD_MOSI*%
X112645000Y-101232000D02*
X112645000Y-97986000D01*
X112645000Y-101232000D02*
X112645000Y-102612000D01*
X131836000Y-116459000D02*
X131866000Y-116429000D01*
X112645000Y-97986000D02*
X113878000Y-96753000D01*
X112645000Y-102612000D02*
X112649000Y-102616000D01*
X129667000Y-116459000D02*
X131836000Y-116459000D01*
%TO.N,/MainBoard/SD_SCK*%
X122898948Y-107539000D02*
X118937948Y-103578000D01*
X131866000Y-107539000D02*
X122898948Y-107539000D01*
X110445000Y-102190000D02*
X110445000Y-101232000D01*
X111833000Y-103578000D02*
X110445000Y-102190000D01*
X118937948Y-103578000D02*
X111833000Y-103578000D01*
%TO.N,/MainBoard/SD_MISO*%
X118749896Y-104032000D02*
X110191000Y-104032000D01*
X131866000Y-108809000D02*
X123526896Y-108809000D01*
X108245000Y-101232000D02*
X108245000Y-97216000D01*
X110191000Y-104032000D02*
X108245000Y-102086000D01*
X108245000Y-102086000D02*
X108245000Y-101232000D01*
X108245000Y-97216000D02*
X107782000Y-96753000D01*
X123526896Y-108809000D02*
X118749896Y-104032000D01*
%TO.N,/MainBoard/SD_D1*%
X107145000Y-101232000D02*
X107145000Y-97640000D01*
X107145000Y-97640000D02*
X106258000Y-96753000D01*
D52*
%TO.N,/MainBoard/I2C_SCL*%
X148590000Y-89216000D02*
X148590000Y-90210000D01*
D49*
X129921000Y-114681000D02*
X130399000Y-115159000D01*
D52*
X148590000Y-90210000D02*
X147800000Y-91000000D01*
D49*
X134747000Y-94869000D02*
X133985000Y-94869000D01*
X136513000Y-92120000D02*
X136513000Y-93103000D01*
D52*
X147800000Y-91000000D02*
X145700000Y-91000000D01*
D49*
X132334000Y-96520000D02*
X131953000Y-96520000D01*
X136513000Y-93103000D02*
X134747000Y-94869000D01*
X133985000Y-94869000D02*
X132334000Y-96520000D01*
X130399000Y-115159000D02*
X131866000Y-115159000D01*
D52*
X143200000Y-91000000D02*
X136900000Y-97300000D01*
X145700000Y-91000000D02*
X143200000Y-91000000D01*
%TO.N,/MainBoard/I2C_SDA*%
X147320000Y-89216000D02*
X143584000Y-89216000D01*
X138800000Y-94000000D02*
X138006000Y-94000000D01*
X143584000Y-89216000D02*
X138800000Y-94000000D01*
D49*
X131866000Y-111349000D02*
X132870000Y-111349000D01*
X133858000Y-110361000D02*
X133858000Y-98298000D01*
X137013000Y-92120000D02*
X137013000Y-94000000D01*
X137013000Y-94000000D02*
X134493000Y-96520000D01*
X132870000Y-111349000D02*
X133858000Y-110361000D01*
X134493000Y-97663000D02*
X134493000Y-96520000D01*
X133858000Y-98298000D02*
X134493000Y-97663000D01*
X138006000Y-94000000D02*
X137013000Y-94000000D01*
D51*
%TO.N,/DisplayBoard/LED_CATH*%
X191380000Y-95206000D02*
X191380000Y-100102000D01*
X177324000Y-100102000D02*
X178672500Y-100102000D01*
X173006000Y-100102000D02*
X175292000Y-100102000D01*
X191380000Y-105854000D02*
X191380000Y-100524000D01*
X189852000Y-93678000D02*
X191380000Y-95206000D01*
X189852000Y-107382000D02*
X191380000Y-105854000D01*
X178672500Y-100102000D02*
X191380000Y-100102000D01*
X173006000Y-105776000D02*
X174612000Y-107382000D01*
X191380000Y-100102000D02*
X191380000Y-100524000D01*
X173006000Y-100102000D02*
X173006000Y-105776000D01*
D49*
%TO.N,/MainBoard/IO0*%
X131866000Y-101189000D02*
X128713000Y-101189000D01*
X128713000Y-101189000D02*
X123905500Y-96381500D01*
X123905500Y-96381500D02*
X123905500Y-94695500D01*
X123905500Y-94695500D02*
X123888500Y-94678500D01*
X123905500Y-90181500D02*
X123905500Y-94661500D01*
X123905500Y-94661500D02*
X123888500Y-94678500D01*
%TO.N,/MainBoard/BUT*%
X149907300Y-97144000D02*
X149860000Y-97096700D01*
X154230000Y-97144000D02*
X149907300Y-97144000D01*
X130399000Y-103729000D02*
X130175000Y-103505000D01*
X149812700Y-97144000D02*
X149860000Y-97096700D01*
X131866000Y-103729000D02*
X130399000Y-103729000D01*
X148030000Y-97144000D02*
X149812700Y-97144000D01*
X146431000Y-97282000D02*
X147892000Y-97282000D01*
X147892000Y-97282000D02*
X148030000Y-97144000D01*
%TO.N,/MainBoard/IMU_INT*%
X133404000Y-98987000D02*
X132842000Y-98425000D01*
X134513000Y-87715000D02*
X133940000Y-87142000D01*
X131866000Y-102459000D02*
X132870000Y-102459000D01*
X134513000Y-88220000D02*
X134513000Y-87715000D01*
X133404000Y-101925000D02*
X133404000Y-99568000D01*
X133404000Y-99568000D02*
X133404000Y-98987000D01*
X132870000Y-102459000D02*
X133404000Y-101925000D01*
%TO.N,/DisplayBoard/SH_REG_OUT_1*%
X181642000Y-97943000D02*
X177578000Y-97943000D01*
X177578000Y-97943000D02*
X175927000Y-99594000D01*
X184190500Y-96141000D02*
X184190500Y-97302700D01*
X184190500Y-97302700D02*
X183550200Y-97943000D01*
X175927000Y-99594000D02*
X175927000Y-107933500D01*
X175927000Y-107933500D02*
X177840500Y-109847000D01*
%TO.N,Net-(U5-QA)*%
X185460500Y-94141500D02*
X185460500Y-96141000D01*
X185452000Y-94133000D02*
X185460500Y-94141500D01*
%TO.N,Net-(U5-QB)*%
X186730500Y-89950500D02*
X184436000Y-87656000D01*
X186730500Y-91191000D02*
X186730500Y-89950500D01*
%TO.N,Net-(U5-QC)*%
X185198000Y-89561000D02*
X181007000Y-89561000D01*
X185460500Y-89823500D02*
X185198000Y-89561000D01*
X185460500Y-91191000D02*
X185460500Y-89823500D01*
%TO.N,Net-(U5-QD)*%
X184190500Y-92600500D02*
X184182000Y-92609000D01*
X184190500Y-91191000D02*
X184190500Y-92600500D01*
%TO.N,Net-(U5-QE)*%
X182920500Y-93310032D02*
X182888416Y-93342116D01*
X182920500Y-91191000D02*
X182920500Y-93310032D01*
%TO.N,Net-(U5-QF)*%
X182661062Y-94006000D02*
X184055000Y-94006000D01*
X181650500Y-91191000D02*
X181650500Y-92995438D01*
X181650500Y-92995438D02*
X182661062Y-94006000D01*
%TO.N,Net-(U5-QG)*%
X180380500Y-92998500D02*
X182023000Y-94641000D01*
X182023000Y-94641000D02*
X183547000Y-94641000D01*
X180380500Y-91191000D02*
X180380500Y-92998500D01*
%TO.N,Net-(U5-QH)*%
X179110500Y-88917500D02*
X180245000Y-87783000D01*
X179110500Y-91191000D02*
X179110500Y-88917500D01*
%TO.N,Net-(U4-QH)*%
X179110500Y-103776500D02*
X180118000Y-102769000D01*
X179110500Y-104897000D02*
X179110500Y-103776500D01*
%TO.N,Net-(U4-QG)*%
X183547000Y-108357000D02*
X182023000Y-108357000D01*
X182023000Y-108357000D02*
X180380500Y-106714500D01*
X180380500Y-106714500D02*
X180380500Y-104897000D01*
%TO.N,Net-(U4-QF)*%
X181650500Y-104897000D02*
X181650500Y-106906705D01*
X182465795Y-107722000D02*
X184055000Y-107722000D01*
X181650500Y-106906705D02*
X182465795Y-107722000D01*
%TO.N,Net-(U4-QE)*%
X182920500Y-107016032D02*
X182880766Y-107055766D01*
X182920500Y-104897000D02*
X182920500Y-107016032D01*
%TO.N,Net-(U4-QD)*%
X184190500Y-104897000D02*
X184190500Y-106316500D01*
X184190500Y-106316500D02*
X184182000Y-106325000D01*
%TO.N,Net-(U4-QC)*%
X185460500Y-103889473D02*
X184896013Y-103324986D01*
X185460500Y-104897000D02*
X185460500Y-103889473D01*
X184896013Y-103324986D02*
X184848027Y-103277000D01*
X184848027Y-103277000D02*
X181007000Y-103277000D01*
%TO.N,Net-(U4-QB)*%
X186730500Y-104512895D02*
X184478605Y-102261000D01*
X186730500Y-104897000D02*
X186730500Y-104512895D01*
X184478605Y-102261000D02*
X184182000Y-102261000D01*
%TO.N,Net-(U4-QA)*%
X185460500Y-109847000D02*
X185460500Y-107857500D01*
X185460500Y-107857500D02*
X185452000Y-107849000D01*
D52*
%TO.N,Net-(BT1-+)*%
X148000000Y-82500000D02*
X148590000Y-83090000D01*
X145700000Y-82500000D02*
X148000000Y-82500000D01*
X148590000Y-83090000D02*
X148590000Y-84266000D01*
%TO.N,Net-(U9-VDD)*%
X152958000Y-89218000D02*
X152908000Y-89268000D01*
X152908000Y-89268000D02*
X151182000Y-89268000D01*
X154686000Y-89218000D02*
X152958000Y-89218000D01*
X151182000Y-89268000D02*
X151130000Y-89216000D01*
%TO.N,Net-(U9-OSCI)*%
X162550000Y-82700000D02*
X160984000Y-84266000D01*
X160984000Y-84266000D02*
X151130000Y-84266000D01*
%TO.N,Net-(U9-OSCO)*%
X149860000Y-83040000D02*
X149860000Y-84266000D01*
X160650000Y-82700000D02*
X150200000Y-82700000D01*
X150200000Y-82700000D02*
X149860000Y-83040000D01*
%TD*%
%TA.AperFunction,Conductor*%
%TO.N,GND*%
G36*
X165498500Y-81647381D02*
G01*
X165544619Y-81693500D01*
X165561500Y-81756500D01*
X165561500Y-85980000D01*
X165544619Y-86043000D01*
X165498500Y-86089119D01*
X165435500Y-86106000D01*
X162306000Y-86106000D01*
X162306000Y-95259501D01*
X162289119Y-95322501D01*
X162243000Y-95368620D01*
X162180000Y-95385500D01*
X161970934Y-95385501D01*
X161970932Y-95385501D01*
X161896699Y-95400265D01*
X161812515Y-95456515D01*
X161756266Y-95540698D01*
X161741500Y-95614933D01*
X161741500Y-97365068D01*
X161756265Y-97439300D01*
X161812515Y-97523484D01*
X161868764Y-97561068D01*
X161896699Y-97579734D01*
X161970933Y-97594500D01*
X161970933Y-97594499D01*
X161970934Y-97594500D01*
X162180000Y-97594500D01*
X162243000Y-97611381D01*
X162289119Y-97657500D01*
X162306000Y-97720500D01*
X162306000Y-97995093D01*
X162290076Y-98056406D01*
X162246332Y-98102217D01*
X162177538Y-98144814D01*
X162177536Y-98144815D01*
X162167611Y-98150961D01*
X162166578Y-98149292D01*
X162146052Y-98161997D01*
X162100549Y-98170500D01*
X155290322Y-98170500D01*
X155228756Y-98154435D01*
X155182889Y-98110335D01*
X155164419Y-98049447D01*
X155178055Y-97987298D01*
X155220320Y-97939735D01*
X155313484Y-97877484D01*
X155325645Y-97859284D01*
X155369734Y-97793301D01*
X155384500Y-97719067D01*
X155384499Y-96568934D01*
X155384499Y-96568933D01*
X155384499Y-96568931D01*
X155369734Y-96494699D01*
X155313484Y-96410515D01*
X155226796Y-96352592D01*
X155179297Y-96331072D01*
X155142994Y-96286838D01*
X155130000Y-96231109D01*
X155130000Y-94513080D01*
X155143733Y-94455877D01*
X155181939Y-94411144D01*
X155236289Y-94388631D01*
X155257151Y-94385326D01*
X155371855Y-94326882D01*
X155462882Y-94235855D01*
X155521326Y-94121151D01*
X155536400Y-94025983D01*
X155536400Y-93694000D01*
X152923601Y-93694000D01*
X152923601Y-93868000D01*
X152906720Y-93931000D01*
X152860601Y-93977119D01*
X152797601Y-93994000D01*
X152130000Y-93994000D01*
X152130000Y-96636500D01*
X152113119Y-96699500D01*
X152067000Y-96745619D01*
X152004000Y-96762500D01*
X150364628Y-96762500D01*
X150308900Y-96749506D01*
X150264665Y-96713204D01*
X150255472Y-96701223D01*
X150179296Y-96642771D01*
X150142994Y-96598537D01*
X150130000Y-96542809D01*
X150130000Y-93994000D01*
X149462400Y-93994000D01*
X149399400Y-93977119D01*
X149353281Y-93931000D01*
X149336400Y-93868000D01*
X149336400Y-93694000D01*
X146723601Y-93694000D01*
X146723601Y-94025983D01*
X146738673Y-94121151D01*
X146797117Y-94235855D01*
X146888144Y-94326882D01*
X147002848Y-94385326D01*
X147023711Y-94388631D01*
X147078061Y-94411144D01*
X147116267Y-94455877D01*
X147130000Y-94513080D01*
X147130000Y-96231108D01*
X147117006Y-96286837D01*
X147080703Y-96331071D01*
X147033204Y-96352591D01*
X146946515Y-96410515D01*
X146890266Y-96494698D01*
X146885233Y-96520000D01*
X146875501Y-96568931D01*
X146875500Y-96568934D01*
X146875500Y-96677358D01*
X146860622Y-96736754D01*
X146819502Y-96782123D01*
X146761850Y-96802751D01*
X146701282Y-96793767D01*
X146575753Y-96741771D01*
X146431000Y-96722715D01*
X146286246Y-96741771D01*
X146151356Y-96797645D01*
X146035525Y-96886525D01*
X145946645Y-97002356D01*
X145890771Y-97137246D01*
X145871715Y-97282000D01*
X145890771Y-97426753D01*
X145946644Y-97561642D01*
X145946645Y-97561643D01*
X146035526Y-97677474D01*
X146151357Y-97766355D01*
X146286246Y-97822228D01*
X146431000Y-97841285D01*
X146575754Y-97822228D01*
X146710643Y-97766355D01*
X146710752Y-97766271D01*
X146713818Y-97765040D01*
X146725969Y-97760007D01*
X146726023Y-97760139D01*
X146773737Y-97740981D01*
X146840706Y-97752036D01*
X146892223Y-97796230D01*
X146946515Y-97877484D01*
X147039680Y-97939735D01*
X147081945Y-97987298D01*
X147095581Y-98049447D01*
X147077111Y-98110335D01*
X147031244Y-98154435D01*
X146969678Y-98170500D01*
X145491634Y-98170500D01*
X145465776Y-98167818D01*
X145454983Y-98165554D01*
X145423079Y-98169532D01*
X145407493Y-98170500D01*
X145407385Y-98170500D01*
X145386543Y-98173977D01*
X145381396Y-98174727D01*
X145320702Y-98182293D01*
X145320451Y-98182373D01*
X145266663Y-98211481D01*
X145262036Y-98213863D01*
X145207066Y-98240736D01*
X145206857Y-98240892D01*
X145165418Y-98285906D01*
X145161814Y-98289661D01*
X144823455Y-98628020D01*
X144803280Y-98644405D01*
X144794042Y-98650440D01*
X144774288Y-98675820D01*
X144763972Y-98687504D01*
X144763890Y-98687586D01*
X144751612Y-98704781D01*
X144748503Y-98708950D01*
X144710936Y-98757216D01*
X144710803Y-98757475D01*
X144693349Y-98816099D01*
X144691761Y-98821055D01*
X144681611Y-98850622D01*
X144645352Y-98904586D01*
X144587018Y-98933290D01*
X144506697Y-98949265D01*
X144490999Y-98959755D01*
X144445579Y-98978568D01*
X144396417Y-98978568D01*
X144350997Y-98959754D01*
X144344057Y-98955117D01*
X144335301Y-98949266D01*
X144261066Y-98934500D01*
X143310931Y-98934500D01*
X143236697Y-98949265D01*
X143220999Y-98959755D01*
X143175579Y-98978568D01*
X143126417Y-98978568D01*
X143080997Y-98959754D01*
X143074057Y-98955117D01*
X143065301Y-98949266D01*
X142991066Y-98934500D01*
X142040931Y-98934500D01*
X141966697Y-98949265D01*
X141950999Y-98959755D01*
X141905579Y-98978568D01*
X141856417Y-98978568D01*
X141810997Y-98959754D01*
X141804057Y-98955117D01*
X141795301Y-98949266D01*
X141721066Y-98934500D01*
X140770931Y-98934500D01*
X140696697Y-98949265D01*
X140680999Y-98959755D01*
X140635579Y-98978568D01*
X140586417Y-98978568D01*
X140540997Y-98959754D01*
X140534057Y-98955117D01*
X140525301Y-98949266D01*
X140451066Y-98934500D01*
X139500931Y-98934500D01*
X139426697Y-98949265D01*
X139410999Y-98959755D01*
X139365579Y-98978568D01*
X139316417Y-98978568D01*
X139270997Y-98959754D01*
X139264057Y-98955117D01*
X139255301Y-98949266D01*
X139181066Y-98934500D01*
X138230931Y-98934500D01*
X138156697Y-98949265D01*
X138140999Y-98959755D01*
X138095579Y-98978568D01*
X138046417Y-98978568D01*
X138000997Y-98959754D01*
X137994057Y-98955117D01*
X137985301Y-98949266D01*
X137911066Y-98934500D01*
X136960931Y-98934500D01*
X136886697Y-98949265D01*
X136870999Y-98959755D01*
X136825579Y-98978568D01*
X136776417Y-98978568D01*
X136730997Y-98959754D01*
X136724057Y-98955117D01*
X136715301Y-98949266D01*
X136641066Y-98934500D01*
X135690931Y-98934500D01*
X135616697Y-98949265D01*
X135600999Y-98959755D01*
X135555579Y-98978568D01*
X135506417Y-98978568D01*
X135460997Y-98959754D01*
X135454057Y-98955117D01*
X135445301Y-98949266D01*
X135371066Y-98934500D01*
X134420935Y-98934500D01*
X134390078Y-98940638D01*
X134334882Y-98939281D01*
X134285565Y-98914456D01*
X134251597Y-98870929D01*
X134239500Y-98817058D01*
X134239500Y-98508212D01*
X134249091Y-98459994D01*
X134276401Y-98419120D01*
X134725549Y-97969972D01*
X134745715Y-97953596D01*
X134754956Y-97947560D01*
X134774713Y-97922174D01*
X134785038Y-97910484D01*
X134785114Y-97910409D01*
X134797397Y-97893203D01*
X134800498Y-97889045D01*
X134803825Y-97884771D01*
X134833158Y-97847085D01*
X134833158Y-97847082D01*
X134838091Y-97840746D01*
X134838181Y-97840572D01*
X134840473Y-97832871D01*
X134840475Y-97832869D01*
X134855664Y-97781845D01*
X134857212Y-97777016D01*
X134874500Y-97726661D01*
X134874500Y-97726656D01*
X134877102Y-97719077D01*
X134877136Y-97718848D01*
X134876303Y-97698715D01*
X134874607Y-97657715D01*
X134874500Y-97652510D01*
X134874500Y-97544202D01*
X134892426Y-97479425D01*
X134941104Y-97433080D01*
X135060469Y-97369278D01*
X135215252Y-97242252D01*
X135342278Y-97087469D01*
X135436667Y-96910880D01*
X135494792Y-96719269D01*
X135514418Y-96520000D01*
X135501221Y-96386011D01*
X135494792Y-96320730D01*
X135455502Y-96191210D01*
X135453852Y-96124019D01*
X135486978Y-96065542D01*
X137134119Y-94418402D01*
X137174994Y-94391091D01*
X137223212Y-94381500D01*
X138037608Y-94381500D01*
X138037611Y-94381500D01*
X138039297Y-94381218D01*
X138060035Y-94379500D01*
X138747574Y-94379500D01*
X138773431Y-94382181D01*
X138784100Y-94384419D01*
X138815796Y-94380468D01*
X138831382Y-94379500D01*
X138831440Y-94379500D01*
X138831443Y-94379500D01*
X138852194Y-94376036D01*
X138857243Y-94375300D01*
X138909783Y-94368752D01*
X138909788Y-94368749D01*
X138917782Y-94367753D01*
X138917842Y-94367734D01*
X138924926Y-94363900D01*
X138924927Y-94363900D01*
X138971412Y-94338742D01*
X138976021Y-94336369D01*
X138984215Y-94332363D01*
X139053068Y-94320289D01*
X139117762Y-94346774D01*
X139158383Y-94403666D01*
X139162426Y-94473455D01*
X139128647Y-94534657D01*
X136956259Y-96707045D01*
X136922892Y-96730956D01*
X136883611Y-96742872D01*
X136755246Y-96759771D01*
X136620356Y-96815645D01*
X136504525Y-96904525D01*
X136415645Y-97020356D01*
X136359771Y-97155246D01*
X136340715Y-97300000D01*
X136359771Y-97444753D01*
X136415644Y-97579642D01*
X136427045Y-97594500D01*
X136504526Y-97695474D01*
X136620357Y-97784355D01*
X136755246Y-97840228D01*
X136900000Y-97859285D01*
X137044754Y-97840228D01*
X137179643Y-97784355D01*
X137295474Y-97695474D01*
X137384355Y-97579643D01*
X137440228Y-97444754D01*
X137446851Y-97394444D01*
X137457128Y-97316386D01*
X137469044Y-97277104D01*
X137492952Y-97243740D01*
X138216692Y-96520000D01*
X143631581Y-96520000D01*
X143651207Y-96719269D01*
X143709332Y-96910878D01*
X143709333Y-96910880D01*
X143803722Y-97087469D01*
X143831295Y-97121067D01*
X143930747Y-97242252D01*
X143995306Y-97295233D01*
X144085531Y-97369278D01*
X144262120Y-97463667D01*
X144343666Y-97488404D01*
X144453730Y-97521792D01*
X144653000Y-97541418D01*
X144852269Y-97521792D01*
X145043880Y-97463667D01*
X145220469Y-97369278D01*
X145375252Y-97242252D01*
X145502278Y-97087469D01*
X145596667Y-96910880D01*
X145654792Y-96719269D01*
X145674418Y-96520000D01*
X145656515Y-96338227D01*
X145654792Y-96320730D01*
X145601979Y-96146631D01*
X145596667Y-96129120D01*
X145502278Y-95952531D01*
X145421088Y-95853600D01*
X145375252Y-95797747D01*
X145267561Y-95709369D01*
X145220469Y-95670722D01*
X145043880Y-95576333D01*
X145043879Y-95576332D01*
X145043878Y-95576332D01*
X144852269Y-95518207D01*
X144653000Y-95498581D01*
X144453730Y-95518207D01*
X144262121Y-95576332D01*
X144085532Y-95670721D01*
X143930747Y-95797747D01*
X143803721Y-95952532D01*
X143709332Y-96129121D01*
X143651207Y-96320730D01*
X143631581Y-96520000D01*
X138216692Y-96520000D01*
X141542693Y-93194000D01*
X146723600Y-93194000D01*
X147780000Y-93194000D01*
X147780000Y-92487601D01*
X147098017Y-92487601D01*
X147002848Y-92502673D01*
X146888144Y-92561117D01*
X146797117Y-92652144D01*
X146738673Y-92766848D01*
X146723600Y-92862017D01*
X146723600Y-93194000D01*
X141542693Y-93194000D01*
X142249093Y-92487600D01*
X148280000Y-92487600D01*
X148280000Y-93194000D01*
X149336399Y-93194000D01*
X152923600Y-93194000D01*
X153980000Y-93194000D01*
X153980000Y-92487601D01*
X153298017Y-92487601D01*
X153202848Y-92502673D01*
X153088144Y-92561117D01*
X152997117Y-92652144D01*
X152938673Y-92766848D01*
X152923600Y-92862017D01*
X152923600Y-93194000D01*
X149336399Y-93194000D01*
X149336399Y-92862017D01*
X149321326Y-92766848D01*
X149262882Y-92652144D01*
X149171855Y-92561117D01*
X149057151Y-92502673D01*
X148961983Y-92487600D01*
X148280000Y-92487600D01*
X142249093Y-92487600D01*
X143320288Y-91416405D01*
X143361166Y-91389091D01*
X143409384Y-91379500D01*
X145636673Y-91379500D01*
X145731443Y-91379500D01*
X147747574Y-91379500D01*
X147773431Y-91382181D01*
X147784100Y-91384419D01*
X147815796Y-91380468D01*
X147831382Y-91379500D01*
X147831440Y-91379500D01*
X147831443Y-91379500D01*
X147852194Y-91376036D01*
X147857243Y-91375300D01*
X147909783Y-91368752D01*
X147909788Y-91368749D01*
X147917782Y-91367753D01*
X147917842Y-91367734D01*
X147924926Y-91363900D01*
X147924927Y-91363900D01*
X147971411Y-91338742D01*
X147976043Y-91336359D01*
X147976777Y-91336000D01*
X148023568Y-91313126D01*
X148023568Y-91313125D01*
X148030807Y-91309587D01*
X148030854Y-91309552D01*
X148072130Y-91264714D01*
X148075713Y-91260979D01*
X148268692Y-91068000D01*
X152026601Y-91068000D01*
X152026601Y-91106760D01*
X152029417Y-91142558D01*
X152073923Y-91295750D01*
X152155133Y-91433068D01*
X152267931Y-91545866D01*
X152405249Y-91627076D01*
X152558439Y-91671582D01*
X152594241Y-91674400D01*
X152658000Y-91674400D01*
X152658000Y-91068000D01*
X152026601Y-91068000D01*
X148268692Y-91068000D01*
X148821276Y-90515416D01*
X148841457Y-90499029D01*
X148850582Y-90493068D01*
X148870202Y-90467858D01*
X148880553Y-90456141D01*
X148880580Y-90456114D01*
X148880581Y-90456113D01*
X148892812Y-90438981D01*
X148895865Y-90434886D01*
X148903560Y-90425000D01*
X148945786Y-90390126D01*
X148980723Y-90372326D01*
X149071326Y-90281723D01*
X149112734Y-90200455D01*
X149159165Y-90150227D01*
X149225000Y-90131660D01*
X149290835Y-90150227D01*
X149337265Y-90200455D01*
X149348879Y-90223247D01*
X149378675Y-90281725D01*
X149469274Y-90372324D01*
X149469276Y-90372325D01*
X149469277Y-90372326D01*
X149583445Y-90430498D01*
X149678166Y-90445500D01*
X150041833Y-90445500D01*
X150041834Y-90445500D01*
X150136555Y-90430498D01*
X150250723Y-90372326D01*
X150341326Y-90281723D01*
X150382734Y-90200455D01*
X150429165Y-90150227D01*
X150495000Y-90131660D01*
X150560835Y-90150227D01*
X150607265Y-90200455D01*
X150618879Y-90223247D01*
X150648675Y-90281725D01*
X150739274Y-90372324D01*
X150739276Y-90372325D01*
X150739277Y-90372326D01*
X150853445Y-90430498D01*
X150948166Y-90445500D01*
X151311833Y-90445500D01*
X151311834Y-90445500D01*
X151406555Y-90430498D01*
X151520723Y-90372326D01*
X151611326Y-90281723D01*
X151669498Y-90167555D01*
X151684500Y-90072834D01*
X151684500Y-89773500D01*
X151701381Y-89710500D01*
X151747500Y-89664381D01*
X151810500Y-89647500D01*
X152116374Y-89647500D01*
X152165973Y-89657673D01*
X152207563Y-89686549D01*
X152226178Y-89716285D01*
X152315454Y-89835542D01*
X152315455Y-89835542D01*
X152315456Y-89835544D01*
X152323988Y-89841931D01*
X152333281Y-89848888D01*
X152371932Y-89896434D01*
X152383586Y-89956590D01*
X152365485Y-90015130D01*
X152321911Y-90058209D01*
X152267933Y-90090131D01*
X152155133Y-90202931D01*
X152073923Y-90340249D01*
X152029417Y-90493439D01*
X152026600Y-90529241D01*
X152026600Y-90568000D01*
X153032000Y-90568000D01*
X153095000Y-90584881D01*
X153141119Y-90631000D01*
X153158000Y-90694000D01*
X153158000Y-91674399D01*
X153221760Y-91674399D01*
X153257558Y-91671582D01*
X153410750Y-91627076D01*
X153548068Y-91545866D01*
X153660866Y-91433068D01*
X153742076Y-91295750D01*
X153753375Y-91256859D01*
X153785436Y-91202756D01*
X153839653Y-91170889D01*
X153902519Y-91169195D01*
X153958373Y-91198097D01*
X153993301Y-91250395D01*
X154004630Y-91282772D01*
X154085989Y-91393010D01*
X154196228Y-91474370D01*
X154325545Y-91519620D01*
X154325546Y-91519620D01*
X154325549Y-91519621D01*
X154356251Y-91522500D01*
X154433615Y-91522499D01*
X154481832Y-91532090D01*
X154522710Y-91559404D01*
X155235811Y-92272505D01*
X155266549Y-92322664D01*
X155271165Y-92381311D01*
X155248652Y-92435661D01*
X155203919Y-92473867D01*
X155146716Y-92487600D01*
X154480000Y-92487600D01*
X154480000Y-93194000D01*
X155536399Y-93194000D01*
X155536399Y-92877283D01*
X155550132Y-92820080D01*
X155588338Y-92775347D01*
X155642688Y-92752834D01*
X155701335Y-92757450D01*
X155751494Y-92788188D01*
X157107045Y-94143739D01*
X157130956Y-94177106D01*
X157142872Y-94216388D01*
X157159771Y-94344753D01*
X157215644Y-94479642D01*
X157224917Y-94491727D01*
X157304526Y-94595474D01*
X157420357Y-94684355D01*
X157555246Y-94740228D01*
X157700000Y-94759285D01*
X157844754Y-94740228D01*
X157979643Y-94684355D01*
X158095474Y-94595474D01*
X158184355Y-94479643D01*
X158240228Y-94344754D01*
X158259285Y-94200000D01*
X158240228Y-94055246D01*
X158184355Y-93920358D01*
X158184354Y-93920357D01*
X158184354Y-93920356D01*
X158095475Y-93804527D01*
X157979642Y-93715644D01*
X157844753Y-93659771D01*
X157716388Y-93642872D01*
X157677106Y-93630956D01*
X157643739Y-93607045D01*
X155410935Y-91374241D01*
X155377189Y-91313183D01*
X155381101Y-91243530D01*
X155388429Y-91222586D01*
X155412621Y-91153451D01*
X155415500Y-91122749D01*
X155415499Y-90613252D01*
X155412621Y-90582549D01*
X155367369Y-90453227D01*
X155307660Y-90372324D01*
X155286010Y-90342989D01*
X155175771Y-90261629D01*
X155046454Y-90216379D01*
X155031099Y-90214939D01*
X155015749Y-90213500D01*
X155015746Y-90213500D01*
X154356252Y-90213500D01*
X154325547Y-90216379D01*
X154196228Y-90261630D01*
X154085989Y-90342989D01*
X153993353Y-90468508D01*
X153991305Y-90466996D01*
X153974236Y-90492548D01*
X153918382Y-90521443D01*
X153855520Y-90519745D01*
X153801307Y-90487877D01*
X153769248Y-90433777D01*
X153742076Y-90340250D01*
X153660866Y-90202931D01*
X153548068Y-90090133D01*
X153494089Y-90058210D01*
X153450514Y-90015130D01*
X153432413Y-89956589D01*
X153444067Y-89896433D01*
X153482720Y-89848887D01*
X153500545Y-89835543D01*
X153558080Y-89758685D01*
X153583175Y-89725163D01*
X153600218Y-89679467D01*
X153627083Y-89636550D01*
X153668674Y-89607673D01*
X153718274Y-89597500D01*
X153914991Y-89597500D01*
X153971774Y-89611020D01*
X154016370Y-89648679D01*
X154085988Y-89743009D01*
X154196228Y-89824370D01*
X154325545Y-89869620D01*
X154325546Y-89869620D01*
X154325549Y-89869621D01*
X154356251Y-89872500D01*
X155015748Y-89872499D01*
X155046451Y-89869621D01*
X155175773Y-89824369D01*
X155286010Y-89743010D01*
X155367369Y-89632773D01*
X155372976Y-89616751D01*
X155412620Y-89503454D01*
X155412620Y-89503453D01*
X155412621Y-89503451D01*
X155415500Y-89472749D01*
X155415499Y-88963252D01*
X155412621Y-88932549D01*
X155367369Y-88803227D01*
X155326689Y-88748108D01*
X155286010Y-88692989D01*
X155175771Y-88611629D01*
X155046454Y-88566379D01*
X155031099Y-88564939D01*
X155015749Y-88563500D01*
X155015746Y-88563500D01*
X154356252Y-88563500D01*
X154325547Y-88566379D01*
X154196228Y-88611630D01*
X154085988Y-88692990D01*
X154016370Y-88787321D01*
X153971774Y-88824980D01*
X153914991Y-88838500D01*
X153666954Y-88838500D01*
X153610554Y-88825172D01*
X153566086Y-88788009D01*
X153500544Y-88700455D01*
X153390163Y-88617825D01*
X153365451Y-88608608D01*
X153260973Y-88569640D01*
X153203864Y-88563500D01*
X152612136Y-88563500D01*
X152555026Y-88569640D01*
X152555027Y-88569640D01*
X152425836Y-88617825D01*
X152315455Y-88700455D01*
X152226178Y-88819714D01*
X152207563Y-88849451D01*
X152165973Y-88878327D01*
X152116374Y-88888500D01*
X151810500Y-88888500D01*
X151747500Y-88871619D01*
X151701381Y-88825500D01*
X151684500Y-88762500D01*
X151684500Y-88359167D01*
X151684500Y-88359166D01*
X151669498Y-88264445D01*
X151611326Y-88150277D01*
X151611325Y-88150276D01*
X151611324Y-88150274D01*
X151520725Y-88059675D01*
X151406555Y-88001502D01*
X151406554Y-88001501D01*
X151311834Y-87986500D01*
X150948166Y-87986500D01*
X150900805Y-87994001D01*
X150853444Y-88001502D01*
X150739274Y-88059675D01*
X150648675Y-88150274D01*
X150607267Y-88231542D01*
X150560835Y-88281772D01*
X150495000Y-88300339D01*
X150429165Y-88281772D01*
X150382733Y-88231542D01*
X150341324Y-88150274D01*
X150250725Y-88059675D01*
X150136555Y-88001502D01*
X150136554Y-88001501D01*
X150041834Y-87986500D01*
X149678166Y-87986500D01*
X149630805Y-87994001D01*
X149583444Y-88001502D01*
X149469274Y-88059675D01*
X149378675Y-88150274D01*
X149337267Y-88231542D01*
X149290835Y-88281772D01*
X149225000Y-88300339D01*
X149159165Y-88281772D01*
X149112733Y-88231542D01*
X149071324Y-88150274D01*
X148980725Y-88059675D01*
X148866555Y-88001502D01*
X148866554Y-88001501D01*
X148771834Y-87986500D01*
X148408166Y-87986500D01*
X148360805Y-87994001D01*
X148313444Y-88001502D01*
X148199274Y-88059675D01*
X148108675Y-88150274D01*
X148067267Y-88231542D01*
X148020835Y-88281772D01*
X147955000Y-88300339D01*
X147889165Y-88281772D01*
X147842733Y-88231542D01*
X147801324Y-88150274D01*
X147710725Y-88059675D01*
X147596555Y-88001502D01*
X147596554Y-88001501D01*
X147501834Y-87986500D01*
X147138166Y-87986500D01*
X147090805Y-87994001D01*
X147043444Y-88001502D01*
X146929274Y-88059675D01*
X146838675Y-88150274D01*
X146780502Y-88264444D01*
X146780501Y-88264445D01*
X146780502Y-88264445D01*
X146766125Y-88355223D01*
X146765500Y-88359167D01*
X146765500Y-88710500D01*
X146748619Y-88773500D01*
X146702500Y-88819619D01*
X146639500Y-88836500D01*
X143636426Y-88836500D01*
X143610568Y-88833818D01*
X143599899Y-88831580D01*
X143568204Y-88835532D01*
X143552618Y-88836500D01*
X143552557Y-88836500D01*
X143531850Y-88839954D01*
X143526708Y-88840703D01*
X143466247Y-88848241D01*
X143466137Y-88848276D01*
X143412583Y-88877258D01*
X143407955Y-88879641D01*
X143353217Y-88906401D01*
X143353127Y-88906468D01*
X143311868Y-88951285D01*
X143308265Y-88955039D01*
X138679711Y-93583595D01*
X138638834Y-93610909D01*
X138590616Y-93620500D01*
X138096512Y-93620500D01*
X138084527Y-93618500D01*
X138069661Y-93618500D01*
X137520500Y-93618500D01*
X137457500Y-93601619D01*
X137411381Y-93555500D01*
X137394500Y-93492500D01*
X137394500Y-92620305D01*
X137406305Y-92567055D01*
X137411182Y-92556595D01*
X137417500Y-92508609D01*
X137417500Y-92102400D01*
X137434381Y-92039400D01*
X137480500Y-91993281D01*
X137543500Y-91976400D01*
X137563000Y-91976400D01*
X137563000Y-91450500D01*
X137579881Y-91387500D01*
X137626000Y-91341381D01*
X137689000Y-91324500D01*
X137804309Y-91324500D01*
X137861512Y-91338233D01*
X137906245Y-91376439D01*
X137928758Y-91430789D01*
X137924142Y-91489436D01*
X137893404Y-91539595D01*
X137863000Y-91569999D01*
X137863000Y-91976400D01*
X138109039Y-91976400D01*
X138166380Y-91970234D01*
X138296083Y-91921858D01*
X138406901Y-91838901D01*
X138489858Y-91728083D01*
X138538235Y-91598379D01*
X138541286Y-91570000D01*
X138159239Y-91570000D01*
X138098634Y-91554468D01*
X138052972Y-91511700D01*
X138033509Y-91452241D01*
X138045044Y-91390750D01*
X138084734Y-91342388D01*
X138142793Y-91319078D01*
X138147660Y-91318436D01*
X138149596Y-91318182D01*
X138227607Y-91281804D01*
X138280857Y-91270000D01*
X138541286Y-91270000D01*
X138541286Y-91269999D01*
X138538235Y-91241620D01*
X138489859Y-91111918D01*
X138417632Y-91015435D01*
X138398948Y-90979716D01*
X138392500Y-90939925D01*
X138392500Y-90806391D01*
X138386182Y-90758404D01*
X138369789Y-90723249D01*
X138357984Y-90669998D01*
X138369789Y-90616749D01*
X138386182Y-90581596D01*
X138392500Y-90533608D01*
X138392500Y-90306392D01*
X138389252Y-90281725D01*
X138386182Y-90258403D01*
X138369790Y-90223251D01*
X138357984Y-90170000D01*
X138369790Y-90116749D01*
X138386182Y-90081596D01*
X138392500Y-90033609D01*
X138392500Y-89806391D01*
X138386182Y-89758403D01*
X138369790Y-89723251D01*
X138357984Y-89670000D01*
X138369790Y-89616749D01*
X138386182Y-89581596D01*
X138392500Y-89533609D01*
X138392500Y-89306391D01*
X138386182Y-89258404D01*
X138369789Y-89223249D01*
X138357984Y-89169998D01*
X138369789Y-89116749D01*
X138386182Y-89081596D01*
X138392500Y-89033608D01*
X138392500Y-88806392D01*
X138392083Y-88803228D01*
X138389340Y-88782397D01*
X138386182Y-88758404D01*
X138337074Y-88653091D01*
X138254909Y-88570926D01*
X138149596Y-88521818D01*
X138149594Y-88521817D01*
X138101609Y-88515500D01*
X138101608Y-88515500D01*
X137543500Y-88515500D01*
X137480500Y-88498619D01*
X137434381Y-88452500D01*
X137417500Y-88389500D01*
X137417500Y-87831391D01*
X137411182Y-87783405D01*
X137411182Y-87783404D01*
X137362074Y-87678091D01*
X137318328Y-87634345D01*
X137285716Y-87577861D01*
X137285716Y-87512639D01*
X137318328Y-87456155D01*
X137347543Y-87426940D01*
X137367723Y-87410552D01*
X137376956Y-87404521D01*
X137396713Y-87379135D01*
X137407038Y-87367445D01*
X137407114Y-87367370D01*
X137419397Y-87350164D01*
X137422498Y-87346006D01*
X137455158Y-87304046D01*
X137455158Y-87304043D01*
X137460091Y-87297707D01*
X137460181Y-87297533D01*
X137462473Y-87289832D01*
X137462475Y-87289830D01*
X137477664Y-87238806D01*
X137479212Y-87233977D01*
X137496500Y-87183622D01*
X137496500Y-87183617D01*
X137499102Y-87176038D01*
X137499136Y-87175809D01*
X137496925Y-87122355D01*
X137496607Y-87114676D01*
X137496500Y-87109471D01*
X137496500Y-86963457D01*
X137503187Y-86922955D01*
X137522538Y-86886753D01*
X137599354Y-86786644D01*
X137599353Y-86786644D01*
X137599355Y-86786643D01*
X137655228Y-86651754D01*
X137674285Y-86507000D01*
X137655228Y-86362246D01*
X137599355Y-86227358D01*
X137599354Y-86227357D01*
X137599354Y-86227356D01*
X137522538Y-86127248D01*
X137503187Y-86091046D01*
X137496500Y-86050544D01*
X137496500Y-85892815D01*
X137506673Y-85843215D01*
X137535550Y-85801624D01*
X137578468Y-85774759D01*
X137587036Y-85771562D01*
X137604163Y-85765175D01*
X137714544Y-85682544D01*
X137727889Y-85664718D01*
X137775433Y-85626067D01*
X137835589Y-85614413D01*
X137894130Y-85632514D01*
X137937210Y-85676089D01*
X137969133Y-85730068D01*
X138081931Y-85842866D01*
X138219249Y-85924076D01*
X138372439Y-85968582D01*
X138408241Y-85971400D01*
X138447000Y-85971400D01*
X138447000Y-85340000D01*
X138947000Y-85340000D01*
X138947000Y-85971399D01*
X138985760Y-85971399D01*
X139021558Y-85968582D01*
X139174750Y-85924076D01*
X139312068Y-85842866D01*
X139424866Y-85730068D01*
X139506076Y-85592750D01*
X139550582Y-85439560D01*
X139553400Y-85403759D01*
X139553400Y-85340000D01*
X138947000Y-85340000D01*
X138447000Y-85340000D01*
X138447000Y-84208601D01*
X138408240Y-84208601D01*
X138372441Y-84211417D01*
X138219249Y-84255923D01*
X138081931Y-84337133D01*
X137969131Y-84449933D01*
X137937209Y-84503911D01*
X137894130Y-84547485D01*
X137835590Y-84565586D01*
X137775434Y-84553932D01*
X137727888Y-84515281D01*
X137714543Y-84497454D01*
X137604163Y-84414825D01*
X137579700Y-84405701D01*
X137474973Y-84366640D01*
X137417864Y-84360500D01*
X136876136Y-84360500D01*
X136819026Y-84366640D01*
X136819027Y-84366640D01*
X136689836Y-84414825D01*
X136579455Y-84497455D01*
X136496825Y-84607836D01*
X136482416Y-84646468D01*
X136448640Y-84737027D01*
X136442500Y-84794136D01*
X136442500Y-85385864D01*
X136448640Y-85442973D01*
X136494452Y-85565801D01*
X136496825Y-85572163D01*
X136579455Y-85682544D01*
X136683009Y-85760064D01*
X136720172Y-85804532D01*
X136733500Y-85860932D01*
X136733500Y-86050544D01*
X136726813Y-86091046D01*
X136707462Y-86127248D01*
X136630645Y-86227356D01*
X136574771Y-86362246D01*
X136555715Y-86506999D01*
X136574771Y-86651753D01*
X136630645Y-86786644D01*
X136684142Y-86856362D01*
X136708266Y-86911186D01*
X136704348Y-86970955D01*
X136673275Y-87022162D01*
X136328240Y-87367196D01*
X136265930Y-87401220D01*
X136195115Y-87396157D01*
X136191380Y-87394764D01*
X136163001Y-87391713D01*
X136163000Y-87391714D01*
X136163000Y-87542213D01*
X136157760Y-87578171D01*
X136150348Y-87603063D01*
X136148762Y-87608014D01*
X136139674Y-87634489D01*
X136099527Y-87691717D01*
X136035053Y-87718737D01*
X135966100Y-87707232D01*
X135913892Y-87660743D01*
X135894500Y-87593580D01*
X135894500Y-85895634D01*
X135897182Y-85869776D01*
X135899445Y-85858984D01*
X135895467Y-85827078D01*
X135894500Y-85811493D01*
X135894500Y-85811388D01*
X135891025Y-85790571D01*
X135890276Y-85785439D01*
X135883696Y-85732640D01*
X135883695Y-85732639D01*
X135882704Y-85724681D01*
X135882636Y-85724470D01*
X135878818Y-85717415D01*
X135878818Y-85717414D01*
X135853509Y-85670648D01*
X135851133Y-85666031D01*
X135824255Y-85611052D01*
X135824114Y-85610862D01*
X135779081Y-85569407D01*
X135775323Y-85565801D01*
X135501405Y-85291883D01*
X135474091Y-85251006D01*
X135464500Y-85202788D01*
X135464500Y-84794137D01*
X135460000Y-84752285D01*
X135458360Y-84737027D01*
X135410175Y-84607837D01*
X135349627Y-84526955D01*
X135327544Y-84497455D01*
X135217163Y-84414825D01*
X135192700Y-84405701D01*
X135087973Y-84366640D01*
X135030864Y-84360500D01*
X134489136Y-84360500D01*
X134432026Y-84366640D01*
X134432027Y-84366640D01*
X134302836Y-84414825D01*
X134192454Y-84497456D01*
X134179109Y-84515283D01*
X134131563Y-84553933D01*
X134071407Y-84565585D01*
X134012868Y-84547484D01*
X133969789Y-84503910D01*
X133937866Y-84449931D01*
X133825068Y-84337133D01*
X133687750Y-84255923D01*
X133534560Y-84211417D01*
X133498759Y-84208600D01*
X138947000Y-84208600D01*
X138947000Y-84840000D01*
X139553399Y-84840000D01*
X139553399Y-84776240D01*
X139550582Y-84740441D01*
X139506076Y-84587249D01*
X139463939Y-84516000D01*
X146613601Y-84516000D01*
X146613601Y-85134561D01*
X146624337Y-85223973D01*
X146680447Y-85366260D01*
X146772866Y-85488133D01*
X146894739Y-85580552D01*
X147037025Y-85636662D01*
X147069999Y-85640622D01*
X147070000Y-85640622D01*
X147070000Y-84516000D01*
X146613601Y-84516000D01*
X139463939Y-84516000D01*
X139424866Y-84449931D01*
X139312068Y-84337133D01*
X139174750Y-84255923D01*
X139021560Y-84211417D01*
X138985759Y-84208600D01*
X138947000Y-84208600D01*
X133498759Y-84208600D01*
X133460000Y-84208600D01*
X133460000Y-85971399D01*
X133498760Y-85971399D01*
X133534558Y-85968582D01*
X133687750Y-85924076D01*
X133825068Y-85842866D01*
X133937867Y-85730067D01*
X133969789Y-85676090D01*
X134012868Y-85632515D01*
X134071408Y-85614414D01*
X134131564Y-85626066D01*
X134179110Y-85664718D01*
X134192454Y-85682543D01*
X134192457Y-85682545D01*
X134302837Y-85765175D01*
X134432027Y-85813360D01*
X134489136Y-85819500D01*
X134897787Y-85819500D01*
X134946005Y-85829091D01*
X134986882Y-85856405D01*
X135094595Y-85964118D01*
X135121909Y-86004995D01*
X135131500Y-86053213D01*
X135131500Y-87566904D01*
X135113742Y-87631400D01*
X135065472Y-87677716D01*
X135000298Y-87692797D01*
X134936590Y-87672391D01*
X134892306Y-87622250D01*
X134888213Y-87613879D01*
X134882636Y-87596469D01*
X134878186Y-87588246D01*
X134863000Y-87528277D01*
X134863000Y-87391714D01*
X134862999Y-87391713D01*
X134818883Y-87396456D01*
X134818779Y-87395495D01*
X134765135Y-87399330D01*
X134702827Y-87365305D01*
X134532526Y-87195004D01*
X134508615Y-87161637D01*
X134496699Y-87122355D01*
X134480228Y-86997246D01*
X134424354Y-86862356D01*
X134335475Y-86746527D01*
X134335472Y-86746525D01*
X134219643Y-86657645D01*
X134219642Y-86657644D01*
X134084753Y-86601771D01*
X133940000Y-86582715D01*
X133795246Y-86601771D01*
X133660356Y-86657645D01*
X133544525Y-86746525D01*
X133455645Y-86862356D01*
X133399771Y-86997246D01*
X133380715Y-87142000D01*
X133399771Y-87286753D01*
X133455644Y-87421642D01*
X133467737Y-87437401D01*
X133544526Y-87537474D01*
X133633240Y-87605547D01*
X133660357Y-87626355D01*
X133795246Y-87682228D01*
X133920355Y-87698699D01*
X133959637Y-87710615D01*
X133993004Y-87734526D01*
X134071595Y-87813117D01*
X134098909Y-87853994D01*
X134108500Y-87902212D01*
X134108500Y-88389500D01*
X134091619Y-88452500D01*
X134045500Y-88498619D01*
X133982500Y-88515500D01*
X133424391Y-88515500D01*
X133376404Y-88521817D01*
X133365945Y-88526695D01*
X133312695Y-88538500D01*
X132491457Y-88538500D01*
X132450955Y-88531813D01*
X132414753Y-88512462D01*
X132314644Y-88435645D01*
X132179753Y-88379771D01*
X132035000Y-88360715D01*
X131890246Y-88379771D01*
X131790975Y-88420891D01*
X131736762Y-88430339D01*
X131683692Y-88415780D01*
X131641889Y-88379991D01*
X131611544Y-88339455D01*
X131501163Y-88256825D01*
X131433376Y-88231542D01*
X131371973Y-88208640D01*
X131314864Y-88202500D01*
X130723136Y-88202500D01*
X130666027Y-88208639D01*
X130666027Y-88208640D01*
X130536836Y-88256825D01*
X130426455Y-88339455D01*
X130343825Y-88449836D01*
X130325630Y-88498619D01*
X130295640Y-88579027D01*
X130289500Y-88636136D01*
X130289500Y-89177864D01*
X130295640Y-89234973D01*
X130308147Y-89268506D01*
X130343825Y-89364163D01*
X130426454Y-89474543D01*
X130444281Y-89487888D01*
X130482932Y-89535434D01*
X130494586Y-89595590D01*
X130476485Y-89654130D01*
X130432911Y-89697209D01*
X130378933Y-89729131D01*
X130266133Y-89841931D01*
X130184923Y-89979249D01*
X130140417Y-90132439D01*
X130137600Y-90168241D01*
X130137600Y-90207000D01*
X131900399Y-90207000D01*
X131900399Y-90168240D01*
X131897582Y-90132441D01*
X131853076Y-89979249D01*
X131771866Y-89841931D01*
X131659068Y-89729133D01*
X131605089Y-89697210D01*
X131561514Y-89654130D01*
X131543413Y-89595589D01*
X131555067Y-89535433D01*
X131593720Y-89487887D01*
X131611543Y-89474545D01*
X131611544Y-89474544D01*
X131627032Y-89453853D01*
X131668834Y-89418065D01*
X131721904Y-89403506D01*
X131776115Y-89412953D01*
X131890246Y-89460228D01*
X132035000Y-89479285D01*
X132179754Y-89460228D01*
X132314643Y-89404355D01*
X132367022Y-89364163D01*
X132414753Y-89327538D01*
X132450955Y-89308187D01*
X132491457Y-89301500D01*
X133007500Y-89301500D01*
X133070500Y-89318381D01*
X133116619Y-89364500D01*
X133133500Y-89427500D01*
X133133500Y-89533609D01*
X133139817Y-89581597D01*
X133156210Y-89616751D01*
X133168015Y-89670000D01*
X133156210Y-89723249D01*
X133139817Y-89758402D01*
X133133500Y-89806391D01*
X133133500Y-90033609D01*
X133139817Y-90081595D01*
X133156210Y-90116749D01*
X133168015Y-90169998D01*
X133156211Y-90223247D01*
X133139817Y-90258404D01*
X133133500Y-90306391D01*
X133133500Y-90533609D01*
X133139817Y-90581597D01*
X133156210Y-90616751D01*
X133168015Y-90670000D01*
X133156210Y-90723249D01*
X133139817Y-90758402D01*
X133133500Y-90806391D01*
X133133500Y-90939925D01*
X133127052Y-90979716D01*
X133108368Y-91015435D01*
X133036140Y-91111918D01*
X132987764Y-91241620D01*
X132984713Y-91269999D01*
X132984714Y-91270000D01*
X133245143Y-91270000D01*
X133298393Y-91281805D01*
X133376404Y-91318182D01*
X133383207Y-91319078D01*
X133441266Y-91342388D01*
X133480956Y-91390750D01*
X133492491Y-91452241D01*
X133473028Y-91511700D01*
X133427366Y-91554468D01*
X133366761Y-91570000D01*
X132984713Y-91570000D01*
X132987764Y-91598379D01*
X133036141Y-91728083D01*
X133119098Y-91838901D01*
X133229916Y-91921858D01*
X133359619Y-91970234D01*
X133416961Y-91976400D01*
X133663000Y-91976400D01*
X133663000Y-91569999D01*
X133632596Y-91539595D01*
X133601858Y-91489436D01*
X133597242Y-91430789D01*
X133619755Y-91376439D01*
X133664488Y-91338233D01*
X133721691Y-91324500D01*
X133837000Y-91324500D01*
X133900000Y-91341381D01*
X133946119Y-91387500D01*
X133963000Y-91450500D01*
X133963000Y-91976400D01*
X133982500Y-91976400D01*
X134045500Y-91993281D01*
X134091619Y-92039400D01*
X134108500Y-92102400D01*
X134108500Y-92508609D01*
X134114817Y-92556594D01*
X134114818Y-92556596D01*
X134163926Y-92661909D01*
X134163927Y-92661910D01*
X134250422Y-92748405D01*
X134281160Y-92798564D01*
X134285776Y-92857211D01*
X134263263Y-92911561D01*
X134218530Y-92949767D01*
X134161327Y-92963500D01*
X132049213Y-92963500D01*
X132000995Y-92953909D01*
X131960118Y-92926595D01*
X131818405Y-92784882D01*
X131791091Y-92744005D01*
X131781500Y-92695787D01*
X131781500Y-92287137D01*
X131781500Y-92287136D01*
X131775360Y-92230027D01*
X131727175Y-92100837D01*
X131681995Y-92040484D01*
X131644544Y-91990455D01*
X131534163Y-91907825D01*
X131404973Y-91859640D01*
X131347864Y-91853500D01*
X130806136Y-91853500D01*
X130749027Y-91859639D01*
X130749027Y-91859640D01*
X130619836Y-91907825D01*
X130509454Y-91990456D01*
X130496109Y-92008283D01*
X130448563Y-92046933D01*
X130388407Y-92058585D01*
X130329868Y-92040484D01*
X130286789Y-91996910D01*
X130254866Y-91942931D01*
X130142068Y-91830133D01*
X130004750Y-91748923D01*
X129851560Y-91704417D01*
X129815759Y-91701600D01*
X129777000Y-91701600D01*
X129777000Y-93464399D01*
X129815760Y-93464399D01*
X129851558Y-93461582D01*
X130004750Y-93417076D01*
X130142068Y-93335866D01*
X130254867Y-93223067D01*
X130286789Y-93169090D01*
X130329868Y-93125515D01*
X130388408Y-93107414D01*
X130448564Y-93119066D01*
X130496110Y-93157718D01*
X130509454Y-93175543D01*
X130534110Y-93194000D01*
X130619837Y-93258175D01*
X130749027Y-93306360D01*
X130806136Y-93312500D01*
X131214787Y-93312500D01*
X131263005Y-93322091D01*
X131303882Y-93349405D01*
X131532018Y-93577541D01*
X131548406Y-93597721D01*
X131554438Y-93606954D01*
X131554439Y-93606955D01*
X131554440Y-93606956D01*
X131579818Y-93626708D01*
X131591522Y-93637045D01*
X131591591Y-93637114D01*
X131608792Y-93649395D01*
X131612931Y-93652480D01*
X131654915Y-93685158D01*
X131661243Y-93690083D01*
X131661442Y-93690185D01*
X131669128Y-93692473D01*
X131669131Y-93692475D01*
X131720101Y-93707649D01*
X131725016Y-93709223D01*
X131775339Y-93726500D01*
X131775342Y-93726500D01*
X131782921Y-93729102D01*
X131783151Y-93729136D01*
X131791158Y-93728804D01*
X131791159Y-93728805D01*
X131844273Y-93726607D01*
X131849480Y-93726500D01*
X134440367Y-93726500D01*
X134466224Y-93729181D01*
X134477017Y-93731445D01*
X134508922Y-93727468D01*
X134524508Y-93726500D01*
X134524611Y-93726500D01*
X134545476Y-93723017D01*
X134550512Y-93722283D01*
X134603360Y-93715696D01*
X134603362Y-93715694D01*
X134611327Y-93714702D01*
X134611524Y-93714639D01*
X134618583Y-93710818D01*
X134618586Y-93710818D01*
X134665380Y-93685493D01*
X134669962Y-93683135D01*
X134717746Y-93659776D01*
X134717748Y-93659773D01*
X134724948Y-93656254D01*
X134725133Y-93656116D01*
X134730558Y-93650221D01*
X134730562Y-93650220D01*
X134766615Y-93611054D01*
X134770150Y-93607370D01*
X135245548Y-93131973D01*
X135265723Y-93115591D01*
X135274956Y-93109560D01*
X135294713Y-93084174D01*
X135305038Y-93072484D01*
X135305114Y-93072409D01*
X135317397Y-93055204D01*
X135320482Y-93051065D01*
X135353158Y-93009085D01*
X135353158Y-93009083D01*
X135358086Y-93002753D01*
X135358186Y-93002559D01*
X135360475Y-92994870D01*
X135375655Y-92943875D01*
X135377215Y-92939005D01*
X135394500Y-92888661D01*
X135394500Y-92888659D01*
X135395899Y-92884584D01*
X135422371Y-92840161D01*
X135464459Y-92810112D01*
X135515071Y-92799500D01*
X135626609Y-92799500D01*
X135674596Y-92793182D01*
X135709749Y-92776790D01*
X135763000Y-92764984D01*
X135816251Y-92776790D01*
X135851403Y-92793182D01*
X135899391Y-92799500D01*
X135972788Y-92799500D01*
X136029991Y-92813233D01*
X136074724Y-92851439D01*
X136097237Y-92905789D01*
X136092621Y-92964436D01*
X136061883Y-93014594D01*
X135271951Y-93804526D01*
X134625882Y-94450595D01*
X134585005Y-94477909D01*
X134536787Y-94487500D01*
X134037634Y-94487500D01*
X134011776Y-94484818D01*
X134000983Y-94482554D01*
X133969079Y-94486532D01*
X133953493Y-94487500D01*
X133953385Y-94487500D01*
X133932543Y-94490977D01*
X133927396Y-94491727D01*
X133866702Y-94499293D01*
X133866451Y-94499373D01*
X133812663Y-94528481D01*
X133808036Y-94530863D01*
X133753066Y-94557736D01*
X133752857Y-94557892D01*
X133711418Y-94602906D01*
X133707814Y-94606661D01*
X132666888Y-95647587D01*
X132622177Y-95676416D01*
X132569552Y-95684222D01*
X132518397Y-95669614D01*
X132343878Y-95576332D01*
X132152269Y-95518207D01*
X131953000Y-95498581D01*
X131753730Y-95518207D01*
X131562121Y-95576332D01*
X131385532Y-95670721D01*
X131230747Y-95797747D01*
X131103721Y-95952532D01*
X131009332Y-96129121D01*
X130951207Y-96320730D01*
X130931581Y-96520000D01*
X130951207Y-96719269D01*
X131009332Y-96910878D01*
X131009333Y-96910880D01*
X131103722Y-97087469D01*
X131131295Y-97121067D01*
X131230747Y-97242252D01*
X131295306Y-97295233D01*
X131385531Y-97369278D01*
X131562120Y-97463667D01*
X131643666Y-97488404D01*
X131753730Y-97521792D01*
X131953000Y-97541418D01*
X132152269Y-97521792D01*
X132343880Y-97463667D01*
X132520469Y-97369278D01*
X132675252Y-97242252D01*
X132802278Y-97087469D01*
X132896667Y-96910880D01*
X132954792Y-96719269D01*
X132968534Y-96579742D01*
X132974418Y-96520003D01*
X132974418Y-96519999D01*
X132971212Y-96487455D01*
X132977970Y-96432660D01*
X133007510Y-96386011D01*
X133258067Y-96135454D01*
X133317713Y-96075808D01*
X133374993Y-96042987D01*
X133441008Y-96043635D01*
X133497634Y-96077575D01*
X133529325Y-96135489D01*
X133527382Y-96201479D01*
X133491207Y-96320733D01*
X133471581Y-96520000D01*
X133491207Y-96719269D01*
X133549332Y-96910878D01*
X133549333Y-96910880D01*
X133643722Y-97087469D01*
X133671295Y-97121067D01*
X133770747Y-97242252D01*
X133835306Y-97295233D01*
X133925531Y-97369278D01*
X133960163Y-97387789D01*
X133985322Y-97401237D01*
X134028942Y-97439808D01*
X134050562Y-97493871D01*
X134045566Y-97551883D01*
X134015021Y-97601455D01*
X133625452Y-97991023D01*
X133605276Y-98007407D01*
X133596043Y-98013439D01*
X133576288Y-98038820D01*
X133565972Y-98050504D01*
X133565890Y-98050586D01*
X133553612Y-98067781D01*
X133550502Y-98071951D01*
X133509409Y-98124748D01*
X133465121Y-98160650D01*
X133409544Y-98173357D01*
X133354055Y-98160268D01*
X133310015Y-98124062D01*
X133237475Y-98029527D01*
X133237472Y-98029525D01*
X133150922Y-97963112D01*
X133121642Y-97940644D01*
X132986753Y-97884771D01*
X132842000Y-97865715D01*
X132697246Y-97884771D01*
X132562356Y-97940645D01*
X132446525Y-98029525D01*
X132357645Y-98145356D01*
X132301771Y-98280246D01*
X132282715Y-98425000D01*
X132301771Y-98569753D01*
X132357644Y-98704642D01*
X132369471Y-98720055D01*
X132446526Y-98820474D01*
X132562357Y-98909355D01*
X132697246Y-98965228D01*
X132822353Y-98981698D01*
X132861635Y-98993614D01*
X132895003Y-99017525D01*
X132985596Y-99108119D01*
X133012909Y-99148996D01*
X133022500Y-99197214D01*
X133022500Y-100473916D01*
X133006435Y-100535482D01*
X132962336Y-100581348D01*
X132901449Y-100599819D01*
X132839300Y-100586184D01*
X132820372Y-100569365D01*
X132820323Y-100569440D01*
X132715301Y-100499266D01*
X132715300Y-100499265D01*
X132641066Y-100484500D01*
X131090931Y-100484500D01*
X131016699Y-100499265D01*
X130932515Y-100555515D01*
X130876266Y-100639698D01*
X130876265Y-100639699D01*
X130876266Y-100639699D01*
X130865909Y-100691771D01*
X130863062Y-100706082D01*
X130839445Y-100758204D01*
X130795211Y-100794506D01*
X130739483Y-100807500D01*
X128923213Y-100807500D01*
X128874995Y-100797909D01*
X128834118Y-100770595D01*
X124746904Y-96683381D01*
X124719590Y-96642504D01*
X124709999Y-96594286D01*
X124709999Y-96520000D01*
X125851581Y-96520000D01*
X125871207Y-96719269D01*
X125929332Y-96910878D01*
X125929333Y-96910880D01*
X126023722Y-97087469D01*
X126051295Y-97121067D01*
X126150747Y-97242252D01*
X126215306Y-97295233D01*
X126305531Y-97369278D01*
X126482120Y-97463667D01*
X126563666Y-97488404D01*
X126673730Y-97521792D01*
X126873000Y-97541418D01*
X127072269Y-97521792D01*
X127131162Y-97503927D01*
X128782625Y-97503927D01*
X128889963Y-97570388D01*
X129091882Y-97648611D01*
X129304734Y-97688400D01*
X129521266Y-97688400D01*
X129734117Y-97648611D01*
X129936033Y-97570389D01*
X130043372Y-97503926D01*
X129413000Y-96873553D01*
X129412999Y-96873553D01*
X128782625Y-97503926D01*
X128782625Y-97503927D01*
X127131162Y-97503927D01*
X127263880Y-97463667D01*
X127440469Y-97369278D01*
X127595252Y-97242252D01*
X127722278Y-97087469D01*
X127816667Y-96910880D01*
X127874792Y-96719269D01*
X127894418Y-96520000D01*
X127894418Y-96519999D01*
X128239594Y-96519999D01*
X128259574Y-96735617D01*
X128318831Y-96943885D01*
X128415348Y-97137717D01*
X128426698Y-97152746D01*
X129059446Y-96520000D01*
X129766553Y-96520000D01*
X130399300Y-97152747D01*
X130399301Y-97152746D01*
X130410649Y-97137719D01*
X130507170Y-96943880D01*
X130566425Y-96735617D01*
X130586405Y-96519999D01*
X130566425Y-96304382D01*
X130507170Y-96096119D01*
X130410649Y-95902279D01*
X130399301Y-95887252D01*
X130399299Y-95887252D01*
X129766553Y-96519999D01*
X129766553Y-96520000D01*
X129059446Y-96520000D01*
X129059446Y-96519999D01*
X128426698Y-95887251D01*
X128426697Y-95887251D01*
X128415349Y-95902281D01*
X128318831Y-96096114D01*
X128259574Y-96304382D01*
X128239594Y-96519999D01*
X127894418Y-96519999D01*
X127881221Y-96386011D01*
X127874792Y-96320730D01*
X127821979Y-96146631D01*
X127816667Y-96129120D01*
X127722278Y-95952531D01*
X127641088Y-95853600D01*
X127595252Y-95797747D01*
X127487561Y-95709369D01*
X127440469Y-95670722D01*
X127263880Y-95576333D01*
X127263879Y-95576332D01*
X127263878Y-95576332D01*
X127131161Y-95536072D01*
X128782625Y-95536072D01*
X129412999Y-96166446D01*
X129413000Y-96166446D01*
X130043372Y-95536072D01*
X129936031Y-95469610D01*
X129734117Y-95391388D01*
X129521266Y-95351600D01*
X129304734Y-95351600D01*
X129091882Y-95391388D01*
X128889968Y-95469610D01*
X128782625Y-95536072D01*
X127131161Y-95536072D01*
X127072269Y-95518207D01*
X126873000Y-95498581D01*
X126673730Y-95518207D01*
X126482121Y-95576332D01*
X126305532Y-95670721D01*
X126150747Y-95797747D01*
X126023721Y-95952532D01*
X125929332Y-96129121D01*
X125871207Y-96320730D01*
X125851581Y-96520000D01*
X124709999Y-96520000D01*
X124709999Y-95456432D01*
X124695234Y-95382199D01*
X124638984Y-95298015D01*
X124554801Y-95241766D01*
X124526552Y-95236147D01*
X124480567Y-95227000D01*
X124480566Y-95227000D01*
X124422056Y-95227000D01*
X124355519Y-95207999D01*
X124309050Y-95156728D01*
X124296663Y-95088649D01*
X124322094Y-95024295D01*
X124357429Y-94978246D01*
X124372855Y-94958143D01*
X124428728Y-94823254D01*
X124447785Y-94678500D01*
X124428728Y-94533746D01*
X124372855Y-94398858D01*
X124313036Y-94320901D01*
X124293687Y-94284701D01*
X124287000Y-94244199D01*
X124287000Y-92833000D01*
X128670601Y-92833000D01*
X128670601Y-92896760D01*
X128673417Y-92932558D01*
X128717923Y-93085750D01*
X128799133Y-93223068D01*
X128911931Y-93335866D01*
X129049249Y-93417076D01*
X129202439Y-93461582D01*
X129238241Y-93464400D01*
X129277000Y-93464400D01*
X129277000Y-92833000D01*
X128670601Y-92833000D01*
X124287000Y-92833000D01*
X124287000Y-92333000D01*
X128670600Y-92333000D01*
X129277000Y-92333000D01*
X129277000Y-91701601D01*
X129238240Y-91701601D01*
X129202441Y-91704417D01*
X129049249Y-91748923D01*
X128911931Y-91830133D01*
X128799133Y-91942931D01*
X128717923Y-92080249D01*
X128673417Y-92233439D01*
X128670600Y-92269241D01*
X128670600Y-92333000D01*
X124287000Y-92333000D01*
X124287000Y-91461999D01*
X124303881Y-91398999D01*
X124350000Y-91352880D01*
X124413000Y-91335999D01*
X124480568Y-91335999D01*
X124544137Y-91323355D01*
X124554801Y-91321234D01*
X124638984Y-91264984D01*
X124695234Y-91180801D01*
X124710000Y-91106567D01*
X124710000Y-90707000D01*
X130137601Y-90707000D01*
X130137601Y-90745760D01*
X130140417Y-90781558D01*
X130184923Y-90934750D01*
X130266133Y-91072068D01*
X130378931Y-91184866D01*
X130516249Y-91266076D01*
X130669439Y-91310582D01*
X130705241Y-91313400D01*
X130769000Y-91313400D01*
X130769000Y-90707000D01*
X131269000Y-90707000D01*
X131269000Y-91313399D01*
X131332760Y-91313399D01*
X131368558Y-91310582D01*
X131521750Y-91266076D01*
X131659068Y-91184866D01*
X131771866Y-91072068D01*
X131853076Y-90934750D01*
X131897582Y-90781560D01*
X131900400Y-90745759D01*
X131900400Y-90707000D01*
X131269000Y-90707000D01*
X130769000Y-90707000D01*
X130137601Y-90707000D01*
X124710000Y-90707000D01*
X124709999Y-89256434D01*
X124709999Y-89256433D01*
X124709999Y-89256431D01*
X124695234Y-89182199D01*
X124638984Y-89098015D01*
X124554801Y-89041766D01*
X124544133Y-89039644D01*
X124480566Y-89027000D01*
X123330431Y-89027000D01*
X123256199Y-89041765D01*
X123172015Y-89098015D01*
X123114092Y-89184703D01*
X123092572Y-89232203D01*
X123048338Y-89268506D01*
X122992609Y-89281500D01*
X121274580Y-89281500D01*
X121217377Y-89267767D01*
X121172644Y-89229561D01*
X121150131Y-89175211D01*
X121146826Y-89154348D01*
X121088382Y-89039644D01*
X120997355Y-88948617D01*
X120882651Y-88890173D01*
X120787483Y-88875100D01*
X120455500Y-88875100D01*
X120455500Y-90305500D01*
X120438619Y-90368500D01*
X120392500Y-90414619D01*
X120329500Y-90431500D01*
X119249101Y-90431500D01*
X119249101Y-91113483D01*
X119264173Y-91208651D01*
X119322617Y-91323355D01*
X119413644Y-91414382D01*
X119528348Y-91472826D01*
X119623516Y-91487899D01*
X119771327Y-91487899D01*
X119831449Y-91503167D01*
X119877000Y-91545273D01*
X119896939Y-91604011D01*
X119886436Y-91665145D01*
X119848034Y-91713860D01*
X119810025Y-91743026D01*
X119721145Y-91858856D01*
X119665271Y-91993746D01*
X119646215Y-92138499D01*
X119665271Y-92283253D01*
X119721144Y-92418142D01*
X119721145Y-92418143D01*
X119810026Y-92533974D01*
X119925857Y-92622855D01*
X120060746Y-92678728D01*
X120205500Y-92697785D01*
X120350254Y-92678728D01*
X120485143Y-92622855D01*
X120600974Y-92533974D01*
X120689855Y-92418143D01*
X120714236Y-92359281D01*
X120741549Y-92318405D01*
X120782427Y-92291091D01*
X120830645Y-92281500D01*
X123398000Y-92281500D01*
X123461000Y-92298381D01*
X123507119Y-92344500D01*
X123524000Y-92407500D01*
X123524000Y-94155500D01*
X123507119Y-94218500D01*
X123461000Y-94264619D01*
X123398000Y-94281500D01*
X120755500Y-94281500D01*
X120755500Y-94949100D01*
X120738619Y-95012100D01*
X120692500Y-95058219D01*
X120629500Y-95075100D01*
X120455500Y-95075100D01*
X120455500Y-97687899D01*
X120787483Y-97687899D01*
X120882651Y-97672826D01*
X120997355Y-97614382D01*
X121088382Y-97523355D01*
X121146826Y-97408651D01*
X121150131Y-97387789D01*
X121172644Y-97333439D01*
X121217377Y-97295233D01*
X121274580Y-97281500D01*
X122992608Y-97281500D01*
X123048337Y-97294494D01*
X123092571Y-97330797D01*
X123114091Y-97378295D01*
X123172015Y-97464984D01*
X123207066Y-97488404D01*
X123256199Y-97521234D01*
X123330433Y-97536000D01*
X124468287Y-97535999D01*
X124516505Y-97545590D01*
X124557381Y-97572903D01*
X126488816Y-99504339D01*
X128406018Y-101421541D01*
X128422406Y-101441721D01*
X128428438Y-101450954D01*
X128428439Y-101450955D01*
X128428440Y-101450956D01*
X128453818Y-101470708D01*
X128465522Y-101481045D01*
X128465591Y-101481114D01*
X128482792Y-101493395D01*
X128486931Y-101496480D01*
X128524863Y-101526004D01*
X128535243Y-101534083D01*
X128535442Y-101534185D01*
X128543128Y-101536473D01*
X128543131Y-101536475D01*
X128594101Y-101551649D01*
X128599016Y-101553223D01*
X128649339Y-101570500D01*
X128649342Y-101570500D01*
X128656921Y-101573102D01*
X128657151Y-101573136D01*
X128665158Y-101572804D01*
X128665159Y-101572805D01*
X128718273Y-101570607D01*
X128723480Y-101570500D01*
X130739484Y-101570500D01*
X130795213Y-101583494D01*
X130839447Y-101619797D01*
X130863063Y-101671921D01*
X130876265Y-101738302D01*
X130886754Y-101753999D01*
X130905568Y-101799419D01*
X130905568Y-101848581D01*
X130886755Y-101894001D01*
X130876266Y-101909698D01*
X130861500Y-101983933D01*
X130861500Y-102934068D01*
X130876265Y-103008302D01*
X130886754Y-103023999D01*
X130905568Y-103069419D01*
X130905568Y-103118581D01*
X130886755Y-103164001D01*
X130866792Y-103193877D01*
X130855033Y-103219829D01*
X130810799Y-103256129D01*
X130755071Y-103269122D01*
X130699344Y-103256128D01*
X130655111Y-103219826D01*
X130570475Y-103109527D01*
X130570472Y-103109525D01*
X130468619Y-103031369D01*
X130454642Y-103020644D01*
X130319753Y-102964771D01*
X130175000Y-102945715D01*
X130030246Y-102964771D01*
X129895356Y-103020645D01*
X129779525Y-103109525D01*
X129690645Y-103225356D01*
X129634771Y-103360246D01*
X129615715Y-103504999D01*
X129634771Y-103649753D01*
X129690644Y-103784642D01*
X129690645Y-103784643D01*
X129779526Y-103900474D01*
X129895357Y-103989355D01*
X130030246Y-104045228D01*
X130175000Y-104064285D01*
X130175002Y-104064284D01*
X130189256Y-104066161D01*
X130208053Y-104073581D01*
X130208978Y-104070476D01*
X130229129Y-104076474D01*
X130229130Y-104076475D01*
X130280133Y-104091658D01*
X130284997Y-104093216D01*
X130335339Y-104110500D01*
X130335341Y-104110500D01*
X130342920Y-104113102D01*
X130343151Y-104113136D01*
X130351158Y-104112804D01*
X130351159Y-104112805D01*
X130404273Y-104110607D01*
X130409480Y-104110500D01*
X130739484Y-104110500D01*
X130795213Y-104123494D01*
X130839447Y-104159797D01*
X130863063Y-104211921D01*
X130876265Y-104278302D01*
X130886754Y-104293999D01*
X130905568Y-104339419D01*
X130905568Y-104388581D01*
X130886755Y-104434001D01*
X130876266Y-104449698D01*
X130874810Y-104457019D01*
X130863063Y-104516079D01*
X130863062Y-104516082D01*
X130839445Y-104568204D01*
X130795211Y-104604506D01*
X130739483Y-104617500D01*
X121973212Y-104617500D01*
X121924994Y-104607909D01*
X121884117Y-104580595D01*
X118829526Y-101526004D01*
X118805615Y-101492637D01*
X118793699Y-101453355D01*
X118777228Y-101328246D01*
X118721354Y-101193356D01*
X118632475Y-101077527D01*
X118632472Y-101077525D01*
X118540655Y-101007070D01*
X118516642Y-100988644D01*
X118381753Y-100932771D01*
X118237000Y-100913715D01*
X118092246Y-100932771D01*
X117957356Y-100988645D01*
X117841525Y-101077525D01*
X117752645Y-101193356D01*
X117696771Y-101328246D01*
X117677715Y-101472999D01*
X117696771Y-101617753D01*
X117752644Y-101752642D01*
X117763645Y-101766978D01*
X117841526Y-101868474D01*
X117921387Y-101929754D01*
X117957357Y-101957355D01*
X118092246Y-102013228D01*
X118217355Y-102029699D01*
X118256637Y-102041615D01*
X118290004Y-102065526D01*
X118751883Y-102527405D01*
X118782621Y-102577564D01*
X118787237Y-102636211D01*
X118764724Y-102690561D01*
X118719991Y-102728767D01*
X118662788Y-102742500D01*
X114891213Y-102742500D01*
X114842995Y-102732909D01*
X114802117Y-102705595D01*
X114398117Y-102301594D01*
X114367380Y-102251435D01*
X114362764Y-102192788D01*
X114385277Y-102138438D01*
X114430010Y-102100232D01*
X114487208Y-102086499D01*
X115220066Y-102086499D01*
X115220068Y-102086499D01*
X115251560Y-102080235D01*
X115294301Y-102071734D01*
X115375394Y-102017548D01*
X115442096Y-101996357D01*
X115509817Y-102014028D01*
X115557661Y-102065110D01*
X115562116Y-102073854D01*
X115653144Y-102164882D01*
X115767848Y-102223326D01*
X115863017Y-102238400D01*
X116145000Y-102238400D01*
X116145000Y-101482000D01*
X116645000Y-101482000D01*
X116645000Y-102238399D01*
X116926983Y-102238399D01*
X117022151Y-102223326D01*
X117136855Y-102164882D01*
X117227882Y-102073855D01*
X117286326Y-101959151D01*
X117301400Y-101863983D01*
X117301400Y-101482000D01*
X116645000Y-101482000D01*
X116145000Y-101482000D01*
X116145000Y-100225601D01*
X115863017Y-100225601D01*
X115767848Y-100240673D01*
X115653144Y-100299117D01*
X115562116Y-100390145D01*
X115557660Y-100398891D01*
X115509816Y-100449971D01*
X115442095Y-100467642D01*
X115375393Y-100446450D01*
X115282498Y-100384379D01*
X115241378Y-100339010D01*
X115226500Y-100279614D01*
X115226500Y-100225600D01*
X116645000Y-100225600D01*
X116645000Y-100982000D01*
X117301399Y-100982000D01*
X117301399Y-100600017D01*
X117286326Y-100504848D01*
X117227882Y-100390144D01*
X117136855Y-100299117D01*
X117022151Y-100240673D01*
X116926983Y-100225600D01*
X116645000Y-100225600D01*
X115226500Y-100225600D01*
X115226500Y-99044212D01*
X115236091Y-98995994D01*
X115263405Y-98955117D01*
X116774117Y-97444404D01*
X116814994Y-97417090D01*
X116863212Y-97407499D01*
X117255748Y-97407499D01*
X117286451Y-97404621D01*
X117415773Y-97359369D01*
X117526010Y-97278010D01*
X117607369Y-97167773D01*
X117608840Y-97163571D01*
X117652620Y-97038454D01*
X117652620Y-97038453D01*
X117652621Y-97038451D01*
X117655500Y-97007749D01*
X117655499Y-96631500D01*
X119249101Y-96631500D01*
X119249101Y-97313483D01*
X119264173Y-97408651D01*
X119322617Y-97523355D01*
X119413644Y-97614382D01*
X119528348Y-97672826D01*
X119623517Y-97687900D01*
X119955500Y-97687900D01*
X119955500Y-96631500D01*
X119249101Y-96631500D01*
X117655499Y-96631500D01*
X117655499Y-96498252D01*
X117652621Y-96467549D01*
X117607369Y-96338227D01*
X117539182Y-96245837D01*
X117526010Y-96227989D01*
X117415771Y-96146629D01*
X117372535Y-96131500D01*
X119249100Y-96131500D01*
X119955500Y-96131500D01*
X119955500Y-95075101D01*
X119623517Y-95075101D01*
X119528348Y-95090173D01*
X119413644Y-95148617D01*
X119322617Y-95239644D01*
X119264173Y-95354348D01*
X119249100Y-95449517D01*
X119249100Y-96131500D01*
X117372535Y-96131500D01*
X117286454Y-96101379D01*
X117271100Y-96099939D01*
X117255749Y-96098500D01*
X117255746Y-96098500D01*
X116596252Y-96098500D01*
X116565547Y-96101379D01*
X116436228Y-96146630D01*
X116325989Y-96227989D01*
X116265379Y-96310114D01*
X116220782Y-96347772D01*
X116164000Y-96361292D01*
X116107218Y-96347772D01*
X116062621Y-96310114D01*
X116002010Y-96227989D01*
X115891771Y-96146629D01*
X115762454Y-96101379D01*
X115747100Y-96099939D01*
X115731749Y-96098500D01*
X115731746Y-96098500D01*
X115072252Y-96098500D01*
X115041547Y-96101379D01*
X114912228Y-96146630D01*
X114801989Y-96227989D01*
X114741379Y-96310114D01*
X114696782Y-96347772D01*
X114640000Y-96361292D01*
X114583218Y-96347772D01*
X114538621Y-96310114D01*
X114478010Y-96227989D01*
X114367771Y-96146629D01*
X114238454Y-96101379D01*
X114223100Y-96099939D01*
X114207749Y-96098500D01*
X114207746Y-96098500D01*
X113548252Y-96098500D01*
X113517547Y-96101379D01*
X113388228Y-96146630D01*
X113277989Y-96227989D01*
X113196629Y-96338228D01*
X113151379Y-96467545D01*
X113148500Y-96498253D01*
X113148500Y-96890786D01*
X113138909Y-96939004D01*
X113111597Y-96979878D01*
X112945740Y-97145736D01*
X112782646Y-97308830D01*
X112729911Y-97340374D01*
X112668528Y-97343224D01*
X112613096Y-97316703D01*
X112576800Y-97267118D01*
X112568273Y-97206266D01*
X112571500Y-97176255D01*
X112571499Y-96579746D01*
X112570336Y-96568931D01*
X112565077Y-96520003D01*
X112565040Y-96519658D01*
X112514342Y-96383733D01*
X112507825Y-96375027D01*
X112427404Y-96267595D01*
X112311268Y-96180658D01*
X112270196Y-96165339D01*
X112175342Y-96129960D01*
X112175338Y-96129959D01*
X112160513Y-96124430D01*
X112161295Y-96122331D01*
X112118535Y-96105136D01*
X112077748Y-96050139D01*
X112071746Y-95981932D01*
X112102300Y-95920657D01*
X112160388Y-95884408D01*
X112329758Y-95835202D01*
X112472513Y-95750777D01*
X112589777Y-95633513D01*
X112674202Y-95490758D01*
X112712845Y-95357747D01*
X113148500Y-95357747D01*
X113151379Y-95388452D01*
X113191074Y-95501893D01*
X113196631Y-95517773D01*
X113213551Y-95540698D01*
X113277989Y-95628010D01*
X113388228Y-95709370D01*
X113517545Y-95754620D01*
X113517546Y-95754620D01*
X113517549Y-95754621D01*
X113548251Y-95757500D01*
X114207748Y-95757499D01*
X114238451Y-95754621D01*
X114367773Y-95709369D01*
X114478010Y-95628010D01*
X114538623Y-95545882D01*
X114583217Y-95508226D01*
X114640000Y-95494706D01*
X114696783Y-95508226D01*
X114741376Y-95545882D01*
X114793667Y-95616733D01*
X114801990Y-95628010D01*
X114912228Y-95709370D01*
X115041545Y-95754620D01*
X115041546Y-95754620D01*
X115041549Y-95754621D01*
X115072251Y-95757500D01*
X115731748Y-95757499D01*
X115762451Y-95754621D01*
X115891773Y-95709369D01*
X116002010Y-95628010D01*
X116062623Y-95545882D01*
X116107217Y-95508226D01*
X116164000Y-95494706D01*
X116220783Y-95508226D01*
X116265376Y-95545882D01*
X116317667Y-95616733D01*
X116325990Y-95628010D01*
X116436228Y-95709370D01*
X116565545Y-95754620D01*
X116565546Y-95754620D01*
X116565549Y-95754621D01*
X116596251Y-95757500D01*
X117255748Y-95757499D01*
X117286451Y-95754621D01*
X117415773Y-95709369D01*
X117526010Y-95628010D01*
X117526011Y-95628009D01*
X117541290Y-95616733D01*
X117541526Y-95617054D01*
X117575341Y-95590258D01*
X117640676Y-95581034D01*
X117701714Y-95606094D01*
X117703357Y-95607355D01*
X117838246Y-95663228D01*
X117983000Y-95682285D01*
X118127754Y-95663228D01*
X118262643Y-95607355D01*
X118378474Y-95518474D01*
X118467355Y-95402643D01*
X118523228Y-95267754D01*
X118542285Y-95123000D01*
X118523228Y-94978246D01*
X118467355Y-94843358D01*
X118467354Y-94843357D01*
X118467354Y-94843356D01*
X118378475Y-94727527D01*
X118378472Y-94727525D01*
X118294806Y-94663325D01*
X118262642Y-94638644D01*
X118127753Y-94582771D01*
X117983000Y-94563715D01*
X117838246Y-94582771D01*
X117692882Y-94642984D01*
X117638383Y-94652418D01*
X117585095Y-94637604D01*
X117543284Y-94601396D01*
X117538913Y-94595474D01*
X117526010Y-94577990D01*
X117526009Y-94577989D01*
X117415771Y-94496629D01*
X117286454Y-94451379D01*
X117271100Y-94449939D01*
X117255749Y-94448500D01*
X117255746Y-94448500D01*
X116596252Y-94448500D01*
X116565547Y-94451379D01*
X116436228Y-94496630D01*
X116325989Y-94577990D01*
X116265378Y-94660115D01*
X116220781Y-94697773D01*
X116163998Y-94711293D01*
X116107216Y-94697773D01*
X116062623Y-94660117D01*
X116002010Y-94577990D01*
X116002009Y-94577989D01*
X115891771Y-94496629D01*
X115762454Y-94451379D01*
X115747100Y-94449939D01*
X115731749Y-94448500D01*
X115731746Y-94448500D01*
X115072252Y-94448500D01*
X115041547Y-94451379D01*
X114912228Y-94496630D01*
X114801989Y-94577990D01*
X114741378Y-94660115D01*
X114696781Y-94697773D01*
X114639998Y-94711293D01*
X114583216Y-94697773D01*
X114538623Y-94660117D01*
X114478010Y-94577990D01*
X114478009Y-94577989D01*
X114367771Y-94496629D01*
X114238454Y-94451379D01*
X114223100Y-94449939D01*
X114207749Y-94448500D01*
X114207746Y-94448500D01*
X113548252Y-94448500D01*
X113517547Y-94451379D01*
X113388228Y-94496630D01*
X113277989Y-94577989D01*
X113196629Y-94688228D01*
X113151379Y-94817545D01*
X113148500Y-94848253D01*
X113148500Y-95357747D01*
X112712845Y-95357747D01*
X112720470Y-95331501D01*
X112723400Y-95294281D01*
X112723400Y-95228000D01*
X110735400Y-95228000D01*
X110735400Y-95277000D01*
X110718519Y-95340000D01*
X110672400Y-95386119D01*
X110609400Y-95403000D01*
X108932601Y-95403000D01*
X108932601Y-95441760D01*
X108935417Y-95477558D01*
X108979923Y-95630750D01*
X109061133Y-95768068D01*
X109173931Y-95880866D01*
X109227910Y-95912789D01*
X109271484Y-95955868D01*
X109289585Y-96014407D01*
X109277933Y-96074563D01*
X109239283Y-96122109D01*
X109221456Y-96135454D01*
X109138825Y-96245836D01*
X109099008Y-96352591D01*
X109090640Y-96375027D01*
X109084500Y-96432136D01*
X109084500Y-96973864D01*
X109090640Y-97030973D01*
X109130453Y-97137717D01*
X109138825Y-97160163D01*
X109221455Y-97270544D01*
X109301944Y-97330797D01*
X109331837Y-97353175D01*
X109461027Y-97401360D01*
X109518136Y-97407500D01*
X110109863Y-97407500D01*
X110109864Y-97407500D01*
X110166973Y-97401360D01*
X110185515Y-97394444D01*
X110229547Y-97386500D01*
X110617241Y-97386500D01*
X110673641Y-97399828D01*
X110718110Y-97436992D01*
X110756595Y-97488404D01*
X110872731Y-97575341D01*
X110872732Y-97575341D01*
X110872733Y-97575342D01*
X111005336Y-97624801D01*
X111048250Y-97651665D01*
X111077127Y-97693255D01*
X111087300Y-97742855D01*
X111087300Y-98448850D01*
X111080613Y-98489351D01*
X111061262Y-98525554D01*
X111060645Y-98526358D01*
X111004771Y-98661244D01*
X110985715Y-98806000D01*
X111004771Y-98950753D01*
X111060644Y-99085642D01*
X111061262Y-99086447D01*
X111080613Y-99122650D01*
X111087300Y-99163152D01*
X111087300Y-100285495D01*
X111069374Y-100350272D01*
X111020695Y-100396618D01*
X110955116Y-100411343D01*
X110902022Y-100393802D01*
X110894301Y-100392266D01*
X110820066Y-100377500D01*
X110067428Y-100377500D01*
X110019210Y-100367909D01*
X109978333Y-100340595D01*
X109936855Y-100299117D01*
X109822151Y-100240673D01*
X109726983Y-100225600D01*
X109595000Y-100225600D01*
X109595000Y-102238399D01*
X109726983Y-102238399D01*
X109822149Y-102223326D01*
X109890196Y-102188655D01*
X109948440Y-102174926D01*
X110006449Y-102189616D01*
X110051139Y-102229410D01*
X110072431Y-102285334D01*
X110075294Y-102308302D01*
X110075371Y-102308542D01*
X110079181Y-102315583D01*
X110079182Y-102315586D01*
X110102988Y-102359576D01*
X110104492Y-102362355D01*
X110106874Y-102366984D01*
X110133742Y-102421943D01*
X110133884Y-102422134D01*
X110139779Y-102427561D01*
X110139780Y-102427562D01*
X110178931Y-102463603D01*
X110182663Y-102467185D01*
X111150883Y-103435405D01*
X111181621Y-103485564D01*
X111186237Y-103544211D01*
X111163724Y-103598561D01*
X111118991Y-103636767D01*
X111061788Y-103650500D01*
X110401213Y-103650500D01*
X110352995Y-103640909D01*
X110312118Y-103613595D01*
X109105057Y-102406534D01*
X109072445Y-102350050D01*
X109072445Y-102284828D01*
X109095000Y-102245763D01*
X109095000Y-100225601D01*
X108963017Y-100225601D01*
X108867848Y-100240673D01*
X108809702Y-100270300D01*
X108747553Y-100283936D01*
X108686665Y-100265465D01*
X108642565Y-100219599D01*
X108626500Y-100158033D01*
X108626500Y-97268634D01*
X108629182Y-97242776D01*
X108631445Y-97231983D01*
X108627468Y-97200079D01*
X108626500Y-97184493D01*
X108626500Y-97184388D01*
X108624360Y-97171567D01*
X108623022Y-97163557D01*
X108622276Y-97158439D01*
X108615696Y-97105640D01*
X108615695Y-97105639D01*
X108614704Y-97097681D01*
X108614635Y-97097468D01*
X108610496Y-97089820D01*
X108585508Y-97043647D01*
X108583132Y-97039030D01*
X108556261Y-96984063D01*
X108556109Y-96983860D01*
X108552164Y-96980228D01*
X108522112Y-96938140D01*
X108511499Y-96887525D01*
X108511499Y-96498252D01*
X108510487Y-96487460D01*
X108508621Y-96467549D01*
X108463369Y-96338227D01*
X108395182Y-96245837D01*
X108382010Y-96227989D01*
X108271771Y-96146629D01*
X108142454Y-96101379D01*
X108127100Y-96099939D01*
X108111749Y-96098500D01*
X108111746Y-96098500D01*
X107452252Y-96098500D01*
X107421547Y-96101379D01*
X107292228Y-96146630D01*
X107181989Y-96227989D01*
X107121379Y-96310114D01*
X107076782Y-96347772D01*
X107020000Y-96361292D01*
X106963218Y-96347772D01*
X106918621Y-96310114D01*
X106858010Y-96227989D01*
X106747771Y-96146629D01*
X106618454Y-96101379D01*
X106603100Y-96099939D01*
X106587749Y-96098500D01*
X106587746Y-96098500D01*
X105928252Y-96098500D01*
X105897547Y-96101379D01*
X105768228Y-96146630D01*
X105657989Y-96227989D01*
X105576629Y-96338228D01*
X105531379Y-96467545D01*
X105528500Y-96498253D01*
X105528500Y-97007747D01*
X105531379Y-97038452D01*
X105576630Y-97167771D01*
X105576631Y-97167773D01*
X105599191Y-97198340D01*
X105657989Y-97278010D01*
X105768228Y-97359370D01*
X105897545Y-97404620D01*
X105897546Y-97404620D01*
X105897549Y-97404621D01*
X105928251Y-97407500D01*
X106320787Y-97407499D01*
X106369005Y-97417090D01*
X106409882Y-97444404D01*
X106726595Y-97761117D01*
X106753909Y-97801994D01*
X106763500Y-97850212D01*
X106763500Y-100262445D01*
X106751403Y-100316317D01*
X106717433Y-100359844D01*
X106668115Y-100384669D01*
X106612919Y-100386023D01*
X106570067Y-100377500D01*
X106570065Y-100377500D01*
X105819931Y-100377500D01*
X105745699Y-100392265D01*
X105661515Y-100448515D01*
X105605266Y-100532698D01*
X105590500Y-100606934D01*
X105590500Y-100724500D01*
X105573619Y-100787500D01*
X105527500Y-100833619D01*
X105464500Y-100850500D01*
X105395075Y-100850500D01*
X105354573Y-100843813D01*
X105318371Y-100824462D01*
X105218262Y-100747645D01*
X105083371Y-100691771D01*
X104938618Y-100672715D01*
X104793864Y-100691771D01*
X104658974Y-100747645D01*
X104543143Y-100836525D01*
X104454263Y-100952356D01*
X104398389Y-101087246D01*
X104381919Y-101212352D01*
X104370003Y-101251634D01*
X104346092Y-101285001D01*
X104172195Y-101458898D01*
X104150052Y-101472052D01*
X104136898Y-101494195D01*
X103882783Y-101748310D01*
X103821727Y-101782056D01*
X103752076Y-101778145D01*
X103738455Y-101773379D01*
X103720907Y-101771733D01*
X103707749Y-101770500D01*
X103707746Y-101770500D01*
X103048252Y-101770500D01*
X103017547Y-101773379D01*
X102888228Y-101818630D01*
X102777989Y-101899989D01*
X102696629Y-102010228D01*
X102651379Y-102139545D01*
X102650546Y-102148434D01*
X102648541Y-102169820D01*
X102648500Y-102170253D01*
X102648500Y-102679747D01*
X102651379Y-102710452D01*
X102681706Y-102797121D01*
X102696631Y-102839773D01*
X102701853Y-102846848D01*
X102777989Y-102950010D01*
X102837316Y-102993795D01*
X102888227Y-103031369D01*
X102912116Y-103039728D01*
X102956201Y-103066292D01*
X102985987Y-103108270D01*
X102996500Y-103158657D01*
X102996500Y-103224796D01*
X102986327Y-103274396D01*
X102957450Y-103315986D01*
X102914533Y-103342852D01*
X102895835Y-103349825D01*
X102785455Y-103432455D01*
X102702825Y-103542836D01*
X102667791Y-103636767D01*
X102654640Y-103672027D01*
X102648500Y-103729136D01*
X102648500Y-104270864D01*
X102654640Y-104327973D01*
X102687510Y-104416102D01*
X102702825Y-104457163D01*
X102785454Y-104567543D01*
X102803281Y-104580888D01*
X102841932Y-104628434D01*
X102853586Y-104688590D01*
X102835485Y-104747130D01*
X102791911Y-104790209D01*
X102737933Y-104822131D01*
X102625133Y-104934931D01*
X102543923Y-105072249D01*
X102499417Y-105225439D01*
X102496600Y-105261241D01*
X102496600Y-105300000D01*
X104268787Y-105300000D01*
X104281372Y-105291591D01*
X104329590Y-105282000D01*
X106151399Y-105282000D01*
X106151399Y-104900017D01*
X106136326Y-104804848D01*
X106077882Y-104690144D01*
X105986855Y-104599117D01*
X105872151Y-104540673D01*
X105776983Y-104525600D01*
X105721000Y-104525600D01*
X105658000Y-104508719D01*
X105611881Y-104462600D01*
X105595000Y-104399600D01*
X105595000Y-102195289D01*
X105607097Y-102141417D01*
X105641067Y-102097889D01*
X105690385Y-102073065D01*
X105745582Y-102071710D01*
X105745697Y-102071732D01*
X105745699Y-102071734D01*
X105819933Y-102086500D01*
X106570066Y-102086499D01*
X106644301Y-102071734D01*
X106644301Y-102071733D01*
X106645420Y-102071511D01*
X106694582Y-102071511D01*
X106695697Y-102071732D01*
X106695699Y-102071734D01*
X106769933Y-102086500D01*
X107520066Y-102086499D01*
X107520068Y-102086499D01*
X107583642Y-102073854D01*
X107594301Y-102071734D01*
X107624998Y-102051222D01*
X107670418Y-102032408D01*
X107719582Y-102032408D01*
X107765001Y-102051222D01*
X107795365Y-102071511D01*
X107816539Y-102085659D01*
X107816326Y-102085977D01*
X107818185Y-102086750D01*
X107854320Y-102125086D01*
X107871621Y-102174844D01*
X107873463Y-102189616D01*
X107875294Y-102204302D01*
X107875371Y-102204542D01*
X107879181Y-102211583D01*
X107879182Y-102211586D01*
X107902372Y-102254437D01*
X107904492Y-102258355D01*
X107906874Y-102262984D01*
X107933742Y-102317943D01*
X107933884Y-102318134D01*
X107939779Y-102323561D01*
X107939780Y-102323562D01*
X107978929Y-102359601D01*
X107982661Y-102363183D01*
X109884018Y-104264541D01*
X109900406Y-104284721D01*
X109906438Y-104293954D01*
X109906439Y-104293955D01*
X109906440Y-104293956D01*
X109931818Y-104313708D01*
X109943523Y-104324046D01*
X109943591Y-104324114D01*
X109960792Y-104336395D01*
X109964931Y-104339480D01*
X110006915Y-104372158D01*
X110013243Y-104377083D01*
X110013442Y-104377185D01*
X110021128Y-104379473D01*
X110021131Y-104379475D01*
X110072101Y-104394649D01*
X110077016Y-104396223D01*
X110127339Y-104413500D01*
X110127342Y-104413500D01*
X110134921Y-104416102D01*
X110135151Y-104416136D01*
X110143158Y-104415804D01*
X110143159Y-104415805D01*
X110196284Y-104413607D01*
X110201490Y-104413500D01*
X118539684Y-104413500D01*
X118587902Y-104423091D01*
X118628779Y-104450405D01*
X123219911Y-109041537D01*
X123236299Y-109061716D01*
X123242336Y-109070957D01*
X123267711Y-109090706D01*
X123279424Y-109101050D01*
X123279487Y-109101113D01*
X123296669Y-109113380D01*
X123300826Y-109116479D01*
X123342811Y-109149158D01*
X123349130Y-109154076D01*
X123349352Y-109154190D01*
X123357024Y-109156474D01*
X123357026Y-109156475D01*
X123408031Y-109171659D01*
X123412896Y-109173217D01*
X123463235Y-109190500D01*
X123463238Y-109190500D01*
X123470817Y-109193102D01*
X123471046Y-109193136D01*
X123479053Y-109192804D01*
X123479054Y-109192805D01*
X123532168Y-109190608D01*
X123537376Y-109190500D01*
X130739484Y-109190500D01*
X130795213Y-109203494D01*
X130839447Y-109239797D01*
X130863063Y-109291921D01*
X130876265Y-109358302D01*
X130886754Y-109373999D01*
X130905568Y-109419419D01*
X130905568Y-109468581D01*
X130886755Y-109514001D01*
X130876266Y-109529698D01*
X130861500Y-109603933D01*
X130861500Y-110554068D01*
X130876265Y-110628302D01*
X130886754Y-110643999D01*
X130905568Y-110689419D01*
X130905568Y-110738581D01*
X130886755Y-110784001D01*
X130876266Y-110799698D01*
X130861500Y-110873933D01*
X130861500Y-111824068D01*
X130876265Y-111898302D01*
X130886754Y-111913999D01*
X130905568Y-111959419D01*
X130905568Y-112008581D01*
X130886755Y-112054001D01*
X130876266Y-112069698D01*
X130876265Y-112069699D01*
X130876266Y-112069699D01*
X130865975Y-112121439D01*
X130863062Y-112136082D01*
X130839445Y-112188204D01*
X130795211Y-112224506D01*
X130739483Y-112237500D01*
X129545213Y-112237500D01*
X129496995Y-112227909D01*
X129456117Y-112200595D01*
X128638563Y-111383040D01*
X128605140Y-111323359D01*
X128607826Y-111255009D01*
X128628196Y-111192318D01*
X128648620Y-110998000D01*
X128628196Y-110803682D01*
X128567818Y-110617856D01*
X128470123Y-110448644D01*
X128470122Y-110448642D01*
X128339384Y-110303443D01*
X128331800Y-110297933D01*
X128181310Y-110188595D01*
X128002813Y-110109124D01*
X127811694Y-110068500D01*
X127616306Y-110068500D01*
X127425187Y-110109124D01*
X127425184Y-110109125D01*
X127425185Y-110109125D01*
X127246689Y-110188595D01*
X127088615Y-110303443D01*
X126957877Y-110448642D01*
X126860181Y-110617855D01*
X126833833Y-110698950D01*
X126800253Y-110751864D01*
X126745335Y-110782055D01*
X126682665Y-110782055D01*
X126627747Y-110751864D01*
X126594167Y-110698950D01*
X126567818Y-110617855D01*
X126470122Y-110448642D01*
X126339384Y-110303443D01*
X126331800Y-110297933D01*
X126181310Y-110188595D01*
X126002813Y-110109124D01*
X125811694Y-110068500D01*
X125616306Y-110068500D01*
X125425187Y-110109124D01*
X125425184Y-110109125D01*
X125425185Y-110109125D01*
X125246689Y-110188595D01*
X125088615Y-110303443D01*
X124957877Y-110448642D01*
X124909086Y-110533151D01*
X124861279Y-110580228D01*
X124796087Y-110596091D01*
X124731995Y-110576244D01*
X124687176Y-110526314D01*
X124637362Y-110426274D01*
X124516588Y-110266345D01*
X124368479Y-110131326D01*
X124198088Y-110025823D01*
X124011203Y-109953425D01*
X123964000Y-109944600D01*
X123964000Y-112051399D01*
X124011203Y-112042574D01*
X124198088Y-111970176D01*
X124368479Y-111864673D01*
X124516588Y-111729654D01*
X124637362Y-111569725D01*
X124687176Y-111469685D01*
X124731995Y-111419755D01*
X124796087Y-111399908D01*
X124861279Y-111415772D01*
X124909086Y-111462848D01*
X124957877Y-111547357D01*
X125088615Y-111692556D01*
X125088617Y-111692558D01*
X125246690Y-111807405D01*
X125425187Y-111886876D01*
X125616306Y-111927500D01*
X125811694Y-111927500D01*
X125811695Y-111927500D01*
X125881162Y-111912734D01*
X125985824Y-111890487D01*
X126047807Y-111892922D01*
X126101116Y-111924638D01*
X128298015Y-114121537D01*
X128314403Y-114141716D01*
X128320440Y-114150957D01*
X128345815Y-114170706D01*
X128357527Y-114181049D01*
X128357591Y-114181113D01*
X128364405Y-114185978D01*
X128374773Y-114193380D01*
X128378930Y-114196479D01*
X128392533Y-114207067D01*
X128427234Y-114234076D01*
X128427456Y-114234190D01*
X128435128Y-114236474D01*
X128435130Y-114236475D01*
X128486135Y-114251659D01*
X128491000Y-114253217D01*
X128541339Y-114270500D01*
X128541342Y-114270500D01*
X128548921Y-114273102D01*
X128549150Y-114273136D01*
X128557157Y-114272804D01*
X128557158Y-114272805D01*
X128610272Y-114270608D01*
X128615480Y-114270500D01*
X129302275Y-114270500D01*
X129361671Y-114285378D01*
X129407040Y-114326498D01*
X129427668Y-114384150D01*
X129418684Y-114444718D01*
X129380771Y-114536246D01*
X129361715Y-114680999D01*
X129380771Y-114825753D01*
X129436644Y-114960642D01*
X129436645Y-114960643D01*
X129525526Y-115076474D01*
X129641357Y-115165355D01*
X129776246Y-115221228D01*
X129901353Y-115237698D01*
X129940635Y-115249614D01*
X129974002Y-115273524D01*
X130033436Y-115332959D01*
X130092021Y-115391544D01*
X130108408Y-115411724D01*
X130114438Y-115420954D01*
X130114439Y-115420955D01*
X130114440Y-115420956D01*
X130139818Y-115440708D01*
X130151523Y-115451046D01*
X130151591Y-115451114D01*
X130168782Y-115463388D01*
X130172958Y-115466502D01*
X130221237Y-115504079D01*
X130221451Y-115504189D01*
X130229129Y-115506474D01*
X130229130Y-115506475D01*
X130280133Y-115521658D01*
X130284997Y-115523216D01*
X130335339Y-115540500D01*
X130335341Y-115540500D01*
X130342920Y-115543102D01*
X130343151Y-115543136D01*
X130351158Y-115542804D01*
X130351159Y-115542805D01*
X130404273Y-115540607D01*
X130409480Y-115540500D01*
X130739484Y-115540500D01*
X130795213Y-115553494D01*
X130839447Y-115589797D01*
X130863063Y-115641921D01*
X130876265Y-115708302D01*
X130886754Y-115723999D01*
X130905568Y-115769419D01*
X130905568Y-115818581D01*
X130886755Y-115864001D01*
X130876266Y-115879698D01*
X130859079Y-115966105D01*
X130857662Y-115965823D01*
X130844619Y-116014500D01*
X130798500Y-116060619D01*
X130735500Y-116077500D01*
X130123457Y-116077500D01*
X130082955Y-116070813D01*
X130046753Y-116051462D01*
X129946644Y-115974645D01*
X129811753Y-115918771D01*
X129667000Y-115899715D01*
X129522246Y-115918771D01*
X129387356Y-115974645D01*
X129271525Y-116063525D01*
X129182645Y-116179356D01*
X129126771Y-116314246D01*
X129107715Y-116459000D01*
X129126771Y-116603753D01*
X129182644Y-116738642D01*
X129182645Y-116738643D01*
X129271526Y-116854474D01*
X129387357Y-116943355D01*
X129522246Y-116999228D01*
X129667000Y-117018285D01*
X129811754Y-116999228D01*
X129946643Y-116943355D01*
X129997845Y-116904066D01*
X130046753Y-116866538D01*
X130082955Y-116847187D01*
X130123457Y-116840500D01*
X130662414Y-116840500D01*
X130723980Y-116856565D01*
X130769846Y-116900665D01*
X130788317Y-116961553D01*
X130774681Y-117023702D01*
X130724673Y-117121848D01*
X130709600Y-117217017D01*
X130709600Y-117449000D01*
X133022399Y-117449000D01*
X133022399Y-117217017D01*
X133007326Y-117121848D01*
X132948883Y-117007147D01*
X132907404Y-116965668D01*
X132880090Y-116924791D01*
X132870499Y-116876576D01*
X132870499Y-115953934D01*
X132866136Y-115932000D01*
X132855734Y-115879699D01*
X132845245Y-115864001D01*
X132826431Y-115818580D01*
X132826431Y-115769416D01*
X132845243Y-115724000D01*
X132855734Y-115708301D01*
X132870500Y-115634067D01*
X132870499Y-114683934D01*
X132870499Y-114683933D01*
X132870499Y-114683931D01*
X132855734Y-114609699D01*
X132845245Y-114594001D01*
X132826431Y-114548580D01*
X132826431Y-114499416D01*
X132845243Y-114454000D01*
X132855734Y-114438301D01*
X132870500Y-114364067D01*
X132870499Y-113413934D01*
X132870499Y-113413933D01*
X132870499Y-113413931D01*
X132855734Y-113339699D01*
X132845245Y-113324001D01*
X132826431Y-113278580D01*
X132826431Y-113229416D01*
X132845243Y-113184000D01*
X132855734Y-113168301D01*
X132870500Y-113094067D01*
X132870500Y-112633880D01*
X141124672Y-112633880D01*
X141163665Y-112654344D01*
X141330230Y-112695400D01*
X141501770Y-112695400D01*
X141668334Y-112654345D01*
X141707326Y-112633880D01*
X142524672Y-112633880D01*
X142563665Y-112654344D01*
X142730230Y-112695400D01*
X142901770Y-112695400D01*
X143068334Y-112654345D01*
X143107326Y-112633880D01*
X143107326Y-112633878D01*
X142816001Y-112342553D01*
X142816000Y-112342553D01*
X142524672Y-112633879D01*
X142524672Y-112633880D01*
X141707326Y-112633880D01*
X141707326Y-112633878D01*
X141416001Y-112342553D01*
X141416000Y-112342553D01*
X141124672Y-112633879D01*
X141124672Y-112633880D01*
X132870500Y-112633880D01*
X132870499Y-112143934D01*
X132870499Y-112143933D01*
X132870499Y-112143931D01*
X132855734Y-112069699D01*
X132845245Y-112054001D01*
X132826431Y-112008580D01*
X132826431Y-111959416D01*
X132845243Y-111914000D01*
X132847260Y-111910982D01*
X139809600Y-111910982D01*
X139824673Y-112006151D01*
X139883117Y-112120855D01*
X139974144Y-112211882D01*
X140088848Y-112270326D01*
X140184016Y-112285399D01*
X140766046Y-112285399D01*
X140766048Y-112285398D01*
X141326905Y-111724542D01*
X141383389Y-111691930D01*
X141448611Y-111691930D01*
X141505096Y-111724542D01*
X141866000Y-112085446D01*
X141866000Y-111629000D01*
X140592000Y-111629000D01*
X140529000Y-111612119D01*
X140482881Y-111566000D01*
X140466000Y-111503000D01*
X140466000Y-110229000D01*
X140966000Y-110229000D01*
X140966000Y-111129000D01*
X141866000Y-111129000D01*
X141866000Y-110229000D01*
X142366000Y-110229000D01*
X142366000Y-111129000D01*
X143266000Y-111129000D01*
X143266000Y-110229000D01*
X142366000Y-110229000D01*
X141866000Y-110229000D01*
X140966000Y-110229000D01*
X140466000Y-110229000D01*
X140011553Y-110229000D01*
X140108000Y-110325446D01*
X140108000Y-110325447D01*
X140372457Y-110589904D01*
X140405069Y-110646388D01*
X140405069Y-110711610D01*
X140372457Y-110768094D01*
X139809600Y-111330950D01*
X139809600Y-111910982D01*
X132847260Y-111910982D01*
X132855734Y-111898301D01*
X132870500Y-111824067D01*
X132870499Y-111824062D01*
X132871251Y-111820287D01*
X132891783Y-111772359D01*
X132929961Y-111736848D01*
X132979243Y-111719835D01*
X132980360Y-111719696D01*
X132980362Y-111719694D01*
X132988327Y-111718702D01*
X132988524Y-111718639D01*
X132995583Y-111714818D01*
X132995586Y-111714818D01*
X133042380Y-111689493D01*
X133046943Y-111687144D01*
X133094746Y-111663776D01*
X133094747Y-111663774D01*
X133101959Y-111660249D01*
X133102123Y-111660127D01*
X133107559Y-111654221D01*
X133107562Y-111654220D01*
X133143616Y-111615053D01*
X133147151Y-111611369D01*
X134079522Y-110678999D01*
X139396411Y-110678999D01*
X139417088Y-110849292D01*
X139463026Y-110970419D01*
X139754447Y-110679000D01*
X139754447Y-110678999D01*
X139463026Y-110387578D01*
X139463025Y-110387578D01*
X139417088Y-110508706D01*
X139396411Y-110678999D01*
X134079522Y-110678999D01*
X134090548Y-110667973D01*
X134110723Y-110651591D01*
X134119956Y-110645560D01*
X134139713Y-110620174D01*
X134150038Y-110608484D01*
X134150114Y-110608409D01*
X134162397Y-110591204D01*
X134165482Y-110587065D01*
X134198158Y-110545085D01*
X134198158Y-110545083D01*
X134203086Y-110538753D01*
X134203186Y-110538559D01*
X134206831Y-110526314D01*
X134220655Y-110479875D01*
X134222215Y-110475005D01*
X134239500Y-110424661D01*
X134239500Y-110424657D01*
X134242102Y-110417078D01*
X134242136Y-110416848D01*
X134240925Y-110387579D01*
X134239607Y-110355726D01*
X134239500Y-110350520D01*
X134239500Y-109278999D01*
X139396411Y-109278999D01*
X139417088Y-109449292D01*
X139463026Y-109570419D01*
X139754447Y-109279000D01*
X139754447Y-109278999D01*
X139463026Y-108987578D01*
X139463025Y-108987578D01*
X139417088Y-109108706D01*
X139396411Y-109278999D01*
X134239500Y-109278999D01*
X134239500Y-108627047D01*
X139809600Y-108627047D01*
X140108000Y-108925446D01*
X140108000Y-108925447D01*
X140372457Y-109189904D01*
X140405069Y-109246388D01*
X140405069Y-109311610D01*
X140372458Y-109368094D01*
X140011552Y-109728999D01*
X140011553Y-109729000D01*
X140466000Y-109729000D01*
X140466000Y-108829000D01*
X140966000Y-108829000D01*
X140966000Y-109729000D01*
X141866000Y-109729000D01*
X141866000Y-108829000D01*
X142366000Y-108829000D01*
X142366000Y-109729000D01*
X143266000Y-109729000D01*
X143266000Y-108829000D01*
X142366000Y-108829000D01*
X141866000Y-108829000D01*
X140966000Y-108829000D01*
X140466000Y-108829000D01*
X140466000Y-108455000D01*
X140482881Y-108392000D01*
X140529000Y-108345881D01*
X140592000Y-108329000D01*
X143640000Y-108329000D01*
X143703000Y-108345881D01*
X143749119Y-108392000D01*
X143766000Y-108455000D01*
X143766000Y-111503000D01*
X143749119Y-111566000D01*
X143703000Y-111612119D01*
X143640000Y-111629000D01*
X142366000Y-111629000D01*
X142366000Y-112085445D01*
X142726904Y-111724542D01*
X142783389Y-111691930D01*
X142848611Y-111691930D01*
X142905096Y-111724542D01*
X143465952Y-112285399D01*
X144047983Y-112285399D01*
X144143151Y-112270326D01*
X144257855Y-112211882D01*
X144348882Y-112120855D01*
X144407326Y-112006151D01*
X144422399Y-111910983D01*
X144422399Y-111421530D01*
X144440570Y-111356346D01*
X144461364Y-111336771D01*
X144463326Y-111323878D01*
X143907542Y-110768094D01*
X143874930Y-110711610D01*
X143874930Y-110679001D01*
X144525553Y-110679001D01*
X144816971Y-110970419D01*
X144816973Y-110970419D01*
X144862911Y-110849292D01*
X144883588Y-110679000D01*
X144862911Y-110508707D01*
X144816973Y-110387579D01*
X144816972Y-110387579D01*
X144525553Y-110679000D01*
X144525553Y-110679001D01*
X143874930Y-110679001D01*
X143874930Y-110646388D01*
X143907542Y-110589903D01*
X144172000Y-110325446D01*
X144172003Y-110325443D01*
X144463326Y-110034119D01*
X144457823Y-109997961D01*
X144457823Y-109960041D01*
X144463326Y-109923878D01*
X143907542Y-109368094D01*
X143874930Y-109311610D01*
X143874930Y-109279001D01*
X144525553Y-109279001D01*
X144816971Y-109570419D01*
X144816973Y-109570419D01*
X144862911Y-109449292D01*
X144883588Y-109279000D01*
X144862911Y-109108707D01*
X144816973Y-108987579D01*
X144816972Y-108987579D01*
X144525553Y-109279000D01*
X144525553Y-109279001D01*
X143874930Y-109279001D01*
X143874930Y-109246388D01*
X143907542Y-109189903D01*
X144172000Y-108925446D01*
X144172003Y-108925443D01*
X144463327Y-108634118D01*
X144461365Y-108621227D01*
X144440571Y-108601653D01*
X144422399Y-108536468D01*
X144422399Y-108047017D01*
X144407326Y-107951848D01*
X144348882Y-107837144D01*
X144257855Y-107746117D01*
X144143151Y-107687673D01*
X144047983Y-107672600D01*
X143562743Y-107672600D01*
X143513355Y-107662517D01*
X143476152Y-107636837D01*
X143460971Y-107633579D01*
X142905094Y-108189457D01*
X142848610Y-108222069D01*
X142783388Y-108222069D01*
X142726903Y-108189457D01*
X142171025Y-107633578D01*
X142142442Y-107639714D01*
X142089556Y-107639714D01*
X142060972Y-107633578D01*
X141505094Y-108189457D01*
X141448610Y-108222069D01*
X141383388Y-108222069D01*
X141326903Y-108189457D01*
X140771026Y-107633579D01*
X140755847Y-107636837D01*
X140718641Y-107662518D01*
X140669255Y-107672600D01*
X140184017Y-107672600D01*
X140088848Y-107687673D01*
X139974144Y-107746117D01*
X139883117Y-107837144D01*
X139824673Y-107951848D01*
X139809600Y-108047017D01*
X139809600Y-108627047D01*
X134239500Y-108627047D01*
X134239500Y-107280119D01*
X141124671Y-107280119D01*
X141415999Y-107571447D01*
X141416000Y-107571447D01*
X141707326Y-107280119D01*
X142524671Y-107280119D01*
X142815999Y-107571447D01*
X142816000Y-107571447D01*
X143107327Y-107280118D01*
X143068336Y-107259655D01*
X142901770Y-107218600D01*
X142730230Y-107218600D01*
X142563667Y-107259654D01*
X142524671Y-107280119D01*
X141707326Y-107280119D01*
X141707327Y-107280118D01*
X141668336Y-107259655D01*
X141501770Y-107218600D01*
X141330230Y-107218600D01*
X141163667Y-107259654D01*
X141124671Y-107280119D01*
X134239500Y-107280119D01*
X134239500Y-101060942D01*
X134251597Y-101007070D01*
X134285567Y-100963543D01*
X134334885Y-100938718D01*
X134390080Y-100937363D01*
X134420933Y-100943500D01*
X135371066Y-100943499D01*
X135371068Y-100943499D01*
X135434637Y-100930855D01*
X135445301Y-100928734D01*
X135460997Y-100918245D01*
X135506418Y-100899431D01*
X135555581Y-100899431D01*
X135600998Y-100918243D01*
X135616699Y-100928734D01*
X135690933Y-100943500D01*
X136641066Y-100943499D01*
X136641068Y-100943499D01*
X136704637Y-100930855D01*
X136715301Y-100928734D01*
X136730997Y-100918245D01*
X136776418Y-100899431D01*
X136825581Y-100899431D01*
X136870998Y-100918243D01*
X136886699Y-100928734D01*
X136960933Y-100943500D01*
X137911066Y-100943499D01*
X137911068Y-100943499D01*
X137974637Y-100930855D01*
X137985301Y-100928734D01*
X138000997Y-100918245D01*
X138046418Y-100899431D01*
X138095581Y-100899431D01*
X138140998Y-100918243D01*
X138156699Y-100928734D01*
X138230933Y-100943500D01*
X139181066Y-100943499D01*
X139181068Y-100943499D01*
X139244637Y-100930855D01*
X139255301Y-100928734D01*
X139270997Y-100918245D01*
X139316418Y-100899431D01*
X139365581Y-100899431D01*
X139410998Y-100918243D01*
X139426699Y-100928734D01*
X139500933Y-100943500D01*
X140451066Y-100943499D01*
X140451068Y-100943499D01*
X140514637Y-100930855D01*
X140525301Y-100928734D01*
X140540997Y-100918245D01*
X140586418Y-100899431D01*
X140635581Y-100899431D01*
X140680998Y-100918243D01*
X140696699Y-100928734D01*
X140770933Y-100943500D01*
X141721066Y-100943499D01*
X141721068Y-100943499D01*
X141784637Y-100930855D01*
X141795301Y-100928734D01*
X141810997Y-100918245D01*
X141856418Y-100899431D01*
X141905581Y-100899431D01*
X141950998Y-100918243D01*
X141966699Y-100928734D01*
X142040933Y-100943500D01*
X142991066Y-100943499D01*
X142991068Y-100943499D01*
X143054637Y-100930855D01*
X143065301Y-100928734D01*
X143080997Y-100918245D01*
X143126418Y-100899431D01*
X143175581Y-100899431D01*
X143220998Y-100918243D01*
X143236699Y-100928734D01*
X143310933Y-100943500D01*
X144261066Y-100943499D01*
X144261068Y-100943499D01*
X144324637Y-100930855D01*
X144335301Y-100928734D01*
X144350997Y-100918245D01*
X144396418Y-100899431D01*
X144445581Y-100899431D01*
X144490998Y-100918243D01*
X144506699Y-100928734D01*
X144580933Y-100943500D01*
X145503571Y-100943499D01*
X145551789Y-100953090D01*
X145592666Y-100980404D01*
X145634144Y-101021882D01*
X145748848Y-101080326D01*
X145844017Y-101095400D01*
X146076000Y-101095400D01*
X146076000Y-100189000D01*
X146576000Y-100189000D01*
X146576000Y-101095399D01*
X146807983Y-101095399D01*
X146903151Y-101080326D01*
X147017855Y-101021882D01*
X147108882Y-100930855D01*
X147167326Y-100816151D01*
X147182400Y-100720983D01*
X147182400Y-100189000D01*
X146576000Y-100189000D01*
X146076000Y-100189000D01*
X146076000Y-99899999D01*
X150640715Y-99899999D01*
X150659771Y-100044753D01*
X150715644Y-100179642D01*
X150715645Y-100179643D01*
X150804526Y-100295474D01*
X150920357Y-100384355D01*
X151055246Y-100440228D01*
X151200000Y-100459285D01*
X151344754Y-100440228D01*
X151479643Y-100384355D01*
X151595474Y-100295474D01*
X151684355Y-100179643D01*
X151740228Y-100044754D01*
X151759285Y-99900000D01*
X151740228Y-99755246D01*
X151684355Y-99620358D01*
X151684354Y-99620357D01*
X151684354Y-99620356D01*
X151595475Y-99504527D01*
X151595472Y-99504525D01*
X151512686Y-99441000D01*
X151479642Y-99415644D01*
X151344753Y-99359771D01*
X151200000Y-99340715D01*
X151055246Y-99359771D01*
X150920356Y-99415645D01*
X150804525Y-99504525D01*
X150715645Y-99620356D01*
X150659771Y-99755246D01*
X150640715Y-99899999D01*
X146076000Y-99899999D01*
X146076000Y-99815000D01*
X146092881Y-99752000D01*
X146139000Y-99705881D01*
X146202000Y-99689000D01*
X147182399Y-99689000D01*
X147182399Y-99157017D01*
X147170076Y-99079210D01*
X147173256Y-99025298D01*
X147198714Y-98977669D01*
X147241774Y-98945074D01*
X147294525Y-98933500D01*
X161612962Y-98933500D01*
X161672572Y-98948492D01*
X161717996Y-98989902D01*
X161738424Y-99047874D01*
X161755654Y-99233819D01*
X161811672Y-99430702D01*
X161902910Y-99613933D01*
X161959598Y-99689000D01*
X162026268Y-99777285D01*
X162177538Y-99915186D01*
X162246332Y-99957782D01*
X162290076Y-100003594D01*
X162306000Y-100064907D01*
X162306000Y-100535093D01*
X162290076Y-100596406D01*
X162246332Y-100642217D01*
X162200463Y-100670619D01*
X162177537Y-100684814D01*
X162026267Y-100822716D01*
X161902910Y-100986066D01*
X161811672Y-101169297D01*
X161755654Y-101366180D01*
X161736767Y-101569999D01*
X161755654Y-101773819D01*
X161812252Y-101972743D01*
X161813016Y-102038897D01*
X161780157Y-102096319D01*
X160565882Y-103310595D01*
X160525005Y-103337909D01*
X160476787Y-103347500D01*
X150492516Y-103347500D01*
X150436787Y-103334506D01*
X150392553Y-103298203D01*
X150368937Y-103246079D01*
X150355734Y-103179699D01*
X150345245Y-103164001D01*
X150326431Y-103118580D01*
X150326431Y-103069416D01*
X150345243Y-103024000D01*
X150355734Y-103008301D01*
X150370500Y-102934067D01*
X150370499Y-101983934D01*
X150370499Y-101983933D01*
X150370499Y-101983931D01*
X150355734Y-101909699D01*
X150345245Y-101894001D01*
X150326431Y-101848580D01*
X150326431Y-101799416D01*
X150345243Y-101754000D01*
X150355734Y-101738301D01*
X150370500Y-101664067D01*
X150370499Y-100713934D01*
X150370499Y-100713933D01*
X150370499Y-100713931D01*
X150355734Y-100639699D01*
X150299484Y-100555515D01*
X150215301Y-100499266D01*
X150215300Y-100499265D01*
X150141066Y-100484500D01*
X148590931Y-100484500D01*
X148516699Y-100499265D01*
X148432515Y-100555515D01*
X148376266Y-100639698D01*
X148361500Y-100713933D01*
X148361500Y-101664068D01*
X148376265Y-101738302D01*
X148386754Y-101753999D01*
X148405568Y-101799419D01*
X148405568Y-101848581D01*
X148386755Y-101894001D01*
X148376266Y-101909698D01*
X148361500Y-101983933D01*
X148361500Y-102934068D01*
X148376265Y-103008302D01*
X148386754Y-103023999D01*
X148405568Y-103069419D01*
X148405568Y-103118581D01*
X148386755Y-103164001D01*
X148376266Y-103179698D01*
X148361500Y-103253933D01*
X148361500Y-104204068D01*
X148376265Y-104278302D01*
X148386754Y-104293999D01*
X148405568Y-104339419D01*
X148405568Y-104388581D01*
X148386755Y-104434001D01*
X148376266Y-104449698D01*
X148361500Y-104523933D01*
X148361500Y-105474068D01*
X148376265Y-105548302D01*
X148386754Y-105563999D01*
X148405568Y-105609419D01*
X148405568Y-105658581D01*
X148386755Y-105704001D01*
X148376266Y-105719698D01*
X148376265Y-105719699D01*
X148376266Y-105719699D01*
X148361501Y-105793931D01*
X148361500Y-105793934D01*
X148361500Y-106694618D01*
X148346622Y-106754014D01*
X148305502Y-106799383D01*
X148247850Y-106820011D01*
X148187282Y-106811027D01*
X148099753Y-106774771D01*
X147955000Y-106755715D01*
X147810246Y-106774771D01*
X147675356Y-106830645D01*
X147559525Y-106919525D01*
X147470645Y-107035356D01*
X147414771Y-107170246D01*
X147395715Y-107314999D01*
X147414771Y-107459753D01*
X147470644Y-107594642D01*
X147470645Y-107594643D01*
X147559526Y-107710474D01*
X147675357Y-107799355D01*
X147810246Y-107855228D01*
X147955000Y-107874285D01*
X147955002Y-107874284D01*
X147969256Y-107876161D01*
X147988053Y-107883581D01*
X147988978Y-107880476D01*
X148009129Y-107886474D01*
X148009130Y-107886475D01*
X148060133Y-107901658D01*
X148064997Y-107903216D01*
X148115339Y-107920500D01*
X148115341Y-107920500D01*
X148122920Y-107923102D01*
X148123151Y-107923136D01*
X148131158Y-107922804D01*
X148131159Y-107922805D01*
X148184273Y-107920607D01*
X148189480Y-107920500D01*
X148239484Y-107920500D01*
X148295213Y-107933494D01*
X148339447Y-107969797D01*
X148363063Y-108021921D01*
X148376265Y-108088302D01*
X148386754Y-108103999D01*
X148405568Y-108149419D01*
X148405568Y-108198581D01*
X148386755Y-108244001D01*
X148376266Y-108259698D01*
X148361500Y-108333933D01*
X148361500Y-109284068D01*
X148376265Y-109358302D01*
X148386754Y-109373999D01*
X148405568Y-109419419D01*
X148405568Y-109468581D01*
X148386755Y-109514001D01*
X148376266Y-109529698D01*
X148361500Y-109603933D01*
X148361500Y-110554068D01*
X148376265Y-110628302D01*
X148386754Y-110643999D01*
X148405568Y-110689419D01*
X148405568Y-110738581D01*
X148386755Y-110784001D01*
X148376266Y-110799698D01*
X148361500Y-110873933D01*
X148361500Y-111824068D01*
X148376265Y-111898302D01*
X148386754Y-111913999D01*
X148405568Y-111959419D01*
X148405568Y-112008581D01*
X148386755Y-112054001D01*
X148376266Y-112069698D01*
X148361500Y-112143933D01*
X148361500Y-113094068D01*
X148376265Y-113168302D01*
X148386754Y-113183999D01*
X148405568Y-113229419D01*
X148405568Y-113278581D01*
X148386755Y-113324001D01*
X148376266Y-113339698D01*
X148361500Y-113413933D01*
X148361500Y-114364068D01*
X148376265Y-114438302D01*
X148386754Y-114453999D01*
X148405568Y-114499419D01*
X148405568Y-114548581D01*
X148386755Y-114594001D01*
X148376266Y-114609698D01*
X148361500Y-114683933D01*
X148361500Y-115634068D01*
X148376265Y-115708302D01*
X148386754Y-115723999D01*
X148405568Y-115769419D01*
X148405568Y-115818581D01*
X148386755Y-115864001D01*
X148376266Y-115879698D01*
X148361500Y-115953934D01*
X148361500Y-116876570D01*
X148351909Y-116924787D01*
X148324597Y-116965664D01*
X148283116Y-117007145D01*
X148224673Y-117121848D01*
X148209600Y-117217017D01*
X148209600Y-117449000D01*
X150522399Y-117449000D01*
X150522399Y-117217017D01*
X150507326Y-117121849D01*
X150506743Y-117120704D01*
X150493106Y-117058554D01*
X150511576Y-116997666D01*
X150557443Y-116953566D01*
X150619009Y-116937500D01*
X151927375Y-116937500D01*
X151984578Y-116951233D01*
X152029311Y-116989439D01*
X152051824Y-117043789D01*
X152047208Y-117102436D01*
X152016470Y-117152595D01*
X151978133Y-117190931D01*
X151896923Y-117328249D01*
X151852417Y-117481439D01*
X151849600Y-117517241D01*
X151849600Y-117556000D01*
X153612399Y-117556000D01*
X153612399Y-117517240D01*
X153609582Y-117481441D01*
X153565076Y-117328249D01*
X153483866Y-117190931D01*
X153371068Y-117078133D01*
X153317089Y-117046210D01*
X153273514Y-117003130D01*
X153255413Y-116944589D01*
X153267067Y-116884433D01*
X153305720Y-116836887D01*
X153323545Y-116823543D01*
X153357383Y-116778341D01*
X153396172Y-116726524D01*
X153441362Y-116689004D01*
X153498653Y-116676045D01*
X153555592Y-116690466D01*
X153563207Y-116694463D01*
X153717529Y-116732500D01*
X153876469Y-116732500D01*
X153876471Y-116732500D01*
X154030793Y-116694463D01*
X154051436Y-116683628D01*
X154120013Y-116669594D01*
X154185499Y-116694326D01*
X154297731Y-116778341D01*
X154297732Y-116778341D01*
X154297733Y-116778342D01*
X154433658Y-116829040D01*
X154433661Y-116829040D01*
X154448487Y-116834570D01*
X154447703Y-116836669D01*
X154490456Y-116853857D01*
X154531248Y-116908853D01*
X154537254Y-116977062D01*
X154506701Y-117038340D01*
X154448612Y-117074591D01*
X154279241Y-117123797D01*
X154136486Y-117208222D01*
X154019222Y-117325486D01*
X153934797Y-117468241D01*
X153888529Y-117627498D01*
X153885600Y-117664719D01*
X153885600Y-117731000D01*
X156148399Y-117731000D01*
X156148399Y-117664719D01*
X156145470Y-117627499D01*
X156099202Y-117468241D01*
X156014777Y-117325486D01*
X155897513Y-117208222D01*
X155754758Y-117123797D01*
X155585390Y-117074591D01*
X155527299Y-117038338D01*
X155496747Y-116977058D01*
X155502756Y-116908848D01*
X155543552Y-116853853D01*
X155586295Y-116836671D01*
X155585512Y-116834571D01*
X155600340Y-116829040D01*
X155600342Y-116829040D01*
X155736267Y-116778342D01*
X155852404Y-116691404D01*
X155939342Y-116575267D01*
X155990040Y-116439342D01*
X155996500Y-116379255D01*
X155996500Y-116205000D01*
X157708651Y-116205000D01*
X157728424Y-116506691D01*
X157787408Y-116803223D01*
X157884589Y-117089510D01*
X158018314Y-117360676D01*
X158186281Y-117612056D01*
X158220439Y-117651006D01*
X158220440Y-117651006D01*
X159666447Y-116205001D01*
X160373553Y-116205001D01*
X161819558Y-117651006D01*
X161819560Y-117651006D01*
X161853715Y-117612061D01*
X162021685Y-117360677D01*
X162155410Y-117089510D01*
X162252591Y-116803223D01*
X162311575Y-116506691D01*
X162331348Y-116205000D01*
X162311575Y-115903308D01*
X162252591Y-115606776D01*
X162155410Y-115320489D01*
X162021685Y-115049324D01*
X161853718Y-114797943D01*
X161819559Y-114758992D01*
X161819558Y-114758992D01*
X160373553Y-116204999D01*
X160373553Y-116205001D01*
X159666447Y-116205001D01*
X159666447Y-116204999D01*
X158220440Y-114758992D01*
X158220438Y-114758992D01*
X158186283Y-114797940D01*
X158018314Y-115049323D01*
X157884589Y-115320489D01*
X157787408Y-115606776D01*
X157728424Y-115903308D01*
X157708651Y-116205000D01*
X155996500Y-116205000D01*
X155996499Y-115782746D01*
X155995066Y-115769419D01*
X155990184Y-115723999D01*
X155990040Y-115722658D01*
X155939342Y-115586733D01*
X155939341Y-115586731D01*
X155852404Y-115470595D01*
X155736268Y-115383658D01*
X155600339Y-115332959D01*
X155540255Y-115326500D01*
X155524500Y-115326500D01*
X155461500Y-115309619D01*
X155415381Y-115263500D01*
X155398500Y-115200500D01*
X155398500Y-114779657D01*
X155409013Y-114729270D01*
X155438799Y-114687292D01*
X155482883Y-114660728D01*
X155506773Y-114652369D01*
X155617010Y-114571010D01*
X155698369Y-114460773D01*
X155700740Y-114453999D01*
X155717731Y-114405440D01*
X158573992Y-114405440D01*
X160019999Y-115851447D01*
X160020001Y-115851447D01*
X161466006Y-114405440D01*
X161466006Y-114405439D01*
X161427056Y-114371281D01*
X161175676Y-114203314D01*
X160904510Y-114069589D01*
X160618223Y-113972408D01*
X160321691Y-113913424D01*
X160020000Y-113893651D01*
X159718308Y-113913424D01*
X159421776Y-113972408D01*
X159135489Y-114069589D01*
X158864323Y-114203314D01*
X158612940Y-114371283D01*
X158573992Y-114405438D01*
X158573992Y-114405440D01*
X155717731Y-114405440D01*
X155743620Y-114331454D01*
X155743620Y-114331453D01*
X155743621Y-114331451D01*
X155746500Y-114300749D01*
X155746499Y-113791252D01*
X155743621Y-113760549D01*
X155698369Y-113631227D01*
X155630182Y-113538837D01*
X155617010Y-113520989D01*
X155506771Y-113439629D01*
X155377454Y-113394379D01*
X155359029Y-113392651D01*
X155346749Y-113391500D01*
X155346747Y-113391500D01*
X154865211Y-113391500D01*
X154808008Y-113377767D01*
X154763275Y-113339560D01*
X154740762Y-113285210D01*
X154745378Y-113226563D01*
X154776115Y-113176405D01*
X154829299Y-113123223D01*
X154865120Y-113087403D01*
X154905997Y-113060090D01*
X154954214Y-113050499D01*
X155346748Y-113050499D01*
X155377451Y-113047621D01*
X155506773Y-113002369D01*
X155617010Y-112921010D01*
X155698369Y-112810773D01*
X155714419Y-112764907D01*
X155743620Y-112681454D01*
X155743620Y-112681453D01*
X155743621Y-112681451D01*
X155746500Y-112650749D01*
X155746499Y-112141252D01*
X155743621Y-112110549D01*
X155698369Y-111981227D01*
X155647818Y-111912733D01*
X155617010Y-111870989D01*
X155506773Y-111789631D01*
X155482883Y-111781271D01*
X155438799Y-111754708D01*
X155409013Y-111712730D01*
X155398500Y-111662343D01*
X155398500Y-110942500D01*
X155415381Y-110879500D01*
X155461500Y-110833381D01*
X155524500Y-110816500D01*
X158156501Y-110816500D01*
X158219501Y-110833381D01*
X158265620Y-110879500D01*
X158282501Y-110942500D01*
X158282501Y-111010068D01*
X158297265Y-111084300D01*
X158353515Y-111168484D01*
X158389187Y-111192319D01*
X158437699Y-111224734D01*
X158511933Y-111239500D01*
X160362066Y-111239499D01*
X160362068Y-111239499D01*
X160411556Y-111229655D01*
X160436301Y-111224734D01*
X160520484Y-111168484D01*
X160576734Y-111084301D01*
X160591500Y-111010067D01*
X160591499Y-109859934D01*
X160591499Y-109859933D01*
X160591499Y-109859931D01*
X160576734Y-109785699D01*
X160520484Y-109701515D01*
X160433796Y-109643592D01*
X160386297Y-109622072D01*
X160349994Y-109577838D01*
X160337000Y-109522109D01*
X160337000Y-107804080D01*
X160350733Y-107746877D01*
X160388939Y-107702144D01*
X160443289Y-107679631D01*
X160464151Y-107676326D01*
X160578855Y-107617882D01*
X160669882Y-107526855D01*
X160728326Y-107412151D01*
X160743400Y-107316983D01*
X160743400Y-106985000D01*
X159313000Y-106985000D01*
X159250000Y-106968119D01*
X159203881Y-106922000D01*
X159187000Y-106859000D01*
X159187000Y-106611000D01*
X159203881Y-106548000D01*
X159250000Y-106501881D01*
X159313000Y-106485000D01*
X160743399Y-106485000D01*
X160743399Y-106153017D01*
X160728326Y-106057848D01*
X160707871Y-106017702D01*
X160694235Y-105955553D01*
X160712705Y-105894665D01*
X160758572Y-105850565D01*
X160820138Y-105834500D01*
X161438788Y-105834500D01*
X161487006Y-105844091D01*
X161527883Y-105871405D01*
X161780158Y-106123680D01*
X161813017Y-106181102D01*
X161812253Y-106247256D01*
X161755654Y-106446180D01*
X161736767Y-106649999D01*
X161755654Y-106853819D01*
X161811672Y-107050702D01*
X161902910Y-107233933D01*
X161937788Y-107280118D01*
X162026268Y-107397285D01*
X162177538Y-107535186D01*
X162246332Y-107577782D01*
X162290076Y-107623594D01*
X162306000Y-107684907D01*
X162306000Y-107975252D01*
X162286267Y-108042952D01*
X162233250Y-108089447D01*
X162215399Y-108097770D01*
X162035313Y-108223868D01*
X161879868Y-108379313D01*
X161753770Y-108559399D01*
X161660859Y-108758648D01*
X161612265Y-108939999D01*
X161612266Y-108940000D01*
X162306000Y-108940000D01*
X162306000Y-109440000D01*
X161612266Y-109440000D01*
X161660860Y-109621353D01*
X161753769Y-109820599D01*
X161879868Y-110000686D01*
X162035313Y-110156131D01*
X162215398Y-110282228D01*
X162233248Y-110290552D01*
X162286267Y-110337048D01*
X162306000Y-110404748D01*
X162306000Y-110695093D01*
X162290076Y-110756406D01*
X162246332Y-110802217D01*
X162200698Y-110830474D01*
X162177537Y-110844814D01*
X162026267Y-110982716D01*
X161902910Y-111146066D01*
X161811672Y-111329297D01*
X161755654Y-111526180D01*
X161736767Y-111729999D01*
X161755654Y-111933819D01*
X161811672Y-112130702D01*
X161902910Y-112313933D01*
X161963314Y-112393921D01*
X162026268Y-112477285D01*
X162177538Y-112615186D01*
X162246332Y-112657782D01*
X162290076Y-112703594D01*
X162306000Y-112764907D01*
X162306000Y-114681000D01*
X165435500Y-114681000D01*
X165498500Y-114697881D01*
X165544619Y-114744000D01*
X165561500Y-114807000D01*
X165561500Y-118998327D01*
X165544537Y-119061470D01*
X165498214Y-119107611D01*
X165435007Y-119124325D01*
X164741505Y-119121605D01*
X164678715Y-119104561D01*
X164632799Y-119058464D01*
X164617237Y-119000236D01*
X164616001Y-118999000D01*
X164616000Y-118999000D01*
X155943444Y-118999000D01*
X155880673Y-118982251D01*
X155834590Y-118936456D01*
X155817446Y-118873791D01*
X155833801Y-118810916D01*
X155879305Y-118764546D01*
X155897513Y-118753777D01*
X156014777Y-118636513D01*
X156099202Y-118493758D01*
X156145470Y-118334501D01*
X156148400Y-118297281D01*
X156148400Y-118231000D01*
X153885601Y-118231000D01*
X153885601Y-118297281D01*
X153888529Y-118334500D01*
X153934797Y-118493758D01*
X154019222Y-118636513D01*
X154136486Y-118753777D01*
X154154695Y-118764546D01*
X154200199Y-118810916D01*
X154216554Y-118873791D01*
X154199410Y-118936456D01*
X154153327Y-118982251D01*
X154090556Y-118999000D01*
X151939420Y-118999000D01*
X151879810Y-118984007D01*
X151834386Y-118942597D01*
X151813957Y-118884624D01*
X151812037Y-118863901D01*
X151811500Y-118852277D01*
X151811500Y-118844158D01*
X151811432Y-118843793D01*
X151810006Y-118836166D01*
X151808399Y-118824646D01*
X151804850Y-118786347D01*
X151797115Y-118763271D01*
X151796061Y-118761569D01*
X151796061Y-118761567D01*
X151776868Y-118730570D01*
X151771207Y-118720405D01*
X151754064Y-118685976D01*
X151738519Y-118667256D01*
X151707822Y-118644075D01*
X151698879Y-118636648D01*
X151671933Y-118612084D01*
X151671930Y-118612083D01*
X151670453Y-118610736D01*
X151649187Y-118598891D01*
X151612202Y-118588367D01*
X151601171Y-118584670D01*
X151565305Y-118570776D01*
X151541202Y-118567414D01*
X151502902Y-118570963D01*
X151491277Y-118571500D01*
X150562453Y-118571500D01*
X150500887Y-118555435D01*
X150455021Y-118511335D01*
X150436550Y-118450447D01*
X150450186Y-118388298D01*
X150507326Y-118276151D01*
X150522400Y-118180983D01*
X150522400Y-118056000D01*
X151849601Y-118056000D01*
X151849601Y-118094760D01*
X151852417Y-118130558D01*
X151896923Y-118283750D01*
X151978133Y-118421068D01*
X152090931Y-118533866D01*
X152228249Y-118615076D01*
X152381439Y-118659582D01*
X152417241Y-118662400D01*
X152481000Y-118662400D01*
X152481000Y-118056000D01*
X152981000Y-118056000D01*
X152981000Y-118662399D01*
X153044760Y-118662399D01*
X153080558Y-118659582D01*
X153233750Y-118615076D01*
X153371068Y-118533866D01*
X153483866Y-118421068D01*
X153565076Y-118283750D01*
X153609582Y-118130560D01*
X153612400Y-118094759D01*
X153612400Y-118056000D01*
X152981000Y-118056000D01*
X152481000Y-118056000D01*
X151849601Y-118056000D01*
X150522400Y-118056000D01*
X150522400Y-118004559D01*
X158573992Y-118004559D01*
X158612943Y-118038718D01*
X158864323Y-118206685D01*
X159135489Y-118340410D01*
X159421776Y-118437591D01*
X159718308Y-118496575D01*
X160020000Y-118516348D01*
X160321691Y-118496575D01*
X160618223Y-118437591D01*
X160904510Y-118340410D01*
X161175677Y-118206685D01*
X161427061Y-118038715D01*
X161466006Y-118004560D01*
X161466006Y-118004558D01*
X160020001Y-116558553D01*
X160019999Y-116558553D01*
X158573992Y-118004558D01*
X158573992Y-118004559D01*
X150522400Y-118004559D01*
X150522400Y-117949000D01*
X148209601Y-117949000D01*
X148209601Y-118180983D01*
X148224673Y-118276151D01*
X148281814Y-118388298D01*
X148295450Y-118450447D01*
X148276979Y-118511335D01*
X148231113Y-118555435D01*
X148169547Y-118571500D01*
X133062453Y-118571500D01*
X133000887Y-118555435D01*
X132955021Y-118511335D01*
X132936550Y-118450447D01*
X132950186Y-118388298D01*
X133007326Y-118276151D01*
X133022400Y-118180983D01*
X133022400Y-117949000D01*
X130709601Y-117949000D01*
X130709601Y-118180983D01*
X130724673Y-118276151D01*
X130781814Y-118388298D01*
X130795450Y-118450447D01*
X130776979Y-118511335D01*
X130731113Y-118555435D01*
X130669547Y-118571500D01*
X129853494Y-118571500D01*
X129824202Y-118567414D01*
X129785902Y-118570963D01*
X129774277Y-118571500D01*
X129766154Y-118571500D01*
X129758152Y-118572995D01*
X129746641Y-118574600D01*
X129708353Y-118578148D01*
X129685267Y-118585886D01*
X129652573Y-118606129D01*
X129642409Y-118611790D01*
X129607981Y-118628933D01*
X129589252Y-118644486D01*
X129566082Y-118675168D01*
X129558649Y-118684118D01*
X129532739Y-118712539D01*
X129520891Y-118733811D01*
X129510365Y-118770803D01*
X129506669Y-118781832D01*
X129492775Y-118817696D01*
X129489413Y-118841800D01*
X129489733Y-118845249D01*
X129476986Y-118913184D01*
X129430319Y-118964172D01*
X129363776Y-118982869D01*
X101465005Y-118873462D01*
X101402215Y-118856418D01*
X101356299Y-118810321D01*
X101339500Y-118747464D01*
X101339500Y-116132000D01*
X104338601Y-116132000D01*
X104338601Y-117313983D01*
X104353673Y-117409151D01*
X104412117Y-117523855D01*
X104503144Y-117614882D01*
X104617848Y-117673326D01*
X104713017Y-117688400D01*
X104995000Y-117688400D01*
X104995000Y-116132000D01*
X105495000Y-116132000D01*
X105495000Y-117688399D01*
X105776983Y-117688399D01*
X105872151Y-117673326D01*
X105986855Y-117614882D01*
X106077882Y-117523855D01*
X106136326Y-117409151D01*
X106151400Y-117313983D01*
X106151400Y-117282000D01*
X114995000Y-117282000D01*
X117575920Y-117282000D01*
X117633123Y-117295733D01*
X117677856Y-117333939D01*
X117700369Y-117388289D01*
X117703673Y-117409151D01*
X117762117Y-117523855D01*
X117853144Y-117614882D01*
X117967848Y-117673326D01*
X118063017Y-117688400D01*
X118495000Y-117688400D01*
X118495000Y-116582000D01*
X118995000Y-116582000D01*
X118995000Y-117688399D01*
X119426983Y-117688399D01*
X119522151Y-117673326D01*
X119636855Y-117614882D01*
X119727882Y-117523855D01*
X119786326Y-117409151D01*
X119801400Y-117313983D01*
X119801400Y-116582000D01*
X118995000Y-116582000D01*
X118495000Y-116582000D01*
X118495000Y-114975601D01*
X118063017Y-114975601D01*
X117967848Y-114990673D01*
X117853144Y-115049117D01*
X117762117Y-115140144D01*
X117703673Y-115254848D01*
X117688600Y-115350017D01*
X117688600Y-115806000D01*
X117671719Y-115869000D01*
X117625600Y-115915119D01*
X117562600Y-115932000D01*
X114995000Y-115932000D01*
X114995000Y-117282000D01*
X106151400Y-117282000D01*
X106151400Y-116132000D01*
X105495000Y-116132000D01*
X104995000Y-116132000D01*
X104338601Y-116132000D01*
X101339500Y-116132000D01*
X101339500Y-115632000D01*
X104338600Y-115632000D01*
X104995000Y-115632000D01*
X105495000Y-115632000D01*
X106151399Y-115632000D01*
X106151399Y-115258000D01*
X106168280Y-115195000D01*
X106214399Y-115148881D01*
X106277399Y-115132000D01*
X106645000Y-115132000D01*
X106645000Y-114975600D01*
X118995000Y-114975600D01*
X118995000Y-116082000D01*
X119801399Y-116082000D01*
X119801399Y-115350017D01*
X119786326Y-115254848D01*
X119727882Y-115140144D01*
X119636855Y-115049117D01*
X119522151Y-114990673D01*
X119426983Y-114975600D01*
X118995000Y-114975600D01*
X106645000Y-114975600D01*
X106645000Y-111698068D01*
X120784500Y-111698068D01*
X120799265Y-111772300D01*
X120855515Y-111856484D01*
X120877225Y-111870990D01*
X120939699Y-111912734D01*
X121013933Y-111927500D01*
X122414066Y-111927499D01*
X122414068Y-111927499D01*
X122463556Y-111917655D01*
X122488301Y-111912734D01*
X122572484Y-111856484D01*
X122628734Y-111772301D01*
X122639570Y-111717821D01*
X122663303Y-111665548D01*
X122707767Y-111629228D01*
X122763729Y-111616406D01*
X122819571Y-111629744D01*
X122863698Y-111666473D01*
X122911410Y-111729654D01*
X123059520Y-111864673D01*
X123229911Y-111970176D01*
X123416796Y-112042574D01*
X123463999Y-112051399D01*
X123464000Y-112051400D01*
X123464000Y-109944601D01*
X123463999Y-109944600D01*
X123416796Y-109953425D01*
X123229911Y-110025823D01*
X123059520Y-110131326D01*
X122911410Y-110266345D01*
X122863698Y-110329527D01*
X122819571Y-110366256D01*
X122763729Y-110379594D01*
X122707766Y-110366771D01*
X122663302Y-110330451D01*
X122639569Y-110278174D01*
X122628734Y-110223699D01*
X122572484Y-110139515D01*
X122488301Y-110083266D01*
X122488300Y-110083265D01*
X122414066Y-110068500D01*
X121013931Y-110068500D01*
X120939699Y-110083265D01*
X120855515Y-110139515D01*
X120799266Y-110223698D01*
X120784500Y-110297933D01*
X120784500Y-111698068D01*
X106645000Y-111698068D01*
X106645000Y-107958000D01*
X106661881Y-107895000D01*
X106708000Y-107848881D01*
X106771000Y-107832000D01*
X115345000Y-107832000D01*
X115345000Y-106232000D01*
X106645000Y-106232000D01*
X106645000Y-107406000D01*
X106628119Y-107469000D01*
X106582000Y-107515119D01*
X106519000Y-107532000D01*
X105945000Y-107532000D01*
X105945000Y-110804684D01*
X105933426Y-110857435D01*
X105900830Y-110900495D01*
X105853201Y-110925953D01*
X105799289Y-110929133D01*
X105776983Y-110925600D01*
X105495000Y-110925600D01*
X105495000Y-112538399D01*
X105776983Y-112538399D01*
X105799290Y-112534866D01*
X105853202Y-112538046D01*
X105900831Y-112563504D01*
X105933426Y-112606564D01*
X105945000Y-112659315D01*
X105945000Y-113954684D01*
X105933426Y-114007435D01*
X105900830Y-114050495D01*
X105853201Y-114075953D01*
X105799289Y-114079133D01*
X105776983Y-114075600D01*
X105495000Y-114075600D01*
X105495000Y-115632000D01*
X104995000Y-115632000D01*
X104995000Y-114075601D01*
X104713017Y-114075601D01*
X104617848Y-114090673D01*
X104503144Y-114149117D01*
X104412117Y-114240144D01*
X104353673Y-114354848D01*
X104338600Y-114450017D01*
X104338600Y-115632000D01*
X101339500Y-115632000D01*
X101339500Y-111982000D01*
X104338601Y-111982000D01*
X104338601Y-112163983D01*
X104353673Y-112259151D01*
X104412117Y-112373855D01*
X104503144Y-112464882D01*
X104617848Y-112523326D01*
X104713017Y-112538400D01*
X104995000Y-112538400D01*
X104995000Y-111982000D01*
X104338601Y-111982000D01*
X101339500Y-111982000D01*
X101339500Y-111482000D01*
X104338600Y-111482000D01*
X104995000Y-111482000D01*
X104995000Y-110925601D01*
X104713017Y-110925601D01*
X104617848Y-110940673D01*
X104503144Y-110999117D01*
X104412117Y-111090144D01*
X104353673Y-111204848D01*
X104338600Y-111300017D01*
X104338600Y-111482000D01*
X101339500Y-111482000D01*
X101339500Y-105800000D01*
X102496601Y-105800000D01*
X102496601Y-105838760D01*
X102499417Y-105874558D01*
X102543923Y-106027750D01*
X102625133Y-106165068D01*
X102737931Y-106277866D01*
X102875249Y-106359076D01*
X103028439Y-106403582D01*
X103064241Y-106406400D01*
X103128000Y-106406400D01*
X103128000Y-106406399D01*
X103628000Y-106406399D01*
X103691760Y-106406399D01*
X103727558Y-106403582D01*
X103880750Y-106359076D01*
X104018065Y-106277868D01*
X104135485Y-106160448D01*
X104195167Y-106127024D01*
X104263517Y-106129710D01*
X104320392Y-106167713D01*
X104349030Y-106229833D01*
X104353673Y-106259151D01*
X104412117Y-106373855D01*
X104503144Y-106464882D01*
X104617848Y-106523326D01*
X104713017Y-106538400D01*
X104719000Y-106538400D01*
X104782000Y-106555281D01*
X104828119Y-106601400D01*
X104845000Y-106664399D01*
X104845000Y-109732000D01*
X105595000Y-109732000D01*
X105595000Y-106664399D01*
X105611881Y-106601399D01*
X105658000Y-106555280D01*
X105721000Y-106538399D01*
X105776983Y-106538399D01*
X105872151Y-106523326D01*
X105986855Y-106464882D01*
X106077882Y-106373855D01*
X106136326Y-106259151D01*
X106151400Y-106163983D01*
X106151400Y-105782000D01*
X104329213Y-105782000D01*
X104316628Y-105790409D01*
X104268410Y-105800000D01*
X103628000Y-105800000D01*
X103628000Y-106406399D01*
X103128000Y-106406399D01*
X103128000Y-105800000D01*
X102496601Y-105800000D01*
X101339500Y-105800000D01*
X101339500Y-101029747D01*
X102648500Y-101029747D01*
X102651379Y-101060452D01*
X102696630Y-101189771D01*
X102696631Y-101189773D01*
X102699277Y-101193358D01*
X102777989Y-101300010D01*
X102888228Y-101381370D01*
X103017545Y-101426620D01*
X103017546Y-101426620D01*
X103017549Y-101426621D01*
X103048251Y-101429500D01*
X103707748Y-101429499D01*
X103738451Y-101426621D01*
X103826921Y-101395663D01*
X103867771Y-101381370D01*
X103867771Y-101381369D01*
X103867773Y-101381369D01*
X103972982Y-101303720D01*
X103979193Y-101301193D01*
X103981720Y-101294982D01*
X104059369Y-101189773D01*
X104059815Y-101188500D01*
X104104620Y-101060454D01*
X104104620Y-101060453D01*
X104104621Y-101060451D01*
X104107500Y-101029749D01*
X104107499Y-100520252D01*
X104104621Y-100489549D01*
X104087363Y-100440228D01*
X104059370Y-100360228D01*
X104050688Y-100348465D01*
X104027718Y-100293975D01*
X104032137Y-100235006D01*
X104062970Y-100184550D01*
X104213997Y-100033523D01*
X104247361Y-100009615D01*
X104286643Y-99997699D01*
X104302705Y-99995584D01*
X104411754Y-99981228D01*
X104546643Y-99925355D01*
X104662474Y-99836474D01*
X104751355Y-99720643D01*
X104807228Y-99585754D01*
X104826285Y-99441000D01*
X104807228Y-99296246D01*
X104751355Y-99161358D01*
X104751354Y-99161357D01*
X104751354Y-99161356D01*
X104662475Y-99045527D01*
X104662472Y-99045525D01*
X104582664Y-98984285D01*
X104546642Y-98956644D01*
X104411753Y-98900771D01*
X104267000Y-98881715D01*
X104122246Y-98900771D01*
X103987356Y-98956645D01*
X103871525Y-99045525D01*
X103782645Y-99161356D01*
X103726771Y-99296246D01*
X103710301Y-99421352D01*
X103698385Y-99460635D01*
X103674474Y-99494002D01*
X103145452Y-100023023D01*
X103125276Y-100039407D01*
X103116043Y-100045439D01*
X103096288Y-100070820D01*
X103085970Y-100082506D01*
X103080080Y-100088398D01*
X103044646Y-100113313D01*
X103031586Y-100116889D01*
X103032078Y-100118295D01*
X102888228Y-100168630D01*
X102777989Y-100249989D01*
X102696629Y-100360228D01*
X102651379Y-100489545D01*
X102648500Y-100520253D01*
X102648500Y-101029747D01*
X101339500Y-101029747D01*
X101339500Y-95122999D01*
X104596715Y-95122999D01*
X104615771Y-95267753D01*
X104671644Y-95402642D01*
X104671645Y-95402643D01*
X104760526Y-95518474D01*
X104876357Y-95607355D01*
X105011246Y-95663228D01*
X105156000Y-95682285D01*
X105300754Y-95663228D01*
X105435643Y-95607355D01*
X105457924Y-95590258D01*
X105466015Y-95584050D01*
X105527051Y-95558989D01*
X105592385Y-95568212D01*
X105644099Y-95609189D01*
X105648339Y-95614934D01*
X105657990Y-95628010D01*
X105713108Y-95668689D01*
X105768228Y-95709370D01*
X105897545Y-95754620D01*
X105897546Y-95754620D01*
X105897549Y-95754621D01*
X105928251Y-95757500D01*
X106587748Y-95757499D01*
X106618451Y-95754621D01*
X106747773Y-95709369D01*
X106858010Y-95628010D01*
X106918623Y-95545882D01*
X106963217Y-95508226D01*
X107020000Y-95494706D01*
X107076783Y-95508226D01*
X107121376Y-95545882D01*
X107173667Y-95616733D01*
X107181990Y-95628010D01*
X107292228Y-95709370D01*
X107421545Y-95754620D01*
X107421546Y-95754620D01*
X107421549Y-95754621D01*
X107452251Y-95757500D01*
X108111748Y-95757499D01*
X108142451Y-95754621D01*
X108271773Y-95709369D01*
X108382010Y-95628010D01*
X108463369Y-95517773D01*
X108470085Y-95498582D01*
X108508620Y-95388454D01*
X108508620Y-95388453D01*
X108508621Y-95388451D01*
X108511500Y-95357749D01*
X108511499Y-94903000D01*
X108932600Y-94903000D01*
X109564000Y-94903000D01*
X110064000Y-94903000D01*
X110420600Y-94903000D01*
X110420600Y-94854000D01*
X110437481Y-94791000D01*
X110483600Y-94744881D01*
X110546600Y-94728000D01*
X111342000Y-94728000D01*
X111342000Y-94071601D01*
X111050719Y-94071601D01*
X111013499Y-94074529D01*
X110854241Y-94120797D01*
X110711486Y-94205222D01*
X110594220Y-94322488D01*
X110577067Y-94351492D01*
X110530467Y-94397124D01*
X110467295Y-94413343D01*
X110404476Y-94395804D01*
X110316750Y-94343923D01*
X110163560Y-94299417D01*
X110127759Y-94296600D01*
X110064000Y-94296600D01*
X110064000Y-94903000D01*
X109564000Y-94903000D01*
X109564000Y-94296601D01*
X109500240Y-94296601D01*
X109464441Y-94299417D01*
X109311249Y-94343923D01*
X109173931Y-94425133D01*
X109061133Y-94537931D01*
X108979923Y-94675249D01*
X108935417Y-94828439D01*
X108932600Y-94864241D01*
X108932600Y-94903000D01*
X108511499Y-94903000D01*
X108511499Y-94848252D01*
X108508621Y-94817549D01*
X108463369Y-94688227D01*
X108414748Y-94622348D01*
X108382010Y-94577989D01*
X108271771Y-94496629D01*
X108142454Y-94451379D01*
X108127100Y-94449939D01*
X108111749Y-94448500D01*
X108111746Y-94448500D01*
X107452252Y-94448500D01*
X107421547Y-94451379D01*
X107292228Y-94496630D01*
X107181989Y-94577990D01*
X107121378Y-94660115D01*
X107076781Y-94697773D01*
X107019998Y-94711293D01*
X106963216Y-94697773D01*
X106918623Y-94660117D01*
X106858010Y-94577990D01*
X106858009Y-94577989D01*
X106747771Y-94496629D01*
X106618454Y-94451379D01*
X106603100Y-94449939D01*
X106587749Y-94448500D01*
X106587746Y-94448500D01*
X105928252Y-94448500D01*
X105897547Y-94451379D01*
X105768228Y-94496630D01*
X105657989Y-94577989D01*
X105625252Y-94622348D01*
X105573539Y-94663325D01*
X105508206Y-94672548D01*
X105447170Y-94647489D01*
X105435644Y-94638645D01*
X105300753Y-94582771D01*
X105156000Y-94563715D01*
X105011246Y-94582771D01*
X104876356Y-94638645D01*
X104760525Y-94727525D01*
X104671645Y-94843356D01*
X104615771Y-94978246D01*
X104596715Y-95122999D01*
X101339500Y-95122999D01*
X101339500Y-94071600D01*
X111842000Y-94071600D01*
X111842000Y-94728000D01*
X112723399Y-94728000D01*
X112723399Y-94661719D01*
X112720470Y-94624499D01*
X112674202Y-94465241D01*
X112589777Y-94322486D01*
X112472513Y-94205222D01*
X112329758Y-94120797D01*
X112170501Y-94074529D01*
X112133281Y-94071600D01*
X111842000Y-94071600D01*
X101339500Y-94071600D01*
X101339500Y-89556559D01*
X102947992Y-89556559D01*
X102986943Y-89590718D01*
X103238323Y-89758685D01*
X103509489Y-89892410D01*
X103795776Y-89989591D01*
X104092308Y-90048575D01*
X104394000Y-90068348D01*
X104695691Y-90048575D01*
X104992223Y-89989591D01*
X105163354Y-89931500D01*
X119249100Y-89931500D01*
X119955500Y-89931500D01*
X119955500Y-88875101D01*
X119623517Y-88875101D01*
X119528348Y-88890173D01*
X119413644Y-88948617D01*
X119322617Y-89039644D01*
X119264173Y-89154348D01*
X119249100Y-89249517D01*
X119249100Y-89931500D01*
X105163354Y-89931500D01*
X105278510Y-89892410D01*
X105549677Y-89758685D01*
X105801061Y-89590715D01*
X105840006Y-89556560D01*
X105840006Y-89556558D01*
X104394001Y-88110553D01*
X104393999Y-88110553D01*
X102947992Y-89556558D01*
X102947992Y-89556559D01*
X101339500Y-89556559D01*
X101339500Y-87757000D01*
X102082651Y-87757000D01*
X102102424Y-88058691D01*
X102161408Y-88355223D01*
X102258589Y-88641510D01*
X102392314Y-88912676D01*
X102560281Y-89164056D01*
X102594439Y-89203006D01*
X102594440Y-89203006D01*
X104040447Y-87757001D01*
X104747553Y-87757001D01*
X106193558Y-89203006D01*
X106193560Y-89203006D01*
X106227715Y-89164061D01*
X106395685Y-88912677D01*
X106529410Y-88641510D01*
X106626591Y-88355223D01*
X106685575Y-88058691D01*
X106705348Y-87757000D01*
X106685575Y-87455308D01*
X106626591Y-87158776D01*
X106529410Y-86872489D01*
X106395685Y-86601324D01*
X106227718Y-86349943D01*
X106193559Y-86310992D01*
X106193558Y-86310992D01*
X104747553Y-87756999D01*
X104747553Y-87757001D01*
X104040447Y-87757001D01*
X104040447Y-87756999D01*
X102594440Y-86310992D01*
X102594438Y-86310992D01*
X102560283Y-86349940D01*
X102392314Y-86601323D01*
X102258589Y-86872489D01*
X102161408Y-87158776D01*
X102102424Y-87455308D01*
X102082651Y-87757000D01*
X101339500Y-87757000D01*
X101339500Y-85957440D01*
X102947992Y-85957440D01*
X104393999Y-87403447D01*
X104394001Y-87403447D01*
X105840006Y-85957440D01*
X105840006Y-85957439D01*
X105801056Y-85923281D01*
X105549676Y-85755314D01*
X105278510Y-85621589D01*
X104992223Y-85524408D01*
X104695691Y-85465424D01*
X104394000Y-85445651D01*
X104092308Y-85465424D01*
X103795776Y-85524408D01*
X103509489Y-85621589D01*
X103238323Y-85755314D01*
X102986940Y-85923283D01*
X102947992Y-85957438D01*
X102947992Y-85957440D01*
X101339500Y-85957440D01*
X101339500Y-85340000D01*
X132353601Y-85340000D01*
X132353601Y-85403760D01*
X132356417Y-85439558D01*
X132400923Y-85592750D01*
X132482133Y-85730068D01*
X132594931Y-85842866D01*
X132732249Y-85924076D01*
X132885439Y-85968582D01*
X132921241Y-85971400D01*
X132960000Y-85971400D01*
X132960000Y-85340000D01*
X132353601Y-85340000D01*
X101339500Y-85340000D01*
X101339500Y-84708000D01*
X101356381Y-84645000D01*
X101402500Y-84598881D01*
X101465500Y-84582000D01*
X112793501Y-84582000D01*
X112856501Y-84598881D01*
X112902620Y-84645000D01*
X112919501Y-84708000D01*
X112919501Y-84880068D01*
X112934265Y-84954300D01*
X112990515Y-85038484D01*
X113040506Y-85071887D01*
X113074699Y-85094734D01*
X113148933Y-85109500D01*
X114899066Y-85109499D01*
X114899068Y-85109499D01*
X114948556Y-85099655D01*
X114973301Y-85094734D01*
X115057484Y-85038484D01*
X115113734Y-84954301D01*
X115128500Y-84880067D01*
X115128499Y-84708000D01*
X115145381Y-84645000D01*
X115191500Y-84598881D01*
X115254500Y-84582000D01*
X115368647Y-84582000D01*
X115426827Y-84596237D01*
X115471860Y-84635729D01*
X115597868Y-84815686D01*
X115753313Y-84971131D01*
X115933400Y-85097230D01*
X116132646Y-85190139D01*
X116313999Y-85238734D01*
X116314000Y-85238734D01*
X116314000Y-84582000D01*
X116814000Y-84582000D01*
X116814000Y-85238734D01*
X116995353Y-85190139D01*
X117194599Y-85097230D01*
X117374686Y-84971131D01*
X117530131Y-84815686D01*
X117656140Y-84635729D01*
X117701173Y-84596237D01*
X117759353Y-84582000D01*
X118092935Y-84582000D01*
X118149098Y-84595209D01*
X118193483Y-84632066D01*
X118284268Y-84752285D01*
X118435538Y-84890186D01*
X118609573Y-84997944D01*
X118800444Y-85071888D01*
X119001653Y-85109500D01*
X119206345Y-85109500D01*
X119206347Y-85109500D01*
X119407556Y-85071888D01*
X119598427Y-84997944D01*
X119772462Y-84890186D01*
X119827513Y-84840000D01*
X132353600Y-84840000D01*
X132960000Y-84840000D01*
X132960000Y-84208601D01*
X132921240Y-84208601D01*
X132885441Y-84211417D01*
X132732249Y-84255923D01*
X132594931Y-84337133D01*
X132482133Y-84449931D01*
X132400923Y-84587249D01*
X132356417Y-84740439D01*
X132353600Y-84776241D01*
X132353600Y-84840000D01*
X119827513Y-84840000D01*
X119923732Y-84752285D01*
X120014516Y-84632066D01*
X120058902Y-84595209D01*
X120115065Y-84582000D01*
X121920000Y-84582000D01*
X121920000Y-82499999D01*
X145140715Y-82499999D01*
X145159771Y-82644753D01*
X145215644Y-82779642D01*
X145222296Y-82788311D01*
X145304526Y-82895474D01*
X145420357Y-82984355D01*
X145555246Y-83040228D01*
X145700000Y-83059285D01*
X145844754Y-83040228D01*
X145979643Y-82984355D01*
X146025132Y-82949450D01*
X146082360Y-82905538D01*
X146118562Y-82886187D01*
X146159064Y-82879500D01*
X146643830Y-82879500D01*
X146710214Y-82898406D01*
X146756677Y-82949450D01*
X146769275Y-83017315D01*
X146744227Y-83081634D01*
X146680447Y-83165739D01*
X146624337Y-83308025D01*
X146613600Y-83397439D01*
X146613600Y-84016000D01*
X147444000Y-84016000D01*
X147507000Y-84032881D01*
X147553119Y-84079000D01*
X147570000Y-84142000D01*
X147570000Y-85640621D01*
X147602972Y-85636662D01*
X147745260Y-85580552D01*
X147867132Y-85488133D01*
X147951445Y-85376950D01*
X148008299Y-85334846D01*
X148078881Y-85330018D01*
X148140938Y-85363988D01*
X148199274Y-85422324D01*
X148199276Y-85422325D01*
X148199277Y-85422326D01*
X148313445Y-85480498D01*
X148408166Y-85495500D01*
X148771833Y-85495500D01*
X148771834Y-85495500D01*
X148866555Y-85480498D01*
X148980723Y-85422326D01*
X149071326Y-85331723D01*
X149112734Y-85250455D01*
X149159165Y-85200227D01*
X149225000Y-85181660D01*
X149290835Y-85200227D01*
X149337265Y-85250455D01*
X149376992Y-85328422D01*
X149378675Y-85331725D01*
X149469274Y-85422324D01*
X149469276Y-85422325D01*
X149469277Y-85422326D01*
X149583445Y-85480498D01*
X149678166Y-85495500D01*
X150041833Y-85495500D01*
X150041834Y-85495500D01*
X150136555Y-85480498D01*
X150250723Y-85422326D01*
X150341326Y-85331723D01*
X150382734Y-85250455D01*
X150429165Y-85200227D01*
X150495000Y-85181660D01*
X150560835Y-85200227D01*
X150607265Y-85250455D01*
X150646992Y-85328422D01*
X150648675Y-85331725D01*
X150739274Y-85422324D01*
X150739276Y-85422325D01*
X150739277Y-85422326D01*
X150853445Y-85480498D01*
X150948166Y-85495500D01*
X151311833Y-85495500D01*
X151311834Y-85495500D01*
X151406555Y-85480498D01*
X151520723Y-85422326D01*
X151611326Y-85331723D01*
X151669498Y-85217555D01*
X151684500Y-85122834D01*
X151684500Y-84771500D01*
X151701381Y-84708500D01*
X151747500Y-84662381D01*
X151810500Y-84645500D01*
X160931574Y-84645500D01*
X160957431Y-84648181D01*
X160968100Y-84650419D01*
X160999796Y-84646468D01*
X161015382Y-84645500D01*
X161015440Y-84645500D01*
X161015443Y-84645500D01*
X161036194Y-84642036D01*
X161041243Y-84641300D01*
X161093783Y-84634752D01*
X161093788Y-84634749D01*
X161101782Y-84633753D01*
X161101842Y-84633734D01*
X161108926Y-84629900D01*
X161108927Y-84629900D01*
X161155411Y-84604742D01*
X161160043Y-84602359D01*
X161207568Y-84579126D01*
X161207568Y-84579125D01*
X161214807Y-84575587D01*
X161214854Y-84575552D01*
X161224029Y-84565586D01*
X161256130Y-84530713D01*
X161259713Y-84526979D01*
X162307054Y-83479638D01*
X162354532Y-83449806D01*
X162410249Y-83443527D01*
X162550000Y-83459274D01*
X162718954Y-83440237D01*
X162879437Y-83384082D01*
X163023400Y-83293624D01*
X163143624Y-83173400D01*
X163234082Y-83029437D01*
X163290237Y-82868954D01*
X163309274Y-82700000D01*
X163290237Y-82531046D01*
X163234082Y-82370563D01*
X163143624Y-82226600D01*
X163143623Y-82226599D01*
X163143622Y-82226597D01*
X163023402Y-82106377D01*
X162943055Y-82055892D01*
X162879437Y-82015918D01*
X162825942Y-81997199D01*
X162718956Y-81959763D01*
X162550000Y-81940726D01*
X162381043Y-81959763D01*
X162220563Y-82015918D01*
X162076597Y-82106377D01*
X161956377Y-82226597D01*
X161865918Y-82370563D01*
X161809763Y-82531043D01*
X161809763Y-82531046D01*
X161790726Y-82700000D01*
X161803700Y-82815148D01*
X161806472Y-82839742D01*
X161800193Y-82895465D01*
X161770359Y-82942945D01*
X161533458Y-83179846D01*
X161481500Y-83211154D01*
X161420933Y-83214553D01*
X161365797Y-83189257D01*
X161328872Y-83141128D01*
X161318716Y-83081322D01*
X161331179Y-83043462D01*
X161329393Y-83042837D01*
X161334082Y-83029436D01*
X161390237Y-82868954D01*
X161409274Y-82700000D01*
X161390237Y-82531046D01*
X161334082Y-82370563D01*
X161243624Y-82226600D01*
X161243623Y-82226599D01*
X161243622Y-82226597D01*
X161123402Y-82106377D01*
X161043055Y-82055892D01*
X160979437Y-82015918D01*
X160925942Y-81997199D01*
X160818956Y-81959763D01*
X160650000Y-81940726D01*
X160481043Y-81959763D01*
X160320563Y-82015918D01*
X160176597Y-82106377D01*
X160056376Y-82226598D01*
X160034424Y-82261536D01*
X159988686Y-82304778D01*
X159927737Y-82320500D01*
X150252426Y-82320500D01*
X150226568Y-82317818D01*
X150215899Y-82315580D01*
X150184204Y-82319532D01*
X150168618Y-82320500D01*
X150168557Y-82320500D01*
X150147850Y-82323954D01*
X150142708Y-82324703D01*
X150082247Y-82332241D01*
X150082137Y-82332276D01*
X150028583Y-82361258D01*
X150023955Y-82363641D01*
X149969217Y-82390401D01*
X149969127Y-82390468D01*
X149927868Y-82435285D01*
X149924265Y-82439039D01*
X149628724Y-82734580D01*
X149608550Y-82750964D01*
X149599419Y-82756930D01*
X149579792Y-82782146D01*
X149569463Y-82793842D01*
X149569418Y-82793886D01*
X149557212Y-82810981D01*
X149554105Y-82815148D01*
X149516691Y-82863218D01*
X149516638Y-82863322D01*
X149499259Y-82921695D01*
X149497672Y-82926650D01*
X149477888Y-82984281D01*
X149477875Y-82984370D01*
X149480226Y-83041219D01*
X149471714Y-83092227D01*
X149443430Y-83135520D01*
X149378674Y-83200276D01*
X149337267Y-83281542D01*
X149290835Y-83331772D01*
X149225000Y-83350339D01*
X149159165Y-83331772D01*
X149112733Y-83281542D01*
X149071324Y-83200274D01*
X149006033Y-83134983D01*
X148983100Y-83103557D01*
X148970847Y-83066632D01*
X148969500Y-83058562D01*
X148969500Y-83058557D01*
X148966033Y-83037784D01*
X148965302Y-83032768D01*
X148958752Y-82980217D01*
X148958750Y-82980212D01*
X148957755Y-82972230D01*
X148957730Y-82972150D01*
X148928734Y-82918568D01*
X148926351Y-82913939D01*
X148899592Y-82859203D01*
X148899545Y-82859140D01*
X148893619Y-82853685D01*
X148893619Y-82853684D01*
X148854713Y-82817868D01*
X148850957Y-82814263D01*
X148305418Y-82268724D01*
X148289030Y-82248544D01*
X148283067Y-82239417D01*
X148257855Y-82219793D01*
X148246153Y-82209458D01*
X148246117Y-82209422D01*
X148229032Y-82197223D01*
X148224863Y-82194114D01*
X148199981Y-82174749D01*
X148183119Y-82161625D01*
X148183117Y-82161624D01*
X148176767Y-82156682D01*
X148176692Y-82156643D01*
X148118311Y-82139262D01*
X148113353Y-82137673D01*
X148055722Y-82117888D01*
X148055630Y-82117875D01*
X147994786Y-82120392D01*
X147989579Y-82120500D01*
X146159064Y-82120500D01*
X146118562Y-82113813D01*
X146082360Y-82094462D01*
X145979644Y-82015645D01*
X145844753Y-81959771D01*
X145700000Y-81940715D01*
X145555246Y-81959771D01*
X145420356Y-82015645D01*
X145304525Y-82104525D01*
X145215645Y-82220356D01*
X145159771Y-82355246D01*
X145140715Y-82499999D01*
X121920000Y-82499999D01*
X121920000Y-81756500D01*
X121936881Y-81693500D01*
X121983000Y-81647381D01*
X122046000Y-81630500D01*
X165435500Y-81630500D01*
X165498500Y-81647381D01*
G37*
%TD.AperFunction*%
%TA.AperFunction,Conductor*%
G36*
X151915428Y-105850565D02*
G01*
X151961295Y-105894665D01*
X151979765Y-105955553D01*
X151966129Y-106017702D01*
X151945673Y-106057848D01*
X151930600Y-106153017D01*
X151930600Y-106485000D01*
X154543399Y-106485000D01*
X154543399Y-106153017D01*
X154528326Y-106057848D01*
X154507871Y-106017702D01*
X154494235Y-105955553D01*
X154512705Y-105894665D01*
X154558572Y-105850565D01*
X154620138Y-105834500D01*
X158053862Y-105834500D01*
X158115428Y-105850565D01*
X158161295Y-105894665D01*
X158179765Y-105955553D01*
X158166129Y-106017702D01*
X158145673Y-106057848D01*
X158130600Y-106153017D01*
X158130600Y-106309828D01*
X158115331Y-106369950D01*
X158073225Y-106415500D01*
X158014487Y-106435440D01*
X157953352Y-106424935D01*
X157904638Y-106386533D01*
X157899583Y-106379946D01*
X157875474Y-106348526D01*
X157786592Y-106280323D01*
X157759642Y-106259644D01*
X157624753Y-106203771D01*
X157480000Y-106184715D01*
X157335246Y-106203771D01*
X157200356Y-106259645D01*
X157084525Y-106348525D01*
X156995645Y-106464356D01*
X156939771Y-106599246D01*
X156920715Y-106743999D01*
X156939771Y-106888753D01*
X156995644Y-107023642D01*
X156995645Y-107023643D01*
X157084526Y-107139474D01*
X157124629Y-107170246D01*
X157200357Y-107228355D01*
X157259218Y-107252736D01*
X157300095Y-107280049D01*
X157327409Y-107320927D01*
X157337000Y-107369145D01*
X157337000Y-109927500D01*
X157320119Y-109990500D01*
X157274000Y-110036619D01*
X157211000Y-110053500D01*
X155523457Y-110053500D01*
X155482955Y-110046813D01*
X155446752Y-110027462D01*
X155386295Y-109981071D01*
X155349994Y-109936837D01*
X155337000Y-109881109D01*
X155337000Y-107285000D01*
X154669400Y-107285000D01*
X154606400Y-107268119D01*
X154560281Y-107222000D01*
X154543400Y-107159000D01*
X154543400Y-106985000D01*
X151930601Y-106985000D01*
X151930601Y-107316983D01*
X151945673Y-107412151D01*
X152004117Y-107526855D01*
X152095144Y-107617882D01*
X152209848Y-107676326D01*
X152230711Y-107679631D01*
X152285061Y-107702144D01*
X152323267Y-107746877D01*
X152337000Y-107804080D01*
X152337000Y-109522108D01*
X152324006Y-109577837D01*
X152287703Y-109622071D01*
X152240204Y-109643591D01*
X152153515Y-109701515D01*
X152097266Y-109785698D01*
X152082500Y-109859933D01*
X152082500Y-111010068D01*
X152097265Y-111084300D01*
X152153515Y-111168484D01*
X152189187Y-111192319D01*
X152237699Y-111224734D01*
X152311933Y-111239500D01*
X154162066Y-111239499D01*
X154162068Y-111239499D01*
X154211556Y-111229655D01*
X154236301Y-111224734D01*
X154320484Y-111168484D01*
X154376734Y-111084301D01*
X154385921Y-111038111D01*
X154412101Y-110982761D01*
X154461282Y-110946286D01*
X154521850Y-110937302D01*
X154579502Y-110957930D01*
X154620622Y-111003299D01*
X154635500Y-111062695D01*
X154635500Y-111662343D01*
X154624987Y-111712730D01*
X154595201Y-111754708D01*
X154551116Y-111781271D01*
X154536375Y-111786429D01*
X154527226Y-111789631D01*
X154416989Y-111870989D01*
X154335629Y-111981228D01*
X154290379Y-112110545D01*
X154287500Y-112141253D01*
X154287500Y-112533786D01*
X154277909Y-112582004D01*
X154250597Y-112622878D01*
X153972770Y-112900706D01*
X153713608Y-113159868D01*
X153662192Y-113191006D01*
X153602200Y-113194781D01*
X153547286Y-113170331D01*
X153509949Y-113123223D01*
X153498686Y-113064177D01*
X153516060Y-113006632D01*
X153565075Y-112923751D01*
X153609582Y-112770560D01*
X153612400Y-112734759D01*
X153612400Y-112696000D01*
X151849601Y-112696000D01*
X151849601Y-112734760D01*
X151852417Y-112770558D01*
X151896923Y-112923750D01*
X151978133Y-113061068D01*
X152090931Y-113173866D01*
X152144910Y-113205789D01*
X152188484Y-113248868D01*
X152206585Y-113307407D01*
X152194933Y-113367563D01*
X152156283Y-113415109D01*
X152138456Y-113428454D01*
X152055825Y-113538836D01*
X152007640Y-113668027D01*
X152001500Y-113725137D01*
X152001500Y-114133787D01*
X151991909Y-114182005D01*
X151964595Y-114222883D01*
X151446881Y-114740596D01*
X151406004Y-114767909D01*
X151357786Y-114777500D01*
X150492516Y-114777500D01*
X150436787Y-114764506D01*
X150392553Y-114728203D01*
X150368937Y-114676079D01*
X150355734Y-114609699D01*
X150345245Y-114594001D01*
X150326431Y-114548580D01*
X150326431Y-114499416D01*
X150345243Y-114454000D01*
X150355734Y-114438301D01*
X150370500Y-114364067D01*
X150370499Y-113413934D01*
X150370499Y-113413933D01*
X150370499Y-113413931D01*
X150355734Y-113339699D01*
X150345245Y-113324001D01*
X150326431Y-113278580D01*
X150326431Y-113229416D01*
X150345243Y-113184000D01*
X150355734Y-113168301D01*
X150370500Y-113094067D01*
X150370499Y-112196000D01*
X151849600Y-112196000D01*
X152481000Y-112196000D01*
X152481000Y-111589601D01*
X152417240Y-111589601D01*
X152381441Y-111592417D01*
X152228249Y-111636923D01*
X152090931Y-111718133D01*
X151978133Y-111830931D01*
X151896923Y-111968249D01*
X151852417Y-112121439D01*
X151849600Y-112157241D01*
X151849600Y-112196000D01*
X150370499Y-112196000D01*
X150370499Y-112143934D01*
X150370499Y-112143933D01*
X150370499Y-112143931D01*
X150355734Y-112069699D01*
X150345245Y-112054001D01*
X150326431Y-112008580D01*
X150326431Y-111959416D01*
X150345243Y-111914000D01*
X150355734Y-111898301D01*
X150370500Y-111824067D01*
X150370500Y-111589600D01*
X152981000Y-111589600D01*
X152981000Y-112196000D01*
X153612399Y-112196000D01*
X153612399Y-112157240D01*
X153609582Y-112121441D01*
X153565076Y-111968249D01*
X153483866Y-111830931D01*
X153371068Y-111718133D01*
X153233750Y-111636923D01*
X153080560Y-111592417D01*
X153044759Y-111589600D01*
X152981000Y-111589600D01*
X150370500Y-111589600D01*
X150370499Y-110873934D01*
X150370499Y-110873933D01*
X150370499Y-110873931D01*
X150355734Y-110799699D01*
X150345245Y-110784001D01*
X150326431Y-110738580D01*
X150326431Y-110689416D01*
X150345243Y-110644000D01*
X150355734Y-110628301D01*
X150370500Y-110554067D01*
X150370499Y-109603934D01*
X150370499Y-109603932D01*
X150370499Y-109603931D01*
X150355734Y-109529699D01*
X150345245Y-109514001D01*
X150326431Y-109468580D01*
X150326431Y-109419416D01*
X150345243Y-109374000D01*
X150355734Y-109358301D01*
X150368938Y-109291916D01*
X150392555Y-109239796D01*
X150436789Y-109203494D01*
X150492517Y-109190500D01*
X150726367Y-109190500D01*
X150752224Y-109193181D01*
X150763017Y-109195445D01*
X150794922Y-109191468D01*
X150810508Y-109190500D01*
X150810611Y-109190500D01*
X150831476Y-109187017D01*
X150836512Y-109186283D01*
X150889360Y-109179696D01*
X150889362Y-109179694D01*
X150897327Y-109178702D01*
X150897524Y-109178639D01*
X150904583Y-109174818D01*
X150904586Y-109174818D01*
X150951380Y-109149493D01*
X150955962Y-109147135D01*
X151003746Y-109123776D01*
X151003748Y-109123773D01*
X151010948Y-109120254D01*
X151011133Y-109120116D01*
X151016558Y-109114221D01*
X151016562Y-109114220D01*
X151052626Y-109075042D01*
X151056162Y-109071358D01*
X151076997Y-109050523D01*
X151110361Y-109026615D01*
X151149643Y-109014699D01*
X151165705Y-109012584D01*
X151274754Y-108998228D01*
X151409643Y-108942355D01*
X151525474Y-108853474D01*
X151614355Y-108737643D01*
X151670228Y-108602754D01*
X151689285Y-108458000D01*
X151670228Y-108313246D01*
X151614355Y-108178358D01*
X151614354Y-108178357D01*
X151614354Y-108178356D01*
X151525475Y-108062527D01*
X151525472Y-108062525D01*
X151462320Y-108014066D01*
X151409642Y-107973644D01*
X151274753Y-107917771D01*
X151130000Y-107898715D01*
X150985246Y-107917771D01*
X150850356Y-107973645D01*
X150734525Y-108062525D01*
X150645643Y-108178358D01*
X150597809Y-108293839D01*
X150559405Y-108344571D01*
X150501109Y-108370069D01*
X150437787Y-108363831D01*
X150385587Y-108327447D01*
X150357822Y-108270198D01*
X150355734Y-108259699D01*
X150345245Y-108244001D01*
X150326431Y-108198580D01*
X150326431Y-108149416D01*
X150345243Y-108104000D01*
X150355734Y-108088301D01*
X150370500Y-108014067D01*
X150370499Y-107063934D01*
X150370499Y-107063933D01*
X150370499Y-107063931D01*
X150355734Y-106989699D01*
X150345245Y-106974001D01*
X150326431Y-106928580D01*
X150326431Y-106879416D01*
X150345243Y-106834000D01*
X150355734Y-106818301D01*
X150370500Y-106744067D01*
X150370499Y-106744062D01*
X150371251Y-106740287D01*
X150391783Y-106692359D01*
X150429961Y-106656848D01*
X150479243Y-106639835D01*
X150480360Y-106639696D01*
X150480362Y-106639694D01*
X150488327Y-106638702D01*
X150488524Y-106638639D01*
X150495583Y-106634818D01*
X150495586Y-106634818D01*
X150542380Y-106609493D01*
X150546943Y-106607144D01*
X150594746Y-106583776D01*
X150594747Y-106583774D01*
X150601959Y-106580249D01*
X150602123Y-106580127D01*
X150607559Y-106574221D01*
X150607562Y-106574220D01*
X150643616Y-106535053D01*
X150647151Y-106531369D01*
X151307117Y-105871404D01*
X151347995Y-105844091D01*
X151396213Y-105834500D01*
X151853862Y-105834500D01*
X151915428Y-105850565D01*
G37*
%TD.AperFunction*%
%TD*%
%TA.AperFunction,Conductor*%
%TO.N,GND*%
G36*
X121175500Y-61897381D02*
G01*
X121221619Y-61943500D01*
X121238500Y-62006500D01*
X121238500Y-78204000D01*
X121221619Y-78267000D01*
X121175500Y-78313119D01*
X121112500Y-78330000D01*
X120181898Y-78330000D01*
X120115567Y-78311127D01*
X120069107Y-78260161D01*
X120062088Y-78246065D01*
X120026849Y-78199401D01*
X119938732Y-78082715D01*
X119787462Y-77944814D01*
X119683913Y-77880699D01*
X119613428Y-77837056D01*
X119508779Y-77796515D01*
X119422556Y-77763112D01*
X119221347Y-77725500D01*
X119016653Y-77725500D01*
X118815444Y-77763111D01*
X118815444Y-77763112D01*
X118624571Y-77837056D01*
X118450539Y-77944813D01*
X118299267Y-78082716D01*
X118175911Y-78246065D01*
X118168893Y-78260161D01*
X118122433Y-78311127D01*
X118056102Y-78330000D01*
X117812400Y-78330000D01*
X117744700Y-78310267D01*
X117698205Y-78257249D01*
X117671230Y-78199401D01*
X117545131Y-78019313D01*
X117389686Y-77863868D01*
X117209599Y-77737769D01*
X117010353Y-77644860D01*
X116829000Y-77596265D01*
X116829000Y-78330000D01*
X116329000Y-78330000D01*
X116329000Y-77596266D01*
X116328999Y-77596265D01*
X116147648Y-77644859D01*
X115948399Y-77737770D01*
X115768313Y-77863868D01*
X115612868Y-78019313D01*
X115486769Y-78199401D01*
X115459795Y-78257249D01*
X115413300Y-78310267D01*
X115345600Y-78330000D01*
X115269499Y-78330000D01*
X115206499Y-78313119D01*
X115160380Y-78267000D01*
X115143499Y-78204000D01*
X115143499Y-77954932D01*
X115128734Y-77880699D01*
X115072484Y-77796515D01*
X114988301Y-77740266D01*
X114975748Y-77737769D01*
X114914066Y-77725500D01*
X113163931Y-77725500D01*
X113089699Y-77740265D01*
X113005515Y-77796515D01*
X112949266Y-77880698D01*
X112934500Y-77954934D01*
X112934500Y-78204000D01*
X112917619Y-78267000D01*
X112871500Y-78313119D01*
X112808500Y-78330000D01*
X101465500Y-78330000D01*
X101402500Y-78313119D01*
X101356381Y-78267000D01*
X101339500Y-78204000D01*
X101339500Y-74096000D01*
X108260401Y-74096000D01*
X108260401Y-74262281D01*
X108263329Y-74299500D01*
X108309597Y-74458758D01*
X108394022Y-74601513D01*
X108511286Y-74718777D01*
X108654041Y-74803202D01*
X108813298Y-74849470D01*
X108850519Y-74852400D01*
X109291800Y-74852400D01*
X109291800Y-74096000D01*
X109791800Y-74096000D01*
X109791800Y-74852399D01*
X110233081Y-74852399D01*
X110270300Y-74849470D01*
X110429558Y-74803202D01*
X110572313Y-74718777D01*
X110689577Y-74601513D01*
X110774002Y-74458758D01*
X110784681Y-74422000D01*
X119039715Y-74422000D01*
X119058771Y-74566753D01*
X119114644Y-74701642D01*
X119114645Y-74701643D01*
X119203526Y-74817474D01*
X119319357Y-74906355D01*
X119454246Y-74962228D01*
X119599000Y-74981285D01*
X119743754Y-74962228D01*
X119878643Y-74906355D01*
X119994474Y-74817474D01*
X120083355Y-74701643D01*
X120139228Y-74566754D01*
X120158285Y-74422000D01*
X120139228Y-74277246D01*
X120083355Y-74142358D01*
X120083354Y-74142357D01*
X120083354Y-74142356D01*
X119994475Y-74026527D01*
X119994472Y-74026525D01*
X119878643Y-73937645D01*
X119878642Y-73937644D01*
X119743753Y-73881771D01*
X119599000Y-73862715D01*
X119454246Y-73881771D01*
X119319356Y-73937645D01*
X119203525Y-74026525D01*
X119114645Y-74142356D01*
X119058771Y-74277246D01*
X119039715Y-74422000D01*
X110784681Y-74422000D01*
X110820270Y-74299501D01*
X110823200Y-74262281D01*
X110823200Y-74096000D01*
X109791800Y-74096000D01*
X109291800Y-74096000D01*
X108260401Y-74096000D01*
X101339500Y-74096000D01*
X101339500Y-73596000D01*
X108260400Y-73596000D01*
X110823199Y-73596000D01*
X110823199Y-73429719D01*
X110820270Y-73392499D01*
X110774002Y-73233241D01*
X110689577Y-73090486D01*
X110572313Y-72973222D01*
X110429558Y-72888797D01*
X110270301Y-72842529D01*
X110262320Y-72841901D01*
X110202858Y-72821488D01*
X110160660Y-72774886D01*
X110146233Y-72713695D01*
X110163167Y-72653151D01*
X110207244Y-72608326D01*
X110336971Y-72530273D01*
X110350983Y-72517000D01*
X114340715Y-72517000D01*
X114359771Y-72661753D01*
X114415644Y-72796642D01*
X114415645Y-72796643D01*
X114504526Y-72912474D01*
X114620357Y-73001355D01*
X114755246Y-73057228D01*
X114900000Y-73076285D01*
X115044754Y-73057228D01*
X115179643Y-73001355D01*
X115295474Y-72912474D01*
X115384355Y-72796643D01*
X115440228Y-72661754D01*
X115459285Y-72517000D01*
X115440228Y-72372246D01*
X115384355Y-72237358D01*
X115384354Y-72237357D01*
X115384354Y-72237356D01*
X115295475Y-72121527D01*
X115295472Y-72121525D01*
X115179643Y-72032645D01*
X115179642Y-72032644D01*
X115044753Y-71976771D01*
X114900000Y-71957715D01*
X114755246Y-71976771D01*
X114620356Y-72032645D01*
X114504525Y-72121525D01*
X114415645Y-72237356D01*
X114359771Y-72372246D01*
X114340715Y-72517000D01*
X110350983Y-72517000D01*
X110471908Y-72402454D01*
X110576213Y-72248615D01*
X110645009Y-72075951D01*
X110675078Y-71892535D01*
X110671688Y-71830000D01*
X117515715Y-71830000D01*
X117534771Y-71974753D01*
X117590644Y-72109642D01*
X117590645Y-72109643D01*
X117679526Y-72225474D01*
X117795357Y-72314355D01*
X117930246Y-72370228D01*
X118075000Y-72389285D01*
X118219754Y-72370228D01*
X118354643Y-72314355D01*
X118470474Y-72225474D01*
X118559355Y-72109643D01*
X118615228Y-71974754D01*
X118634285Y-71830000D01*
X118615228Y-71685246D01*
X118559355Y-71550358D01*
X118559354Y-71550357D01*
X118559354Y-71550356D01*
X118470475Y-71434527D01*
X118470472Y-71434525D01*
X118354643Y-71345645D01*
X118354642Y-71345644D01*
X118219753Y-71289771D01*
X118075000Y-71270715D01*
X117930246Y-71289771D01*
X117795356Y-71345645D01*
X117679525Y-71434525D01*
X117590645Y-71550356D01*
X117534771Y-71685246D01*
X117515715Y-71830000D01*
X110671688Y-71830000D01*
X110665016Y-71706942D01*
X110615292Y-71527852D01*
X110528231Y-71363638D01*
X110528230Y-71363636D01*
X110407906Y-71221979D01*
X110273753Y-71119999D01*
X114340715Y-71119999D01*
X114359771Y-71264753D01*
X114415644Y-71399642D01*
X114415645Y-71399643D01*
X114504526Y-71515474D01*
X114620357Y-71604355D01*
X114755246Y-71660228D01*
X114900000Y-71679285D01*
X115044754Y-71660228D01*
X115179643Y-71604355D01*
X115295474Y-71515474D01*
X115384355Y-71399643D01*
X115440228Y-71264754D01*
X115459285Y-71120000D01*
X115440228Y-70975246D01*
X115384355Y-70840358D01*
X115384354Y-70840357D01*
X115384354Y-70840356D01*
X115295475Y-70724527D01*
X115295472Y-70724525D01*
X115179643Y-70635645D01*
X115179642Y-70635644D01*
X115044753Y-70579771D01*
X114900000Y-70560715D01*
X114755246Y-70579771D01*
X114620356Y-70635645D01*
X114504525Y-70724525D01*
X114415645Y-70840356D01*
X114359771Y-70975246D01*
X114340715Y-71119999D01*
X110273753Y-71119999D01*
X110259939Y-71109498D01*
X110259938Y-71109497D01*
X110091252Y-71031455D01*
X110091248Y-71031454D01*
X109909734Y-70991500D01*
X109909733Y-70991500D01*
X109220468Y-70991500D01*
X109220464Y-70991500D01*
X109082025Y-71006556D01*
X108905890Y-71065902D01*
X108746630Y-71161726D01*
X108611690Y-71289547D01*
X108507387Y-71443383D01*
X108438590Y-71616050D01*
X108408521Y-71799464D01*
X108418584Y-71985058D01*
X108468307Y-72164146D01*
X108555369Y-72328363D01*
X108675693Y-72470020D01*
X108823662Y-72582503D01*
X108865464Y-72601842D01*
X108915724Y-72643856D01*
X108938099Y-72705425D01*
X108926540Y-72769905D01*
X108884173Y-72819868D01*
X108822448Y-72841808D01*
X108813305Y-72842527D01*
X108654041Y-72888797D01*
X108511286Y-72973222D01*
X108394022Y-73090486D01*
X108309597Y-73233241D01*
X108263329Y-73392498D01*
X108260400Y-73429719D01*
X108260400Y-73596000D01*
X101339500Y-73596000D01*
X101339500Y-69215000D01*
X119039715Y-69215000D01*
X119058771Y-69359753D01*
X119114644Y-69494642D01*
X119114645Y-69494643D01*
X119203526Y-69610474D01*
X119319357Y-69699355D01*
X119454246Y-69755228D01*
X119599000Y-69774285D01*
X119743754Y-69755228D01*
X119878643Y-69699355D01*
X119994474Y-69610474D01*
X120083355Y-69494643D01*
X120139228Y-69359754D01*
X120158285Y-69215000D01*
X120139228Y-69070246D01*
X120083355Y-68935358D01*
X120083354Y-68935357D01*
X120083354Y-68935356D01*
X119994475Y-68819527D01*
X119994472Y-68819525D01*
X119878643Y-68730645D01*
X119878642Y-68730644D01*
X119743753Y-68674771D01*
X119618055Y-68658223D01*
X119599000Y-68655715D01*
X119598999Y-68655715D01*
X119454246Y-68674771D01*
X119319356Y-68730645D01*
X119203525Y-68819525D01*
X119114645Y-68935356D01*
X119058771Y-69070246D01*
X119039715Y-69215000D01*
X101339500Y-69215000D01*
X101339500Y-62006500D01*
X101356381Y-61943500D01*
X101402500Y-61897381D01*
X101465500Y-61880500D01*
X121112500Y-61880500D01*
X121175500Y-61897381D01*
G37*
%TD.AperFunction*%
%TD*%
M02*
