%TF.GenerationSoftware,KiCad,Pcbnew,7.0.1*%
%TF.CreationDate,2023-04-28T19:57:16+03:00*%
%TF.ProjectId,leanometer_esp32,6c65616e-6f6d-4657-9465-725f65737033,R1*%
%TF.SameCoordinates,Original*%
%TF.FileFunction,Legend,Top*%
%TF.FilePolarity,Positive*%
%FSLAX46Y46*%
G04 Gerber Fmt 4.6, Leading zero omitted, Abs format (unit mm)*
G04 Created by KiCad (PCBNEW 7.0.1) date 2023-04-28 19:57:16*
%MOMM*%
%LPD*%
G01*
G04 APERTURE LIST*
%ADD10C,0.200000*%
%ADD11C,0.300000*%
%ADD12C,0.150000*%
%ADD13C,0.100000*%
%ADD14C,0.120000*%
G04 APERTURE END LIST*
D10*
X121090523Y-115795809D02*
X121090523Y-115022000D01*
X121090523Y-115022000D02*
X121566714Y-115438666D01*
X121566714Y-115438666D02*
X121566714Y-115260095D01*
X121566714Y-115260095D02*
X121626238Y-115141047D01*
X121626238Y-115141047D02*
X121685761Y-115081523D01*
X121685761Y-115081523D02*
X121804809Y-115022000D01*
X121804809Y-115022000D02*
X122102428Y-115022000D01*
X122102428Y-115022000D02*
X122221476Y-115081523D01*
X122221476Y-115081523D02*
X122281000Y-115141047D01*
X122281000Y-115141047D02*
X122340523Y-115260095D01*
X122340523Y-115260095D02*
X122340523Y-115617238D01*
X122340523Y-115617238D02*
X122281000Y-115736285D01*
X122281000Y-115736285D02*
X122221476Y-115795809D01*
X121090523Y-114664857D02*
X122340523Y-114248190D01*
X122340523Y-114248190D02*
X121090523Y-113831524D01*
X121090523Y-113533904D02*
X121090523Y-112760095D01*
X121090523Y-112760095D02*
X121566714Y-113176761D01*
X121566714Y-113176761D02*
X121566714Y-112998190D01*
X121566714Y-112998190D02*
X121626238Y-112879142D01*
X121626238Y-112879142D02*
X121685761Y-112819618D01*
X121685761Y-112819618D02*
X121804809Y-112760095D01*
X121804809Y-112760095D02*
X122102428Y-112760095D01*
X122102428Y-112760095D02*
X122221476Y-112819618D01*
X122221476Y-112819618D02*
X122281000Y-112879142D01*
X122281000Y-112879142D02*
X122340523Y-112998190D01*
X122340523Y-112998190D02*
X122340523Y-113355333D01*
X122340523Y-113355333D02*
X122281000Y-113474380D01*
X122281000Y-113474380D02*
X122221476Y-113533904D01*
X123175047Y-115379143D02*
X123115523Y-115498190D01*
X123115523Y-115498190D02*
X123115523Y-115676762D01*
X123115523Y-115676762D02*
X123175047Y-115855333D01*
X123175047Y-115855333D02*
X123294095Y-115974381D01*
X123294095Y-115974381D02*
X123413142Y-116033904D01*
X123413142Y-116033904D02*
X123651238Y-116093428D01*
X123651238Y-116093428D02*
X123829809Y-116093428D01*
X123829809Y-116093428D02*
X124067904Y-116033904D01*
X124067904Y-116033904D02*
X124186952Y-115974381D01*
X124186952Y-115974381D02*
X124306000Y-115855333D01*
X124306000Y-115855333D02*
X124365523Y-115676762D01*
X124365523Y-115676762D02*
X124365523Y-115557714D01*
X124365523Y-115557714D02*
X124306000Y-115379143D01*
X124306000Y-115379143D02*
X124246476Y-115319619D01*
X124246476Y-115319619D02*
X123829809Y-115319619D01*
X123829809Y-115319619D02*
X123829809Y-115557714D01*
X124365523Y-114783904D02*
X123115523Y-114783904D01*
X123115523Y-114783904D02*
X124365523Y-114069619D01*
X124365523Y-114069619D02*
X123115523Y-114069619D01*
X124365523Y-113474380D02*
X123115523Y-113474380D01*
X123115523Y-113474380D02*
X123115523Y-113176761D01*
X123115523Y-113176761D02*
X123175047Y-112998190D01*
X123175047Y-112998190D02*
X123294095Y-112879142D01*
X123294095Y-112879142D02*
X123413142Y-112819619D01*
X123413142Y-112819619D02*
X123651238Y-112760095D01*
X123651238Y-112760095D02*
X123829809Y-112760095D01*
X123829809Y-112760095D02*
X124067904Y-112819619D01*
X124067904Y-112819619D02*
X124186952Y-112879142D01*
X124186952Y-112879142D02*
X124306000Y-112998190D01*
X124306000Y-112998190D02*
X124365523Y-113176761D01*
X124365523Y-113176761D02*
X124365523Y-113474380D01*
X125140523Y-114545809D02*
X125140523Y-113831523D01*
X126390523Y-114188666D02*
X125140523Y-114188666D01*
X125140523Y-113533904D02*
X126390523Y-112700571D01*
X125140523Y-112700571D02*
X126390523Y-113533904D01*
X128415523Y-113950571D02*
X127820285Y-114367237D01*
X128415523Y-114664856D02*
X127165523Y-114664856D01*
X127165523Y-114664856D02*
X127165523Y-114188666D01*
X127165523Y-114188666D02*
X127225047Y-114069618D01*
X127225047Y-114069618D02*
X127284571Y-114010095D01*
X127284571Y-114010095D02*
X127403619Y-113950571D01*
X127403619Y-113950571D02*
X127582190Y-113950571D01*
X127582190Y-113950571D02*
X127701238Y-114010095D01*
X127701238Y-114010095D02*
X127760761Y-114069618D01*
X127760761Y-114069618D02*
X127820285Y-114188666D01*
X127820285Y-114188666D02*
X127820285Y-114664856D01*
X127165523Y-113533904D02*
X128415523Y-112700571D01*
X127165523Y-112700571D02*
X128415523Y-113533904D01*
X155451286Y-104828571D02*
X155851286Y-104828571D01*
X156022714Y-105457142D02*
X155451286Y-105457142D01*
X155451286Y-105457142D02*
X155451286Y-104257142D01*
X155451286Y-104257142D02*
X156022714Y-104257142D01*
X156537000Y-105457142D02*
X156537000Y-104257142D01*
X156537000Y-104257142D02*
X157222714Y-105457142D01*
X157222714Y-105457142D02*
X157222714Y-104257142D01*
X147590000Y-91620571D02*
X147761428Y-91677714D01*
X147761428Y-91677714D02*
X147818571Y-91734857D01*
X147818571Y-91734857D02*
X147875714Y-91849142D01*
X147875714Y-91849142D02*
X147875714Y-92020571D01*
X147875714Y-92020571D02*
X147818571Y-92134857D01*
X147818571Y-92134857D02*
X147761428Y-92192000D01*
X147761428Y-92192000D02*
X147647143Y-92249142D01*
X147647143Y-92249142D02*
X147190000Y-92249142D01*
X147190000Y-92249142D02*
X147190000Y-91049142D01*
X147190000Y-91049142D02*
X147590000Y-91049142D01*
X147590000Y-91049142D02*
X147704286Y-91106285D01*
X147704286Y-91106285D02*
X147761428Y-91163428D01*
X147761428Y-91163428D02*
X147818571Y-91277714D01*
X147818571Y-91277714D02*
X147818571Y-91392000D01*
X147818571Y-91392000D02*
X147761428Y-91506285D01*
X147761428Y-91506285D02*
X147704286Y-91563428D01*
X147704286Y-91563428D02*
X147590000Y-91620571D01*
X147590000Y-91620571D02*
X147190000Y-91620571D01*
X148218571Y-91049142D02*
X148904286Y-91049142D01*
X148561428Y-92249142D02*
X148561428Y-91049142D01*
X149304286Y-92249142D02*
X149304286Y-91049142D01*
X149304286Y-91049142D02*
X149990000Y-92249142D01*
X149990000Y-92249142D02*
X149990000Y-91049142D01*
X120847000Y-99107142D02*
X120847000Y-97907142D01*
X121647000Y-97907142D02*
X121875572Y-97907142D01*
X121875572Y-97907142D02*
X121989857Y-97964285D01*
X121989857Y-97964285D02*
X122104143Y-98078571D01*
X122104143Y-98078571D02*
X122161286Y-98307142D01*
X122161286Y-98307142D02*
X122161286Y-98707142D01*
X122161286Y-98707142D02*
X122104143Y-98935714D01*
X122104143Y-98935714D02*
X121989857Y-99050000D01*
X121989857Y-99050000D02*
X121875572Y-99107142D01*
X121875572Y-99107142D02*
X121647000Y-99107142D01*
X121647000Y-99107142D02*
X121532715Y-99050000D01*
X121532715Y-99050000D02*
X121418429Y-98935714D01*
X121418429Y-98935714D02*
X121361286Y-98707142D01*
X121361286Y-98707142D02*
X121361286Y-98307142D01*
X121361286Y-98307142D02*
X121418429Y-98078571D01*
X121418429Y-98078571D02*
X121532715Y-97964285D01*
X121532715Y-97964285D02*
X121647000Y-97907142D01*
X122904143Y-97907142D02*
X123018429Y-97907142D01*
X123018429Y-97907142D02*
X123132715Y-97964285D01*
X123132715Y-97964285D02*
X123189858Y-98021428D01*
X123189858Y-98021428D02*
X123247000Y-98135714D01*
X123247000Y-98135714D02*
X123304143Y-98364285D01*
X123304143Y-98364285D02*
X123304143Y-98650000D01*
X123304143Y-98650000D02*
X123247000Y-98878571D01*
X123247000Y-98878571D02*
X123189858Y-98992857D01*
X123189858Y-98992857D02*
X123132715Y-99050000D01*
X123132715Y-99050000D02*
X123018429Y-99107142D01*
X123018429Y-99107142D02*
X122904143Y-99107142D01*
X122904143Y-99107142D02*
X122789858Y-99050000D01*
X122789858Y-99050000D02*
X122732715Y-98992857D01*
X122732715Y-98992857D02*
X122675572Y-98878571D01*
X122675572Y-98878571D02*
X122618429Y-98650000D01*
X122618429Y-98650000D02*
X122618429Y-98364285D01*
X122618429Y-98364285D02*
X122675572Y-98135714D01*
X122675572Y-98135714D02*
X122732715Y-98021428D01*
X122732715Y-98021428D02*
X122789858Y-97964285D01*
X122789858Y-97964285D02*
X122904143Y-97907142D01*
X118481142Y-88467857D02*
X119681142Y-88067857D01*
X119681142Y-88067857D02*
X118481142Y-87667857D01*
X119681142Y-87267857D02*
X118481142Y-87267857D01*
X119681142Y-86696428D02*
X118481142Y-86696428D01*
X118481142Y-86696428D02*
X119681142Y-86010714D01*
X119681142Y-86010714D02*
X118481142Y-86010714D01*
D11*
X106740142Y-64629928D02*
X106740142Y-63129928D01*
X106740142Y-63129928D02*
X107311571Y-63129928D01*
X107311571Y-63129928D02*
X107454428Y-63201357D01*
X107454428Y-63201357D02*
X107525857Y-63272785D01*
X107525857Y-63272785D02*
X107597285Y-63415642D01*
X107597285Y-63415642D02*
X107597285Y-63629928D01*
X107597285Y-63629928D02*
X107525857Y-63772785D01*
X107525857Y-63772785D02*
X107454428Y-63844214D01*
X107454428Y-63844214D02*
X107311571Y-63915642D01*
X107311571Y-63915642D02*
X106740142Y-63915642D01*
X108097285Y-63629928D02*
X108383000Y-64629928D01*
X108383000Y-64629928D02*
X108668714Y-63915642D01*
X108668714Y-63915642D02*
X108954428Y-64629928D01*
X108954428Y-64629928D02*
X109240142Y-63629928D01*
X109811571Y-64629928D02*
X109811571Y-63629928D01*
X109811571Y-63915642D02*
X109883000Y-63772785D01*
X109883000Y-63772785D02*
X109954429Y-63701357D01*
X109954429Y-63701357D02*
X110097286Y-63629928D01*
X110097286Y-63629928D02*
X110240143Y-63629928D01*
X111240142Y-63844214D02*
X111454428Y-63915642D01*
X111454428Y-63915642D02*
X111525857Y-63987071D01*
X111525857Y-63987071D02*
X111597285Y-64129928D01*
X111597285Y-64129928D02*
X111597285Y-64344214D01*
X111597285Y-64344214D02*
X111525857Y-64487071D01*
X111525857Y-64487071D02*
X111454428Y-64558500D01*
X111454428Y-64558500D02*
X111311571Y-64629928D01*
X111311571Y-64629928D02*
X110740142Y-64629928D01*
X110740142Y-64629928D02*
X110740142Y-63129928D01*
X110740142Y-63129928D02*
X111240142Y-63129928D01*
X111240142Y-63129928D02*
X111383000Y-63201357D01*
X111383000Y-63201357D02*
X111454428Y-63272785D01*
X111454428Y-63272785D02*
X111525857Y-63415642D01*
X111525857Y-63415642D02*
X111525857Y-63558500D01*
X111525857Y-63558500D02*
X111454428Y-63701357D01*
X111454428Y-63701357D02*
X111383000Y-63772785D01*
X111383000Y-63772785D02*
X111240142Y-63844214D01*
X111240142Y-63844214D02*
X110740142Y-63844214D01*
X112454428Y-64629928D02*
X112311571Y-64558500D01*
X112311571Y-64558500D02*
X112240142Y-64487071D01*
X112240142Y-64487071D02*
X112168714Y-64344214D01*
X112168714Y-64344214D02*
X112168714Y-63915642D01*
X112168714Y-63915642D02*
X112240142Y-63772785D01*
X112240142Y-63772785D02*
X112311571Y-63701357D01*
X112311571Y-63701357D02*
X112454428Y-63629928D01*
X112454428Y-63629928D02*
X112668714Y-63629928D01*
X112668714Y-63629928D02*
X112811571Y-63701357D01*
X112811571Y-63701357D02*
X112883000Y-63772785D01*
X112883000Y-63772785D02*
X112954428Y-63915642D01*
X112954428Y-63915642D02*
X112954428Y-64344214D01*
X112954428Y-64344214D02*
X112883000Y-64487071D01*
X112883000Y-64487071D02*
X112811571Y-64558500D01*
X112811571Y-64558500D02*
X112668714Y-64629928D01*
X112668714Y-64629928D02*
X112454428Y-64629928D01*
X114240143Y-64629928D02*
X114240143Y-63844214D01*
X114240143Y-63844214D02*
X114168714Y-63701357D01*
X114168714Y-63701357D02*
X114025857Y-63629928D01*
X114025857Y-63629928D02*
X113740143Y-63629928D01*
X113740143Y-63629928D02*
X113597285Y-63701357D01*
X114240143Y-64558500D02*
X114097285Y-64629928D01*
X114097285Y-64629928D02*
X113740143Y-64629928D01*
X113740143Y-64629928D02*
X113597285Y-64558500D01*
X113597285Y-64558500D02*
X113525857Y-64415642D01*
X113525857Y-64415642D02*
X113525857Y-64272785D01*
X113525857Y-64272785D02*
X113597285Y-64129928D01*
X113597285Y-64129928D02*
X113740143Y-64058500D01*
X113740143Y-64058500D02*
X114097285Y-64058500D01*
X114097285Y-64058500D02*
X114240143Y-63987071D01*
X114954428Y-64629928D02*
X114954428Y-63629928D01*
X114954428Y-63915642D02*
X115025857Y-63772785D01*
X115025857Y-63772785D02*
X115097286Y-63701357D01*
X115097286Y-63701357D02*
X115240143Y-63629928D01*
X115240143Y-63629928D02*
X115383000Y-63629928D01*
X116525857Y-64629928D02*
X116525857Y-63129928D01*
X116525857Y-64558500D02*
X116382999Y-64629928D01*
X116382999Y-64629928D02*
X116097285Y-64629928D01*
X116097285Y-64629928D02*
X115954428Y-64558500D01*
X115954428Y-64558500D02*
X115882999Y-64487071D01*
X115882999Y-64487071D02*
X115811571Y-64344214D01*
X115811571Y-64344214D02*
X115811571Y-63915642D01*
X115811571Y-63915642D02*
X115882999Y-63772785D01*
X115882999Y-63772785D02*
X115954428Y-63701357D01*
X115954428Y-63701357D02*
X116097285Y-63629928D01*
X116097285Y-63629928D02*
X116382999Y-63629928D01*
X116382999Y-63629928D02*
X116525857Y-63701357D01*
X111383000Y-67059928D02*
X110883000Y-66345642D01*
X110525857Y-67059928D02*
X110525857Y-65559928D01*
X110525857Y-65559928D02*
X111097286Y-65559928D01*
X111097286Y-65559928D02*
X111240143Y-65631357D01*
X111240143Y-65631357D02*
X111311572Y-65702785D01*
X111311572Y-65702785D02*
X111383000Y-65845642D01*
X111383000Y-65845642D02*
X111383000Y-66059928D01*
X111383000Y-66059928D02*
X111311572Y-66202785D01*
X111311572Y-66202785D02*
X111240143Y-66274214D01*
X111240143Y-66274214D02*
X111097286Y-66345642D01*
X111097286Y-66345642D02*
X110525857Y-66345642D01*
X112811572Y-67059928D02*
X111954429Y-67059928D01*
X112383000Y-67059928D02*
X112383000Y-65559928D01*
X112383000Y-65559928D02*
X112240143Y-65774214D01*
X112240143Y-65774214D02*
X112097286Y-65917071D01*
X112097286Y-65917071D02*
X111954429Y-65988500D01*
D10*
X115998285Y-88467857D02*
X115941142Y-88582143D01*
X115941142Y-88582143D02*
X115941142Y-88753571D01*
X115941142Y-88753571D02*
X115998285Y-88925000D01*
X115998285Y-88925000D02*
X116112571Y-89039285D01*
X116112571Y-89039285D02*
X116226857Y-89096428D01*
X116226857Y-89096428D02*
X116455428Y-89153571D01*
X116455428Y-89153571D02*
X116626857Y-89153571D01*
X116626857Y-89153571D02*
X116855428Y-89096428D01*
X116855428Y-89096428D02*
X116969714Y-89039285D01*
X116969714Y-89039285D02*
X117084000Y-88925000D01*
X117084000Y-88925000D02*
X117141142Y-88753571D01*
X117141142Y-88753571D02*
X117141142Y-88639285D01*
X117141142Y-88639285D02*
X117084000Y-88467857D01*
X117084000Y-88467857D02*
X117026857Y-88410714D01*
X117026857Y-88410714D02*
X116626857Y-88410714D01*
X116626857Y-88410714D02*
X116626857Y-88639285D01*
X117141142Y-87896428D02*
X115941142Y-87896428D01*
X115941142Y-87896428D02*
X117141142Y-87210714D01*
X117141142Y-87210714D02*
X115941142Y-87210714D01*
X117141142Y-86639285D02*
X115941142Y-86639285D01*
X115941142Y-86639285D02*
X115941142Y-86353571D01*
X115941142Y-86353571D02*
X115998285Y-86182142D01*
X115998285Y-86182142D02*
X116112571Y-86067857D01*
X116112571Y-86067857D02*
X116226857Y-86010714D01*
X116226857Y-86010714D02*
X116455428Y-85953571D01*
X116455428Y-85953571D02*
X116626857Y-85953571D01*
X116626857Y-85953571D02*
X116855428Y-86010714D01*
X116855428Y-86010714D02*
X116969714Y-86067857D01*
X116969714Y-86067857D02*
X117084000Y-86182142D01*
X117084000Y-86182142D02*
X117141142Y-86353571D01*
X117141142Y-86353571D02*
X117141142Y-86639285D01*
D12*
X171912619Y-106560190D02*
X170912619Y-106560190D01*
X170912619Y-106560190D02*
X170912619Y-106322095D01*
X170912619Y-106322095D02*
X170960238Y-106179238D01*
X170960238Y-106179238D02*
X171055476Y-106084000D01*
X171055476Y-106084000D02*
X171150714Y-106036381D01*
X171150714Y-106036381D02*
X171341190Y-105988762D01*
X171341190Y-105988762D02*
X171484047Y-105988762D01*
X171484047Y-105988762D02*
X171674523Y-106036381D01*
X171674523Y-106036381D02*
X171769761Y-106084000D01*
X171769761Y-106084000D02*
X171865000Y-106179238D01*
X171865000Y-106179238D02*
X171912619Y-106322095D01*
X171912619Y-106322095D02*
X171912619Y-106560190D01*
X171912619Y-105560190D02*
X171245952Y-105560190D01*
X170912619Y-105560190D02*
X170960238Y-105607809D01*
X170960238Y-105607809D02*
X171007857Y-105560190D01*
X171007857Y-105560190D02*
X170960238Y-105512571D01*
X170960238Y-105512571D02*
X170912619Y-105560190D01*
X170912619Y-105560190D02*
X171007857Y-105560190D01*
X171865000Y-105131619D02*
X171912619Y-105036381D01*
X171912619Y-105036381D02*
X171912619Y-104845905D01*
X171912619Y-104845905D02*
X171865000Y-104750667D01*
X171865000Y-104750667D02*
X171769761Y-104703048D01*
X171769761Y-104703048D02*
X171722142Y-104703048D01*
X171722142Y-104703048D02*
X171626904Y-104750667D01*
X171626904Y-104750667D02*
X171579285Y-104845905D01*
X171579285Y-104845905D02*
X171579285Y-104988762D01*
X171579285Y-104988762D02*
X171531666Y-105084000D01*
X171531666Y-105084000D02*
X171436428Y-105131619D01*
X171436428Y-105131619D02*
X171388809Y-105131619D01*
X171388809Y-105131619D02*
X171293571Y-105084000D01*
X171293571Y-105084000D02*
X171245952Y-104988762D01*
X171245952Y-104988762D02*
X171245952Y-104845905D01*
X171245952Y-104845905D02*
X171293571Y-104750667D01*
X171245952Y-104274476D02*
X172245952Y-104274476D01*
X171293571Y-104274476D02*
X171245952Y-104179238D01*
X171245952Y-104179238D02*
X171245952Y-103988762D01*
X171245952Y-103988762D02*
X171293571Y-103893524D01*
X171293571Y-103893524D02*
X171341190Y-103845905D01*
X171341190Y-103845905D02*
X171436428Y-103798286D01*
X171436428Y-103798286D02*
X171722142Y-103798286D01*
X171722142Y-103798286D02*
X171817380Y-103845905D01*
X171817380Y-103845905D02*
X171865000Y-103893524D01*
X171865000Y-103893524D02*
X171912619Y-103988762D01*
X171912619Y-103988762D02*
X171912619Y-104179238D01*
X171912619Y-104179238D02*
X171865000Y-104274476D01*
X171912619Y-103226857D02*
X171865000Y-103322095D01*
X171865000Y-103322095D02*
X171769761Y-103369714D01*
X171769761Y-103369714D02*
X170912619Y-103369714D01*
X171912619Y-102417333D02*
X171388809Y-102417333D01*
X171388809Y-102417333D02*
X171293571Y-102464952D01*
X171293571Y-102464952D02*
X171245952Y-102560190D01*
X171245952Y-102560190D02*
X171245952Y-102750666D01*
X171245952Y-102750666D02*
X171293571Y-102845904D01*
X171865000Y-102417333D02*
X171912619Y-102512571D01*
X171912619Y-102512571D02*
X171912619Y-102750666D01*
X171912619Y-102750666D02*
X171865000Y-102845904D01*
X171865000Y-102845904D02*
X171769761Y-102893523D01*
X171769761Y-102893523D02*
X171674523Y-102893523D01*
X171674523Y-102893523D02*
X171579285Y-102845904D01*
X171579285Y-102845904D02*
X171531666Y-102750666D01*
X171531666Y-102750666D02*
X171531666Y-102512571D01*
X171531666Y-102512571D02*
X171484047Y-102417333D01*
X171245952Y-102036380D02*
X171912619Y-101798285D01*
X171245952Y-101560190D02*
X171912619Y-101798285D01*
X171912619Y-101798285D02*
X172150714Y-101893523D01*
X172150714Y-101893523D02*
X172198333Y-101941142D01*
X172198333Y-101941142D02*
X172245952Y-102036380D01*
X171388809Y-100845904D02*
X171436428Y-100703047D01*
X171436428Y-100703047D02*
X171484047Y-100655428D01*
X171484047Y-100655428D02*
X171579285Y-100607809D01*
X171579285Y-100607809D02*
X171722142Y-100607809D01*
X171722142Y-100607809D02*
X171817380Y-100655428D01*
X171817380Y-100655428D02*
X171865000Y-100703047D01*
X171865000Y-100703047D02*
X171912619Y-100798285D01*
X171912619Y-100798285D02*
X171912619Y-101179237D01*
X171912619Y-101179237D02*
X170912619Y-101179237D01*
X170912619Y-101179237D02*
X170912619Y-100845904D01*
X170912619Y-100845904D02*
X170960238Y-100750666D01*
X170960238Y-100750666D02*
X171007857Y-100703047D01*
X171007857Y-100703047D02*
X171103095Y-100655428D01*
X171103095Y-100655428D02*
X171198333Y-100655428D01*
X171198333Y-100655428D02*
X171293571Y-100703047D01*
X171293571Y-100703047D02*
X171341190Y-100750666D01*
X171341190Y-100750666D02*
X171388809Y-100845904D01*
X171388809Y-100845904D02*
X171388809Y-101179237D01*
X171912619Y-100036380D02*
X171865000Y-100131618D01*
X171865000Y-100131618D02*
X171817380Y-100179237D01*
X171817380Y-100179237D02*
X171722142Y-100226856D01*
X171722142Y-100226856D02*
X171436428Y-100226856D01*
X171436428Y-100226856D02*
X171341190Y-100179237D01*
X171341190Y-100179237D02*
X171293571Y-100131618D01*
X171293571Y-100131618D02*
X171245952Y-100036380D01*
X171245952Y-100036380D02*
X171245952Y-99893523D01*
X171245952Y-99893523D02*
X171293571Y-99798285D01*
X171293571Y-99798285D02*
X171341190Y-99750666D01*
X171341190Y-99750666D02*
X171436428Y-99703047D01*
X171436428Y-99703047D02*
X171722142Y-99703047D01*
X171722142Y-99703047D02*
X171817380Y-99750666D01*
X171817380Y-99750666D02*
X171865000Y-99798285D01*
X171865000Y-99798285D02*
X171912619Y-99893523D01*
X171912619Y-99893523D02*
X171912619Y-100036380D01*
X171912619Y-98845904D02*
X171388809Y-98845904D01*
X171388809Y-98845904D02*
X171293571Y-98893523D01*
X171293571Y-98893523D02*
X171245952Y-98988761D01*
X171245952Y-98988761D02*
X171245952Y-99179237D01*
X171245952Y-99179237D02*
X171293571Y-99274475D01*
X171865000Y-98845904D02*
X171912619Y-98941142D01*
X171912619Y-98941142D02*
X171912619Y-99179237D01*
X171912619Y-99179237D02*
X171865000Y-99274475D01*
X171865000Y-99274475D02*
X171769761Y-99322094D01*
X171769761Y-99322094D02*
X171674523Y-99322094D01*
X171674523Y-99322094D02*
X171579285Y-99274475D01*
X171579285Y-99274475D02*
X171531666Y-99179237D01*
X171531666Y-99179237D02*
X171531666Y-98941142D01*
X171531666Y-98941142D02*
X171484047Y-98845904D01*
X171912619Y-98369713D02*
X171245952Y-98369713D01*
X171436428Y-98369713D02*
X171341190Y-98322094D01*
X171341190Y-98322094D02*
X171293571Y-98274475D01*
X171293571Y-98274475D02*
X171245952Y-98179237D01*
X171245952Y-98179237D02*
X171245952Y-98083999D01*
X171912619Y-97322094D02*
X170912619Y-97322094D01*
X171865000Y-97322094D02*
X171912619Y-97417332D01*
X171912619Y-97417332D02*
X171912619Y-97607808D01*
X171912619Y-97607808D02*
X171865000Y-97703046D01*
X171865000Y-97703046D02*
X171817380Y-97750665D01*
X171817380Y-97750665D02*
X171722142Y-97798284D01*
X171722142Y-97798284D02*
X171436428Y-97798284D01*
X171436428Y-97798284D02*
X171341190Y-97750665D01*
X171341190Y-97750665D02*
X171293571Y-97703046D01*
X171293571Y-97703046D02*
X171245952Y-97607808D01*
X171245952Y-97607808D02*
X171245952Y-97417332D01*
X171245952Y-97417332D02*
X171293571Y-97322094D01*
X171912619Y-95512570D02*
X171436428Y-95845903D01*
X171912619Y-96083998D02*
X170912619Y-96083998D01*
X170912619Y-96083998D02*
X170912619Y-95703046D01*
X170912619Y-95703046D02*
X170960238Y-95607808D01*
X170960238Y-95607808D02*
X171007857Y-95560189D01*
X171007857Y-95560189D02*
X171103095Y-95512570D01*
X171103095Y-95512570D02*
X171245952Y-95512570D01*
X171245952Y-95512570D02*
X171341190Y-95560189D01*
X171341190Y-95560189D02*
X171388809Y-95607808D01*
X171388809Y-95607808D02*
X171436428Y-95703046D01*
X171436428Y-95703046D02*
X171436428Y-96083998D01*
X171912619Y-94560189D02*
X171912619Y-95131617D01*
X171912619Y-94845903D02*
X170912619Y-94845903D01*
X170912619Y-94845903D02*
X171055476Y-94941141D01*
X171055476Y-94941141D02*
X171150714Y-95036379D01*
X171150714Y-95036379D02*
X171198333Y-95131617D01*
D10*
X113401142Y-88867856D02*
X113401142Y-88124999D01*
X113401142Y-88124999D02*
X113858285Y-88524999D01*
X113858285Y-88524999D02*
X113858285Y-88353570D01*
X113858285Y-88353570D02*
X113915428Y-88239285D01*
X113915428Y-88239285D02*
X113972571Y-88182142D01*
X113972571Y-88182142D02*
X114086857Y-88124999D01*
X114086857Y-88124999D02*
X114372571Y-88124999D01*
X114372571Y-88124999D02*
X114486857Y-88182142D01*
X114486857Y-88182142D02*
X114544000Y-88239285D01*
X114544000Y-88239285D02*
X114601142Y-88353570D01*
X114601142Y-88353570D02*
X114601142Y-88696427D01*
X114601142Y-88696427D02*
X114544000Y-88810713D01*
X114544000Y-88810713D02*
X114486857Y-88867856D01*
X113401142Y-87782142D02*
X114601142Y-87382142D01*
X114601142Y-87382142D02*
X113401142Y-86982142D01*
X113401142Y-86696428D02*
X113401142Y-85953571D01*
X113401142Y-85953571D02*
X113858285Y-86353571D01*
X113858285Y-86353571D02*
X113858285Y-86182142D01*
X113858285Y-86182142D02*
X113915428Y-86067857D01*
X113915428Y-86067857D02*
X113972571Y-86010714D01*
X113972571Y-86010714D02*
X114086857Y-85953571D01*
X114086857Y-85953571D02*
X114372571Y-85953571D01*
X114372571Y-85953571D02*
X114486857Y-86010714D01*
X114486857Y-86010714D02*
X114544000Y-86067857D01*
X114544000Y-86067857D02*
X114601142Y-86182142D01*
X114601142Y-86182142D02*
X114601142Y-86524999D01*
X114601142Y-86524999D02*
X114544000Y-86639285D01*
X114544000Y-86639285D02*
X114486857Y-86696428D01*
D12*
%TO.C,Q1*%
X183087857Y-100197238D02*
X183040238Y-100292476D01*
X183040238Y-100292476D02*
X182945000Y-100387714D01*
X182945000Y-100387714D02*
X182802142Y-100530571D01*
X182802142Y-100530571D02*
X182754523Y-100625809D01*
X182754523Y-100625809D02*
X182754523Y-100721047D01*
X182992619Y-100673428D02*
X182945000Y-100768666D01*
X182945000Y-100768666D02*
X182849761Y-100863904D01*
X182849761Y-100863904D02*
X182659285Y-100911523D01*
X182659285Y-100911523D02*
X182325952Y-100911523D01*
X182325952Y-100911523D02*
X182135476Y-100863904D01*
X182135476Y-100863904D02*
X182040238Y-100768666D01*
X182040238Y-100768666D02*
X181992619Y-100673428D01*
X181992619Y-100673428D02*
X181992619Y-100482952D01*
X181992619Y-100482952D02*
X182040238Y-100387714D01*
X182040238Y-100387714D02*
X182135476Y-100292476D01*
X182135476Y-100292476D02*
X182325952Y-100244857D01*
X182325952Y-100244857D02*
X182659285Y-100244857D01*
X182659285Y-100244857D02*
X182849761Y-100292476D01*
X182849761Y-100292476D02*
X182945000Y-100387714D01*
X182945000Y-100387714D02*
X182992619Y-100482952D01*
X182992619Y-100482952D02*
X182992619Y-100673428D01*
X182992619Y-99292476D02*
X182992619Y-99863904D01*
X182992619Y-99578190D02*
X181992619Y-99578190D01*
X181992619Y-99578190D02*
X182135476Y-99673428D01*
X182135476Y-99673428D02*
X182230714Y-99768666D01*
X182230714Y-99768666D02*
X182278333Y-99863904D01*
%TO.C,J4*%
X118030666Y-99665619D02*
X118030666Y-100379904D01*
X118030666Y-100379904D02*
X117983047Y-100522761D01*
X117983047Y-100522761D02*
X117887809Y-100618000D01*
X117887809Y-100618000D02*
X117744952Y-100665619D01*
X117744952Y-100665619D02*
X117649714Y-100665619D01*
X118935428Y-99998952D02*
X118935428Y-100665619D01*
X118697333Y-99618000D02*
X118459238Y-100332285D01*
X118459238Y-100332285D02*
X119078285Y-100332285D01*
%TO.C,U4*%
X187648119Y-108133904D02*
X188457642Y-108133904D01*
X188457642Y-108133904D02*
X188552880Y-108086285D01*
X188552880Y-108086285D02*
X188600500Y-108038666D01*
X188600500Y-108038666D02*
X188648119Y-107943428D01*
X188648119Y-107943428D02*
X188648119Y-107752952D01*
X188648119Y-107752952D02*
X188600500Y-107657714D01*
X188600500Y-107657714D02*
X188552880Y-107610095D01*
X188552880Y-107610095D02*
X188457642Y-107562476D01*
X188457642Y-107562476D02*
X187648119Y-107562476D01*
X187981452Y-106657714D02*
X188648119Y-106657714D01*
X187600500Y-106895809D02*
X188314785Y-107133904D01*
X188314785Y-107133904D02*
X188314785Y-106514857D01*
D13*
%TO.C,U8*%
X126111095Y-98395619D02*
X126111095Y-99205142D01*
X126111095Y-99205142D02*
X126158714Y-99300380D01*
X126158714Y-99300380D02*
X126206333Y-99348000D01*
X126206333Y-99348000D02*
X126301571Y-99395619D01*
X126301571Y-99395619D02*
X126492047Y-99395619D01*
X126492047Y-99395619D02*
X126587285Y-99348000D01*
X126587285Y-99348000D02*
X126634904Y-99300380D01*
X126634904Y-99300380D02*
X126682523Y-99205142D01*
X126682523Y-99205142D02*
X126682523Y-98395619D01*
X127301571Y-98824190D02*
X127206333Y-98776571D01*
X127206333Y-98776571D02*
X127158714Y-98728952D01*
X127158714Y-98728952D02*
X127111095Y-98633714D01*
X127111095Y-98633714D02*
X127111095Y-98586095D01*
X127111095Y-98586095D02*
X127158714Y-98490857D01*
X127158714Y-98490857D02*
X127206333Y-98443238D01*
X127206333Y-98443238D02*
X127301571Y-98395619D01*
X127301571Y-98395619D02*
X127492047Y-98395619D01*
X127492047Y-98395619D02*
X127587285Y-98443238D01*
X127587285Y-98443238D02*
X127634904Y-98490857D01*
X127634904Y-98490857D02*
X127682523Y-98586095D01*
X127682523Y-98586095D02*
X127682523Y-98633714D01*
X127682523Y-98633714D02*
X127634904Y-98728952D01*
X127634904Y-98728952D02*
X127587285Y-98776571D01*
X127587285Y-98776571D02*
X127492047Y-98824190D01*
X127492047Y-98824190D02*
X127301571Y-98824190D01*
X127301571Y-98824190D02*
X127206333Y-98871809D01*
X127206333Y-98871809D02*
X127158714Y-98919428D01*
X127158714Y-98919428D02*
X127111095Y-99014666D01*
X127111095Y-99014666D02*
X127111095Y-99205142D01*
X127111095Y-99205142D02*
X127158714Y-99300380D01*
X127158714Y-99300380D02*
X127206333Y-99348000D01*
X127206333Y-99348000D02*
X127301571Y-99395619D01*
X127301571Y-99395619D02*
X127492047Y-99395619D01*
X127492047Y-99395619D02*
X127587285Y-99348000D01*
X127587285Y-99348000D02*
X127634904Y-99300380D01*
X127634904Y-99300380D02*
X127682523Y-99205142D01*
X127682523Y-99205142D02*
X127682523Y-99014666D01*
X127682523Y-99014666D02*
X127634904Y-98919428D01*
X127634904Y-98919428D02*
X127587285Y-98871809D01*
X127587285Y-98871809D02*
X127492047Y-98824190D01*
D12*
%TO.C,C5*%
X151574380Y-117197666D02*
X151622000Y-117245285D01*
X151622000Y-117245285D02*
X151669619Y-117388142D01*
X151669619Y-117388142D02*
X151669619Y-117483380D01*
X151669619Y-117483380D02*
X151622000Y-117626237D01*
X151622000Y-117626237D02*
X151526761Y-117721475D01*
X151526761Y-117721475D02*
X151431523Y-117769094D01*
X151431523Y-117769094D02*
X151241047Y-117816713D01*
X151241047Y-117816713D02*
X151098190Y-117816713D01*
X151098190Y-117816713D02*
X150907714Y-117769094D01*
X150907714Y-117769094D02*
X150812476Y-117721475D01*
X150812476Y-117721475D02*
X150717238Y-117626237D01*
X150717238Y-117626237D02*
X150669619Y-117483380D01*
X150669619Y-117483380D02*
X150669619Y-117388142D01*
X150669619Y-117388142D02*
X150717238Y-117245285D01*
X150717238Y-117245285D02*
X150764857Y-117197666D01*
X150669619Y-116292904D02*
X150669619Y-116769094D01*
X150669619Y-116769094D02*
X151145809Y-116816713D01*
X151145809Y-116816713D02*
X151098190Y-116769094D01*
X151098190Y-116769094D02*
X151050571Y-116673856D01*
X151050571Y-116673856D02*
X151050571Y-116435761D01*
X151050571Y-116435761D02*
X151098190Y-116340523D01*
X151098190Y-116340523D02*
X151145809Y-116292904D01*
X151145809Y-116292904D02*
X151241047Y-116245285D01*
X151241047Y-116245285D02*
X151479142Y-116245285D01*
X151479142Y-116245285D02*
X151574380Y-116292904D01*
X151574380Y-116292904D02*
X151622000Y-116340523D01*
X151622000Y-116340523D02*
X151669619Y-116435761D01*
X151669619Y-116435761D02*
X151669619Y-116673856D01*
X151669619Y-116673856D02*
X151622000Y-116769094D01*
X151622000Y-116769094D02*
X151574380Y-116816713D01*
%TO.C,C17*%
X156577380Y-90685857D02*
X156625000Y-90733476D01*
X156625000Y-90733476D02*
X156672619Y-90876333D01*
X156672619Y-90876333D02*
X156672619Y-90971571D01*
X156672619Y-90971571D02*
X156625000Y-91114428D01*
X156625000Y-91114428D02*
X156529761Y-91209666D01*
X156529761Y-91209666D02*
X156434523Y-91257285D01*
X156434523Y-91257285D02*
X156244047Y-91304904D01*
X156244047Y-91304904D02*
X156101190Y-91304904D01*
X156101190Y-91304904D02*
X155910714Y-91257285D01*
X155910714Y-91257285D02*
X155815476Y-91209666D01*
X155815476Y-91209666D02*
X155720238Y-91114428D01*
X155720238Y-91114428D02*
X155672619Y-90971571D01*
X155672619Y-90971571D02*
X155672619Y-90876333D01*
X155672619Y-90876333D02*
X155720238Y-90733476D01*
X155720238Y-90733476D02*
X155767857Y-90685857D01*
X156672619Y-89733476D02*
X156672619Y-90304904D01*
X156672619Y-90019190D02*
X155672619Y-90019190D01*
X155672619Y-90019190D02*
X155815476Y-90114428D01*
X155815476Y-90114428D02*
X155910714Y-90209666D01*
X155910714Y-90209666D02*
X155958333Y-90304904D01*
X155672619Y-89400142D02*
X155672619Y-88733476D01*
X155672619Y-88733476D02*
X156672619Y-89162047D01*
%TO.C,R12*%
X103840619Y-99194857D02*
X103364428Y-99528190D01*
X103840619Y-99766285D02*
X102840619Y-99766285D01*
X102840619Y-99766285D02*
X102840619Y-99385333D01*
X102840619Y-99385333D02*
X102888238Y-99290095D01*
X102888238Y-99290095D02*
X102935857Y-99242476D01*
X102935857Y-99242476D02*
X103031095Y-99194857D01*
X103031095Y-99194857D02*
X103173952Y-99194857D01*
X103173952Y-99194857D02*
X103269190Y-99242476D01*
X103269190Y-99242476D02*
X103316809Y-99290095D01*
X103316809Y-99290095D02*
X103364428Y-99385333D01*
X103364428Y-99385333D02*
X103364428Y-99766285D01*
X103840619Y-98242476D02*
X103840619Y-98813904D01*
X103840619Y-98528190D02*
X102840619Y-98528190D01*
X102840619Y-98528190D02*
X102983476Y-98623428D01*
X102983476Y-98623428D02*
X103078714Y-98718666D01*
X103078714Y-98718666D02*
X103126333Y-98813904D01*
X102935857Y-97861523D02*
X102888238Y-97813904D01*
X102888238Y-97813904D02*
X102840619Y-97718666D01*
X102840619Y-97718666D02*
X102840619Y-97480571D01*
X102840619Y-97480571D02*
X102888238Y-97385333D01*
X102888238Y-97385333D02*
X102935857Y-97337714D01*
X102935857Y-97337714D02*
X103031095Y-97290095D01*
X103031095Y-97290095D02*
X103126333Y-97290095D01*
X103126333Y-97290095D02*
X103269190Y-97337714D01*
X103269190Y-97337714D02*
X103840619Y-97909142D01*
X103840619Y-97909142D02*
X103840619Y-97290095D01*
%TO.C,U3*%
X138990619Y-92729904D02*
X139800142Y-92729904D01*
X139800142Y-92729904D02*
X139895380Y-92682285D01*
X139895380Y-92682285D02*
X139943000Y-92634666D01*
X139943000Y-92634666D02*
X139990619Y-92539428D01*
X139990619Y-92539428D02*
X139990619Y-92348952D01*
X139990619Y-92348952D02*
X139943000Y-92253714D01*
X139943000Y-92253714D02*
X139895380Y-92206095D01*
X139895380Y-92206095D02*
X139800142Y-92158476D01*
X139800142Y-92158476D02*
X138990619Y-92158476D01*
X138990619Y-91777523D02*
X138990619Y-91158476D01*
X138990619Y-91158476D02*
X139371571Y-91491809D01*
X139371571Y-91491809D02*
X139371571Y-91348952D01*
X139371571Y-91348952D02*
X139419190Y-91253714D01*
X139419190Y-91253714D02*
X139466809Y-91206095D01*
X139466809Y-91206095D02*
X139562047Y-91158476D01*
X139562047Y-91158476D02*
X139800142Y-91158476D01*
X139800142Y-91158476D02*
X139895380Y-91206095D01*
X139895380Y-91206095D02*
X139943000Y-91253714D01*
X139943000Y-91253714D02*
X139990619Y-91348952D01*
X139990619Y-91348952D02*
X139990619Y-91634666D01*
X139990619Y-91634666D02*
X139943000Y-91729904D01*
X139943000Y-91729904D02*
X139895380Y-91777523D01*
%TO.C,J5*%
X111156619Y-84338333D02*
X111870904Y-84338333D01*
X111870904Y-84338333D02*
X112013761Y-84385952D01*
X112013761Y-84385952D02*
X112109000Y-84481190D01*
X112109000Y-84481190D02*
X112156619Y-84624047D01*
X112156619Y-84624047D02*
X112156619Y-84719285D01*
X111156619Y-83385952D02*
X111156619Y-83862142D01*
X111156619Y-83862142D02*
X111632809Y-83909761D01*
X111632809Y-83909761D02*
X111585190Y-83862142D01*
X111585190Y-83862142D02*
X111537571Y-83766904D01*
X111537571Y-83766904D02*
X111537571Y-83528809D01*
X111537571Y-83528809D02*
X111585190Y-83433571D01*
X111585190Y-83433571D02*
X111632809Y-83385952D01*
X111632809Y-83385952D02*
X111728047Y-83338333D01*
X111728047Y-83338333D02*
X111966142Y-83338333D01*
X111966142Y-83338333D02*
X112061380Y-83385952D01*
X112061380Y-83385952D02*
X112109000Y-83433571D01*
X112109000Y-83433571D02*
X112156619Y-83528809D01*
X112156619Y-83528809D02*
X112156619Y-83766904D01*
X112156619Y-83766904D02*
X112109000Y-83862142D01*
X112109000Y-83862142D02*
X112061380Y-83909761D01*
%TO.C,R4*%
X157003619Y-113387666D02*
X156527428Y-113720999D01*
X157003619Y-113959094D02*
X156003619Y-113959094D01*
X156003619Y-113959094D02*
X156003619Y-113578142D01*
X156003619Y-113578142D02*
X156051238Y-113482904D01*
X156051238Y-113482904D02*
X156098857Y-113435285D01*
X156098857Y-113435285D02*
X156194095Y-113387666D01*
X156194095Y-113387666D02*
X156336952Y-113387666D01*
X156336952Y-113387666D02*
X156432190Y-113435285D01*
X156432190Y-113435285D02*
X156479809Y-113482904D01*
X156479809Y-113482904D02*
X156527428Y-113578142D01*
X156527428Y-113578142D02*
X156527428Y-113959094D01*
X156336952Y-112530523D02*
X157003619Y-112530523D01*
X155956000Y-112768618D02*
X156670285Y-113006713D01*
X156670285Y-113006713D02*
X156670285Y-112387666D01*
%TO.C,J1*%
X162512666Y-93622619D02*
X162512666Y-94336904D01*
X162512666Y-94336904D02*
X162465047Y-94479761D01*
X162465047Y-94479761D02*
X162369809Y-94575000D01*
X162369809Y-94575000D02*
X162226952Y-94622619D01*
X162226952Y-94622619D02*
X162131714Y-94622619D01*
X163512666Y-94622619D02*
X162941238Y-94622619D01*
X163226952Y-94622619D02*
X163226952Y-93622619D01*
X163226952Y-93622619D02*
X163131714Y-93765476D01*
X163131714Y-93765476D02*
X163036476Y-93860714D01*
X163036476Y-93860714D02*
X162941238Y-93908333D01*
%TO.C,U2*%
X150688619Y-101780904D02*
X151498142Y-101780904D01*
X151498142Y-101780904D02*
X151593380Y-101733285D01*
X151593380Y-101733285D02*
X151641000Y-101685666D01*
X151641000Y-101685666D02*
X151688619Y-101590428D01*
X151688619Y-101590428D02*
X151688619Y-101399952D01*
X151688619Y-101399952D02*
X151641000Y-101304714D01*
X151641000Y-101304714D02*
X151593380Y-101257095D01*
X151593380Y-101257095D02*
X151498142Y-101209476D01*
X151498142Y-101209476D02*
X150688619Y-101209476D01*
X150783857Y-100780904D02*
X150736238Y-100733285D01*
X150736238Y-100733285D02*
X150688619Y-100638047D01*
X150688619Y-100638047D02*
X150688619Y-100399952D01*
X150688619Y-100399952D02*
X150736238Y-100304714D01*
X150736238Y-100304714D02*
X150783857Y-100257095D01*
X150783857Y-100257095D02*
X150879095Y-100209476D01*
X150879095Y-100209476D02*
X150974333Y-100209476D01*
X150974333Y-100209476D02*
X151117190Y-100257095D01*
X151117190Y-100257095D02*
X151688619Y-100828523D01*
X151688619Y-100828523D02*
X151688619Y-100209476D01*
%TO.C,J7*%
X111171619Y-79163333D02*
X111885904Y-79163333D01*
X111885904Y-79163333D02*
X112028761Y-79210952D01*
X112028761Y-79210952D02*
X112124000Y-79306190D01*
X112124000Y-79306190D02*
X112171619Y-79449047D01*
X112171619Y-79449047D02*
X112171619Y-79544285D01*
X111171619Y-78782380D02*
X111171619Y-78115714D01*
X111171619Y-78115714D02*
X112171619Y-78544285D01*
%TO.C,R14*%
X106720619Y-93380857D02*
X106244428Y-93714190D01*
X106720619Y-93952285D02*
X105720619Y-93952285D01*
X105720619Y-93952285D02*
X105720619Y-93571333D01*
X105720619Y-93571333D02*
X105768238Y-93476095D01*
X105768238Y-93476095D02*
X105815857Y-93428476D01*
X105815857Y-93428476D02*
X105911095Y-93380857D01*
X105911095Y-93380857D02*
X106053952Y-93380857D01*
X106053952Y-93380857D02*
X106149190Y-93428476D01*
X106149190Y-93428476D02*
X106196809Y-93476095D01*
X106196809Y-93476095D02*
X106244428Y-93571333D01*
X106244428Y-93571333D02*
X106244428Y-93952285D01*
X106720619Y-92428476D02*
X106720619Y-92999904D01*
X106720619Y-92714190D02*
X105720619Y-92714190D01*
X105720619Y-92714190D02*
X105863476Y-92809428D01*
X105863476Y-92809428D02*
X105958714Y-92904666D01*
X105958714Y-92904666D02*
X106006333Y-92999904D01*
X106053952Y-91571333D02*
X106720619Y-91571333D01*
X105673000Y-91809428D02*
X106387285Y-92047523D01*
X106387285Y-92047523D02*
X106387285Y-91428476D01*
%TO.C,C14*%
X185452642Y-100543380D02*
X185405023Y-100591000D01*
X185405023Y-100591000D02*
X185262166Y-100638619D01*
X185262166Y-100638619D02*
X185166928Y-100638619D01*
X185166928Y-100638619D02*
X185024071Y-100591000D01*
X185024071Y-100591000D02*
X184928833Y-100495761D01*
X184928833Y-100495761D02*
X184881214Y-100400523D01*
X184881214Y-100400523D02*
X184833595Y-100210047D01*
X184833595Y-100210047D02*
X184833595Y-100067190D01*
X184833595Y-100067190D02*
X184881214Y-99876714D01*
X184881214Y-99876714D02*
X184928833Y-99781476D01*
X184928833Y-99781476D02*
X185024071Y-99686238D01*
X185024071Y-99686238D02*
X185166928Y-99638619D01*
X185166928Y-99638619D02*
X185262166Y-99638619D01*
X185262166Y-99638619D02*
X185405023Y-99686238D01*
X185405023Y-99686238D02*
X185452642Y-99733857D01*
X186405023Y-100638619D02*
X185833595Y-100638619D01*
X186119309Y-100638619D02*
X186119309Y-99638619D01*
X186119309Y-99638619D02*
X186024071Y-99781476D01*
X186024071Y-99781476D02*
X185928833Y-99876714D01*
X185928833Y-99876714D02*
X185833595Y-99924333D01*
X187262166Y-99971952D02*
X187262166Y-100638619D01*
X187024071Y-99591000D02*
X186785976Y-100305285D01*
X186785976Y-100305285D02*
X187405023Y-100305285D01*
%TO.C,C3*%
X151668380Y-113387666D02*
X151716000Y-113435285D01*
X151716000Y-113435285D02*
X151763619Y-113578142D01*
X151763619Y-113578142D02*
X151763619Y-113673380D01*
X151763619Y-113673380D02*
X151716000Y-113816237D01*
X151716000Y-113816237D02*
X151620761Y-113911475D01*
X151620761Y-113911475D02*
X151525523Y-113959094D01*
X151525523Y-113959094D02*
X151335047Y-114006713D01*
X151335047Y-114006713D02*
X151192190Y-114006713D01*
X151192190Y-114006713D02*
X151001714Y-113959094D01*
X151001714Y-113959094D02*
X150906476Y-113911475D01*
X150906476Y-113911475D02*
X150811238Y-113816237D01*
X150811238Y-113816237D02*
X150763619Y-113673380D01*
X150763619Y-113673380D02*
X150763619Y-113578142D01*
X150763619Y-113578142D02*
X150811238Y-113435285D01*
X150811238Y-113435285D02*
X150858857Y-113387666D01*
X150763619Y-113054332D02*
X150763619Y-112435285D01*
X150763619Y-112435285D02*
X151144571Y-112768618D01*
X151144571Y-112768618D02*
X151144571Y-112625761D01*
X151144571Y-112625761D02*
X151192190Y-112530523D01*
X151192190Y-112530523D02*
X151239809Y-112482904D01*
X151239809Y-112482904D02*
X151335047Y-112435285D01*
X151335047Y-112435285D02*
X151573142Y-112435285D01*
X151573142Y-112435285D02*
X151668380Y-112482904D01*
X151668380Y-112482904D02*
X151716000Y-112530523D01*
X151716000Y-112530523D02*
X151763619Y-112625761D01*
X151763619Y-112625761D02*
X151763619Y-112911475D01*
X151763619Y-112911475D02*
X151716000Y-113006713D01*
X151716000Y-113006713D02*
X151668380Y-113054332D01*
%TO.C,J6*%
X170785619Y-112855333D02*
X171499904Y-112855333D01*
X171499904Y-112855333D02*
X171642761Y-112902952D01*
X171642761Y-112902952D02*
X171738000Y-112998190D01*
X171738000Y-112998190D02*
X171785619Y-113141047D01*
X171785619Y-113141047D02*
X171785619Y-113236285D01*
X170785619Y-111950571D02*
X170785619Y-112141047D01*
X170785619Y-112141047D02*
X170833238Y-112236285D01*
X170833238Y-112236285D02*
X170880857Y-112283904D01*
X170880857Y-112283904D02*
X171023714Y-112379142D01*
X171023714Y-112379142D02*
X171214190Y-112426761D01*
X171214190Y-112426761D02*
X171595142Y-112426761D01*
X171595142Y-112426761D02*
X171690380Y-112379142D01*
X171690380Y-112379142D02*
X171738000Y-112331523D01*
X171738000Y-112331523D02*
X171785619Y-112236285D01*
X171785619Y-112236285D02*
X171785619Y-112045809D01*
X171785619Y-112045809D02*
X171738000Y-111950571D01*
X171738000Y-111950571D02*
X171690380Y-111902952D01*
X171690380Y-111902952D02*
X171595142Y-111855333D01*
X171595142Y-111855333D02*
X171357047Y-111855333D01*
X171357047Y-111855333D02*
X171261809Y-111902952D01*
X171261809Y-111902952D02*
X171214190Y-111950571D01*
X171214190Y-111950571D02*
X171166571Y-112045809D01*
X171166571Y-112045809D02*
X171166571Y-112236285D01*
X171166571Y-112236285D02*
X171214190Y-112331523D01*
X171214190Y-112331523D02*
X171261809Y-112379142D01*
X171261809Y-112379142D02*
X171357047Y-112426761D01*
%TO.C,C11*%
X103745380Y-108338857D02*
X103793000Y-108386476D01*
X103793000Y-108386476D02*
X103840619Y-108529333D01*
X103840619Y-108529333D02*
X103840619Y-108624571D01*
X103840619Y-108624571D02*
X103793000Y-108767428D01*
X103793000Y-108767428D02*
X103697761Y-108862666D01*
X103697761Y-108862666D02*
X103602523Y-108910285D01*
X103602523Y-108910285D02*
X103412047Y-108957904D01*
X103412047Y-108957904D02*
X103269190Y-108957904D01*
X103269190Y-108957904D02*
X103078714Y-108910285D01*
X103078714Y-108910285D02*
X102983476Y-108862666D01*
X102983476Y-108862666D02*
X102888238Y-108767428D01*
X102888238Y-108767428D02*
X102840619Y-108624571D01*
X102840619Y-108624571D02*
X102840619Y-108529333D01*
X102840619Y-108529333D02*
X102888238Y-108386476D01*
X102888238Y-108386476D02*
X102935857Y-108338857D01*
X103840619Y-107386476D02*
X103840619Y-107957904D01*
X103840619Y-107672190D02*
X102840619Y-107672190D01*
X102840619Y-107672190D02*
X102983476Y-107767428D01*
X102983476Y-107767428D02*
X103078714Y-107862666D01*
X103078714Y-107862666D02*
X103126333Y-107957904D01*
X103840619Y-106434095D02*
X103840619Y-107005523D01*
X103840619Y-106719809D02*
X102840619Y-106719809D01*
X102840619Y-106719809D02*
X102983476Y-106815047D01*
X102983476Y-106815047D02*
X103078714Y-106910285D01*
X103078714Y-106910285D02*
X103126333Y-107005523D01*
%TO.C,R16*%
X172206119Y-91006857D02*
X171729928Y-91340190D01*
X172206119Y-91578285D02*
X171206119Y-91578285D01*
X171206119Y-91578285D02*
X171206119Y-91197333D01*
X171206119Y-91197333D02*
X171253738Y-91102095D01*
X171253738Y-91102095D02*
X171301357Y-91054476D01*
X171301357Y-91054476D02*
X171396595Y-91006857D01*
X171396595Y-91006857D02*
X171539452Y-91006857D01*
X171539452Y-91006857D02*
X171634690Y-91054476D01*
X171634690Y-91054476D02*
X171682309Y-91102095D01*
X171682309Y-91102095D02*
X171729928Y-91197333D01*
X171729928Y-91197333D02*
X171729928Y-91578285D01*
X172206119Y-90054476D02*
X172206119Y-90625904D01*
X172206119Y-90340190D02*
X171206119Y-90340190D01*
X171206119Y-90340190D02*
X171348976Y-90435428D01*
X171348976Y-90435428D02*
X171444214Y-90530666D01*
X171444214Y-90530666D02*
X171491833Y-90625904D01*
X171206119Y-89197333D02*
X171206119Y-89387809D01*
X171206119Y-89387809D02*
X171253738Y-89483047D01*
X171253738Y-89483047D02*
X171301357Y-89530666D01*
X171301357Y-89530666D02*
X171444214Y-89625904D01*
X171444214Y-89625904D02*
X171634690Y-89673523D01*
X171634690Y-89673523D02*
X172015642Y-89673523D01*
X172015642Y-89673523D02*
X172110880Y-89625904D01*
X172110880Y-89625904D02*
X172158500Y-89578285D01*
X172158500Y-89578285D02*
X172206119Y-89483047D01*
X172206119Y-89483047D02*
X172206119Y-89292571D01*
X172206119Y-89292571D02*
X172158500Y-89197333D01*
X172158500Y-89197333D02*
X172110880Y-89149714D01*
X172110880Y-89149714D02*
X172015642Y-89102095D01*
X172015642Y-89102095D02*
X171777547Y-89102095D01*
X171777547Y-89102095D02*
X171682309Y-89149714D01*
X171682309Y-89149714D02*
X171634690Y-89197333D01*
X171634690Y-89197333D02*
X171587071Y-89292571D01*
X171587071Y-89292571D02*
X171587071Y-89483047D01*
X171587071Y-89483047D02*
X171634690Y-89578285D01*
X171634690Y-89578285D02*
X171682309Y-89625904D01*
X171682309Y-89625904D02*
X171777547Y-89673523D01*
%TO.C,C7*%
X111959380Y-93300666D02*
X112007000Y-93348285D01*
X112007000Y-93348285D02*
X112054619Y-93491142D01*
X112054619Y-93491142D02*
X112054619Y-93586380D01*
X112054619Y-93586380D02*
X112007000Y-93729237D01*
X112007000Y-93729237D02*
X111911761Y-93824475D01*
X111911761Y-93824475D02*
X111816523Y-93872094D01*
X111816523Y-93872094D02*
X111626047Y-93919713D01*
X111626047Y-93919713D02*
X111483190Y-93919713D01*
X111483190Y-93919713D02*
X111292714Y-93872094D01*
X111292714Y-93872094D02*
X111197476Y-93824475D01*
X111197476Y-93824475D02*
X111102238Y-93729237D01*
X111102238Y-93729237D02*
X111054619Y-93586380D01*
X111054619Y-93586380D02*
X111054619Y-93491142D01*
X111054619Y-93491142D02*
X111102238Y-93348285D01*
X111102238Y-93348285D02*
X111149857Y-93300666D01*
X111054619Y-92967332D02*
X111054619Y-92300666D01*
X111054619Y-92300666D02*
X112054619Y-92729237D01*
%TO.C,C9*%
X137755333Y-84060380D02*
X137707714Y-84108000D01*
X137707714Y-84108000D02*
X137564857Y-84155619D01*
X137564857Y-84155619D02*
X137469619Y-84155619D01*
X137469619Y-84155619D02*
X137326762Y-84108000D01*
X137326762Y-84108000D02*
X137231524Y-84012761D01*
X137231524Y-84012761D02*
X137183905Y-83917523D01*
X137183905Y-83917523D02*
X137136286Y-83727047D01*
X137136286Y-83727047D02*
X137136286Y-83584190D01*
X137136286Y-83584190D02*
X137183905Y-83393714D01*
X137183905Y-83393714D02*
X137231524Y-83298476D01*
X137231524Y-83298476D02*
X137326762Y-83203238D01*
X137326762Y-83203238D02*
X137469619Y-83155619D01*
X137469619Y-83155619D02*
X137564857Y-83155619D01*
X137564857Y-83155619D02*
X137707714Y-83203238D01*
X137707714Y-83203238D02*
X137755333Y-83250857D01*
X138231524Y-84155619D02*
X138422000Y-84155619D01*
X138422000Y-84155619D02*
X138517238Y-84108000D01*
X138517238Y-84108000D02*
X138564857Y-84060380D01*
X138564857Y-84060380D02*
X138660095Y-83917523D01*
X138660095Y-83917523D02*
X138707714Y-83727047D01*
X138707714Y-83727047D02*
X138707714Y-83346095D01*
X138707714Y-83346095D02*
X138660095Y-83250857D01*
X138660095Y-83250857D02*
X138612476Y-83203238D01*
X138612476Y-83203238D02*
X138517238Y-83155619D01*
X138517238Y-83155619D02*
X138326762Y-83155619D01*
X138326762Y-83155619D02*
X138231524Y-83203238D01*
X138231524Y-83203238D02*
X138183905Y-83250857D01*
X138183905Y-83250857D02*
X138136286Y-83346095D01*
X138136286Y-83346095D02*
X138136286Y-83584190D01*
X138136286Y-83584190D02*
X138183905Y-83679428D01*
X138183905Y-83679428D02*
X138231524Y-83727047D01*
X138231524Y-83727047D02*
X138326762Y-83774666D01*
X138326762Y-83774666D02*
X138517238Y-83774666D01*
X138517238Y-83774666D02*
X138612476Y-83727047D01*
X138612476Y-83727047D02*
X138660095Y-83679428D01*
X138660095Y-83679428D02*
X138707714Y-83584190D01*
%TO.C,C12*%
X133342142Y-84060380D02*
X133294523Y-84108000D01*
X133294523Y-84108000D02*
X133151666Y-84155619D01*
X133151666Y-84155619D02*
X133056428Y-84155619D01*
X133056428Y-84155619D02*
X132913571Y-84108000D01*
X132913571Y-84108000D02*
X132818333Y-84012761D01*
X132818333Y-84012761D02*
X132770714Y-83917523D01*
X132770714Y-83917523D02*
X132723095Y-83727047D01*
X132723095Y-83727047D02*
X132723095Y-83584190D01*
X132723095Y-83584190D02*
X132770714Y-83393714D01*
X132770714Y-83393714D02*
X132818333Y-83298476D01*
X132818333Y-83298476D02*
X132913571Y-83203238D01*
X132913571Y-83203238D02*
X133056428Y-83155619D01*
X133056428Y-83155619D02*
X133151666Y-83155619D01*
X133151666Y-83155619D02*
X133294523Y-83203238D01*
X133294523Y-83203238D02*
X133342142Y-83250857D01*
X134294523Y-84155619D02*
X133723095Y-84155619D01*
X134008809Y-84155619D02*
X134008809Y-83155619D01*
X134008809Y-83155619D02*
X133913571Y-83298476D01*
X133913571Y-83298476D02*
X133818333Y-83393714D01*
X133818333Y-83393714D02*
X133723095Y-83441333D01*
X134675476Y-83250857D02*
X134723095Y-83203238D01*
X134723095Y-83203238D02*
X134818333Y-83155619D01*
X134818333Y-83155619D02*
X135056428Y-83155619D01*
X135056428Y-83155619D02*
X135151666Y-83203238D01*
X135151666Y-83203238D02*
X135199285Y-83250857D01*
X135199285Y-83250857D02*
X135246904Y-83346095D01*
X135246904Y-83346095D02*
X135246904Y-83441333D01*
X135246904Y-83441333D02*
X135199285Y-83584190D01*
X135199285Y-83584190D02*
X134627857Y-84155619D01*
X134627857Y-84155619D02*
X135246904Y-84155619D01*
%TO.C,J2*%
X121332666Y-108174619D02*
X121332666Y-108888904D01*
X121332666Y-108888904D02*
X121285047Y-109031761D01*
X121285047Y-109031761D02*
X121189809Y-109127000D01*
X121189809Y-109127000D02*
X121046952Y-109174619D01*
X121046952Y-109174619D02*
X120951714Y-109174619D01*
X121761238Y-108269857D02*
X121808857Y-108222238D01*
X121808857Y-108222238D02*
X121904095Y-108174619D01*
X121904095Y-108174619D02*
X122142190Y-108174619D01*
X122142190Y-108174619D02*
X122237428Y-108222238D01*
X122237428Y-108222238D02*
X122285047Y-108269857D01*
X122285047Y-108269857D02*
X122332666Y-108365095D01*
X122332666Y-108365095D02*
X122332666Y-108460333D01*
X122332666Y-108460333D02*
X122285047Y-108603190D01*
X122285047Y-108603190D02*
X121713619Y-109174619D01*
X121713619Y-109174619D02*
X122332666Y-109174619D01*
%TO.C,C15*%
X182396142Y-112788380D02*
X182348523Y-112836000D01*
X182348523Y-112836000D02*
X182205666Y-112883619D01*
X182205666Y-112883619D02*
X182110428Y-112883619D01*
X182110428Y-112883619D02*
X181967571Y-112836000D01*
X181967571Y-112836000D02*
X181872333Y-112740761D01*
X181872333Y-112740761D02*
X181824714Y-112645523D01*
X181824714Y-112645523D02*
X181777095Y-112455047D01*
X181777095Y-112455047D02*
X181777095Y-112312190D01*
X181777095Y-112312190D02*
X181824714Y-112121714D01*
X181824714Y-112121714D02*
X181872333Y-112026476D01*
X181872333Y-112026476D02*
X181967571Y-111931238D01*
X181967571Y-111931238D02*
X182110428Y-111883619D01*
X182110428Y-111883619D02*
X182205666Y-111883619D01*
X182205666Y-111883619D02*
X182348523Y-111931238D01*
X182348523Y-111931238D02*
X182396142Y-111978857D01*
X183348523Y-112883619D02*
X182777095Y-112883619D01*
X183062809Y-112883619D02*
X183062809Y-111883619D01*
X183062809Y-111883619D02*
X182967571Y-112026476D01*
X182967571Y-112026476D02*
X182872333Y-112121714D01*
X182872333Y-112121714D02*
X182777095Y-112169333D01*
X184253285Y-111883619D02*
X183777095Y-111883619D01*
X183777095Y-111883619D02*
X183729476Y-112359809D01*
X183729476Y-112359809D02*
X183777095Y-112312190D01*
X183777095Y-112312190D02*
X183872333Y-112264571D01*
X183872333Y-112264571D02*
X184110428Y-112264571D01*
X184110428Y-112264571D02*
X184205666Y-112312190D01*
X184205666Y-112312190D02*
X184253285Y-112359809D01*
X184253285Y-112359809D02*
X184300904Y-112455047D01*
X184300904Y-112455047D02*
X184300904Y-112693142D01*
X184300904Y-112693142D02*
X184253285Y-112788380D01*
X184253285Y-112788380D02*
X184205666Y-112836000D01*
X184205666Y-112836000D02*
X184110428Y-112883619D01*
X184110428Y-112883619D02*
X183872333Y-112883619D01*
X183872333Y-112883619D02*
X183777095Y-112836000D01*
X183777095Y-112836000D02*
X183729476Y-112788380D01*
%TO.C,U5*%
X187648119Y-94427904D02*
X188457642Y-94427904D01*
X188457642Y-94427904D02*
X188552880Y-94380285D01*
X188552880Y-94380285D02*
X188600500Y-94332666D01*
X188600500Y-94332666D02*
X188648119Y-94237428D01*
X188648119Y-94237428D02*
X188648119Y-94046952D01*
X188648119Y-94046952D02*
X188600500Y-93951714D01*
X188600500Y-93951714D02*
X188552880Y-93904095D01*
X188552880Y-93904095D02*
X188457642Y-93856476D01*
X188457642Y-93856476D02*
X187648119Y-93856476D01*
X187648119Y-92904095D02*
X187648119Y-93380285D01*
X187648119Y-93380285D02*
X188124309Y-93427904D01*
X188124309Y-93427904D02*
X188076690Y-93380285D01*
X188076690Y-93380285D02*
X188029071Y-93285047D01*
X188029071Y-93285047D02*
X188029071Y-93046952D01*
X188029071Y-93046952D02*
X188076690Y-92951714D01*
X188076690Y-92951714D02*
X188124309Y-92904095D01*
X188124309Y-92904095D02*
X188219547Y-92856476D01*
X188219547Y-92856476D02*
X188457642Y-92856476D01*
X188457642Y-92856476D02*
X188552880Y-92904095D01*
X188552880Y-92904095D02*
X188600500Y-92951714D01*
X188600500Y-92951714D02*
X188648119Y-93046952D01*
X188648119Y-93046952D02*
X188648119Y-93285047D01*
X188648119Y-93285047D02*
X188600500Y-93380285D01*
X188600500Y-93380285D02*
X188552880Y-93427904D01*
%TO.C,Y1*%
X159554428Y-84743190D02*
X160030619Y-84743190D01*
X159030619Y-85076523D02*
X159554428Y-84743190D01*
X159554428Y-84743190D02*
X159030619Y-84409857D01*
X160030619Y-83552714D02*
X160030619Y-84124142D01*
X160030619Y-83838428D02*
X159030619Y-83838428D01*
X159030619Y-83838428D02*
X159173476Y-83933666D01*
X159173476Y-83933666D02*
X159268714Y-84028904D01*
X159268714Y-84028904D02*
X159316333Y-84124142D01*
%TO.C,C8*%
X110181380Y-93554666D02*
X110229000Y-93602285D01*
X110229000Y-93602285D02*
X110276619Y-93745142D01*
X110276619Y-93745142D02*
X110276619Y-93840380D01*
X110276619Y-93840380D02*
X110229000Y-93983237D01*
X110229000Y-93983237D02*
X110133761Y-94078475D01*
X110133761Y-94078475D02*
X110038523Y-94126094D01*
X110038523Y-94126094D02*
X109848047Y-94173713D01*
X109848047Y-94173713D02*
X109705190Y-94173713D01*
X109705190Y-94173713D02*
X109514714Y-94126094D01*
X109514714Y-94126094D02*
X109419476Y-94078475D01*
X109419476Y-94078475D02*
X109324238Y-93983237D01*
X109324238Y-93983237D02*
X109276619Y-93840380D01*
X109276619Y-93840380D02*
X109276619Y-93745142D01*
X109276619Y-93745142D02*
X109324238Y-93602285D01*
X109324238Y-93602285D02*
X109371857Y-93554666D01*
X109705190Y-92983237D02*
X109657571Y-93078475D01*
X109657571Y-93078475D02*
X109609952Y-93126094D01*
X109609952Y-93126094D02*
X109514714Y-93173713D01*
X109514714Y-93173713D02*
X109467095Y-93173713D01*
X109467095Y-93173713D02*
X109371857Y-93126094D01*
X109371857Y-93126094D02*
X109324238Y-93078475D01*
X109324238Y-93078475D02*
X109276619Y-92983237D01*
X109276619Y-92983237D02*
X109276619Y-92792761D01*
X109276619Y-92792761D02*
X109324238Y-92697523D01*
X109324238Y-92697523D02*
X109371857Y-92649904D01*
X109371857Y-92649904D02*
X109467095Y-92602285D01*
X109467095Y-92602285D02*
X109514714Y-92602285D01*
X109514714Y-92602285D02*
X109609952Y-92649904D01*
X109609952Y-92649904D02*
X109657571Y-92697523D01*
X109657571Y-92697523D02*
X109705190Y-92792761D01*
X109705190Y-92792761D02*
X109705190Y-92983237D01*
X109705190Y-92983237D02*
X109752809Y-93078475D01*
X109752809Y-93078475D02*
X109800428Y-93126094D01*
X109800428Y-93126094D02*
X109895666Y-93173713D01*
X109895666Y-93173713D02*
X110086142Y-93173713D01*
X110086142Y-93173713D02*
X110181380Y-93126094D01*
X110181380Y-93126094D02*
X110229000Y-93078475D01*
X110229000Y-93078475D02*
X110276619Y-92983237D01*
X110276619Y-92983237D02*
X110276619Y-92792761D01*
X110276619Y-92792761D02*
X110229000Y-92697523D01*
X110229000Y-92697523D02*
X110181380Y-92649904D01*
X110181380Y-92649904D02*
X110086142Y-92602285D01*
X110086142Y-92602285D02*
X109895666Y-92602285D01*
X109895666Y-92602285D02*
X109800428Y-92649904D01*
X109800428Y-92649904D02*
X109752809Y-92697523D01*
X109752809Y-92697523D02*
X109705190Y-92792761D01*
%TO.C,R10*%
X115864619Y-93380857D02*
X115388428Y-93714190D01*
X115864619Y-93952285D02*
X114864619Y-93952285D01*
X114864619Y-93952285D02*
X114864619Y-93571333D01*
X114864619Y-93571333D02*
X114912238Y-93476095D01*
X114912238Y-93476095D02*
X114959857Y-93428476D01*
X114959857Y-93428476D02*
X115055095Y-93380857D01*
X115055095Y-93380857D02*
X115197952Y-93380857D01*
X115197952Y-93380857D02*
X115293190Y-93428476D01*
X115293190Y-93428476D02*
X115340809Y-93476095D01*
X115340809Y-93476095D02*
X115388428Y-93571333D01*
X115388428Y-93571333D02*
X115388428Y-93952285D01*
X115864619Y-92428476D02*
X115864619Y-92999904D01*
X115864619Y-92714190D02*
X114864619Y-92714190D01*
X114864619Y-92714190D02*
X115007476Y-92809428D01*
X115007476Y-92809428D02*
X115102714Y-92904666D01*
X115102714Y-92904666D02*
X115150333Y-92999904D01*
X114864619Y-91809428D02*
X114864619Y-91714190D01*
X114864619Y-91714190D02*
X114912238Y-91618952D01*
X114912238Y-91618952D02*
X114959857Y-91571333D01*
X114959857Y-91571333D02*
X115055095Y-91523714D01*
X115055095Y-91523714D02*
X115245571Y-91476095D01*
X115245571Y-91476095D02*
X115483666Y-91476095D01*
X115483666Y-91476095D02*
X115674142Y-91523714D01*
X115674142Y-91523714D02*
X115769380Y-91571333D01*
X115769380Y-91571333D02*
X115817000Y-91618952D01*
X115817000Y-91618952D02*
X115864619Y-91714190D01*
X115864619Y-91714190D02*
X115864619Y-91809428D01*
X115864619Y-91809428D02*
X115817000Y-91904666D01*
X115817000Y-91904666D02*
X115769380Y-91952285D01*
X115769380Y-91952285D02*
X115674142Y-91999904D01*
X115674142Y-91999904D02*
X115483666Y-92047523D01*
X115483666Y-92047523D02*
X115245571Y-92047523D01*
X115245571Y-92047523D02*
X115055095Y-91999904D01*
X115055095Y-91999904D02*
X114959857Y-91952285D01*
X114959857Y-91952285D02*
X114912238Y-91904666D01*
X114912238Y-91904666D02*
X114864619Y-91809428D01*
%TO.C,R13*%
X108244619Y-93380857D02*
X107768428Y-93714190D01*
X108244619Y-93952285D02*
X107244619Y-93952285D01*
X107244619Y-93952285D02*
X107244619Y-93571333D01*
X107244619Y-93571333D02*
X107292238Y-93476095D01*
X107292238Y-93476095D02*
X107339857Y-93428476D01*
X107339857Y-93428476D02*
X107435095Y-93380857D01*
X107435095Y-93380857D02*
X107577952Y-93380857D01*
X107577952Y-93380857D02*
X107673190Y-93428476D01*
X107673190Y-93428476D02*
X107720809Y-93476095D01*
X107720809Y-93476095D02*
X107768428Y-93571333D01*
X107768428Y-93571333D02*
X107768428Y-93952285D01*
X108244619Y-92428476D02*
X108244619Y-92999904D01*
X108244619Y-92714190D02*
X107244619Y-92714190D01*
X107244619Y-92714190D02*
X107387476Y-92809428D01*
X107387476Y-92809428D02*
X107482714Y-92904666D01*
X107482714Y-92904666D02*
X107530333Y-92999904D01*
X107244619Y-92095142D02*
X107244619Y-91476095D01*
X107244619Y-91476095D02*
X107625571Y-91809428D01*
X107625571Y-91809428D02*
X107625571Y-91666571D01*
X107625571Y-91666571D02*
X107673190Y-91571333D01*
X107673190Y-91571333D02*
X107720809Y-91523714D01*
X107720809Y-91523714D02*
X107816047Y-91476095D01*
X107816047Y-91476095D02*
X108054142Y-91476095D01*
X108054142Y-91476095D02*
X108149380Y-91523714D01*
X108149380Y-91523714D02*
X108197000Y-91571333D01*
X108197000Y-91571333D02*
X108244619Y-91666571D01*
X108244619Y-91666571D02*
X108244619Y-91952285D01*
X108244619Y-91952285D02*
X108197000Y-92047523D01*
X108197000Y-92047523D02*
X108149380Y-92095142D01*
%TO.C,C13*%
X126738142Y-92950380D02*
X126690523Y-92998000D01*
X126690523Y-92998000D02*
X126547666Y-93045619D01*
X126547666Y-93045619D02*
X126452428Y-93045619D01*
X126452428Y-93045619D02*
X126309571Y-92998000D01*
X126309571Y-92998000D02*
X126214333Y-92902761D01*
X126214333Y-92902761D02*
X126166714Y-92807523D01*
X126166714Y-92807523D02*
X126119095Y-92617047D01*
X126119095Y-92617047D02*
X126119095Y-92474190D01*
X126119095Y-92474190D02*
X126166714Y-92283714D01*
X126166714Y-92283714D02*
X126214333Y-92188476D01*
X126214333Y-92188476D02*
X126309571Y-92093238D01*
X126309571Y-92093238D02*
X126452428Y-92045619D01*
X126452428Y-92045619D02*
X126547666Y-92045619D01*
X126547666Y-92045619D02*
X126690523Y-92093238D01*
X126690523Y-92093238D02*
X126738142Y-92140857D01*
X127690523Y-93045619D02*
X127119095Y-93045619D01*
X127404809Y-93045619D02*
X127404809Y-92045619D01*
X127404809Y-92045619D02*
X127309571Y-92188476D01*
X127309571Y-92188476D02*
X127214333Y-92283714D01*
X127214333Y-92283714D02*
X127119095Y-92331333D01*
X128023857Y-92045619D02*
X128642904Y-92045619D01*
X128642904Y-92045619D02*
X128309571Y-92426571D01*
X128309571Y-92426571D02*
X128452428Y-92426571D01*
X128452428Y-92426571D02*
X128547666Y-92474190D01*
X128547666Y-92474190D02*
X128595285Y-92521809D01*
X128595285Y-92521809D02*
X128642904Y-92617047D01*
X128642904Y-92617047D02*
X128642904Y-92855142D01*
X128642904Y-92855142D02*
X128595285Y-92950380D01*
X128595285Y-92950380D02*
X128547666Y-92998000D01*
X128547666Y-92998000D02*
X128452428Y-93045619D01*
X128452428Y-93045619D02*
X128166714Y-93045619D01*
X128166714Y-93045619D02*
X128071476Y-92998000D01*
X128071476Y-92998000D02*
X128023857Y-92950380D01*
%TO.C,U9*%
X146558095Y-81758619D02*
X146558095Y-82568142D01*
X146558095Y-82568142D02*
X146605714Y-82663380D01*
X146605714Y-82663380D02*
X146653333Y-82711000D01*
X146653333Y-82711000D02*
X146748571Y-82758619D01*
X146748571Y-82758619D02*
X146939047Y-82758619D01*
X146939047Y-82758619D02*
X147034285Y-82711000D01*
X147034285Y-82711000D02*
X147081904Y-82663380D01*
X147081904Y-82663380D02*
X147129523Y-82568142D01*
X147129523Y-82568142D02*
X147129523Y-81758619D01*
X147653333Y-82758619D02*
X147843809Y-82758619D01*
X147843809Y-82758619D02*
X147939047Y-82711000D01*
X147939047Y-82711000D02*
X147986666Y-82663380D01*
X147986666Y-82663380D02*
X148081904Y-82520523D01*
X148081904Y-82520523D02*
X148129523Y-82330047D01*
X148129523Y-82330047D02*
X148129523Y-81949095D01*
X148129523Y-81949095D02*
X148081904Y-81853857D01*
X148081904Y-81853857D02*
X148034285Y-81806238D01*
X148034285Y-81806238D02*
X147939047Y-81758619D01*
X147939047Y-81758619D02*
X147748571Y-81758619D01*
X147748571Y-81758619D02*
X147653333Y-81806238D01*
X147653333Y-81806238D02*
X147605714Y-81853857D01*
X147605714Y-81853857D02*
X147558095Y-81949095D01*
X147558095Y-81949095D02*
X147558095Y-82187190D01*
X147558095Y-82187190D02*
X147605714Y-82282428D01*
X147605714Y-82282428D02*
X147653333Y-82330047D01*
X147653333Y-82330047D02*
X147748571Y-82377666D01*
X147748571Y-82377666D02*
X147939047Y-82377666D01*
X147939047Y-82377666D02*
X148034285Y-82330047D01*
X148034285Y-82330047D02*
X148081904Y-82282428D01*
X148081904Y-82282428D02*
X148129523Y-82187190D01*
%TO.C,C10*%
X129956380Y-90324857D02*
X130004000Y-90372476D01*
X130004000Y-90372476D02*
X130051619Y-90515333D01*
X130051619Y-90515333D02*
X130051619Y-90610571D01*
X130051619Y-90610571D02*
X130004000Y-90753428D01*
X130004000Y-90753428D02*
X129908761Y-90848666D01*
X129908761Y-90848666D02*
X129813523Y-90896285D01*
X129813523Y-90896285D02*
X129623047Y-90943904D01*
X129623047Y-90943904D02*
X129480190Y-90943904D01*
X129480190Y-90943904D02*
X129289714Y-90896285D01*
X129289714Y-90896285D02*
X129194476Y-90848666D01*
X129194476Y-90848666D02*
X129099238Y-90753428D01*
X129099238Y-90753428D02*
X129051619Y-90610571D01*
X129051619Y-90610571D02*
X129051619Y-90515333D01*
X129051619Y-90515333D02*
X129099238Y-90372476D01*
X129099238Y-90372476D02*
X129146857Y-90324857D01*
X130051619Y-89372476D02*
X130051619Y-89943904D01*
X130051619Y-89658190D02*
X129051619Y-89658190D01*
X129051619Y-89658190D02*
X129194476Y-89753428D01*
X129194476Y-89753428D02*
X129289714Y-89848666D01*
X129289714Y-89848666D02*
X129337333Y-89943904D01*
X129051619Y-88753428D02*
X129051619Y-88658190D01*
X129051619Y-88658190D02*
X129099238Y-88562952D01*
X129099238Y-88562952D02*
X129146857Y-88515333D01*
X129146857Y-88515333D02*
X129242095Y-88467714D01*
X129242095Y-88467714D02*
X129432571Y-88420095D01*
X129432571Y-88420095D02*
X129670666Y-88420095D01*
X129670666Y-88420095D02*
X129861142Y-88467714D01*
X129861142Y-88467714D02*
X129956380Y-88515333D01*
X129956380Y-88515333D02*
X130004000Y-88562952D01*
X130004000Y-88562952D02*
X130051619Y-88658190D01*
X130051619Y-88658190D02*
X130051619Y-88753428D01*
X130051619Y-88753428D02*
X130004000Y-88848666D01*
X130004000Y-88848666D02*
X129956380Y-88896285D01*
X129956380Y-88896285D02*
X129861142Y-88943904D01*
X129861142Y-88943904D02*
X129670666Y-88991523D01*
X129670666Y-88991523D02*
X129432571Y-88991523D01*
X129432571Y-88991523D02*
X129242095Y-88943904D01*
X129242095Y-88943904D02*
X129146857Y-88896285D01*
X129146857Y-88896285D02*
X129099238Y-88848666D01*
X129099238Y-88848666D02*
X129051619Y-88753428D01*
%TO.C,C6*%
X157162380Y-117197666D02*
X157210000Y-117245285D01*
X157210000Y-117245285D02*
X157257619Y-117388142D01*
X157257619Y-117388142D02*
X157257619Y-117483380D01*
X157257619Y-117483380D02*
X157210000Y-117626237D01*
X157210000Y-117626237D02*
X157114761Y-117721475D01*
X157114761Y-117721475D02*
X157019523Y-117769094D01*
X157019523Y-117769094D02*
X156829047Y-117816713D01*
X156829047Y-117816713D02*
X156686190Y-117816713D01*
X156686190Y-117816713D02*
X156495714Y-117769094D01*
X156495714Y-117769094D02*
X156400476Y-117721475D01*
X156400476Y-117721475D02*
X156305238Y-117626237D01*
X156305238Y-117626237D02*
X156257619Y-117483380D01*
X156257619Y-117483380D02*
X156257619Y-117388142D01*
X156257619Y-117388142D02*
X156305238Y-117245285D01*
X156305238Y-117245285D02*
X156352857Y-117197666D01*
X156257619Y-116340523D02*
X156257619Y-116530999D01*
X156257619Y-116530999D02*
X156305238Y-116626237D01*
X156305238Y-116626237D02*
X156352857Y-116673856D01*
X156352857Y-116673856D02*
X156495714Y-116769094D01*
X156495714Y-116769094D02*
X156686190Y-116816713D01*
X156686190Y-116816713D02*
X157067142Y-116816713D01*
X157067142Y-116816713D02*
X157162380Y-116769094D01*
X157162380Y-116769094D02*
X157210000Y-116721475D01*
X157210000Y-116721475D02*
X157257619Y-116626237D01*
X157257619Y-116626237D02*
X157257619Y-116435761D01*
X157257619Y-116435761D02*
X157210000Y-116340523D01*
X157210000Y-116340523D02*
X157162380Y-116292904D01*
X157162380Y-116292904D02*
X157067142Y-116245285D01*
X157067142Y-116245285D02*
X156829047Y-116245285D01*
X156829047Y-116245285D02*
X156733809Y-116292904D01*
X156733809Y-116292904D02*
X156686190Y-116340523D01*
X156686190Y-116340523D02*
X156638571Y-116435761D01*
X156638571Y-116435761D02*
X156638571Y-116626237D01*
X156638571Y-116626237D02*
X156686190Y-116721475D01*
X156686190Y-116721475D02*
X156733809Y-116769094D01*
X156733809Y-116769094D02*
X156829047Y-116816713D01*
%TO.C,R33*%
X158069619Y-90685857D02*
X157593428Y-91019190D01*
X158069619Y-91257285D02*
X157069619Y-91257285D01*
X157069619Y-91257285D02*
X157069619Y-90876333D01*
X157069619Y-90876333D02*
X157117238Y-90781095D01*
X157117238Y-90781095D02*
X157164857Y-90733476D01*
X157164857Y-90733476D02*
X157260095Y-90685857D01*
X157260095Y-90685857D02*
X157402952Y-90685857D01*
X157402952Y-90685857D02*
X157498190Y-90733476D01*
X157498190Y-90733476D02*
X157545809Y-90781095D01*
X157545809Y-90781095D02*
X157593428Y-90876333D01*
X157593428Y-90876333D02*
X157593428Y-91257285D01*
X157069619Y-90352523D02*
X157069619Y-89733476D01*
X157069619Y-89733476D02*
X157450571Y-90066809D01*
X157450571Y-90066809D02*
X157450571Y-89923952D01*
X157450571Y-89923952D02*
X157498190Y-89828714D01*
X157498190Y-89828714D02*
X157545809Y-89781095D01*
X157545809Y-89781095D02*
X157641047Y-89733476D01*
X157641047Y-89733476D02*
X157879142Y-89733476D01*
X157879142Y-89733476D02*
X157974380Y-89781095D01*
X157974380Y-89781095D02*
X158022000Y-89828714D01*
X158022000Y-89828714D02*
X158069619Y-89923952D01*
X158069619Y-89923952D02*
X158069619Y-90209666D01*
X158069619Y-90209666D02*
X158022000Y-90304904D01*
X158022000Y-90304904D02*
X157974380Y-90352523D01*
X157069619Y-89400142D02*
X157069619Y-88781095D01*
X157069619Y-88781095D02*
X157450571Y-89114428D01*
X157450571Y-89114428D02*
X157450571Y-88971571D01*
X157450571Y-88971571D02*
X157498190Y-88876333D01*
X157498190Y-88876333D02*
X157545809Y-88828714D01*
X157545809Y-88828714D02*
X157641047Y-88781095D01*
X157641047Y-88781095D02*
X157879142Y-88781095D01*
X157879142Y-88781095D02*
X157974380Y-88828714D01*
X157974380Y-88828714D02*
X158022000Y-88876333D01*
X158022000Y-88876333D02*
X158069619Y-88971571D01*
X158069619Y-88971571D02*
X158069619Y-89257285D01*
X158069619Y-89257285D02*
X158022000Y-89352523D01*
X158022000Y-89352523D02*
X157974380Y-89400142D01*
%TO.C,R11*%
X114340619Y-93380857D02*
X113864428Y-93714190D01*
X114340619Y-93952285D02*
X113340619Y-93952285D01*
X113340619Y-93952285D02*
X113340619Y-93571333D01*
X113340619Y-93571333D02*
X113388238Y-93476095D01*
X113388238Y-93476095D02*
X113435857Y-93428476D01*
X113435857Y-93428476D02*
X113531095Y-93380857D01*
X113531095Y-93380857D02*
X113673952Y-93380857D01*
X113673952Y-93380857D02*
X113769190Y-93428476D01*
X113769190Y-93428476D02*
X113816809Y-93476095D01*
X113816809Y-93476095D02*
X113864428Y-93571333D01*
X113864428Y-93571333D02*
X113864428Y-93952285D01*
X114340619Y-92428476D02*
X114340619Y-92999904D01*
X114340619Y-92714190D02*
X113340619Y-92714190D01*
X113340619Y-92714190D02*
X113483476Y-92809428D01*
X113483476Y-92809428D02*
X113578714Y-92904666D01*
X113578714Y-92904666D02*
X113626333Y-92999904D01*
X114340619Y-91476095D02*
X114340619Y-92047523D01*
X114340619Y-91761809D02*
X113340619Y-91761809D01*
X113340619Y-91761809D02*
X113483476Y-91857047D01*
X113483476Y-91857047D02*
X113578714Y-91952285D01*
X113578714Y-91952285D02*
X113626333Y-92047523D01*
%TO.C,R9*%
X117388619Y-93412666D02*
X116912428Y-93745999D01*
X117388619Y-93984094D02*
X116388619Y-93984094D01*
X116388619Y-93984094D02*
X116388619Y-93603142D01*
X116388619Y-93603142D02*
X116436238Y-93507904D01*
X116436238Y-93507904D02*
X116483857Y-93460285D01*
X116483857Y-93460285D02*
X116579095Y-93412666D01*
X116579095Y-93412666D02*
X116721952Y-93412666D01*
X116721952Y-93412666D02*
X116817190Y-93460285D01*
X116817190Y-93460285D02*
X116864809Y-93507904D01*
X116864809Y-93507904D02*
X116912428Y-93603142D01*
X116912428Y-93603142D02*
X116912428Y-93984094D01*
X117388619Y-92936475D02*
X117388619Y-92745999D01*
X117388619Y-92745999D02*
X117341000Y-92650761D01*
X117341000Y-92650761D02*
X117293380Y-92603142D01*
X117293380Y-92603142D02*
X117150523Y-92507904D01*
X117150523Y-92507904D02*
X116960047Y-92460285D01*
X116960047Y-92460285D02*
X116579095Y-92460285D01*
X116579095Y-92460285D02*
X116483857Y-92507904D01*
X116483857Y-92507904D02*
X116436238Y-92555523D01*
X116436238Y-92555523D02*
X116388619Y-92650761D01*
X116388619Y-92650761D02*
X116388619Y-92841237D01*
X116388619Y-92841237D02*
X116436238Y-92936475D01*
X116436238Y-92936475D02*
X116483857Y-92984094D01*
X116483857Y-92984094D02*
X116579095Y-93031713D01*
X116579095Y-93031713D02*
X116817190Y-93031713D01*
X116817190Y-93031713D02*
X116912428Y-92984094D01*
X116912428Y-92984094D02*
X116960047Y-92936475D01*
X116960047Y-92936475D02*
X117007666Y-92841237D01*
X117007666Y-92841237D02*
X117007666Y-92650761D01*
X117007666Y-92650761D02*
X116960047Y-92555523D01*
X116960047Y-92555523D02*
X116912428Y-92507904D01*
X116912428Y-92507904D02*
X116817190Y-92460285D01*
D14*
%TO.C,Q1*%
X179610000Y-101662000D02*
X181285000Y-101662000D01*
X179610000Y-101662000D02*
X178960000Y-101662000D01*
X179610000Y-98542000D02*
X180260000Y-98542000D01*
X179610000Y-98542000D02*
X178960000Y-98542000D01*
%TO.C,J4*%
X105095000Y-101072000D02*
X105095000Y-104682000D01*
X105095000Y-106382000D02*
X105095000Y-111082000D01*
X105095000Y-112382000D02*
X105095000Y-114182000D01*
X105545000Y-101072000D02*
X105095000Y-101072000D01*
X106125000Y-117342000D02*
X105925000Y-117142000D01*
X106125000Y-117342000D02*
X107985000Y-117342000D01*
X107985000Y-117342000D02*
X108195000Y-117142000D01*
X108195000Y-116992000D02*
X108195000Y-117142000D01*
X108195000Y-116992000D02*
X114565000Y-116992000D01*
X115075000Y-117342000D02*
X114565000Y-116992000D01*
X117145000Y-101072000D02*
X119065000Y-101072000D01*
X117385000Y-117342000D02*
X115075000Y-117342000D01*
X117385000Y-117342000D02*
X117585000Y-117142000D01*
X117585000Y-117142000D02*
X117845000Y-117142000D01*
X119065000Y-101072000D02*
X119065000Y-115082000D01*
%TO.C,U4*%
X187345500Y-107372000D02*
X187345500Y-103922000D01*
X187345500Y-107372000D02*
X187345500Y-109322000D01*
X177225500Y-107372000D02*
X177225500Y-105422000D01*
X177225500Y-107372000D02*
X177225500Y-109322000D01*
D13*
%TO.C,U8*%
X146163000Y-98070000D02*
X125363000Y-98070000D01*
X125363000Y-98070000D02*
X125363000Y-82270000D01*
X125363000Y-82270000D02*
X146163000Y-82270000D01*
X146163000Y-82270000D02*
X146163000Y-98070000D01*
D14*
%TO.C,C5*%
X154282000Y-117292252D02*
X154282000Y-116769748D01*
X155752000Y-117292252D02*
X155752000Y-116769748D01*
%TO.C,SW2*%
X159057000Y-107545000D02*
X159057000Y-109625000D01*
X157787000Y-111305000D02*
X158277000Y-110815000D01*
X157787000Y-111305000D02*
X154887000Y-111305000D01*
X157787000Y-105865000D02*
X158277000Y-106355000D01*
X157787000Y-105865000D02*
X154887000Y-105865000D01*
X154887000Y-111305000D02*
X154397000Y-110815000D01*
X154887000Y-105865000D02*
X154397000Y-106355000D01*
X153617000Y-107545000D02*
X153617000Y-109625000D01*
%TO.C,C17*%
X152398000Y-90183580D02*
X152398000Y-89902420D01*
X153418000Y-90183580D02*
X153418000Y-89902420D01*
%TO.C,R12*%
X103900500Y-101362742D02*
X103900500Y-101837258D01*
X102855500Y-101362742D02*
X102855500Y-101837258D01*
D12*
%TO.C,U3*%
X137913000Y-92320000D02*
X137388000Y-92320000D01*
X137913000Y-88020000D02*
X137913000Y-88545000D01*
X137913000Y-88020000D02*
X137388000Y-88020000D01*
X133613000Y-92320000D02*
X134138000Y-92320000D01*
X133613000Y-92320000D02*
X133613000Y-91795000D01*
X133613000Y-88020000D02*
X134138000Y-88020000D01*
X133613000Y-88020000D02*
X133613000Y-88545000D01*
D14*
%TO.C,J5*%
X112694000Y-85335000D02*
X112694000Y-84005000D01*
X114024000Y-85335000D02*
X112694000Y-85335000D01*
X115294000Y-85335000D02*
X120434000Y-85335000D01*
X115294000Y-85335000D02*
X115294000Y-82675000D01*
X120434000Y-85335000D02*
X120434000Y-82675000D01*
X115294000Y-82675000D02*
X120434000Y-82675000D01*
%TO.C,R4*%
X154494500Y-113458258D02*
X154494500Y-112983742D01*
X155539500Y-113458258D02*
X155539500Y-112983742D01*
%TO.C,J1*%
X161516000Y-95160000D02*
X162846000Y-95160000D01*
X161516000Y-96490000D02*
X161516000Y-95160000D01*
X161516000Y-97760000D02*
X161516000Y-113060000D01*
X161516000Y-97760000D02*
X164176000Y-97760000D01*
X161516000Y-113060000D02*
X164176000Y-113060000D01*
X164176000Y-97760000D02*
X164176000Y-113060000D01*
%TO.C,U2*%
X149736000Y-125309000D02*
X149736000Y-118894000D01*
X149736000Y-125309000D02*
X131496000Y-125309000D01*
X149736000Y-118894000D02*
X150116000Y-118894000D01*
X149736000Y-100349000D02*
X149736000Y-99569000D01*
X149736000Y-99569000D02*
X148736000Y-99569000D01*
X131496000Y-125309000D02*
X131496000Y-118894000D01*
X131496000Y-100349000D02*
X131496000Y-99569000D01*
X131496000Y-99569000D02*
X132496000Y-99569000D01*
%TO.C,J7*%
X112709000Y-80160000D02*
X112709000Y-78830000D01*
X114039000Y-80160000D02*
X112709000Y-80160000D01*
X115309000Y-80160000D02*
X120449000Y-80160000D01*
X115309000Y-80160000D02*
X115309000Y-77500000D01*
X120449000Y-80160000D02*
X120449000Y-77500000D01*
X115309000Y-77500000D02*
X120449000Y-77500000D01*
%TO.C,R14*%
X106780500Y-95690742D02*
X106780500Y-96165258D01*
X105735500Y-95690742D02*
X105735500Y-96165258D01*
%TO.C,C14*%
X186236080Y-99256000D02*
X185954920Y-99256000D01*
X186236080Y-98236000D02*
X185954920Y-98236000D01*
%TO.C,C3*%
X152221000Y-113361580D02*
X152221000Y-113080420D01*
X153241000Y-113361580D02*
X153241000Y-113080420D01*
%TO.C,J6*%
X167493500Y-95125000D02*
X168823500Y-95125000D01*
X167493500Y-96455000D02*
X167493500Y-95125000D01*
X167493500Y-97725000D02*
X167493500Y-113025000D01*
X167493500Y-97725000D02*
X170153500Y-97725000D01*
X167493500Y-113025000D02*
X170153500Y-113025000D01*
X170153500Y-97725000D02*
X170153500Y-113025000D01*
%TO.C,C11*%
X102868000Y-104915580D02*
X102868000Y-104634420D01*
X103888000Y-104915580D02*
X103888000Y-104634420D01*
%TO.C,R16*%
X169094242Y-89841500D02*
X169568758Y-89841500D01*
X169094242Y-90886500D02*
X169568758Y-90886500D01*
%TO.C,C7*%
X110857000Y-96189252D02*
X110857000Y-95666748D01*
X112327000Y-96189252D02*
X112327000Y-95666748D01*
%TO.C,C9*%
X137781420Y-84580000D02*
X138062580Y-84580000D01*
X137781420Y-85600000D02*
X138062580Y-85600000D01*
%TO.C,C12*%
X133844420Y-84580000D02*
X134125580Y-84580000D01*
X133844420Y-85600000D02*
X134125580Y-85600000D01*
%TO.C,J2*%
X120654000Y-112058000D02*
X120654000Y-110998000D01*
X121714000Y-112058000D02*
X120654000Y-112058000D01*
X122714000Y-112058000D02*
X128774000Y-112058000D01*
X122714000Y-112058000D02*
X122714000Y-109938000D01*
X128774000Y-112058000D02*
X128774000Y-109938000D01*
X122714000Y-109938000D02*
X128774000Y-109938000D01*
%TO.C,C15*%
X186236080Y-112962000D02*
X185954920Y-112962000D01*
X186236080Y-111942000D02*
X185954920Y-111942000D01*
%TO.C,U5*%
X187345500Y-93666000D02*
X187345500Y-90216000D01*
X187345500Y-93666000D02*
X187345500Y-95616000D01*
X177225500Y-93666000D02*
X177225500Y-91716000D01*
X177225500Y-93666000D02*
X177225500Y-95616000D01*
%TO.C,Y1*%
X159900000Y-85000000D02*
X159900000Y-93400000D01*
X159900000Y-93400000D02*
X163300000Y-93400000D01*
X160650000Y-83850000D02*
X160650000Y-83400000D01*
X161055000Y-85000000D02*
X160650000Y-83850000D01*
X162145000Y-85000000D02*
X162550000Y-83850000D01*
X162550000Y-83850000D02*
X162550000Y-83400000D01*
X163300000Y-85000000D02*
X159900000Y-85000000D01*
X163300000Y-93400000D02*
X163300000Y-85000000D01*
%TO.C,C8*%
X110324000Y-95787420D02*
X110324000Y-96068580D01*
X109304000Y-95787420D02*
X109304000Y-96068580D01*
%TO.C,R10*%
X115924500Y-95690742D02*
X115924500Y-96165258D01*
X114879500Y-95690742D02*
X114879500Y-96165258D01*
%TO.C,R13*%
X108304500Y-95690742D02*
X108304500Y-96165258D01*
X107259500Y-95690742D02*
X107259500Y-96165258D01*
%TO.C,C13*%
X130161420Y-93093000D02*
X130442580Y-93093000D01*
X130161420Y-92073000D02*
X130442580Y-92073000D01*
%TO.C,SW3*%
X153850000Y-94254000D02*
X153850000Y-96334000D01*
X152580000Y-98014000D02*
X153070000Y-97524000D01*
X152580000Y-98014000D02*
X149680000Y-98014000D01*
X152580000Y-92574000D02*
X153070000Y-93064000D01*
X152580000Y-92574000D02*
X149680000Y-92574000D01*
X149680000Y-98014000D02*
X149190000Y-97524000D01*
X149680000Y-92574000D02*
X149190000Y-93064000D01*
X148410000Y-94254000D02*
X148410000Y-96334000D01*
%TO.C,U9*%
X146665000Y-86741000D02*
X146665000Y-88691000D01*
X146665000Y-86741000D02*
X146665000Y-84791000D01*
X151785000Y-86741000D02*
X151785000Y-88691000D01*
X151785000Y-86741000D02*
X151785000Y-83291000D01*
%TO.C,C10*%
X130509000Y-89822580D02*
X130509000Y-89541420D01*
X131529000Y-89822580D02*
X131529000Y-89541420D01*
%TO.C,C6*%
X153241000Y-116890420D02*
X153241000Y-117171580D01*
X152221000Y-116890420D02*
X152221000Y-117171580D01*
%TO.C,SW1*%
X121015500Y-90561500D02*
X123095500Y-90561500D01*
X124775500Y-91831500D02*
X124285500Y-91341500D01*
X124775500Y-91831500D02*
X124775500Y-94731500D01*
X119335500Y-91831500D02*
X119825500Y-91341500D01*
X119335500Y-91831500D02*
X119335500Y-94731500D01*
X124775500Y-94731500D02*
X124285500Y-95221500D01*
X119335500Y-94731500D02*
X119825500Y-95221500D01*
X121015500Y-96001500D02*
X123095500Y-96001500D01*
%TO.C,R33*%
X155208500Y-90280258D02*
X155208500Y-89805742D01*
X154163500Y-90280258D02*
X154163500Y-89805742D01*
%TO.C,R11*%
X114400500Y-95690742D02*
X114400500Y-96165258D01*
X113355500Y-95690742D02*
X113355500Y-96165258D01*
%TO.C,R9*%
X117448500Y-95690742D02*
X117448500Y-96165258D01*
X116403500Y-95690742D02*
X116403500Y-96165258D01*
%TD*%
M02*
