%TF.GenerationSoftware,KiCad,Pcbnew,7.0.1*%
%TF.CreationDate,2023-04-28T21:22:04+03:00*%
%TF.ProjectId,leanometer_esp32,6c65616e-6f6d-4657-9465-725f65737033,R1*%
%TF.SameCoordinates,Original*%
%TF.FileFunction,Soldermask,Bot*%
%TF.FilePolarity,Negative*%
%FSLAX46Y46*%
G04 Gerber Fmt 4.6, Leading zero omitted, Abs format (unit mm)*
G04 Created by KiCad (PCBNEW 7.0.1) date 2023-04-28 21:22:04*
%MOMM*%
%LPD*%
G01*
G04 APERTURE LIST*
G04 Aperture macros list*
%AMRoundRect*
0 Rectangle with rounded corners*
0 $1 Rounding radius*
0 $2 $3 $4 $5 $6 $7 $8 $9 X,Y pos of 4 corners*
0 Add a 4 corners polygon primitive as box body*
4,1,4,$2,$3,$4,$5,$6,$7,$8,$9,$2,$3,0*
0 Add four circle primitives for the rounded corners*
1,1,$1+$1,$2,$3*
1,1,$1+$1,$4,$5*
1,1,$1+$1,$6,$7*
1,1,$1+$1,$8,$9*
0 Add four rect primitives between the rounded corners*
20,1,$1+$1,$2,$3,$4,$5,0*
20,1,$1+$1,$4,$5,$6,$7,0*
20,1,$1+$1,$6,$7,$8,$9,0*
20,1,$1+$1,$8,$9,$2,$3,0*%
G04 Aperture macros list end*
%ADD10C,1.524000*%
%ADD11R,1.700000X1.700000*%
%ADD12O,1.700000X1.700000*%
%ADD13C,3.800000*%
%ADD14R,1.350000X1.350000*%
%ADD15O,1.350000X1.350000*%
%ADD16C,1.000000*%
%ADD17RoundRect,0.200000X-0.200000X-0.275000X0.200000X-0.275000X0.200000X0.275000X-0.200000X0.275000X0*%
%ADD18RoundRect,0.200000X-0.275000X0.200000X-0.275000X-0.200000X0.275000X-0.200000X0.275000X0.200000X0*%
%ADD19RoundRect,0.250000X-0.262500X-0.450000X0.262500X-0.450000X0.262500X0.450000X-0.262500X0.450000X0*%
%ADD20R,3.500000X3.300000*%
%ADD21C,10.200000*%
%ADD22R,2.000000X1.500000*%
%ADD23R,2.000000X3.800000*%
%ADD24RoundRect,0.225000X0.250000X-0.225000X0.250000X0.225000X-0.250000X0.225000X-0.250000X-0.225000X0*%
%ADD25RoundRect,0.250000X0.262500X0.450000X-0.262500X0.450000X-0.262500X-0.450000X0.262500X-0.450000X0*%
%ADD26RoundRect,0.250000X-1.000000X1.400000X-1.000000X-1.400000X1.000000X-1.400000X1.000000X1.400000X0*%
%ADD27RoundRect,0.250000X-0.250000X-0.475000X0.250000X-0.475000X0.250000X0.475000X-0.250000X0.475000X0*%
%ADD28R,1.600000X1.600000*%
%ADD29C,1.600000*%
%ADD30C,1.500000*%
%ADD31RoundRect,0.200000X0.275000X-0.200000X0.275000X0.200000X-0.275000X0.200000X-0.275000X-0.200000X0*%
%ADD32RoundRect,0.200000X0.200000X0.275000X-0.200000X0.275000X-0.200000X-0.275000X0.200000X-0.275000X0*%
%ADD33RoundRect,0.250000X0.625000X-0.350000X0.625000X0.350000X-0.625000X0.350000X-0.625000X-0.350000X0*%
%ADD34O,1.750000X1.200000*%
G04 APERTURE END LIST*
D10*
%TO.C,U8*%
X126873000Y-96520000D03*
X129413000Y-96520000D03*
X131953000Y-96520000D03*
X134493000Y-96520000D03*
X144653000Y-96520000D03*
%TD*%
D11*
%TO.C,J5*%
X114024000Y-84005000D03*
D12*
X116564000Y-84005000D03*
X119104000Y-84005000D03*
%TD*%
D11*
%TO.C,J1*%
X162846000Y-96490000D03*
D12*
X162846000Y-99030000D03*
X162846000Y-101570000D03*
X162846000Y-104110000D03*
X162846000Y-106650000D03*
X162846000Y-109190000D03*
X162846000Y-111730000D03*
%TD*%
D11*
%TO.C,J7*%
X114039000Y-78830000D03*
D12*
X116579000Y-78830000D03*
X119119000Y-78830000D03*
%TD*%
D13*
%TO.C,H1*%
X104394000Y-87757000D03*
%TD*%
D11*
%TO.C,J6*%
X168823500Y-96455000D03*
D12*
X168823500Y-98995000D03*
X168823500Y-101535000D03*
X168823500Y-104075000D03*
X168823500Y-106615000D03*
X168823500Y-109155000D03*
X168823500Y-111695000D03*
%TD*%
D14*
%TO.C,J2*%
X121714000Y-110998000D03*
D15*
X123714000Y-110998000D03*
X125714000Y-110998000D03*
X127714000Y-110998000D03*
%TD*%
D16*
%TO.C,Y1*%
X160650000Y-82700000D03*
X162550000Y-82700000D03*
%TD*%
D13*
%TO.C,H2*%
X160020000Y-116205000D03*
%TD*%
D17*
%TO.C,R7*%
X128588000Y-94615000D03*
X130238000Y-94615000D03*
%TD*%
D18*
%TO.C,R5*%
X156337000Y-108522000D03*
X156337000Y-110172000D03*
%TD*%
D19*
%TO.C,R22*%
X185437000Y-109912000D03*
X187262000Y-109912000D03*
%TD*%
D20*
%TO.C,BT1*%
X144600000Y-87605000D03*
X160400000Y-87605000D03*
D21*
X152500000Y-87605000D03*
%TD*%
D17*
%TO.C,R3*%
X122100500Y-93281500D03*
X123750500Y-93281500D03*
%TD*%
D22*
%TO.C,U1*%
X113289000Y-74130000D03*
X113289000Y-71830000D03*
D23*
X119589000Y-71830000D03*
D22*
X113289000Y-69530000D03*
%TD*%
D24*
%TO.C,C1*%
X146812000Y-108852000D03*
X146812000Y-107302000D03*
%TD*%
D25*
%TO.C,R19*%
X179134000Y-104832000D03*
X177309000Y-104832000D03*
%TD*%
D19*
%TO.C,R26*%
X185437000Y-88586000D03*
X187262000Y-88586000D03*
%TD*%
D26*
%TO.C,D1*%
X103183800Y-65480000D03*
X109983800Y-65480000D03*
%TD*%
D19*
%TO.C,R31*%
X185437000Y-98746000D03*
X187262000Y-98746000D03*
%TD*%
D17*
%TO.C,R8*%
X128588000Y-92837000D03*
X130238000Y-92837000D03*
%TD*%
D27*
%TO.C,C4*%
X118029000Y-67004000D03*
X119929000Y-67004000D03*
%TD*%
D25*
%TO.C,R27*%
X179134000Y-91126000D03*
X177309000Y-91126000D03*
%TD*%
D28*
%TO.C,U6*%
X174612000Y-112462000D03*
D29*
X174612000Y-109922000D03*
X174612000Y-107382000D03*
X174612000Y-104842000D03*
X174612000Y-102302000D03*
X189852000Y-102302000D03*
X189852000Y-104842000D03*
X189852000Y-107382000D03*
X189852000Y-109922000D03*
X189852000Y-112462000D03*
%TD*%
D19*
%TO.C,R25*%
X185437000Y-91126000D03*
X187262000Y-91126000D03*
%TD*%
%TO.C,R17*%
X185437000Y-104832000D03*
X187262000Y-104832000D03*
%TD*%
D25*
%TO.C,R20*%
X179134000Y-109912000D03*
X177309000Y-109912000D03*
%TD*%
D19*
%TO.C,R30*%
X185437000Y-96206000D03*
X187262000Y-96206000D03*
%TD*%
D28*
%TO.C,U7*%
X174612000Y-98758000D03*
D29*
X174612000Y-96218000D03*
X174612000Y-93678000D03*
X174612000Y-91138000D03*
X174612000Y-88598000D03*
X189852000Y-88598000D03*
X189852000Y-91138000D03*
X189852000Y-93678000D03*
X189852000Y-96218000D03*
X189852000Y-98758000D03*
%TD*%
D25*
%TO.C,R29*%
X179109500Y-98746000D03*
X177284500Y-98746000D03*
%TD*%
D30*
%TO.C,R15*%
X169331500Y-88664000D03*
X169331500Y-92064000D03*
%TD*%
D25*
%TO.C,R32*%
X179134000Y-88586000D03*
X177309000Y-88586000D03*
%TD*%
D27*
%TO.C,C2*%
X112949000Y-67004000D03*
X114849000Y-67004000D03*
%TD*%
D17*
%TO.C,R1*%
X108400400Y-77570400D03*
X110050400Y-77570400D03*
%TD*%
D25*
%TO.C,R21*%
X179134000Y-112452000D03*
X177309000Y-112452000D03*
%TD*%
D19*
%TO.C,R18*%
X185437000Y-102292000D03*
X187262000Y-102292000D03*
%TD*%
D31*
%TO.C,R6*%
X151200000Y-98925000D03*
X151200000Y-97275000D03*
%TD*%
D19*
%TO.C,R23*%
X185437000Y-112452000D03*
X187262000Y-112452000D03*
%TD*%
D25*
%TO.C,R28*%
X179134000Y-96206000D03*
X177309000Y-96206000D03*
%TD*%
D32*
%TO.C,R2*%
X110050400Y-79094400D03*
X108400400Y-79094400D03*
%TD*%
D25*
%TO.C,R24*%
X179134000Y-102292000D03*
X177309000Y-102292000D03*
%TD*%
D33*
%TO.C,J3*%
X109541800Y-73846000D03*
D34*
X109541800Y-71846000D03*
%TD*%
D24*
%TO.C,C16*%
X152400000Y-108738000D03*
X152400000Y-107188000D03*
%TD*%
G36*
X145861000Y-105172613D02*
G01*
X145906387Y-105218000D01*
X145923000Y-105280000D01*
X145923000Y-114684000D01*
X145906387Y-114746000D01*
X145861000Y-114791387D01*
X145799000Y-114808000D01*
X138427000Y-114808000D01*
X138365000Y-114791387D01*
X138319613Y-114746000D01*
X138303000Y-114684000D01*
X138303000Y-105280000D01*
X138319613Y-105218000D01*
X138365000Y-105172613D01*
X138427000Y-105156000D01*
X145799000Y-105156000D01*
X145861000Y-105172613D01*
G37*
M02*
