%TF.GenerationSoftware,KiCad,Pcbnew,7.0.1*%
%TF.CreationDate,2023-04-28T19:57:16+03:00*%
%TF.ProjectId,leanometer_esp32,6c65616e-6f6d-4657-9465-725f65737033,R1*%
%TF.SameCoordinates,Original*%
%TF.FileFunction,Soldermask,Top*%
%TF.FilePolarity,Negative*%
%FSLAX46Y46*%
G04 Gerber Fmt 4.6, Leading zero omitted, Abs format (unit mm)*
G04 Created by KiCad (PCBNEW 7.0.1) date 2023-04-28 19:57:16*
%MOMM*%
%LPD*%
G01*
G04 APERTURE LIST*
G04 Aperture macros list*
%AMRoundRect*
0 Rectangle with rounded corners*
0 $1 Rounding radius*
0 $2 $3 $4 $5 $6 $7 $8 $9 X,Y pos of 4 corners*
0 Add a 4 corners polygon primitive as box body*
4,1,4,$2,$3,$4,$5,$6,$7,$8,$9,$2,$3,0*
0 Add four circle primitives for the rounded corners*
1,1,$1+$1,$2,$3*
1,1,$1+$1,$4,$5*
1,1,$1+$1,$6,$7*
1,1,$1+$1,$8,$9*
0 Add four rect primitives between the rounded corners*
20,1,$1+$1,$2,$3,$4,$5,0*
20,1,$1+$1,$4,$5,$6,$7,0*
20,1,$1+$1,$6,$7,$8,$9,0*
20,1,$1+$1,$8,$9,$2,$3,0*%
G04 Aperture macros list end*
%ADD10RoundRect,0.150000X0.587500X0.150000X-0.587500X0.150000X-0.587500X-0.150000X0.587500X-0.150000X0*%
%ADD11R,0.700000X1.200000*%
%ADD12R,1.000000X0.800000*%
%ADD13R,1.000000X1.200000*%
%ADD14R,1.000000X2.800000*%
%ADD15R,1.300000X1.900000*%
%ADD16RoundRect,0.150000X-0.150000X0.825000X-0.150000X-0.825000X0.150000X-0.825000X0.150000X0.825000X0*%
%ADD17C,1.524000*%
%ADD18RoundRect,0.250000X0.475000X-0.250000X0.475000X0.250000X-0.475000X0.250000X-0.475000X-0.250000X0*%
%ADD19R,1.800000X1.100000*%
%ADD20RoundRect,0.225000X0.250000X-0.225000X0.250000X0.225000X-0.250000X0.225000X-0.250000X-0.225000X0*%
%ADD21RoundRect,0.200000X-0.275000X0.200000X-0.275000X-0.200000X0.275000X-0.200000X0.275000X0.200000X0*%
%ADD22RoundRect,0.075000X0.350000X0.075000X-0.350000X0.075000X-0.350000X-0.075000X0.350000X-0.075000X0*%
%ADD23RoundRect,0.075000X-0.075000X0.350000X-0.075000X-0.350000X0.075000X-0.350000X0.075000X0.350000X0*%
%ADD24R,1.700000X1.700000*%
%ADD25O,1.700000X1.700000*%
%ADD26RoundRect,0.200000X0.275000X-0.200000X0.275000X0.200000X-0.275000X0.200000X-0.275000X-0.200000X0*%
%ADD27R,1.500000X0.900000*%
%ADD28R,0.900000X1.500000*%
%ADD29C,0.600000*%
%ADD30C,3.200000*%
%ADD31R,3.800000X3.800000*%
%ADD32C,3.800000*%
%ADD33RoundRect,0.225000X0.225000X0.250000X-0.225000X0.250000X-0.225000X-0.250000X0.225000X-0.250000X0*%
%ADD34RoundRect,0.200000X-0.200000X-0.275000X0.200000X-0.275000X0.200000X0.275000X-0.200000X0.275000X0*%
%ADD35RoundRect,0.225000X-0.225000X-0.250000X0.225000X-0.250000X0.225000X0.250000X-0.225000X0.250000X0*%
%ADD36R,1.350000X1.350000*%
%ADD37O,1.350000X1.350000*%
%ADD38C,1.000000*%
%ADD39RoundRect,0.225000X-0.250000X0.225000X-0.250000X-0.225000X0.250000X-0.225000X0.250000X0.225000X0*%
%ADD40R,1.100000X1.800000*%
%ADD41R,1.600000X1.600000*%
%ADD42C,1.600000*%
%ADD43C,1.500000*%
%ADD44RoundRect,0.250000X0.625000X-0.350000X0.625000X0.350000X-0.625000X0.350000X-0.625000X-0.350000X0*%
%ADD45O,1.750000X1.200000*%
G04 APERTURE END LIST*
D10*
%TO.C,Q1*%
X180547500Y-101052000D03*
X180547500Y-99152000D03*
X178672500Y-100102000D03*
%TD*%
D11*
%TO.C,J4*%
X114845000Y-101232000D03*
X113745000Y-101232000D03*
X112645000Y-101232000D03*
X111545000Y-101232000D03*
X110445000Y-101232000D03*
X109345000Y-101232000D03*
X108245000Y-101232000D03*
X107145000Y-101232000D03*
X106195000Y-101232000D03*
D12*
X105245000Y-111732000D03*
D13*
X105245000Y-105532000D03*
D14*
X105245000Y-115882000D03*
D13*
X116395000Y-101232000D03*
D15*
X118745000Y-116332000D03*
%TD*%
D16*
%TO.C,U4*%
X186730500Y-104897000D03*
X185460500Y-104897000D03*
X184190500Y-104897000D03*
X182920500Y-104897000D03*
X181650500Y-104897000D03*
X180380500Y-104897000D03*
X179110500Y-104897000D03*
X177840500Y-104897000D03*
X177840500Y-109847000D03*
X179110500Y-109847000D03*
X180380500Y-109847000D03*
X181650500Y-109847000D03*
X182920500Y-109847000D03*
X184190500Y-109847000D03*
X185460500Y-109847000D03*
X186730500Y-109847000D03*
%TD*%
D17*
%TO.C,U8*%
X126873000Y-96520000D03*
X129413000Y-96520000D03*
X131953000Y-96520000D03*
X134493000Y-96520000D03*
X144653000Y-96520000D03*
%TD*%
D18*
%TO.C,C5*%
X155017000Y-117981000D03*
X155017000Y-116081000D03*
%TD*%
D19*
%TO.C,SW2*%
X159437000Y-110435000D03*
X153237000Y-110435000D03*
X159437000Y-106735000D03*
X153237000Y-106735000D03*
%TD*%
D20*
%TO.C,C17*%
X152908000Y-90818000D03*
X152908000Y-89268000D03*
%TD*%
D21*
%TO.C,R12*%
X103378000Y-100775000D03*
X103378000Y-102425000D03*
%TD*%
D22*
%TO.C,U3*%
X137713000Y-91420000D03*
X137713000Y-90920000D03*
X137713000Y-90420000D03*
X137713000Y-89920000D03*
X137713000Y-89420000D03*
X137713000Y-88920000D03*
D23*
X137013000Y-88220000D03*
X136513000Y-88220000D03*
X136013000Y-88220000D03*
X135513000Y-88220000D03*
X135013000Y-88220000D03*
X134513000Y-88220000D03*
D22*
X133813000Y-88920000D03*
X133813000Y-89420000D03*
X133813000Y-89920000D03*
X133813000Y-90420000D03*
X133813000Y-90920000D03*
X133813000Y-91420000D03*
D23*
X134513000Y-92120000D03*
X135013000Y-92120000D03*
X135513000Y-92120000D03*
X136013000Y-92120000D03*
X136513000Y-92120000D03*
X137013000Y-92120000D03*
%TD*%
D24*
%TO.C,J5*%
X114024000Y-84005000D03*
D25*
X116564000Y-84005000D03*
X119104000Y-84005000D03*
%TD*%
D26*
%TO.C,R4*%
X155017000Y-114046000D03*
X155017000Y-112396000D03*
%TD*%
D24*
%TO.C,J1*%
X162846000Y-96490000D03*
D25*
X162846000Y-99030000D03*
X162846000Y-101570000D03*
X162846000Y-104110000D03*
X162846000Y-106650000D03*
X162846000Y-109190000D03*
X162846000Y-111730000D03*
%TD*%
D27*
%TO.C,U2*%
X149366000Y-117699000D03*
X149366000Y-116429000D03*
X149366000Y-115159000D03*
X149366000Y-113889000D03*
X149366000Y-112619000D03*
X149366000Y-111349000D03*
X149366000Y-110079000D03*
X149366000Y-108809000D03*
X149366000Y-107539000D03*
X149366000Y-106269000D03*
X149366000Y-104999000D03*
X149366000Y-103729000D03*
X149366000Y-102459000D03*
X149366000Y-101189000D03*
D28*
X146326000Y-99939000D03*
X145056000Y-99939000D03*
X143786000Y-99939000D03*
X142516000Y-99939000D03*
X141246000Y-99939000D03*
X139976000Y-99939000D03*
X138706000Y-99939000D03*
X137436000Y-99939000D03*
X136166000Y-99939000D03*
X134896000Y-99939000D03*
D27*
X131866000Y-101189000D03*
X131866000Y-102459000D03*
X131866000Y-103729000D03*
X131866000Y-104999000D03*
X131866000Y-106269000D03*
X131866000Y-107539000D03*
X131866000Y-108809000D03*
X131866000Y-110079000D03*
X131866000Y-111349000D03*
X131866000Y-112619000D03*
X131866000Y-113889000D03*
X131866000Y-115159000D03*
X131866000Y-116429000D03*
X131866000Y-117699000D03*
D29*
X144172000Y-110679000D03*
X144172000Y-109279000D03*
X142816000Y-111989000D03*
X142816000Y-107925000D03*
D30*
X142141000Y-109979000D03*
D31*
X142116000Y-109979000D03*
D29*
X141416000Y-111989000D03*
X141416000Y-107925000D03*
X140108000Y-110679000D03*
X140108000Y-109279000D03*
%TD*%
D24*
%TO.C,J7*%
X114039000Y-78830000D03*
D25*
X116579000Y-78830000D03*
X119119000Y-78830000D03*
%TD*%
D32*
%TO.C,H1*%
X104394000Y-87757000D03*
%TD*%
D21*
%TO.C,R14*%
X106258000Y-95103000D03*
X106258000Y-96753000D03*
%TD*%
D33*
%TO.C,C14*%
X186870500Y-98746000D03*
X185320500Y-98746000D03*
%TD*%
D20*
%TO.C,C3*%
X152731000Y-113996000D03*
X152731000Y-112446000D03*
%TD*%
D24*
%TO.C,J6*%
X168823500Y-96455000D03*
D25*
X168823500Y-98995000D03*
X168823500Y-101535000D03*
X168823500Y-104075000D03*
X168823500Y-106615000D03*
X168823500Y-109155000D03*
X168823500Y-111695000D03*
%TD*%
D20*
%TO.C,C11*%
X103378000Y-105550000D03*
X103378000Y-104000000D03*
%TD*%
D34*
%TO.C,R16*%
X168506500Y-90364000D03*
X170156500Y-90364000D03*
%TD*%
D18*
%TO.C,C7*%
X111592000Y-96878000D03*
X111592000Y-94978000D03*
%TD*%
D35*
%TO.C,C9*%
X137147000Y-85090000D03*
X138697000Y-85090000D03*
%TD*%
%TO.C,C12*%
X133210000Y-85090000D03*
X134760000Y-85090000D03*
%TD*%
D36*
%TO.C,J2*%
X121714000Y-110998000D03*
D37*
X123714000Y-110998000D03*
X125714000Y-110998000D03*
X127714000Y-110998000D03*
%TD*%
D33*
%TO.C,C15*%
X186870500Y-112452000D03*
X185320500Y-112452000D03*
%TD*%
D16*
%TO.C,U5*%
X186730500Y-91191000D03*
X185460500Y-91191000D03*
X184190500Y-91191000D03*
X182920500Y-91191000D03*
X181650500Y-91191000D03*
X180380500Y-91191000D03*
X179110500Y-91191000D03*
X177840500Y-91191000D03*
X177840500Y-96141000D03*
X179110500Y-96141000D03*
X180380500Y-96141000D03*
X181650500Y-96141000D03*
X182920500Y-96141000D03*
X184190500Y-96141000D03*
X185460500Y-96141000D03*
X186730500Y-96141000D03*
%TD*%
D38*
%TO.C,Y1*%
X160650000Y-82700000D03*
X162550000Y-82700000D03*
%TD*%
D39*
%TO.C,C8*%
X109814000Y-95153000D03*
X109814000Y-96703000D03*
%TD*%
D21*
%TO.C,R10*%
X115402000Y-95103000D03*
X115402000Y-96753000D03*
%TD*%
%TO.C,R13*%
X107782000Y-95103000D03*
X107782000Y-96753000D03*
%TD*%
D35*
%TO.C,C13*%
X131077000Y-92583000D03*
X129527000Y-92583000D03*
%TD*%
D19*
%TO.C,SW3*%
X154230000Y-97144000D03*
X148030000Y-97144000D03*
X154230000Y-93444000D03*
X148030000Y-93444000D03*
%TD*%
D16*
%TO.C,U9*%
X151130000Y-89216000D03*
X149860000Y-89216000D03*
X148590000Y-89216000D03*
X147320000Y-89216000D03*
X147320000Y-84266000D03*
X148590000Y-84266000D03*
X149860000Y-84266000D03*
X151130000Y-84266000D03*
%TD*%
D20*
%TO.C,C10*%
X131019000Y-90457000D03*
X131019000Y-88907000D03*
%TD*%
D39*
%TO.C,C6*%
X152731000Y-116256000D03*
X152731000Y-117806000D03*
%TD*%
D40*
%TO.C,SW1*%
X123905500Y-90181500D03*
X123905500Y-96381500D03*
X120205500Y-90181500D03*
X120205500Y-96381500D03*
%TD*%
D26*
%TO.C,R33*%
X154686000Y-89218000D03*
X154686000Y-90868000D03*
%TD*%
D32*
%TO.C,H2*%
X160020000Y-116205000D03*
%TD*%
D21*
%TO.C,R11*%
X113878000Y-95103000D03*
X113878000Y-96753000D03*
%TD*%
%TO.C,R9*%
X116926000Y-95103000D03*
X116926000Y-96753000D03*
%TD*%
D41*
%TO.C,U6*%
X174612000Y-112462000D03*
D42*
X174612000Y-109922000D03*
X174612000Y-107382000D03*
X174612000Y-104842000D03*
X174612000Y-102302000D03*
X189852000Y-102302000D03*
X189852000Y-104842000D03*
X189852000Y-107382000D03*
X189852000Y-109922000D03*
X189852000Y-112462000D03*
%TD*%
D41*
%TO.C,U7*%
X174612000Y-98758000D03*
D42*
X174612000Y-96218000D03*
X174612000Y-93678000D03*
X174612000Y-91138000D03*
X174612000Y-88598000D03*
X189852000Y-88598000D03*
X189852000Y-91138000D03*
X189852000Y-93678000D03*
X189852000Y-96218000D03*
X189852000Y-98758000D03*
%TD*%
D43*
%TO.C,R15*%
X169331500Y-88664000D03*
X169331500Y-92064000D03*
%TD*%
D44*
%TO.C,J3*%
X109541800Y-73846000D03*
D45*
X109541800Y-71846000D03*
%TD*%
G36*
X120715000Y-68215613D02*
G01*
X120760387Y-68261000D01*
X120777000Y-68323000D01*
X120777000Y-75314000D01*
X120760387Y-75376000D01*
X120715000Y-75421387D01*
X120653000Y-75438000D01*
X112138000Y-75438000D01*
X112076000Y-75421387D01*
X112030613Y-75376000D01*
X112014000Y-75314000D01*
X112014000Y-68323000D01*
X112030613Y-68261000D01*
X112076000Y-68215613D01*
X112138000Y-68199000D01*
X120653000Y-68199000D01*
X120715000Y-68215613D01*
G37*
M02*
