M48
; DRILL file {KiCad 7.0.1} date Fri Apr 28 20:00:35 2023
; FORMAT={-:-/ absolute / inch / decimal}
; #@! TF.CreationDate,2023-04-28T20:00:35+03:00
; #@! TF.GenerationSoftware,Kicad,Pcbnew,7.0.1
; #@! TF.FileFunction,Plated,1,4,PTH
FMAT,2
INCH
; #@! TA.AperFunction,Plated,PTH,ViaDrill
T1C0.0079
; #@! TA.AperFunction,Plated,PTH,ComponentDrill
T2C0.0079
; #@! TA.AperFunction,Plated,PTH,ViaDrill
T3C0.0157
; #@! TA.AperFunction,Plated,PTH,ComponentDrill
T4C0.0197
; #@! TA.AperFunction,Plated,PTH,ComponentDrill
T5C0.0295
; #@! TA.AperFunction,Plated,PTH,ComponentDrill
T6C0.0300
; #@! TA.AperFunction,Plated,PTH,ComponentDrill
T7C0.0315
; #@! TA.AperFunction,Plated,PTH,ComponentDrill
T8C0.0394
; #@! TA.AperFunction,Plated,PTH,ComponentDrill
T9C0.0866
; #@! TA.AperFunction,Plated,PTH,ComponentDrill
T10C0.0984
%
G90
G05
T1
X4.0636Y-2.485
X4.0636Y-2.67
X4.105Y-3.915
X4.1314Y-3.9855
X4.1386Y-2.555
X4.1386Y-2.6
X4.14Y-3.745
X4.2036Y-3.05
X4.305Y-3.94
X4.3522Y-3.6946
X4.3915Y-3.89
X4.395Y-2.92
X4.435Y-4.04
X4.4586Y-2.98
X4.5236Y-2.58
X4.5236Y-2.8
X4.5236Y-2.855
X4.5286Y-2.92
X4.5686Y-2.64
X4.645Y-3.745
X4.6486Y-2.828
X4.655Y-3.995
X4.7086Y-2.725
X4.7086Y-2.93
X4.7275Y-3.7325
X4.7325Y-3.6275
X4.7386Y-2.58
X4.7386Y-2.695
X4.8775Y-3.7275
X5.1Y-3.6
X5.105Y-4.585
X5.115Y-4.515
X5.125Y-4.075
X5.1982Y-3.5008
X5.23Y-3.645
X5.23Y-3.875
X5.2409Y-4.6296
X5.2732Y-3.4308
X5.3104Y-3.4158
X5.3599Y-3.4158
X5.3982Y-3.4058
X5.4582Y-3.62
X5.7609Y-3.9946
X5.765Y-3.83
X5.825Y-4.225
X5.8309Y-4.6296
X5.9Y-3.8227
X5.95Y-4.27
X6.095Y-4.205
X6.105Y-4.3478
X6.2Y-4.2025
X6.7363Y-3.521
X6.8113Y-3.941
X6.9013Y-3.941
X6.9513Y-3.971
X6.9563Y-4.196
X6.9813Y-3.941
X7.0013Y-3.646
X7.0013Y-4.186
X7.0513Y-3.726
X7.0513Y-4.266
X7.0913Y-4.046
X7.0963Y-3.456
X7.1263Y-3.526
X7.1263Y-4.066
X7.1513Y-3.856
X7.2Y-4.2148
X7.2003Y-3.6749
X7.2213Y-4.431
X7.2263Y-3.726
X7.2263Y-3.891
X7.2263Y-4.266
X7.2264Y-3.856
X7.2264Y-4.396
X7.2463Y-3.701
X7.2463Y-4.241
X7.2513Y-3.646
X7.2513Y-4.026
X7.2513Y-4.186
X7.2613Y-3.451
X7.3013Y-3.706
X7.3013Y-4.246
X7.3513Y-3.721
X7.3513Y-4.261
T2
X5.5161Y-4.3023
X5.5161Y-4.3574
X5.5676Y-4.249
X5.5676Y-4.409
X5.6227Y-4.249
X5.6227Y-4.409
X5.6761Y-4.3023
X5.6761Y-4.3574
T3
X5.3898Y-3.8307
X5.7362Y-3.248
X5.9528Y-3.9331
X5.965Y-3.585
X6.055Y-4.57
X6.2087Y-3.7087
T4
X6.3248Y-3.2559
X6.3996Y-3.2559
T5
X4.3127Y-2.8286
X4.3127Y-2.9073
T6
X4.995Y-3.8
X5.095Y-3.8
X5.195Y-3.8
X5.295Y-3.8
X5.695Y-3.8
T7
X4.7919Y-4.37
X4.8706Y-4.37
X4.9494Y-4.37
X5.0281Y-4.37
X6.6666Y-3.4907
X6.6666Y-3.6246
X6.8745Y-3.4881
X6.8745Y-3.5881
X6.8745Y-3.6881
X6.8745Y-3.7881
X6.8745Y-3.8881
X6.8745Y-4.0276
X6.8745Y-4.1276
X6.8745Y-4.2276
X6.8745Y-4.3276
X6.8745Y-4.4276
X7.4745Y-3.4881
X7.4745Y-3.5881
X7.4745Y-3.6881
X7.4745Y-3.7881
X7.4745Y-3.8881
X7.4745Y-4.0276
X7.4745Y-4.1276
X7.4745Y-4.2276
X7.4745Y-4.3276
X7.4745Y-4.4276
T8
X4.4891Y-3.3073
X4.4897Y-3.1035
X4.5891Y-3.3073
X4.5897Y-3.1035
X4.6891Y-3.3073
X4.6897Y-3.1035
X6.4113Y-3.7988
X6.4113Y-3.8988
X6.4113Y-3.9988
X6.4113Y-4.0988
X6.4113Y-4.1988
X6.4113Y-4.2988
X6.4113Y-4.3988
X6.6466Y-3.7974
X6.6466Y-3.8974
X6.6466Y-3.9974
X6.6466Y-4.0974
X6.6466Y-4.1974
X6.6466Y-4.2974
X6.6466Y-4.3974
T9
X4.11Y-3.455
X6.3Y-4.575
T10
X5.5961Y-4.3299
T0
M30
